<svg width="215" height="212" viewBox="0 0 215 212" fill="none" xmlns="http://www.w3.org/2000/svg">
<path d="M199.862 70.5262C207.116 53.4726 208.167 37.9892 202.209 35.9429C196.25 33.8967 185.54 46.0625 178.285 63.116C171.031 80.1695 169.98 95.653 175.939 97.6992C181.897 99.7455 192.608 87.5797 199.862 70.5262Z" fill="#3F3D56"/>
<path d="M201.746 49.9061C208.786 49.9061 214.493 44.7784 214.493 38.453C214.493 32.1277 208.786 27 201.746 27C194.707 27 189 32.1277 189 38.453C189 44.7784 194.707 49.9061 201.746 49.9061Z" fill="#FE5366"/>
<path d="M121.063 182.861C161.7 182.861 194.643 153.261 194.643 116.747C194.643 80.2339 161.7 50.6338 121.063 50.6338C80.4269 50.6338 47.4844 80.2339 47.4844 116.747C47.4844 153.261 80.4269 182.861 121.063 182.861Z" fill="#3F3D56"/>
<path d="M109.888 168.634H87.5352V204.62H109.888V168.634Z" fill="#3F3D56"/>
<path d="M154.593 168.634H132.24V204.62H154.593V168.634Z" fill="#3F3D56"/>
<path d="M106.163 211.315C116.451 211.315 124.791 208.505 124.791 205.038C124.791 201.572 116.451 198.762 106.163 198.762C95.8751 198.762 87.5352 201.572 87.5352 205.038C87.5352 208.505 95.8751 211.315 106.163 211.315Z" fill="#3F3D56"/>
<path d="M150.868 210.478C161.156 210.478 169.495 207.668 169.495 204.201C169.495 200.735 161.156 197.925 150.868 197.925C140.58 197.925 132.24 200.735 132.24 204.201C132.24 207.668 140.58 210.478 150.868 210.478Z" fill="#3F3D56"/>
<path d="M122.927 122.606C136.815 122.606 148.074 112.489 148.074 100.01C148.074 87.5305 136.815 77.4141 122.927 77.4141C109.038 77.4141 97.7793 87.5305 97.7793 100.01C97.7793 112.489 109.038 122.606 122.927 122.606Z" fill="white"/>
<path d="M122.927 107.541C127.557 107.541 131.31 104.169 131.31 100.009C131.31 95.8497 127.557 92.4775 122.927 92.4775C118.298 92.4775 114.545 95.8497 114.545 100.009C114.545 104.169 118.298 107.541 122.927 107.541Z" fill="#3F3D56"/>
<path d="M49.6893 55.2636C43.7482 31.3559 62.7397 7.19818 92.1082 1.30582C121.477 -4.58655 150.101 10.0178 156.042 33.9255C161.983 57.8332 142.52 66.6508 113.151 72.5432C83.7827 78.4355 55.6305 79.1714 49.6893 55.2636Z" fill="#FE5366"/>
<path d="M71.4297 100.236C74.1631 95.057 61.4967 84.5168 43.1387 76.6933C24.7806 68.8697 7.6826 66.7254 4.94922 71.9039C2.21584 77.0823 14.8822 87.6225 33.2402 95.4461C51.5983 103.27 68.6963 105.414 71.4297 100.236Z" fill="#3F3D56"/>
<path d="M84.9219 140.598C84.9219 147.069 103.464 159.846 124.04 159.846C144.615 159.846 163.907 141.629 163.907 135.158C163.907 128.687 144.615 136.414 124.04 136.414C103.464 136.414 84.9219 134.127 84.9219 140.598Z" fill="white"/>
</svg>
