<svg width="836" height="452" viewBox="0 0 836 452" fill="none" xmlns="http://www.w3.org/2000/svg">
<rect x="6.10352e-05" y="0.613281" width="835.733" height="450.903" rx="8.92877" fill="white"/>
<g clip-path="url(#clip0)">
<path opacity="0.4" d="M45.1124 426.801C44.5589 426.801 44.0797 426.667 43.6749 426.399C43.2761 426.125 42.9695 425.747 42.7553 425.265C42.541 424.777 42.4338 424.211 42.4338 423.568C42.4338 422.925 42.541 422.363 42.7553 421.881C42.9695 421.393 43.2761 421.015 43.6749 420.747C44.0797 420.473 44.5589 420.336 45.1124 420.336C45.666 420.336 46.1422 420.473 46.5411 420.747C46.9399 421.015 47.2464 421.393 47.4607 421.881C47.675 422.363 47.7822 422.925 47.7822 423.568C47.7822 424.211 47.675 424.777 47.4607 425.265C47.2464 425.747 46.9399 426.125 46.5411 426.399C46.1422 426.667 45.666 426.801 45.1124 426.801ZM45.1124 426.14C45.4756 426.14 45.8 426.039 46.0857 425.836C46.3774 425.628 46.6036 425.333 46.7643 424.952C46.9309 424.565 47.0143 424.104 47.0143 423.568C47.0143 423.033 46.9309 422.574 46.7643 422.193C46.6036 421.812 46.3774 421.521 46.0857 421.318C45.8 421.11 45.4756 421.006 45.1124 421.006C44.7434 421.006 44.416 421.11 44.1303 421.318C43.8446 421.521 43.6184 421.812 43.4517 422.193C43.285 422.574 43.2017 423.033 43.2017 423.568C43.2017 424.104 43.285 424.565 43.4517 424.952C43.6184 425.333 43.8446 425.628 44.1303 425.836C44.416 426.039 44.7434 426.14 45.1124 426.14ZM49.4818 426.693V421.283L48.4729 421.506V420.988L49.7318 420.443H50.2408V426.693H49.4818ZM53.5123 427.542L55.7535 419.872H56.4945L54.2534 427.542H53.5123ZM60.3899 426.693V421.283L59.381 421.506V420.988L60.6399 420.443H61.1489V426.693H60.3899ZM62.37 426.693V426.167C62.7926 425.833 63.1914 425.497 63.5664 425.158C63.9474 424.812 64.2837 424.473 64.5754 424.14C64.873 423.806 65.1051 423.479 65.2718 423.158C65.4444 422.836 65.5307 422.527 65.5307 422.229C65.5307 422.009 65.492 421.803 65.4147 421.613C65.3432 421.422 65.2242 421.271 65.0575 421.158C64.8908 421.038 64.6646 420.979 64.3789 420.979C64.1051 420.979 63.8759 421.041 63.6914 421.166C63.5069 421.285 63.367 421.446 63.2718 421.649C63.1825 421.851 63.1378 422.068 63.1378 422.3H62.4146C62.4146 421.89 62.5009 421.538 62.6735 421.247C62.8462 420.949 63.0813 420.723 63.3789 420.568C63.6765 420.413 64.0128 420.336 64.3879 420.336C64.9414 420.336 65.3938 420.494 65.745 420.809C66.1022 421.119 66.2808 421.583 66.2808 422.202C66.2808 422.571 66.1885 422.937 66.004 423.3C65.8194 423.658 65.5843 424.006 65.2986 424.345C65.0129 424.678 64.7063 424.991 64.3789 425.283C64.0575 425.574 63.7569 425.836 63.4771 426.068H66.495V426.693H62.37Z" fill="black"/>
<path opacity="0.4" d="M110.468 426.801C109.914 426.801 109.435 426.667 109.03 426.399C108.631 426.125 108.325 425.747 108.111 425.265C107.896 424.777 107.789 424.211 107.789 423.568C107.789 422.925 107.896 422.363 108.111 421.881C108.325 421.393 108.631 421.015 109.03 420.747C109.435 420.473 109.914 420.336 110.468 420.336C111.021 420.336 111.498 420.473 111.896 420.747C112.295 421.015 112.602 421.393 112.816 421.881C113.03 422.363 113.137 422.925 113.137 423.568C113.137 424.211 113.03 424.777 112.816 425.265C112.602 425.747 112.295 426.125 111.896 426.399C111.498 426.667 111.021 426.801 110.468 426.801ZM110.468 426.14C110.831 426.14 111.155 426.039 111.441 425.836C111.733 425.628 111.959 425.333 112.12 424.952C112.286 424.565 112.37 424.104 112.37 423.568C112.37 423.033 112.286 422.574 112.12 422.193C111.959 421.812 111.733 421.521 111.441 421.318C111.155 421.11 110.831 421.006 110.468 421.006C110.099 421.006 109.771 421.11 109.486 421.318C109.2 421.521 108.974 421.812 108.807 422.193C108.64 422.574 108.557 423.033 108.557 423.568C108.557 424.104 108.64 424.565 108.807 424.952C108.974 425.333 109.2 425.628 109.486 425.836C109.771 426.039 110.099 426.14 110.468 426.14ZM114.036 426.693V426.167C114.458 425.833 114.857 425.497 115.232 425.158C115.613 424.812 115.949 424.473 116.241 424.14C116.539 423.806 116.771 423.479 116.937 423.158C117.11 422.836 117.196 422.527 117.196 422.229C117.196 422.009 117.158 421.803 117.08 421.613C117.009 421.422 116.89 421.271 116.723 421.158C116.557 421.038 116.33 420.979 116.045 420.979C115.771 420.979 115.542 421.041 115.357 421.166C115.173 421.285 115.033 421.446 114.937 421.649C114.848 421.851 114.804 422.068 114.804 422.3H114.08C114.08 421.89 114.167 421.538 114.339 421.247C114.512 420.949 114.747 420.723 115.045 420.568C115.342 420.413 115.679 420.336 116.054 420.336C116.607 420.336 117.06 420.494 117.411 420.809C117.768 421.119 117.946 421.583 117.946 422.202C117.946 422.571 117.854 422.937 117.67 423.3C117.485 423.658 117.25 424.006 116.964 424.345C116.679 424.678 116.372 424.991 116.045 425.283C115.723 425.574 115.423 425.836 115.143 426.068H118.161V426.693H114.036ZM121.196 427.542L123.437 419.872H124.178L121.937 427.542H121.196ZM128.073 426.693V421.283L127.064 421.506V420.988L128.323 420.443H128.832V426.693H128.073ZM130.053 426.693V426.167C130.476 425.833 130.875 425.497 131.25 425.158C131.631 424.812 131.967 424.473 132.259 424.14C132.556 423.806 132.789 423.479 132.955 423.158C133.128 422.836 133.214 422.527 133.214 422.229C133.214 422.009 133.175 421.803 133.098 421.613C133.027 421.422 132.908 421.271 132.741 421.158C132.574 421.038 132.348 420.979 132.062 420.979C131.789 420.979 131.559 421.041 131.375 421.166C131.19 421.285 131.05 421.446 130.955 421.649C130.866 421.851 130.821 422.068 130.821 422.3H130.098C130.098 421.89 130.184 421.538 130.357 421.247C130.53 420.949 130.765 420.723 131.062 420.568C131.36 420.413 131.696 420.336 132.071 420.336C132.625 420.336 133.077 420.494 133.428 420.809C133.786 421.119 133.964 421.583 133.964 422.202C133.964 422.571 133.872 422.937 133.687 423.3C133.503 423.658 133.268 424.006 132.982 424.345C132.696 424.678 132.39 424.991 132.062 425.283C131.741 425.574 131.44 425.836 131.161 426.068H134.178V426.693H130.053Z" fill="black"/>
<path opacity="0.4" d="M176.427 426.801C175.874 426.801 175.395 426.667 174.99 426.399C174.591 426.125 174.284 425.747 174.07 425.265C173.856 424.777 173.749 424.211 173.749 423.568C173.749 422.925 173.856 422.363 174.07 421.881C174.284 421.393 174.591 421.015 174.99 420.747C175.395 420.473 175.874 420.336 176.427 420.336C176.981 420.336 177.457 420.473 177.856 420.747C178.255 421.015 178.561 421.393 178.776 421.881C178.99 422.363 179.097 422.925 179.097 423.568C179.097 424.211 178.99 424.777 178.776 425.265C178.561 425.747 178.255 426.125 177.856 426.399C177.457 426.667 176.981 426.801 176.427 426.801ZM176.427 426.14C176.79 426.14 177.115 426.039 177.401 425.836C177.692 425.628 177.918 425.333 178.079 424.952C178.246 424.565 178.329 424.104 178.329 423.568C178.329 423.033 178.246 422.574 178.079 422.193C177.918 421.812 177.692 421.521 177.401 421.318C177.115 421.11 176.79 421.006 176.427 421.006C176.058 421.006 175.731 421.11 175.445 421.318C175.159 421.521 174.933 421.812 174.767 422.193C174.6 422.574 174.517 423.033 174.517 423.568C174.517 424.104 174.6 424.565 174.767 424.952C174.933 425.333 175.159 425.628 175.445 425.836C175.731 426.039 176.058 426.14 176.427 426.14ZM182.127 426.801C181.728 426.801 181.368 426.729 181.047 426.586C180.725 426.437 180.466 426.217 180.27 425.925C180.079 425.634 179.978 425.271 179.966 424.836H180.725C180.731 425.193 180.856 425.503 181.1 425.765C181.344 426.021 181.687 426.149 182.127 426.149C182.568 426.149 182.898 426.027 183.118 425.783C183.344 425.539 183.458 425.244 183.458 424.899C183.458 424.607 183.386 424.369 183.243 424.184C183.106 424 182.919 423.863 182.681 423.774C182.449 423.684 182.193 423.64 181.913 423.64H181.449V423.006H181.913C182.318 423.006 182.633 422.914 182.859 422.729C183.091 422.544 183.207 422.286 183.207 421.952C183.207 421.672 183.115 421.443 182.931 421.265C182.752 421.08 182.484 420.988 182.127 420.988C181.782 420.988 181.505 421.092 181.297 421.3C181.088 421.503 180.972 421.759 180.949 422.068H180.19C180.207 421.729 180.297 421.428 180.457 421.166C180.624 420.905 180.85 420.702 181.136 420.559C181.422 420.41 181.752 420.336 182.127 420.336C182.532 420.336 182.868 420.408 183.136 420.55C183.41 420.693 183.615 420.884 183.752 421.122C183.895 421.36 183.966 421.622 183.966 421.908C183.966 422.223 183.88 422.512 183.708 422.774C183.535 423.03 183.276 423.202 182.931 423.291C183.3 423.369 183.606 423.544 183.85 423.818C184.094 424.092 184.216 424.452 184.216 424.899C184.216 425.244 184.136 425.562 183.975 425.854C183.821 426.14 183.588 426.369 183.279 426.542C182.969 426.714 182.585 426.801 182.127 426.801ZM187.382 427.542L189.623 419.872H190.364L188.123 427.542H187.382ZM194.26 426.693V421.283L193.251 421.506V420.988L194.51 420.443H195.019V426.693H194.26ZM196.24 426.693V426.167C196.662 425.833 197.061 425.497 197.436 425.158C197.817 424.812 198.153 424.473 198.445 424.14C198.743 423.806 198.975 423.479 199.142 423.158C199.314 422.836 199.4 422.527 199.4 422.229C199.4 422.009 199.362 421.803 199.284 421.613C199.213 421.422 199.094 421.271 198.927 421.158C198.761 421.038 198.534 420.979 198.249 420.979C197.975 420.979 197.746 421.041 197.561 421.166C197.377 421.285 197.237 421.446 197.141 421.649C197.052 421.851 197.008 422.068 197.008 422.3H196.284C196.284 421.89 196.371 421.538 196.543 421.247C196.716 420.949 196.951 420.723 197.249 420.568C197.546 420.413 197.883 420.336 198.258 420.336C198.811 420.336 199.264 420.494 199.615 420.809C199.972 421.119 200.15 421.583 200.15 422.202C200.15 422.571 200.058 422.937 199.874 423.3C199.689 423.658 199.454 424.006 199.168 424.345C198.883 424.678 198.576 424.991 198.249 425.283C197.927 425.574 197.627 425.836 197.347 426.068H200.365V426.693H196.24Z" fill="black"/>
<path opacity="0.4" d="M242.422 426.801C241.868 426.801 241.389 426.667 240.984 426.399C240.585 426.125 240.279 425.747 240.065 425.265C239.85 424.777 239.743 424.211 239.743 423.568C239.743 422.925 239.85 422.363 240.065 421.881C240.279 421.393 240.585 421.015 240.984 420.747C241.389 420.473 241.868 420.336 242.422 420.336C242.975 420.336 243.452 420.473 243.85 420.747C244.249 421.015 244.556 421.393 244.77 421.881C244.984 422.363 245.092 422.925 245.092 423.568C245.092 424.211 244.984 424.777 244.77 425.265C244.556 425.747 244.249 426.125 243.85 426.399C243.452 426.667 242.975 426.801 242.422 426.801ZM242.422 426.14C242.785 426.14 243.109 426.039 243.395 425.836C243.687 425.628 243.913 425.333 244.074 424.952C244.24 424.565 244.324 424.104 244.324 423.568C244.324 423.033 244.24 422.574 244.074 422.193C243.913 421.812 243.687 421.521 243.395 421.318C243.109 421.11 242.785 421.006 242.422 421.006C242.053 421.006 241.725 421.11 241.44 421.318C241.154 421.521 240.928 421.812 240.761 422.193C240.594 422.574 240.511 423.033 240.511 423.568C240.511 424.104 240.594 424.565 240.761 424.952C240.928 425.333 241.154 425.628 241.44 425.836C241.725 426.039 242.053 426.14 242.422 426.14ZM249.006 426.693V425.354H245.836V424.774L248.872 420.443H249.747V424.693H250.675V425.354H249.747V426.693H249.006ZM246.666 424.693H249.041V421.274L246.666 424.693ZM253.533 427.542L255.775 419.872H256.516L254.275 427.542H253.533ZM260.411 426.693V421.283L259.402 421.506V420.988L260.661 420.443H261.17V426.693H260.411ZM262.391 426.693V426.167C262.814 425.833 263.213 425.497 263.588 425.158C263.969 424.812 264.305 424.473 264.596 424.14C264.894 423.806 265.126 423.479 265.293 423.158C265.466 422.836 265.552 422.527 265.552 422.229C265.552 422.009 265.513 421.803 265.436 421.613C265.364 421.422 265.245 421.271 265.079 421.158C264.912 421.038 264.686 420.979 264.4 420.979C264.126 420.979 263.897 421.041 263.713 421.166C263.528 421.285 263.388 421.446 263.293 421.649C263.204 421.851 263.159 422.068 263.159 422.3H262.436C262.436 421.89 262.522 421.538 262.695 421.247C262.867 420.949 263.102 420.723 263.4 420.568C263.698 420.413 264.034 420.336 264.409 420.336C264.963 420.336 265.415 420.494 265.766 420.809C266.123 421.119 266.302 421.583 266.302 422.202C266.302 422.571 266.21 422.937 266.025 423.3C265.841 423.658 265.605 424.006 265.32 424.345C265.034 424.678 264.727 424.991 264.4 425.283C264.079 425.574 263.778 425.836 263.498 426.068H266.516V426.693H262.391Z" fill="black"/>
<path opacity="0.4" d="M308.464 426.801C307.911 426.801 307.432 426.667 307.027 426.399C306.628 426.125 306.321 425.747 306.107 425.265C305.893 424.777 305.786 424.211 305.786 423.568C305.786 422.925 305.893 422.363 306.107 421.881C306.321 421.393 306.628 421.015 307.027 420.747C307.432 420.473 307.911 420.336 308.464 420.336C309.018 420.336 309.494 420.473 309.893 420.747C310.292 421.015 310.598 421.393 310.813 421.881C311.027 422.363 311.134 422.925 311.134 423.568C311.134 424.211 311.027 424.777 310.813 425.265C310.598 425.747 310.292 426.125 309.893 426.399C309.494 426.667 309.018 426.801 308.464 426.801ZM308.464 426.14C308.827 426.14 309.152 426.039 309.438 425.836C309.729 425.628 309.955 425.333 310.116 424.952C310.283 424.565 310.366 424.104 310.366 423.568C310.366 423.033 310.283 422.574 310.116 422.193C309.955 421.812 309.729 421.521 309.438 421.318C309.152 421.11 308.827 421.006 308.464 421.006C308.095 421.006 307.768 421.11 307.482 421.318C307.196 421.521 306.97 421.812 306.804 422.193C306.637 422.574 306.554 423.033 306.554 423.568C306.554 424.104 306.637 424.565 306.804 424.952C306.97 425.333 307.196 425.628 307.482 425.836C307.768 426.039 308.095 426.14 308.464 426.14ZM314.343 426.801C313.914 426.801 313.542 426.723 313.227 426.568C312.911 426.414 312.658 426.202 312.468 425.934C312.283 425.661 312.17 425.351 312.128 425.006H312.86C312.932 425.351 313.099 425.631 313.36 425.845C313.622 426.053 313.953 426.158 314.352 426.158C314.649 426.158 314.905 426.089 315.119 425.952C315.334 425.809 315.497 425.619 315.611 425.381C315.73 425.143 315.789 424.878 315.789 424.586C315.789 424.122 315.658 423.747 315.396 423.461C315.134 423.175 314.795 423.033 314.378 423.033C314.033 423.033 313.738 423.11 313.494 423.265C313.25 423.419 313.072 423.622 312.959 423.872H312.244L312.78 420.443H316.057V421.095H313.36L312.994 422.997C313.137 422.824 313.334 422.681 313.584 422.568C313.84 422.455 314.131 422.399 314.459 422.399C314.869 422.399 315.227 422.494 315.53 422.684C315.84 422.875 316.081 423.134 316.253 423.461C316.426 423.789 316.512 424.161 316.512 424.577C316.512 424.976 316.426 425.345 316.253 425.684C316.087 426.024 315.84 426.295 315.512 426.497C315.191 426.699 314.801 426.801 314.343 426.801ZM319.637 427.542L321.878 419.872H322.619L320.378 427.542H319.637ZM326.515 426.693V421.283L325.506 421.506V420.988L326.765 420.443H327.274V426.693H326.515ZM328.495 426.693V426.167C328.917 425.833 329.316 425.497 329.691 425.158C330.072 424.812 330.408 424.473 330.7 424.14C330.998 423.806 331.23 423.479 331.396 423.158C331.569 422.836 331.655 422.527 331.655 422.229C331.655 422.009 331.617 421.803 331.539 421.613C331.468 421.422 331.349 421.271 331.182 421.158C331.015 421.038 330.789 420.979 330.504 420.979C330.23 420.979 330.001 421.041 329.816 421.166C329.632 421.285 329.492 421.446 329.396 421.649C329.307 421.851 329.262 422.068 329.262 422.3H328.539C328.539 421.89 328.626 421.538 328.798 421.247C328.971 420.949 329.206 420.723 329.504 420.568C329.801 420.413 330.137 420.336 330.513 420.336C331.066 420.336 331.518 420.494 331.87 420.809C332.227 421.119 332.405 421.583 332.405 422.202C332.405 422.571 332.313 422.937 332.129 423.3C331.944 423.658 331.709 424.006 331.423 424.345C331.138 424.678 330.831 424.991 330.504 425.283C330.182 425.574 329.882 425.836 329.602 426.068H332.62V426.693H328.495Z" fill="black"/>
<path opacity="0.4" d="M374.012 426.801C373.459 426.801 372.98 426.667 372.575 426.399C372.176 426.125 371.869 425.747 371.655 425.265C371.441 424.777 371.334 424.211 371.334 423.568C371.334 422.925 371.441 422.363 371.655 421.881C371.869 421.393 372.176 421.015 372.575 420.747C372.98 420.473 373.459 420.336 374.012 420.336C374.566 420.336 375.042 420.473 375.441 420.747C375.84 421.015 376.146 421.393 376.361 421.881C376.575 422.363 376.682 422.925 376.682 423.568C376.682 424.211 376.575 424.777 376.361 425.265C376.146 425.747 375.84 426.125 375.441 426.399C375.042 426.667 374.566 426.801 374.012 426.801ZM374.012 426.14C374.375 426.14 374.7 426.039 374.986 425.836C375.277 425.628 375.503 425.333 375.664 424.952C375.831 424.565 375.914 424.104 375.914 423.568C375.914 423.033 375.831 422.574 375.664 422.193C375.503 421.812 375.277 421.521 374.986 421.318C374.7 421.11 374.375 421.006 374.012 421.006C373.643 421.006 373.316 421.11 373.03 421.318C372.744 421.521 372.518 421.812 372.352 422.193C372.185 422.574 372.102 423.033 372.102 423.568C372.102 424.104 372.185 424.565 372.352 424.952C372.518 425.333 372.744 425.628 373.03 425.836C373.316 426.039 373.643 426.14 374.012 426.14ZM380.016 426.801C379.563 426.801 379.182 426.717 378.873 426.55C378.563 426.378 378.313 426.149 378.123 425.863C377.938 425.577 377.801 425.259 377.712 424.908C377.629 424.55 377.587 424.187 377.587 423.818C377.587 423.128 377.682 422.524 377.873 422.006C378.063 421.482 378.337 421.074 378.694 420.783C379.057 420.485 379.495 420.336 380.007 420.336C380.4 420.336 380.736 420.413 381.016 420.568C381.295 420.723 381.516 420.931 381.676 421.193C381.843 421.449 381.947 421.735 381.989 422.05H381.292C381.227 421.711 381.081 421.449 380.855 421.265C380.629 421.08 380.343 420.988 379.998 420.988C379.528 420.988 379.132 421.211 378.81 421.658C378.495 422.098 378.325 422.789 378.301 423.729C378.444 423.449 378.67 423.208 378.98 423.006C379.295 422.797 379.673 422.693 380.114 422.693C380.471 422.693 380.804 422.777 381.114 422.943C381.429 423.11 381.685 423.345 381.882 423.649C382.078 423.946 382.176 424.297 382.176 424.702C382.176 425.053 382.09 425.39 381.917 425.711C381.745 426.033 381.495 426.295 381.167 426.497C380.846 426.699 380.462 426.801 380.016 426.801ZM379.962 426.14C380.242 426.14 380.492 426.08 380.712 425.961C380.932 425.842 381.105 425.678 381.23 425.47C381.355 425.256 381.417 425.012 381.417 424.738C381.417 424.315 381.278 423.979 380.998 423.729C380.724 423.473 380.379 423.345 379.962 423.345C379.682 423.345 379.432 423.411 379.212 423.542C378.992 423.667 378.816 423.836 378.685 424.05C378.56 424.265 378.498 424.497 378.498 424.747C378.498 425.015 378.56 425.256 378.685 425.47C378.816 425.678 378.992 425.842 379.212 425.961C379.432 426.08 379.682 426.14 379.962 426.14ZM385.342 427.542L387.583 419.872H388.324L386.083 427.542H385.342ZM392.22 426.693V421.283L391.211 421.506V420.988L392.47 420.443H392.978V426.693H392.22ZM394.2 426.693V426.167C394.622 425.833 395.021 425.497 395.396 425.158C395.777 424.812 396.113 424.473 396.405 424.14C396.703 423.806 396.935 423.479 397.101 423.158C397.274 422.836 397.36 422.527 397.36 422.229C397.36 422.009 397.322 421.803 397.244 421.613C397.173 421.422 397.054 421.271 396.887 421.158C396.72 421.038 396.494 420.979 396.209 420.979C395.935 420.979 395.706 421.041 395.521 421.166C395.336 421.285 395.197 421.446 395.101 421.649C395.012 421.851 394.967 422.068 394.967 422.3H394.244C394.244 421.89 394.331 421.538 394.503 421.247C394.676 420.949 394.911 420.723 395.209 420.568C395.506 420.413 395.842 420.336 396.217 420.336C396.771 420.336 397.223 420.494 397.575 420.809C397.932 421.119 398.11 421.583 398.11 422.202C398.11 422.571 398.018 422.937 397.834 423.3C397.649 423.658 397.414 424.006 397.128 424.345C396.842 424.678 396.536 424.991 396.209 425.283C395.887 425.574 395.587 425.836 395.307 426.068H398.325V426.693H394.2Z" fill="black"/>
<path opacity="0.4" d="M441.024 426.801C440.471 426.801 439.992 426.667 439.587 426.399C439.188 426.125 438.881 425.747 438.667 425.265C438.453 424.777 438.346 424.211 438.346 423.568C438.346 422.925 438.453 422.363 438.667 421.881C438.881 421.393 439.188 421.015 439.587 420.747C439.992 420.473 440.471 420.336 441.024 420.336C441.578 420.336 442.054 420.473 442.453 420.747C442.852 421.015 443.158 421.393 443.373 421.881C443.587 422.363 443.694 422.925 443.694 423.568C443.694 424.211 443.587 424.777 443.373 425.265C443.158 425.747 442.852 426.125 442.453 426.399C442.054 426.667 441.578 426.801 441.024 426.801ZM441.024 426.14C441.388 426.14 441.712 426.039 441.998 425.836C442.289 425.628 442.516 425.333 442.676 424.952C442.843 424.565 442.926 424.104 442.926 423.568C442.926 423.033 442.843 422.574 442.676 422.193C442.516 421.812 442.289 421.521 441.998 421.318C441.712 421.11 441.388 421.006 441.024 421.006C440.655 421.006 440.328 421.11 440.042 421.318C439.757 421.521 439.53 421.812 439.364 422.193C439.197 422.574 439.114 423.033 439.114 423.568C439.114 424.104 439.197 424.565 439.364 424.952C439.53 425.333 439.757 425.628 440.042 425.836C440.328 426.039 440.655 426.14 441.024 426.14ZM445.173 426.693L447.656 421.086H444.227V420.443H448.424V421.006L445.968 426.693H445.173ZM451.369 427.542L453.61 419.872H454.351L452.11 427.542H451.369ZM458.246 426.693V421.283L457.237 421.506V420.988L458.496 420.443H459.005V426.693H458.246ZM460.226 426.693V426.167C460.649 425.833 461.048 425.497 461.423 425.158C461.804 424.812 462.14 424.473 462.432 424.14C462.729 423.806 462.962 423.479 463.128 423.158C463.301 422.836 463.387 422.527 463.387 422.229C463.387 422.009 463.348 421.803 463.271 421.613C463.2 421.422 463.081 421.271 462.914 421.158C462.747 421.038 462.521 420.979 462.235 420.979C461.962 420.979 461.732 421.041 461.548 421.166C461.363 421.285 461.223 421.446 461.128 421.649C461.039 421.851 460.994 422.068 460.994 422.3H460.271C460.271 421.89 460.357 421.538 460.53 421.247C460.703 420.949 460.938 420.723 461.235 420.568C461.533 420.413 461.869 420.336 462.244 420.336C462.798 420.336 463.25 420.494 463.601 420.809C463.959 421.119 464.137 421.583 464.137 422.202C464.137 422.571 464.045 422.937 463.86 423.3C463.676 423.658 463.441 424.006 463.155 424.345C462.869 424.678 462.563 424.991 462.235 425.283C461.914 425.574 461.613 425.836 461.334 426.068H464.351V426.693H460.226Z" fill="black"/>
<path opacity="0.4" d="M506.692 426.801C506.138 426.801 505.659 426.667 505.254 426.399C504.855 426.125 504.549 425.747 504.335 425.265C504.12 424.777 504.013 424.211 504.013 423.568C504.013 422.925 504.12 422.363 504.335 421.881C504.549 421.393 504.855 421.015 505.254 420.747C505.659 420.473 506.138 420.336 506.692 420.336C507.245 420.336 507.722 420.473 508.12 420.747C508.519 421.015 508.826 421.393 509.04 421.881C509.254 422.363 509.361 422.925 509.361 423.568C509.361 424.211 509.254 424.777 509.04 425.265C508.826 425.747 508.519 426.125 508.12 426.399C507.722 426.667 507.245 426.801 506.692 426.801ZM506.692 426.14C507.055 426.14 507.379 426.039 507.665 425.836C507.957 425.628 508.183 425.333 508.344 424.952C508.51 424.565 508.594 424.104 508.594 423.568C508.594 423.033 508.51 422.574 508.344 422.193C508.183 421.812 507.957 421.521 507.665 421.318C507.379 421.11 507.055 421.006 506.692 421.006C506.323 421.006 505.995 421.11 505.71 421.318C505.424 421.521 505.198 421.812 505.031 422.193C504.864 422.574 504.781 423.033 504.781 423.568C504.781 424.104 504.864 424.565 505.031 424.952C505.198 425.333 505.424 425.628 505.71 425.836C505.995 426.039 506.323 426.14 506.692 426.14ZM512.508 426.801C512.097 426.801 511.728 426.726 511.4 426.577C511.073 426.423 510.814 426.211 510.624 425.943C510.439 425.67 510.347 425.354 510.347 424.997C510.347 424.616 510.457 424.274 510.677 423.97C510.903 423.667 511.201 423.464 511.57 423.363C511.231 423.25 510.969 423.068 510.784 422.818C510.6 422.568 510.508 422.294 510.508 421.997C510.508 421.693 510.588 421.416 510.749 421.166C510.909 420.91 511.139 420.708 511.436 420.559C511.734 420.41 512.091 420.336 512.508 420.336C512.924 420.336 513.281 420.41 513.579 420.559C513.877 420.708 514.106 420.91 514.267 421.166C514.427 421.416 514.508 421.693 514.508 421.997C514.508 422.288 514.415 422.562 514.231 422.818C514.046 423.068 513.784 423.25 513.445 423.363C513.814 423.464 514.109 423.667 514.329 423.97C514.555 424.274 514.668 424.616 514.668 424.997C514.668 425.354 514.573 425.67 514.383 425.943C514.198 426.211 513.942 426.423 513.615 426.577C513.287 426.726 512.918 426.801 512.508 426.801ZM512.508 423.095C512.889 423.095 513.189 423 513.409 422.809C513.636 422.613 513.749 422.357 513.749 422.041C513.749 421.69 513.639 421.425 513.418 421.247C513.198 421.068 512.895 420.979 512.508 420.979C512.121 420.979 511.817 421.068 511.597 421.247C511.383 421.425 511.275 421.69 511.275 422.041C511.275 422.357 511.386 422.613 511.606 422.809C511.826 423 512.127 423.095 512.508 423.095ZM512.508 426.14C512.978 426.14 513.329 426.033 513.561 425.818C513.799 425.598 513.918 425.309 513.918 424.952C513.918 424.547 513.79 424.241 513.534 424.033C513.278 423.824 512.936 423.72 512.508 423.72C512.079 423.72 511.737 423.824 511.481 424.033C511.225 424.241 511.097 424.547 511.097 424.952C511.097 425.309 511.213 425.598 511.445 425.818C511.683 426.033 512.037 426.14 512.508 426.14ZM517.847 427.542L520.088 419.872H520.829L518.588 427.542H517.847ZM524.725 426.693V421.283L523.716 421.506V420.988L524.975 420.443H525.484V426.693H524.725ZM526.705 426.693V426.167C527.127 425.833 527.526 425.497 527.901 425.158C528.282 424.812 528.618 424.473 528.91 424.14C529.208 423.806 529.44 423.479 529.606 423.158C529.779 422.836 529.865 422.527 529.865 422.229C529.865 422.009 529.827 421.803 529.749 421.613C529.678 421.422 529.559 421.271 529.392 421.158C529.226 421.038 528.999 420.979 528.714 420.979C528.44 420.979 528.211 421.041 528.026 421.166C527.842 421.285 527.702 421.446 527.606 421.649C527.517 421.851 527.473 422.068 527.473 422.3H526.749C526.749 421.89 526.836 421.538 527.008 421.247C527.181 420.949 527.416 420.723 527.714 420.568C528.011 420.413 528.348 420.336 528.723 420.336C529.276 420.336 529.729 420.494 530.08 420.809C530.437 421.119 530.615 421.583 530.615 422.202C530.615 422.571 530.523 422.937 530.339 423.3C530.154 423.658 529.919 424.006 529.633 424.345C529.348 424.678 529.041 424.991 528.714 425.283C528.392 425.574 528.092 425.836 527.812 426.068H530.83V426.693H526.705Z" fill="black"/>
<path opacity="0.4" d="M572.231 426.801C571.678 426.801 571.198 426.667 570.794 426.399C570.395 426.125 570.088 425.747 569.874 425.265C569.66 424.777 569.553 424.211 569.553 423.568C569.553 422.925 569.66 422.363 569.874 421.881C570.088 421.393 570.395 421.015 570.794 420.747C571.198 420.473 571.678 420.336 572.231 420.336C572.785 420.336 573.261 420.473 573.66 420.747C574.059 421.015 574.365 421.393 574.579 421.881C574.794 422.363 574.901 422.925 574.901 423.568C574.901 424.211 574.794 424.777 574.579 425.265C574.365 425.747 574.059 426.125 573.66 426.399C573.261 426.667 572.785 426.801 572.231 426.801ZM572.231 426.14C572.594 426.14 572.919 426.039 573.204 425.836C573.496 425.628 573.722 425.333 573.883 424.952C574.05 424.565 574.133 424.104 574.133 423.568C574.133 423.033 574.05 422.574 573.883 422.193C573.722 421.812 573.496 421.521 573.204 421.318C572.919 421.11 572.594 421.006 572.231 421.006C571.862 421.006 571.535 421.11 571.249 421.318C570.963 421.521 570.737 421.812 570.57 422.193C570.404 422.574 570.32 423.033 570.32 423.568C570.32 424.104 570.404 424.565 570.57 424.952C570.737 425.333 570.963 425.628 571.249 425.836C571.535 426.039 571.862 426.14 572.231 426.14ZM578.038 420.336C578.49 420.336 578.871 420.422 579.181 420.595C579.491 420.762 579.738 420.988 579.922 421.274C580.113 421.559 580.249 421.881 580.333 422.238C580.422 422.589 580.467 422.949 580.467 423.318C580.467 424.009 580.371 424.616 580.181 425.14C579.991 425.658 579.714 426.065 579.351 426.363C578.993 426.655 578.559 426.801 578.047 426.801C577.654 426.801 577.318 426.723 577.038 426.568C576.758 426.414 576.535 426.208 576.368 425.952C576.208 425.69 576.106 425.402 576.065 425.086H576.761C576.827 425.425 576.973 425.687 577.199 425.872C577.425 426.056 577.711 426.149 578.056 426.149C578.526 426.149 578.919 425.928 579.235 425.488C579.556 425.042 579.729 424.348 579.752 423.408C579.61 423.687 579.38 423.931 579.065 424.14C578.755 424.342 578.38 424.443 577.94 424.443C577.583 424.443 577.246 424.36 576.931 424.193C576.621 424.027 576.368 423.794 576.172 423.497C575.976 423.193 575.877 422.839 575.877 422.434C575.877 422.083 575.964 421.747 576.136 421.425C576.309 421.104 576.556 420.842 576.877 420.64C577.205 420.437 577.592 420.336 578.038 420.336ZM578.092 420.997C577.812 420.997 577.562 421.056 577.342 421.175C577.121 421.294 576.949 421.461 576.824 421.675C576.699 421.884 576.636 422.125 576.636 422.399C576.636 422.821 576.773 423.161 577.047 423.416C577.327 423.667 577.675 423.792 578.092 423.792C578.371 423.792 578.621 423.729 578.842 423.604C579.062 423.473 579.235 423.3 579.36 423.086C579.491 422.872 579.556 422.64 579.556 422.39C579.556 422.122 579.491 421.884 579.36 421.675C579.235 421.461 579.062 421.294 578.842 421.175C578.621 421.056 578.371 420.997 578.092 420.997ZM583.561 427.542L585.802 419.872H586.543L584.302 427.542H583.561ZM590.438 426.693V421.283L589.429 421.506V420.988L590.688 420.443H591.197V426.693H590.438ZM592.418 426.693V426.167C592.841 425.833 593.24 425.497 593.615 425.158C593.996 424.812 594.332 424.473 594.624 424.14C594.921 423.806 595.154 423.479 595.32 423.158C595.493 422.836 595.579 422.527 595.579 422.229C595.579 422.009 595.541 421.803 595.463 421.613C595.392 421.422 595.273 421.271 595.106 421.158C594.939 421.038 594.713 420.979 594.427 420.979C594.154 420.979 593.924 421.041 593.74 421.166C593.555 421.285 593.415 421.446 593.32 421.649C593.231 421.851 593.186 422.068 593.186 422.3H592.463C592.463 421.89 592.549 421.538 592.722 421.247C592.895 420.949 593.13 420.723 593.427 420.568C593.725 420.413 594.061 420.336 594.436 420.336C594.99 420.336 595.442 420.494 595.794 420.809C596.151 421.119 596.329 421.583 596.329 422.202C596.329 422.571 596.237 422.937 596.052 423.3C595.868 423.658 595.633 424.006 595.347 424.345C595.061 424.678 594.755 424.991 594.427 425.283C594.106 425.574 593.805 425.836 593.526 426.068H596.544V426.693H592.418Z" fill="black"/>
<path opacity="0.4" d="M637.947 426.693V421.283L636.939 421.506V420.988L638.197 420.443H638.706V426.693H637.947ZM642.463 426.801C641.91 426.801 641.431 426.667 641.026 426.399C640.627 426.125 640.32 425.747 640.106 425.265C639.892 424.777 639.785 424.211 639.785 423.568C639.785 422.925 639.892 422.363 640.106 421.881C640.32 421.393 640.627 421.015 641.026 420.747C641.431 420.473 641.91 420.336 642.463 420.336C643.017 420.336 643.493 420.473 643.892 420.747C644.291 421.015 644.597 421.393 644.812 421.881C645.026 422.363 645.133 422.925 645.133 423.568C645.133 424.211 645.026 424.777 644.812 425.265C644.597 425.747 644.291 426.125 643.892 426.399C643.493 426.667 643.017 426.801 642.463 426.801ZM642.463 426.14C642.826 426.14 643.151 426.039 643.437 425.836C643.728 425.628 643.954 425.333 644.115 424.952C644.282 424.565 644.365 424.104 644.365 423.568C644.365 423.033 644.282 422.574 644.115 422.193C643.954 421.812 643.728 421.521 643.437 421.318C643.151 421.11 642.826 421.006 642.463 421.006C642.094 421.006 641.767 421.11 641.481 421.318C641.195 421.521 640.969 421.812 640.803 422.193C640.636 422.574 640.553 423.033 640.553 423.568C640.553 424.104 640.636 424.565 640.803 424.952C640.969 425.333 641.195 425.628 641.481 425.836C641.767 426.039 642.094 426.14 642.463 426.14ZM648.169 427.542L650.41 419.872H651.151L648.91 427.542H648.169ZM655.046 426.693V421.283L654.037 421.506V420.988L655.296 420.443H655.805V426.693H655.046ZM657.026 426.693V426.167C657.449 425.833 657.848 425.497 658.223 425.158C658.604 424.812 658.94 424.473 659.232 424.14C659.529 423.806 659.762 423.479 659.928 423.158C660.101 422.836 660.187 422.527 660.187 422.229C660.187 422.009 660.149 421.803 660.071 421.613C660 421.422 659.881 421.271 659.714 421.158C659.547 421.038 659.321 420.979 659.035 420.979C658.762 420.979 658.532 421.041 658.348 421.166C658.163 421.285 658.023 421.446 657.928 421.649C657.839 421.851 657.794 422.068 657.794 422.3H657.071C657.071 421.89 657.157 421.538 657.33 421.247C657.503 420.949 657.738 420.723 658.035 420.568C658.333 420.413 658.669 420.336 659.044 420.336C659.598 420.336 660.05 420.494 660.402 420.809C660.759 421.119 660.937 421.583 660.937 422.202C660.937 422.571 660.845 422.937 660.66 423.3C660.476 423.658 660.241 424.006 659.955 424.345C659.669 424.678 659.363 424.991 659.035 425.283C658.714 425.574 658.413 425.836 658.134 426.068H661.152V426.693H657.026Z" fill="black"/>
<path opacity="0.4" d="M705.769 426.693V421.283L704.76 421.506V420.988L706.019 420.443H706.528V426.693H705.769ZM708.463 426.693V421.283L707.454 421.506V420.988L708.713 420.443H709.222V426.693H708.463ZM712.493 427.542L714.735 419.872H715.476L713.235 427.542H712.493ZM719.371 426.693V421.283L718.362 421.506V420.988L719.621 420.443H720.13V426.693H719.371ZM721.351 426.693V426.167C721.774 425.833 722.173 425.497 722.548 425.158C722.928 424.812 723.265 424.473 723.556 424.14C723.854 423.806 724.086 423.479 724.253 423.158C724.426 422.836 724.512 422.527 724.512 422.229C724.512 422.009 724.473 421.803 724.396 421.613C724.324 421.422 724.205 421.271 724.039 421.158C723.872 421.038 723.646 420.979 723.36 420.979C723.086 420.979 722.857 421.041 722.673 421.166C722.488 421.285 722.348 421.446 722.253 421.649C722.164 421.851 722.119 422.068 722.119 422.3H721.396C721.396 421.89 721.482 421.538 721.655 421.247C721.827 420.949 722.062 420.723 722.36 420.568C722.658 420.413 722.994 420.336 723.369 420.336C723.923 420.336 724.375 420.494 724.726 420.809C725.083 421.119 725.262 421.583 725.262 422.202C725.262 422.571 725.17 422.937 724.985 423.3C724.801 423.658 724.565 424.006 724.28 424.345C723.994 424.678 723.687 424.991 723.36 425.283C723.039 425.574 722.738 425.836 722.458 426.068H725.476V426.693H721.351Z" fill="black"/>
<path opacity="0.4" d="M771.08 426.693V421.283L770.072 421.506V420.988L771.33 420.443H771.839V426.693H771.08ZM773.06 426.693V426.167C773.483 425.833 773.882 425.497 774.257 425.158C774.638 424.812 774.974 424.473 775.266 424.14C775.564 423.806 775.796 423.479 775.962 423.158C776.135 422.836 776.221 422.527 776.221 422.229C776.221 422.009 776.183 421.803 776.105 421.613C776.034 421.422 775.915 421.271 775.748 421.158C775.581 421.038 775.355 420.979 775.069 420.979C774.796 420.979 774.566 421.041 774.382 421.166C774.197 421.285 774.058 421.446 773.962 421.649C773.873 421.851 773.828 422.068 773.828 422.3H773.105C773.105 421.89 773.191 421.538 773.364 421.247C773.537 420.949 773.772 420.723 774.069 420.568C774.367 420.413 774.703 420.336 775.078 420.336C775.632 420.336 776.084 420.494 776.436 420.809C776.793 421.119 776.971 421.583 776.971 422.202C776.971 422.571 776.879 422.937 776.694 423.3C776.51 423.658 776.275 424.006 775.989 424.345C775.703 424.678 775.397 424.991 775.069 425.283C774.748 425.574 774.447 425.836 774.168 426.068H777.186V426.693H773.06ZM780.221 427.542L782.462 419.872H783.203L780.962 427.542H780.221ZM787.098 426.693V421.283L786.089 421.506V420.988L787.348 420.443H787.857V426.693H787.098ZM789.078 426.693V426.167C789.501 425.833 789.9 425.497 790.275 425.158C790.656 424.812 790.992 424.473 791.284 424.14C791.581 423.806 791.813 423.479 791.98 423.158C792.153 422.836 792.239 422.527 792.239 422.229C792.239 422.009 792.2 421.803 792.123 421.613C792.052 421.422 791.932 421.271 791.766 421.158C791.599 421.038 791.373 420.979 791.087 420.979C790.813 420.979 790.584 421.041 790.4 421.166C790.215 421.285 790.075 421.446 789.98 421.649C789.891 421.851 789.846 422.068 789.846 422.3H789.123C789.123 421.89 789.209 421.538 789.382 421.247C789.554 420.949 789.79 420.723 790.087 420.568C790.385 420.413 790.721 420.336 791.096 420.336C791.65 420.336 792.102 420.494 792.453 420.809C792.81 421.119 792.989 421.583 792.989 422.202C792.989 422.571 792.897 422.937 792.712 423.3C792.528 423.658 792.293 424.006 792.007 424.345C791.721 424.678 791.415 424.991 791.087 425.283C790.766 425.574 790.465 425.836 790.185 426.068H793.203V426.693H789.078Z" fill="black"/>
</g>
<path fill-rule="evenodd" clip-rule="evenodd" d="M33.0365 47.9397C36.4884 47.9397 39.2867 45.1415 39.2867 41.6896C39.2867 38.2377 36.4884 35.4395 33.0365 35.4395C29.5847 35.4395 26.7864 38.2377 26.7864 41.6896C26.7864 45.1415 29.5847 47.9397 33.0365 47.9397Z" fill="#02A0FC"/>
<path d="M48.319 37.0471C49.269 37.0471 50.0899 37.2262 50.7816 37.5846C51.4816 37.9346 52.0149 38.4388 52.3816 39.0971C52.7566 39.7555 52.9441 40.5305 52.9441 41.4222C52.9441 42.3139 52.7566 43.0889 52.3816 43.7472C52.0149 44.3972 51.4816 44.8972 50.7816 45.2473C50.0899 45.5889 49.269 45.7598 48.319 45.7598H45.6064V37.0471H48.319ZM48.319 44.8222C49.444 44.8222 50.3024 44.5264 50.8941 43.9347C51.4857 43.3347 51.7816 42.4972 51.7816 41.4222C51.7816 40.3388 51.4816 39.493 50.8816 38.8846C50.2899 38.2763 49.4357 37.9721 48.319 37.9721H46.744V44.8222H48.319ZM60.6947 42.0722C60.6947 42.2889 60.6822 42.518 60.6572 42.7597H55.1821C55.2237 43.4347 55.4529 43.9639 55.8696 44.3472C56.2946 44.7222 56.8071 44.9097 57.4071 44.9097C57.8988 44.9097 58.3071 44.7972 58.6321 44.5722C58.9655 44.3389 59.1988 44.0306 59.3321 43.6472H60.5572C60.3738 44.3056 60.0072 44.8431 59.4572 45.2598C58.9071 45.6681 58.2238 45.8723 57.4071 45.8723C56.7571 45.8723 56.1737 45.7264 55.6571 45.4348C55.1487 45.1431 54.7487 44.7306 54.457 44.1972C54.1654 43.6556 54.0195 43.0305 54.0195 42.3222C54.0195 41.6138 54.1612 40.993 54.4445 40.4596C54.7279 39.9263 55.1237 39.518 55.6321 39.2346C56.1487 38.9429 56.7404 38.7971 57.4071 38.7971C58.0571 38.7971 58.6321 38.9388 59.1321 39.2221C59.6322 39.5055 60.0155 39.8971 60.2822 40.3971C60.5572 40.8888 60.6947 41.4472 60.6947 42.0722ZM59.5197 41.8347C59.5197 41.4013 59.4238 41.0305 59.2321 40.7221C59.0405 40.4055 58.778 40.168 58.4446 40.0096C58.1196 39.843 57.7571 39.7596 57.3571 39.7596C56.7821 39.7596 56.2904 39.943 55.8821 40.3096C55.4821 40.6763 55.2529 41.1847 55.1946 41.8347H59.5197ZM63.3337 36.5096V45.7598H62.1962V36.5096H63.3337ZM65.8599 37.7971C65.6433 37.7971 65.4599 37.7221 65.3099 37.5721C65.1599 37.4221 65.0849 37.2387 65.0849 37.0221C65.0849 36.8054 65.1599 36.6221 65.3099 36.4721C65.4599 36.322 65.6433 36.247 65.8599 36.247C66.0683 36.247 66.2433 36.322 66.3849 36.4721C66.535 36.6221 66.61 36.8054 66.61 37.0221C66.61 37.2387 66.535 37.4221 66.3849 37.5721C66.2433 37.7221 66.0683 37.7971 65.8599 37.7971ZM66.4099 38.9096V45.7598H65.2724V38.9096H66.4099ZM70.8987 44.7097L73.0238 38.9096H74.2363L71.5487 45.7598H70.2237L67.5361 38.9096H68.7612L70.8987 44.7097ZM81.6058 42.0722C81.6058 42.2889 81.5933 42.518 81.5683 42.7597H76.0932C76.1348 43.4347 76.364 43.9639 76.7807 44.3472C77.2057 44.7222 77.7182 44.9097 78.3182 44.9097C78.8099 44.9097 79.2183 44.7972 79.5433 44.5722C79.8766 44.3389 80.1099 44.0306 80.2433 43.6472H81.4683C81.285 44.3056 80.9183 44.8431 80.3683 45.2598C79.8183 45.6681 79.1349 45.8723 78.3182 45.8723C77.6682 45.8723 77.0849 45.7264 76.5682 45.4348C76.0598 45.1431 75.6598 44.7306 75.3682 44.1972C75.0765 43.6556 74.9307 43.0305 74.9307 42.3222C74.9307 41.6138 75.0723 40.993 75.3557 40.4596C75.639 39.9263 76.0348 39.518 76.5432 39.2346C77.0599 38.9429 77.6515 38.7971 78.3182 38.7971C78.9682 38.7971 79.5433 38.9388 80.0433 39.2221C80.5433 39.5055 80.9266 39.8971 81.1933 40.3971C81.4683 40.8888 81.6058 41.4472 81.6058 42.0722ZM80.4308 41.8347C80.4308 41.4013 80.3349 41.0305 80.1433 40.7221C79.9516 40.4055 79.6891 40.168 79.3558 40.0096C79.0307 39.843 78.6682 39.7596 78.2682 39.7596C77.6932 39.7596 77.2015 39.943 76.7932 40.3096C76.3932 40.6763 76.164 41.1847 76.1057 41.8347H80.4308ZM84.2448 40.0221C84.4448 39.6305 84.7282 39.3263 85.0949 39.1096C85.4699 38.8929 85.924 38.7846 86.4574 38.7846V39.9596H86.1574C84.8823 39.9596 84.2448 40.6513 84.2448 42.0347V45.7598H83.1073V38.9096H84.2448V40.0221ZM93.6706 38.9096L89.5455 48.9848H88.3705L89.7205 45.6848L86.958 38.9096H88.2205L90.3706 44.4597L92.4956 38.9096H93.6706Z" fill="#5C546A"/>
<path fill-rule="evenodd" clip-rule="evenodd" d="M141.968 47.9378C145.419 47.9378 148.218 45.1395 148.218 41.6876C148.218 38.2358 145.419 35.4375 141.968 35.4375C138.516 35.4375 135.717 38.2358 135.717 41.6876C135.717 45.1395 138.516 47.9378 141.968 47.9378Z" fill="#34B53A"/>
<path d="M160.363 39.5952C160.363 40.3202 160.113 40.9244 159.613 41.4077C159.121 41.8827 158.367 42.1202 157.35 42.1202H155.675V45.7578H154.537V37.0451H157.35C158.333 37.0451 159.079 37.2826 159.588 37.7576C160.104 38.2326 160.363 38.8452 160.363 39.5952ZM157.35 41.1827C157.983 41.1827 158.45 41.0452 158.75 40.7702C159.05 40.4952 159.2 40.1035 159.2 39.5952C159.2 38.5201 158.583 37.9826 157.35 37.9826H155.675V41.1827H157.35ZM161.351 42.3077C161.351 41.6077 161.493 40.9952 161.776 40.4702C162.06 39.9368 162.447 39.5243 162.939 39.2327C163.439 38.941 163.993 38.7952 164.601 38.7952C165.201 38.7952 165.722 38.9243 166.164 39.1827C166.606 39.441 166.935 39.766 167.152 40.1577V38.9077H168.302V45.7578H167.152V44.4828C166.927 44.8828 166.589 45.2161 166.139 45.4828C165.697 45.7411 165.181 45.8703 164.589 45.8703C163.981 45.8703 163.431 45.7203 162.939 45.4203C162.447 45.1203 162.06 44.6995 161.776 44.1578C161.493 43.6161 161.351 42.9994 161.351 42.3077ZM167.152 42.3202C167.152 41.8036 167.047 41.3535 166.839 40.9702C166.631 40.5869 166.347 40.2952 165.989 40.0952C165.639 39.8868 165.251 39.7827 164.826 39.7827C164.401 39.7827 164.014 39.8827 163.664 40.0827C163.314 40.2827 163.035 40.5744 162.826 40.9577C162.618 41.341 162.514 41.7911 162.514 42.3077C162.514 42.8327 162.618 43.2911 162.826 43.6828C163.035 44.0661 163.314 44.3619 163.664 44.5703C164.014 44.7703 164.401 44.8703 164.826 44.8703C165.251 44.8703 165.639 44.7703 165.989 44.5703C166.347 44.3619 166.631 44.0661 166.839 43.6828C167.047 43.2911 167.152 42.8369 167.152 42.3202ZM171.361 40.0202C171.561 39.6285 171.845 39.3243 172.211 39.1077C172.586 38.891 173.041 38.7827 173.574 38.7827V39.9577H173.274C171.999 39.9577 171.361 40.6494 171.361 42.0327V45.7578H170.224V38.9077H171.361V40.0202ZM174.462 42.3077C174.462 41.6077 174.604 40.9952 174.887 40.4702C175.17 39.9368 175.558 39.5243 176.05 39.2327C176.55 38.941 177.104 38.7952 177.712 38.7952C178.312 38.7952 178.833 38.9243 179.275 39.1827C179.716 39.441 180.046 39.766 180.262 40.1577V38.9077H181.412V45.7578H180.262V44.4828C180.037 44.8828 179.7 45.2161 179.25 45.4828C178.808 45.7411 178.291 45.8703 177.7 45.8703C177.091 45.8703 176.541 45.7203 176.05 45.4203C175.558 45.1203 175.17 44.6995 174.887 44.1578C174.604 43.6161 174.462 42.9994 174.462 42.3077ZM180.262 42.3202C180.262 41.8036 180.158 41.3535 179.95 40.9702C179.741 40.5869 179.458 40.2952 179.1 40.0952C178.75 39.8868 178.362 39.7827 177.937 39.7827C177.512 39.7827 177.125 39.8827 176.775 40.0827C176.425 40.2827 176.145 40.5744 175.937 40.9577C175.729 41.341 175.625 41.7911 175.625 42.3077C175.625 42.8327 175.729 43.2911 175.937 43.6828C176.145 44.0661 176.425 44.3619 176.775 44.5703C177.125 44.7703 177.512 44.8703 177.937 44.8703C178.362 44.8703 178.75 44.7703 179.1 44.5703C179.458 44.3619 179.741 44.0661 179.95 43.6828C180.158 43.2911 180.262 42.8369 180.262 42.3202ZM191.255 45.7578L189.18 42.1952H187.805V45.7578H186.667V37.0451H189.48C190.138 37.0451 190.692 37.1576 191.142 37.3826C191.601 37.6076 191.942 37.9118 192.167 38.2951C192.392 38.6785 192.505 39.116 192.505 39.6077C192.505 40.2077 192.33 40.7369 191.98 41.1952C191.638 41.6536 191.121 41.9577 190.43 42.1077L192.617 45.7578H191.255ZM187.805 41.2827H189.48C190.096 41.2827 190.559 41.1327 190.867 40.8327C191.176 40.5244 191.33 40.116 191.33 39.6077C191.33 39.091 191.176 38.691 190.867 38.4076C190.567 38.1243 190.105 37.9826 189.48 37.9826H187.805V41.2827ZM200.522 42.0702C200.522 42.2869 200.51 42.5161 200.485 42.7577H195.01C195.051 43.4328 195.281 43.9619 195.697 44.3453C196.122 44.7203 196.635 44.9078 197.235 44.9078C197.727 44.9078 198.135 44.7953 198.46 44.5703C198.793 44.3369 199.027 44.0286 199.16 43.6453H200.385C200.202 44.3036 199.835 44.8411 199.285 45.2578C198.735 45.6661 198.052 45.8703 197.235 45.8703C196.585 45.8703 196.001 45.7245 195.485 45.4328C194.976 45.1411 194.576 44.7286 194.285 44.1953C193.993 43.6536 193.847 43.0286 193.847 42.3202C193.847 41.6119 193.989 40.991 194.272 40.4577C194.556 39.9243 194.951 39.516 195.46 39.2327C195.976 38.941 196.568 38.7952 197.235 38.7952C197.885 38.7952 198.46 38.9368 198.96 39.2202C199.46 39.5035 199.843 39.8952 200.11 40.3952C200.385 40.8869 200.522 41.4452 200.522 42.0702ZM199.347 41.8327C199.347 41.3994 199.252 41.0285 199.06 40.7202C198.868 40.4035 198.606 40.166 198.272 40.0077C197.947 39.841 197.585 39.7577 197.185 39.7577C196.61 39.7577 196.118 39.941 195.71 40.3077C195.31 40.6744 195.081 41.1827 195.022 41.8327H199.347ZM201.599 42.3202C201.599 41.6119 201.741 40.9952 202.024 40.4702C202.307 39.9368 202.699 39.5243 203.199 39.2327C203.707 38.941 204.286 38.7952 204.936 38.7952C205.778 38.7952 206.47 38.9993 207.012 39.4077C207.562 39.816 207.924 40.3827 208.099 41.1077H206.874C206.757 40.691 206.528 40.3619 206.187 40.1202C205.853 39.8785 205.436 39.7577 204.936 39.7577C204.286 39.7577 203.761 39.9827 203.361 40.4327C202.961 40.8744 202.761 41.5035 202.761 42.3202C202.761 43.1453 202.961 43.7828 203.361 44.2328C203.761 44.6828 204.286 44.9078 204.936 44.9078C205.436 44.9078 205.853 44.7911 206.187 44.5578C206.52 44.3244 206.749 43.9911 206.874 43.5578H208.099C207.916 44.2578 207.549 44.8203 206.999 45.2453C206.449 45.662 205.762 45.8703 204.936 45.8703C204.286 45.8703 203.707 45.7245 203.199 45.4328C202.699 45.1411 202.307 44.7286 202.024 44.1953C201.741 43.6619 201.599 43.0369 201.599 42.3202ZM212.604 45.8703C211.963 45.8703 211.379 45.7245 210.854 45.4328C210.338 45.1411 209.929 44.7286 209.629 44.1953C209.338 43.6536 209.192 43.0286 209.192 42.3202C209.192 41.6202 209.342 41.0035 209.642 40.4702C209.95 39.9285 210.367 39.516 210.892 39.2327C211.417 38.941 212.004 38.7952 212.654 38.7952C213.304 38.7952 213.892 38.941 214.417 39.2327C214.942 39.516 215.354 39.9243 215.654 40.4577C215.963 40.991 216.117 41.6119 216.117 42.3202C216.117 43.0286 215.959 43.6536 215.642 44.1953C215.334 44.7286 214.913 45.1411 214.379 45.4328C213.846 45.7245 213.254 45.8703 212.604 45.8703ZM212.604 44.8703C213.013 44.8703 213.396 44.7745 213.754 44.5828C214.113 44.3911 214.4 44.1036 214.617 43.7203C214.842 43.3369 214.954 42.8702 214.954 42.3202C214.954 41.7702 214.846 41.3035 214.629 40.9202C214.413 40.5369 214.129 40.2535 213.779 40.0702C213.429 39.8785 213.05 39.7827 212.642 39.7827C212.225 39.7827 211.842 39.8785 211.492 40.0702C211.15 40.2535 210.875 40.5369 210.667 40.9202C210.459 41.3035 210.354 41.7702 210.354 42.3202C210.354 42.8786 210.454 43.3494 210.654 43.7328C210.863 44.1161 211.138 44.4036 211.479 44.5953C211.821 44.7786 212.196 44.8703 212.604 44.8703ZM218.225 37.7951C218.008 37.7951 217.825 37.7201 217.675 37.5701C217.533 37.4201 217.463 37.2368 217.463 37.0201C217.463 36.8034 217.533 36.6201 217.675 36.4701C217.825 36.3201 218.008 36.2451 218.225 36.2451C218.442 36.2451 218.621 36.3201 218.763 36.4701C218.913 36.6201 218.988 36.8034 218.988 37.0201C218.988 37.2368 218.913 37.4201 218.763 37.5701C218.621 37.7201 218.442 37.7951 218.225 37.7951ZM218.788 47.2453C218.788 47.8537 218.634 48.2995 218.325 48.5829C218.017 48.8662 217.567 49.0079 216.975 49.0079H216.313V48.0454H216.788C217.104 48.0454 217.325 47.9829 217.45 47.8579C217.583 47.7329 217.65 47.5204 217.65 47.2203V38.9077H218.788V47.2453ZM223.701 45.8703C223.059 45.8703 222.476 45.7245 221.951 45.4328C221.434 45.1411 221.026 44.7286 220.726 44.1953C220.434 43.6536 220.288 43.0286 220.288 42.3202C220.288 41.6202 220.438 41.0035 220.738 40.4702C221.047 39.9285 221.463 39.516 221.988 39.2327C222.513 38.941 223.101 38.7952 223.751 38.7952C224.401 38.7952 224.988 38.941 225.513 39.2327C226.038 39.516 226.451 39.9243 226.751 40.4577C227.059 40.991 227.213 41.6119 227.213 42.3202C227.213 43.0286 227.055 43.6536 226.738 44.1953C226.43 44.7286 226.009 45.1411 225.476 45.4328C224.943 45.7245 224.351 45.8703 223.701 45.8703ZM223.701 44.8703C224.109 44.8703 224.493 44.7745 224.851 44.5828C225.209 44.3911 225.497 44.1036 225.713 43.7203C225.938 43.3369 226.051 42.8702 226.051 42.3202C226.051 41.7702 225.943 41.3035 225.726 40.9202C225.509 40.5369 225.226 40.2535 224.876 40.0702C224.526 39.8785 224.147 39.7827 223.738 39.7827C223.322 39.7827 222.938 39.8785 222.588 40.0702C222.247 40.2535 221.972 40.5369 221.763 40.9202C221.555 41.3035 221.451 41.7702 221.451 42.3202C221.451 42.8786 221.551 43.3494 221.751 43.7328C221.959 44.1161 222.234 44.4036 222.576 44.5953C222.918 44.7786 223.293 44.8703 223.701 44.8703ZM238.292 42.0702C238.292 42.2869 238.279 42.5161 238.254 42.7577H232.779C232.821 43.4328 233.05 43.9619 233.467 44.3453C233.892 44.7203 234.404 44.9078 235.004 44.9078C235.496 44.9078 235.904 44.7953 236.229 44.5703C236.563 44.3369 236.796 44.0286 236.929 43.6453H238.154C237.971 44.3036 237.604 44.8411 237.054 45.2578C236.504 45.6661 235.821 45.8703 235.004 45.8703C234.354 45.8703 233.771 45.7245 233.254 45.4328C232.746 45.1411 232.346 44.7286 232.054 44.1953C231.763 43.6536 231.617 43.0286 231.617 42.3202C231.617 41.6119 231.758 40.991 232.042 40.4577C232.325 39.9243 232.721 39.516 233.229 39.2327C233.746 38.941 234.338 38.7952 235.004 38.7952C235.654 38.7952 236.229 38.9368 236.729 39.2202C237.229 39.5035 237.613 39.8952 237.879 40.3952C238.154 40.8869 238.292 41.4452 238.292 42.0702ZM237.117 41.8327C237.117 41.3994 237.021 41.0285 236.829 40.7202C236.638 40.4035 236.375 40.166 236.042 40.0077C235.717 39.841 235.354 39.7577 234.954 39.7577C234.379 39.7577 233.888 39.941 233.479 40.3077C233.079 40.6744 232.85 41.1827 232.792 41.8327H237.117ZM243.131 38.7827C243.964 38.7827 244.639 39.0368 245.156 39.5452C245.673 40.0452 245.931 40.7702 245.931 41.7202V45.7578H244.806V41.8827C244.806 41.1994 244.635 40.6785 244.293 40.3202C243.952 39.9535 243.485 39.7702 242.893 39.7702C242.293 39.7702 241.814 39.9577 241.456 40.3327C241.106 40.7077 240.931 41.2535 240.931 41.9702V45.7578H239.793V38.9077H240.931V39.8827C241.156 39.5327 241.46 39.2618 241.843 39.0702C242.235 38.8785 242.664 38.7827 243.131 38.7827ZM256.484 37.0451V37.9701H254.109V45.7578H252.972V37.9701H250.584V37.0451H256.484ZM258.472 37.7951C258.255 37.7951 258.072 37.7201 257.922 37.5701C257.772 37.4201 257.697 37.2368 257.697 37.0201C257.697 36.8034 257.772 36.6201 257.922 36.4701C258.072 36.3201 258.255 36.2451 258.472 36.2451C258.68 36.2451 258.855 36.3201 258.997 36.4701C259.147 36.6201 259.222 36.8034 259.222 37.0201C259.222 37.2368 259.147 37.4201 258.997 37.5701C258.855 37.7201 258.68 37.7951 258.472 37.7951ZM259.022 38.9077V45.7578H257.885V38.9077H259.022ZM267.211 42.0702C267.211 42.2869 267.198 42.5161 267.173 42.7577H261.698C261.74 43.4328 261.969 43.9619 262.386 44.3453C262.811 44.7203 263.323 44.9078 263.923 44.9078C264.415 44.9078 264.823 44.7953 265.148 44.5703C265.482 44.3369 265.715 44.0286 265.848 43.6453H267.073C266.89 44.3036 266.523 44.8411 265.973 45.2578C265.423 45.6661 264.74 45.8703 263.923 45.8703C263.273 45.8703 262.69 45.7245 262.173 45.4328C261.665 45.1411 261.265 44.7286 260.973 44.1953C260.682 43.6536 260.536 43.0286 260.536 42.3202C260.536 41.6119 260.677 40.991 260.961 40.4577C261.244 39.9243 261.64 39.516 262.148 39.2327C262.665 38.941 263.257 38.7952 263.923 38.7952C264.573 38.7952 265.148 38.9368 265.648 39.2202C266.148 39.5035 266.532 39.8952 266.798 40.3952C267.073 40.8869 267.211 41.4452 267.211 42.0702ZM266.036 41.8327C266.036 41.3994 265.94 41.0285 265.748 40.7202C265.557 40.4035 265.294 40.166 264.961 40.0077C264.636 39.841 264.273 39.7577 263.873 39.7577C263.298 39.7577 262.807 39.941 262.398 40.3077C261.998 40.6744 261.769 41.1827 261.711 41.8327H266.036ZM272.05 38.7827C272.883 38.7827 273.558 39.0368 274.075 39.5452C274.592 40.0452 274.85 40.7702 274.85 41.7202V45.7578H273.725V41.8827C273.725 41.1994 273.554 40.6785 273.213 40.3202C272.871 39.9535 272.404 39.7702 271.813 39.7702C271.213 39.7702 270.733 39.9577 270.375 40.3327C270.025 40.7077 269.85 41.2535 269.85 41.9702V45.7578H268.712V38.9077H269.85V39.8827C270.075 39.5327 270.379 39.2618 270.763 39.0702C271.154 38.8785 271.583 38.7827 272.05 38.7827ZM276.283 42.3077C276.283 41.6077 276.425 40.9952 276.708 40.4702C276.992 39.9368 277.379 39.5243 277.871 39.2327C278.371 38.941 278.929 38.7952 279.546 38.7952C280.079 38.7952 280.575 38.9202 281.033 39.1702C281.492 39.4118 281.842 39.7327 282.083 40.1327V36.5076H283.233V45.7578H282.083V44.4703C281.858 44.8786 281.525 45.2161 281.083 45.4828C280.642 45.7411 280.125 45.8703 279.533 45.8703C278.925 45.8703 278.371 45.7203 277.871 45.4203C277.379 45.1203 276.992 44.6995 276.708 44.1578C276.425 43.6161 276.283 42.9994 276.283 42.3077ZM282.083 42.3202C282.083 41.8036 281.979 41.3535 281.771 40.9702C281.563 40.5869 281.279 40.2952 280.921 40.0952C280.571 39.8868 280.183 39.7827 279.758 39.7827C279.333 39.7827 278.946 39.8827 278.596 40.0827C278.246 40.2827 277.967 40.5744 277.758 40.9577C277.55 41.341 277.446 41.7911 277.446 42.3077C277.446 42.8327 277.55 43.2911 277.758 43.6828C277.967 44.0661 278.246 44.3619 278.596 44.5703C278.946 44.7703 279.333 44.8703 279.758 44.8703C280.183 44.8703 280.571 44.7703 280.921 44.5703C281.279 44.3619 281.563 44.0661 281.771 43.6828C281.979 43.2911 282.083 42.8369 282.083 42.3202ZM284.731 42.3077C284.731 41.6077 284.872 40.9952 285.156 40.4702C285.439 39.9368 285.827 39.5243 286.318 39.2327C286.818 38.941 287.372 38.7952 287.981 38.7952C288.581 38.7952 289.102 38.9243 289.543 39.1827C289.985 39.441 290.314 39.766 290.531 40.1577V38.9077H291.681V45.7578H290.531V44.4828C290.306 44.8828 289.968 45.2161 289.518 45.4828C289.077 45.7411 288.56 45.8703 287.968 45.8703C287.36 45.8703 286.81 45.7203 286.318 45.4203C285.827 45.1203 285.439 44.6995 285.156 44.1578C284.872 43.6161 284.731 42.9994 284.731 42.3077ZM290.531 42.3202C290.531 41.8036 290.427 41.3535 290.218 40.9702C290.01 40.5869 289.727 40.2952 289.368 40.0952C289.018 39.8868 288.631 39.7827 288.206 39.7827C287.781 39.7827 287.393 39.8827 287.043 40.0827C286.693 40.2827 286.414 40.5744 286.206 40.9577C285.997 41.341 285.893 41.7911 285.893 42.3077C285.893 42.8327 285.997 43.2911 286.206 43.6828C286.414 44.0661 286.693 44.3619 287.043 44.5703C287.393 44.7703 287.781 44.8703 288.206 44.8703C288.631 44.8703 289.018 44.7703 289.368 44.5703C289.727 44.3619 290.01 44.0661 290.218 43.6828C290.427 43.2911 290.531 42.8369 290.531 42.3202Z" fill="#5C546A"/>
<path fill-rule="evenodd" clip-rule="evenodd" d="M43.751 78.2949C47.2029 78.2949 50.0012 81.0932 50.0012 84.5451L50.0012 400.624C50.0012 404.076 47.2029 406.874 43.751 406.874C40.2992 406.874 37.5009 404.076 37.5009 400.624L37.5009 84.5451C37.5009 81.0932 40.2992 78.2949 43.751 78.2949Z" fill="#02A0FC"/>
<path fill-rule="evenodd" clip-rule="evenodd" d="M65.1802 113.119C68.632 113.119 71.4303 115.917 71.4303 119.369L71.4303 400.626C71.4303 404.078 68.632 406.876 65.1802 406.876C61.7283 406.876 58.93 404.078 58.93 400.626L58.93 119.369C58.93 115.917 61.7283 113.119 65.1802 113.119Z" fill="#34B53A"/>
<path fill-rule="evenodd" clip-rule="evenodd" d="M109.824 227.404C113.276 227.404 116.074 230.203 116.074 233.654L116.074 400.623C116.074 404.074 113.276 406.873 109.824 406.873C106.372 406.873 103.574 404.074 103.574 400.623L103.574 233.654C103.574 230.203 106.372 227.404 109.824 227.404Z" fill="#02A0FC"/>
<path fill-rule="evenodd" clip-rule="evenodd" d="M131.253 146.154C134.705 146.154 137.503 148.953 137.503 152.404L137.503 400.624C137.503 404.076 134.705 406.875 131.253 406.875C127.801 406.875 125.003 404.076 125.003 400.624L125.003 152.404C125.003 148.953 127.801 146.154 131.253 146.154Z" fill="#34B53A"/>
<path fill-rule="evenodd" clip-rule="evenodd" d="M175.897 180.086C179.349 180.086 182.147 182.884 182.147 186.336L182.147 400.627C182.147 404.079 179.349 406.877 175.897 406.877C172.445 406.877 169.647 404.079 169.647 400.627L169.647 186.336C169.647 182.884 172.445 180.086 175.897 180.086Z" fill="#02A0FC"/>
<path fill-rule="evenodd" clip-rule="evenodd" d="M197.326 205.086C200.778 205.086 203.576 207.884 203.576 211.336L203.576 400.626C203.576 404.078 200.778 406.876 197.326 406.876C193.874 406.876 191.076 404.078 191.076 400.626L191.076 211.336C191.076 207.884 193.874 205.086 197.326 205.086Z" fill="#34B53A"/>
<path fill-rule="evenodd" clip-rule="evenodd" d="M241.97 144.369C245.422 144.369 248.22 147.167 248.22 150.619L248.22 400.625C248.22 404.077 245.422 406.875 241.97 406.875C238.518 406.875 235.72 404.077 235.72 400.625L235.72 150.619C235.72 147.167 238.518 144.369 241.97 144.369Z" fill="#02A0FC"/>
<path fill-rule="evenodd" clip-rule="evenodd" d="M263.399 115.795C266.851 115.795 269.649 118.593 269.649 122.045L269.649 400.623C269.649 404.075 266.851 406.873 263.399 406.873C259.947 406.873 257.149 404.075 257.149 400.623L257.149 122.045C257.149 118.593 259.947 115.795 263.399 115.795Z" fill="#34B53A"/>
<path fill-rule="evenodd" clip-rule="evenodd" d="M308.043 97.0449C311.495 97.0449 314.293 99.8432 314.293 103.295L314.293 400.623C314.293 404.075 311.495 406.873 308.043 406.873C304.591 406.873 301.793 404.075 301.793 400.623L301.793 103.295C301.793 99.8432 304.591 97.0449 308.043 97.0449Z" fill="#02A0FC"/>
<path fill-rule="evenodd" clip-rule="evenodd" d="M329.472 135.439C332.924 135.439 335.722 138.238 335.722 141.69L335.722 400.624C335.722 404.076 332.924 406.874 329.472 406.874C326.02 406.874 323.222 404.076 323.222 400.624L323.222 141.69C323.222 138.238 326.02 135.439 329.472 135.439Z" fill="#34B53A"/>
<path fill-rule="evenodd" clip-rule="evenodd" d="M374.116 211.34C377.568 211.34 380.366 214.138 380.366 217.59L380.366 400.63C380.366 404.082 377.568 406.88 374.116 406.88C370.664 406.88 367.866 404.082 367.866 400.63L367.866 217.59C367.866 214.138 370.664 211.34 374.116 211.34Z" fill="#02A0FC"/>
<path fill-rule="evenodd" clip-rule="evenodd" d="M395.545 147.939C398.997 147.939 401.795 150.738 401.795 154.19L401.795 400.624C401.795 404.076 398.997 406.874 395.545 406.874C392.093 406.874 389.295 404.076 389.295 400.624L389.295 154.19C389.295 150.738 392.093 147.939 395.545 147.939Z" fill="#34B53A"/>
<path fill-rule="evenodd" clip-rule="evenodd" d="M440.189 78.2949C443.641 78.2949 446.439 81.0932 446.439 84.5451L446.439 400.624C446.439 404.076 443.641 406.874 440.189 406.874C436.737 406.874 433.939 404.076 433.939 400.624L433.939 84.5451C433.939 81.0932 436.737 78.2949 440.189 78.2949Z" fill="#02A0FC"/>
<path fill-rule="evenodd" clip-rule="evenodd" d="M461.618 122.045C465.07 122.045 467.868 124.843 467.868 128.295L467.868 400.623C467.868 404.075 465.07 406.873 461.618 406.873C458.166 406.873 455.368 404.075 455.368 400.623L455.368 128.295C455.368 124.843 458.166 122.045 461.618 122.045Z" fill="#34B53A"/>
<path fill-rule="evenodd" clip-rule="evenodd" d="M506.262 193.477C509.713 193.477 512.512 196.275 512.512 199.727V400.624C512.512 404.076 509.713 406.874 506.262 406.874C502.81 406.874 500.011 404.076 500.011 400.624L500.011 199.727C500.011 196.275 502.81 193.477 506.262 193.477Z" fill="#02A0FC"/>
<path fill-rule="evenodd" clip-rule="evenodd" d="M527.691 150.619C531.143 150.619 533.941 153.417 533.941 156.869V400.625C533.941 404.077 531.143 406.875 527.691 406.875C524.239 406.875 521.441 404.077 521.441 400.625V156.869C521.441 153.417 524.239 150.619 527.691 150.619Z" fill="#34B53A"/>
<path fill-rule="evenodd" clip-rule="evenodd" d="M572.335 106.869C575.786 106.869 578.585 109.667 578.585 113.119V400.626C578.585 404.078 575.786 406.876 572.335 406.876C568.883 406.876 566.084 404.078 566.084 400.626V113.119C566.084 109.667 568.883 106.869 572.335 106.869Z" fill="#02A0FC"/>
<path fill-rule="evenodd" clip-rule="evenodd" d="M593.764 138.119C597.215 138.119 600.014 140.917 600.014 144.369V400.625C600.014 404.077 597.215 406.875 593.764 406.875C590.312 406.875 587.513 404.077 587.513 400.625V144.369C587.513 140.917 590.312 138.119 593.764 138.119Z" fill="#34B53A"/>
<path fill-rule="evenodd" clip-rule="evenodd" d="M638.408 95.2617C641.859 95.2617 644.658 98.06 644.658 101.512V400.626C644.658 404.078 641.859 406.876 638.408 406.876C634.956 406.876 632.157 404.078 632.157 400.626V101.512C632.157 98.06 634.956 95.2617 638.408 95.2617Z" fill="#02A0FC"/>
<path fill-rule="evenodd" clip-rule="evenodd" d="M659.837 110.439C663.289 110.439 666.087 113.238 666.087 116.69V400.625C666.087 404.077 663.289 406.875 659.837 406.875C656.385 406.875 653.587 404.077 653.587 400.625V116.69C653.587 113.238 656.385 110.439 659.837 110.439Z" fill="#34B53A"/>
<path fill-rule="evenodd" clip-rule="evenodd" d="M704.48 255.982C707.932 255.982 710.73 258.781 710.73 262.233V400.629C710.73 404.08 707.932 406.879 704.48 406.879C701.028 406.879 698.23 404.08 698.23 400.629V262.233C698.23 258.781 701.028 255.982 704.48 255.982Z" fill="#02A0FC"/>
<path fill-rule="evenodd" clip-rule="evenodd" d="M725.909 214.016C729.361 214.016 732.16 216.814 732.16 220.266V400.627C732.16 404.079 729.361 406.877 725.909 406.877C722.458 406.877 719.659 404.079 719.659 400.627V220.266C719.659 216.814 722.458 214.016 725.909 214.016Z" fill="#34B53A"/>
<path fill-rule="evenodd" clip-rule="evenodd" d="M770.553 131.869C774.005 131.869 776.804 134.667 776.804 138.119V400.625C776.804 404.077 774.005 406.875 770.553 406.875C767.102 406.875 764.303 404.077 764.303 400.625V138.119C764.303 134.667 767.102 131.869 770.553 131.869Z" fill="#02A0FC"/>
<path fill-rule="evenodd" clip-rule="evenodd" d="M791.983 161.334C795.434 161.334 798.233 164.132 798.233 167.584V400.625C798.233 404.077 795.434 406.875 791.983 406.875C788.531 406.875 785.732 404.077 785.732 400.625V167.584C785.732 164.132 788.531 161.334 791.983 161.334Z" fill="#34B53A"/>
<defs>
<clipPath id="clip0">
<rect width="751.803" height="13.3932" fill="white" transform="translate(41.9653 416.693)"/>
</clipPath>
</defs>
</svg>
