<svg width="385" height="387" viewBox="0 0 385 387" fill="none" xmlns="http://www.w3.org/2000/svg">
<path d="M243.657 0.0585938C242.772 0.0595592 241.924 0.41133 241.299 1.03672C240.674 1.66212 240.322 2.51006 240.321 3.3945V141.279C240.322 142.163 240.674 143.011 241.299 143.636C241.924 144.262 242.772 144.614 243.657 144.614H381.541C382.425 144.614 383.273 144.262 383.899 143.636C384.524 143.011 384.876 142.163 384.877 141.279V3.3945C384.876 2.51006 384.524 1.66212 383.899 1.03672C383.273 0.41133 382.425 0.0595592 381.541 0.0585938H243.657Z" fill="#E6E6E6"/>
<path d="M240.321 144.779C240.31 151.553 241.865 158.238 244.865 164.311C245.204 165.009 245.563 165.686 245.943 166.363H323.058C323.438 165.686 323.797 165.009 324.135 164.311C327.079 158.342 328.637 151.784 328.691 145.128C328.746 138.473 327.296 131.89 324.45 125.874C321.604 119.857 317.435 114.56 312.255 110.38C307.075 106.201 301.018 103.245 294.535 101.734C288.053 100.223 281.313 100.197 274.819 101.656C268.325 103.115 262.244 106.023 257.032 110.162C251.819 114.301 247.608 119.564 244.715 125.558C241.821 131.552 240.319 138.123 240.321 144.779Z" fill="#65617D"/>
<path d="M283.381 148.69C275.042 148.69 268.281 141.929 268.281 133.589C268.281 125.25 275.042 118.489 283.381 118.489C291.721 118.489 298.481 125.25 298.481 133.589C298.481 141.929 291.721 148.69 283.381 148.69Z" fill="white"/>
<path d="M283.382 138.622C280.602 138.622 278.349 136.369 278.349 133.589C278.349 130.809 280.602 128.556 283.382 128.556C286.162 128.556 288.416 130.809 288.416 133.589C288.416 136.369 286.162 138.622 283.382 138.622Z" fill="#5C546A"/>
<path d="M327.359 103.687C330.926 87.7101 319.522 71.5662 301.888 67.6285C284.253 63.6908 267.065 73.4505 263.498 89.4273C259.93 105.404 271.617 111.297 289.252 115.234C306.887 119.172 323.791 119.664 327.359 103.687Z" fill="#FE5366"/>
<path d="M221.148 28.8965H348.357C349.717 28.897 351.022 29.4376 351.983 30.3994C352.945 31.3612 353.486 32.6656 353.486 34.0259V161.235C353.486 162.595 352.945 163.9 351.983 164.861C351.022 165.823 349.717 166.364 348.357 166.364H221.148C219.788 166.364 218.483 165.823 217.521 164.861C216.56 163.9 216.019 162.595 216.019 161.235V34.0259C216.019 32.6656 216.56 31.3612 217.521 30.3994C218.483 29.4376 219.788 28.897 221.148 28.8965ZM218.07 161.235C218.073 162.05 218.398 162.832 218.974 163.408C219.551 163.985 220.332 164.31 221.148 164.312H348.357C349.172 164.31 349.954 163.985 350.531 163.408C351.107 162.832 351.432 162.05 351.435 161.235V34.0259C351.432 33.2104 351.107 32.429 350.531 31.8523C349.954 31.2757 349.172 30.9506 348.357 30.9482H221.148C220.332 30.9506 219.551 31.2756 218.974 31.8523C218.398 32.429 218.073 33.2104 218.07 34.0259V161.235Z" fill="#5C546A"/>
<path d="M213.228 386.077C251.887 386.077 283.228 383.687 283.228 380.738C283.228 377.79 251.887 375.399 213.228 375.399C174.568 375.399 143.228 377.79 143.228 380.738C143.228 383.687 174.568 386.077 213.228 386.077Z" fill="#E6E6E6"/>
<path d="M243.694 290.569H8.85648C4.27848 290.569 0.568477 287.926 0.563477 284.669V233.627C0.568477 230.37 4.27848 227.727 8.85648 227.727H243.694C248.272 227.727 251.982 230.37 251.987 233.627V284.668C251.984 287.925 248.272 290.565 243.694 290.569ZM8.85648 230.085C6.10948 230.085 3.88346 231.671 3.88046 233.625V284.666C3.88046 286.62 6.10948 288.204 8.85648 288.206H243.694C246.441 288.206 248.667 286.62 248.67 284.666V233.627C248.67 231.673 246.441 230.089 243.694 230.087L8.85648 230.085Z" fill="#65617D"/>
<path d="M43.2275 277.738C53.7209 277.738 62.2275 269.232 62.2275 258.738C62.2275 248.245 53.7209 239.738 43.2275 239.738C32.7341 239.738 24.2275 248.245 24.2275 258.738C24.2275 269.232 32.7341 277.738 43.2275 277.738Z" fill="#FE5366"/>
<path d="M84.267 245.114C83.3161 245.13 82.4095 245.518 81.7427 246.196C81.0759 246.874 80.7021 247.787 80.7021 248.738C80.7021 249.689 81.0759 250.602 81.7427 251.28C82.4095 251.958 83.3161 252.347 84.267 252.363H220.145C221.105 252.376 222.031 252.008 222.719 251.34C223.408 250.672 223.804 249.757 223.82 248.798C223.836 247.838 223.47 246.911 222.803 246.221C222.137 245.53 221.224 245.132 220.264 245.114C220.224 245.113 220.185 245.113 220.145 245.114H84.267Z" fill="#65617D"/>
<path d="M84.267 265.114C83.3161 265.13 82.4095 265.518 81.7427 266.196C81.0759 266.874 80.7021 267.787 80.7021 268.738C80.7021 269.689 81.0759 270.602 81.7427 271.28C82.4095 271.958 83.3161 272.347 84.267 272.363H220.145C221.105 272.376 222.031 272.008 222.719 271.34C223.408 270.672 223.804 269.757 223.82 268.798C223.836 267.838 223.47 266.911 222.803 266.221C222.137 265.53 221.224 265.132 220.264 265.114C220.224 265.113 220.185 265.113 220.145 265.114H84.267Z" fill="#65617D"/>
<path d="M252.333 289.56C256.579 278.451 257.194 268.365 253.706 267.032C250.219 265.699 243.95 273.624 239.704 284.733C235.458 295.842 234.843 305.928 238.33 307.261C241.818 308.594 248.087 300.669 252.333 289.56Z" fill="#5C546A"/>
<path d="M248.723 326.567C252.533 303.089 236.589 280.967 213.11 277.157C189.632 273.347 167.51 289.292 163.7 312.77C159.89 336.248 175.835 358.37 199.313 362.18C222.791 365.99 244.913 350.046 248.723 326.567Z" fill="#5C546A"/>
<path d="M199.669 353.469H186.585V376.91H199.669V353.469Z" fill="#5C546A"/>
<path d="M225.837 353.469H212.753V376.91H225.837V353.469Z" fill="#5C546A"/>
<path d="M197.488 381.271C203.51 381.271 208.391 379.441 208.391 377.182C208.391 374.924 203.51 373.094 197.488 373.094C191.466 373.094 186.585 374.924 186.585 377.182C186.585 379.441 191.466 381.271 197.488 381.271Z" fill="#5C546A"/>
<path d="M223.656 380.726C229.678 380.726 234.559 378.896 234.559 376.638C234.559 374.379 229.678 372.549 223.656 372.549C217.634 372.549 212.753 374.379 212.753 376.638C212.753 378.896 217.634 380.726 223.656 380.726Z" fill="#5C546A"/>
<path d="M164.435 279.618C160.957 264.044 172.073 248.307 189.263 244.469C206.453 240.63 223.207 250.144 226.685 265.718C230.162 281.291 218.77 287.035 201.58 290.874C184.39 294.712 167.912 295.191 164.435 279.618Z" fill="#FE5366"/>
<path d="M177.16 308.913C178.76 305.54 171.346 298.674 160.601 293.577C149.855 288.481 139.847 287.084 138.247 290.458C136.648 293.831 144.061 300.697 154.807 305.793C165.552 310.89 175.56 312.286 177.16 308.913Z" fill="#5C546A"/>
</svg>
