<svg width="270" height="456" viewBox="0 0 270 456" fill="none" xmlns="http://www.w3.org/2000/svg">
<path d="M117.02 8.63281L30.0321 76.5952" stroke="#3F3D56" stroke-width="1.53318" stroke-miterlimit="10"/>
<path d="M79.8632 50.7275C75.2974 54.2947 68.7044 53.4852 65.1372 48.9194C61.57 44.3536 62.3795 37.7605 66.9453 34.1933C71.5111 30.6262 78.1042 31.4357 81.6714 36.0015C85.2385 40.5672 84.429 47.1603 79.8632 50.7275Z" fill="#FE5366"/>
<path d="M93.249 134.599C87.2783 118.978 86.4135 104.795 91.3175 102.92C96.2214 101.046 105.037 112.19 111.008 127.811C116.979 143.432 117.843 157.615 112.939 159.49C108.035 161.364 99.2197 150.22 93.249 134.599Z" fill="#5C546A"/>
<path d="M89.8722 115.054C84.0781 115.054 79.3811 110.357 79.3811 104.563C79.3811 98.7693 84.0781 94.0723 89.8722 94.0723C95.6663 94.0723 100.363 98.7693 100.363 104.563C100.363 110.357 95.6663 115.054 89.8722 115.054Z" fill="#FE5366"/>
<path d="M257.747 301.444C251.5 301.444 246.436 296.38 246.436 290.133C246.436 283.886 251.5 278.821 257.747 278.821C263.994 278.821 269.059 283.886 269.059 290.133C269.059 296.38 263.994 301.444 257.747 301.444Z" stroke="#3F3D56" stroke-width="1.53318" stroke-miterlimit="10"/>
<path d="M130.356 455.308C58.382 455.308 0.0354004 447.37 0.0354004 437.579C0.0354004 427.787 58.382 419.85 130.356 419.85C202.33 419.85 260.677 427.787 260.677 437.579C260.677 447.37 202.33 455.308 130.356 455.308Z" fill="#3F3D56"/>
<path d="M137.406 411.514C103.959 411.514 76.8447 384.4 76.8447 350.953C76.8447 317.507 103.959 290.393 137.406 290.393C170.852 290.393 197.966 317.507 197.966 350.953C197.966 384.4 170.852 411.514 137.406 411.514Z" fill="#5C546A"/>
<path d="M146.604 398.483H165.002V431.447H146.604V398.483Z" fill="#5C546A"/>
<path d="M109.808 398.483H128.206V431.447H109.808V398.483Z" fill="#5C546A"/>
<path d="M149.671 437.579C141.203 437.579 134.339 435.005 134.339 431.83C134.339 428.654 141.203 426.08 149.671 426.08C158.138 426.08 165.002 428.654 165.002 431.83C165.002 435.005 158.138 437.579 149.671 437.579Z" fill="#5C546A"/>
<path d="M112.874 436.812C104.407 436.812 97.5424 434.238 97.5424 431.063C97.5424 427.888 104.407 425.313 112.874 425.313C121.342 425.313 128.206 427.888 128.206 431.063C128.206 434.238 121.342 436.812 112.874 436.812Z" fill="#5C546A"/>
<path d="M135.872 356.32C124.441 356.32 115.174 347.053 115.174 335.622C115.174 324.191 124.441 314.924 135.872 314.924C147.304 314.924 156.57 324.191 156.57 335.622C156.57 347.053 147.304 356.32 135.872 356.32Z" fill="white"/>
<path d="M135.873 342.521C132.062 342.521 128.973 339.432 128.973 335.622C128.973 331.812 132.062 328.723 135.873 328.723C139.683 328.723 142.772 331.812 142.772 335.622C142.772 339.432 139.683 342.521 135.873 342.521Z" fill="#3F3D56"/>
<path d="M196.152 294.635C201.042 272.735 185.41 250.606 161.238 245.209C137.066 239.811 113.506 253.189 108.616 275.089C103.726 296.988 119.746 305.065 143.918 310.463C168.09 315.86 191.262 316.534 196.152 294.635Z" fill="#FE5366"/>
<path d="M158.103 237.499C124.656 237.499 97.5425 210.385 97.5425 176.938C97.5425 143.491 124.656 116.377 158.103 116.377C191.55 116.377 218.664 143.491 218.664 176.938C218.664 210.385 191.55 237.499 158.103 237.499Z" fill="#5C546A"/>
<path d="M167.302 224.467H185.701V257.43H167.302V224.467Z" fill="#5C546A"/>
<path d="M130.506 224.467H148.904V257.43H130.506V224.467Z" fill="#5C546A"/>
<path d="M170.369 263.562C161.901 263.562 155.037 260.988 155.037 257.813C155.037 254.638 161.901 252.063 170.369 252.063C178.836 252.063 185.701 254.638 185.701 257.813C185.701 260.988 178.836 263.562 170.369 263.562Z" fill="#5C546A"/>
<path d="M133.572 262.796C125.105 262.796 118.241 260.222 118.241 257.046C118.241 253.871 125.105 251.297 133.572 251.297C142.04 251.297 148.904 253.871 148.904 257.046C148.904 260.222 142.04 262.796 133.572 262.796Z" fill="#5C546A"/>
<path d="M156.571 182.304C145.139 182.304 135.873 173.037 135.873 161.606C135.873 150.175 145.139 140.908 156.571 140.908C168.002 140.908 177.269 150.175 177.269 161.606C177.269 173.037 168.002 182.304 156.571 182.304Z" fill="white"/>
<path d="M156.57 168.505C152.76 168.505 149.671 165.416 149.671 161.605C149.671 157.795 152.76 154.706 156.57 154.706C160.38 154.706 163.469 157.795 163.469 161.605C163.469 165.416 160.38 168.505 156.57 168.505Z" fill="#3F3D56"/>
<path d="M216.85 120.618C221.74 98.7184 206.108 76.5897 181.936 71.1922C157.764 65.7948 134.204 79.1725 129.314 101.072C124.424 122.972 140.444 131.049 164.616 136.446C188.789 141.844 211.96 142.518 216.85 120.618Z" fill="#FE5366"/>
<path d="M198.956 161.813C196.706 157.07 207.132 147.415 222.242 140.248C237.352 133.082 251.425 131.118 253.674 135.861C255.924 140.605 245.499 150.26 230.389 157.426C215.279 164.593 201.206 166.557 198.956 161.813Z" fill="#5C546A"/>
<path d="M165.384 355.102C164.665 349.902 177.511 343.829 194.077 341.537C210.642 339.246 224.655 341.605 225.374 346.805C226.093 352.006 213.247 358.079 196.681 360.37C180.116 362.661 166.103 360.303 165.384 355.102Z" fill="#5C546A"/>
<path d="M105.363 362.433C107.818 357.792 97.8237 347.691 83.0406 339.873C68.2575 332.054 54.2837 329.478 51.8291 334.118C49.3746 338.759 59.3688 348.86 74.1519 356.679C88.935 364.497 102.909 367.073 105.363 362.433Z" fill="#5C546A"/>
<path d="M187.851 198.786C187.851 204.714 172.589 216.418 155.654 216.418C138.719 216.418 122.841 199.731 122.841 193.804C122.841 187.876 138.719 194.953 155.654 194.953C172.589 194.953 187.851 192.859 187.851 198.786Z" fill="white"/>
<path d="M152.392 372.736C152.392 377.368 149.662 387.923 132.727 387.923C115.792 387.923 110.708 374.833 110.708 370.201C110.708 365.569 115.792 367.135 132.727 367.135C149.662 367.135 152.392 368.103 152.392 372.736Z" fill="white"/>
<path d="M31.6336 170.805H59.231V198.402H31.6336V170.805Z" fill="#FF6584"/>
<path d="M38.5326 161.606H66.1299V189.204H38.5326V161.606Z" stroke="#3F3D56" stroke-width="1.53318" stroke-miterlimit="10"/>
<path d="M207.927 430.124C202.133 430.124 197.436 425.427 197.436 419.633C197.436 413.839 202.133 409.142 207.927 409.142C213.721 409.142 218.418 413.839 218.418 419.633C218.418 425.427 213.721 430.124 207.927 430.124Z" fill="#FE5366"/>
<path d="M36.3709 407.348H63.9683V434.945H36.3709V407.348Z" fill="#FF6584"/>
<path d="M63.8082 436.257C58.0142 436.257 53.3171 431.56 53.3171 425.766C53.3171 419.971 58.0142 415.274 63.8082 415.274C69.6023 415.274 74.2993 419.971 74.2993 425.766C74.2993 431.56 69.6023 436.257 63.8082 436.257Z" fill="#FE5366"/>
</svg>
