<svg width="48" height="48" viewBox="0 0 48 48" fill="none" xmlns="http://www.w3.org/2000/svg">
<path fill-rule="evenodd" clip-rule="evenodd" d="M24.3556 47.8694C37.3969 47.8694 47.969 37.2973 47.969 24.256C47.969 11.2147 37.3969 0.642578 24.3556 0.642578C11.3143 0.642578 0.742188 11.2147 0.742188 24.256C0.742188 37.2973 11.3143 47.8694 24.3556 47.8694Z" fill="#FFE5D3"/>
<path d="M24.3666 16.8652L22.1977 21.2605L17.3452 21.9659L20.8559 25.3893L20.0265 30.2211L24.3666 27.9396L28.7068 30.2188L27.8774 25.387L31.3881 21.9659L26.5356 21.2605L24.3666 16.8652Z" fill="#FFE5D3"/>
<path d="M33.468 20.5982L27.6344 19.7504L25.0267 14.4637C24.9554 14.3189 24.8382 14.2017 24.6935 14.1305C24.3305 13.9513 23.8893 14.1006 23.7078 14.4637L21.1001 19.7504L15.2665 20.5982C15.1057 20.6212 14.9586 20.697 14.846 20.8119C14.7099 20.9518 14.6349 21.14 14.6375 21.3352C14.6401 21.5303 14.7201 21.7165 14.8598 21.8527L19.0805 25.9677L18.0833 31.7783C18.06 31.9135 18.0749 32.0525 18.1265 32.1796C18.1781 32.3067 18.2643 32.4168 18.3753 32.4974C18.4863 32.578 18.6176 32.6259 18.7545 32.6356C18.8913 32.6454 19.0281 32.6166 19.1494 32.5526L24.3672 29.8093L29.5851 32.5526C29.7275 32.6284 29.8929 32.6537 30.0515 32.6261C30.4513 32.5572 30.7201 32.1781 30.6511 31.7783L29.654 25.9677L33.8747 21.8527C33.9895 21.7401 34.0654 21.5931 34.0883 21.4323C34.1504 21.0302 33.8701 20.658 33.468 20.5982ZM27.878 25.3887L28.7074 30.2205L24.3672 27.9413L20.0271 30.2228L20.8565 25.391L17.3458 21.9676L22.1983 21.2622L24.3672 16.8669L26.5362 21.2622L31.3887 21.9676L27.878 25.3887Z" fill="#FF3A29"/>
</svg>
