<svg width="661" height="490" viewBox="0 0 661 490" fill="none" xmlns="http://www.w3.org/2000/svg">
<g clip-path="url(#clip0)">
<path d="M475.194 290.914L480.389 287.708C480.883 287.395 481.369 287.061 481.87 286.748C470.729 284.832 460.575 279.169 453.091 270.696C445.607 262.223 441.241 251.448 440.715 240.155C440.333 232.388 441.802 224.642 444.999 217.554C447.976 210.922 452.372 205.024 457.876 200.275C463.38 195.526 469.859 192.043 476.856 190.071L476.599 210.516L487.83 188.263C487.876 188.255 487.923 188.255 487.969 188.263C494.477 187.959 500.982 188.94 507.111 191.15C513.24 193.36 518.874 196.755 523.69 201.143C528.507 205.53 532.412 210.823 535.183 216.72C537.954 222.616 539.537 229.001 539.84 235.509C539.882 236.455 539.84 237.387 539.84 238.291C543.749 233.833 547.295 229.056 549.646 223.819C554.402 213.214 554.514 201.204 554.117 186.608C553.366 157.678 552.121 128.533 550.494 99.4714C538.768 98.1691 527.89 92.7279 519.815 84.1254C511.74 75.5228 506.998 64.3228 506.439 52.5375C506.37 51.0145 506.391 49.5194 506.439 48.0312C506.439 47.6626 506.439 47.2871 506.495 46.9185C506.592 45.479 506.724 44.0534 506.947 42.6486C506.947 42.4122 507.03 42.1897 507.072 41.9532C507.276 40.7617 507.52 39.5841 507.802 38.4205C507.914 37.9893 508.018 37.5512 508.136 37.12C508.484 35.8544 508.832 34.6096 509.311 33.3787C509.457 32.9684 509.631 32.572 509.784 32.1686C510.139 31.2646 510.521 30.3745 510.925 29.4913C511.14 29.0254 511.349 28.5664 511.578 28.1004C511.634 27.9822 511.683 27.864 511.745 27.7458C516.981 17.4038 525.676 9.22348 536.317 4.62686C546.959 0.0302375 558.875 -0.692074 569.994 2.58548L569.66 29.1922L580.787 7.21698C589.913 12.4411 597.131 20.4465 601.385 30.0639C605.638 39.6813 606.706 50.4068 604.431 60.6739H604.487C604.41 61.0286 604.299 61.3693 604.215 61.717C604.062 62.3707 603.895 63.0175 603.715 63.6642C603.478 64.4918 603.214 65.3054 602.943 66.1191C602.734 66.7241 602.532 67.343 602.303 67.941C601.969 68.8173 601.608 69.6726 601.204 70.528C600.982 71.0287 600.78 71.5364 600.509 72.0301C599.874 73.3097 599.178 74.5614 598.422 75.7854C598.165 76.2096 597.873 76.6129 597.602 77.0371C597.073 77.8577 596.538 78.6714 595.961 79.4642C595.606 79.951 595.224 80.4169 594.848 80.8967C594.306 81.5921 593.749 82.2876 593.172 82.9204C592.762 83.3863 592.345 83.8453 591.913 84.3112C591.308 84.951 590.682 85.57 590.036 86.1819C589.612 86.5922 589.18 87.0025 588.735 87.392C588.005 88.0387 587.24 88.6576 586.468 89.2626C586.079 89.5686 585.703 89.8885 585.3 90.1806C584.127 91.0522 582.915 91.8705 581.663 92.6354C581.426 92.7745 581.176 92.8927 580.967 93.0318C579.924 93.6507 578.881 94.2279 577.762 94.7704C577.296 94.9998 576.809 95.2015 576.329 95.4171C575.432 95.8204 574.528 96.2099 573.603 96.5645C573.067 96.7662 572.518 96.954 571.969 97.1417C571.058 97.4547 570.133 97.7398 569.187 97.9971C568.631 98.1501 568.081 98.3031 567.518 98.4352C566.503 98.6786 565.467 98.8803 564.423 99.0541C564.354 99.0541 564.291 99.0541 564.222 99.0959C564.908 111.354 565.518 123.619 566.051 135.891C569.009 129.818 573.176 124.414 578.297 120.01C583.418 115.606 589.385 112.295 595.832 110.28C602.278 108.264 609.069 107.587 615.787 108.29C622.504 108.993 629.007 111.061 634.897 114.367L626.128 138.394L644.167 121.071C653.824 129.922 659.576 142.242 660.162 155.328C660.391 159.919 659.968 164.52 658.903 168.993C656.637 178.671 651.515 187.445 644.2 194.176C636.886 200.908 627.718 205.286 617.885 206.742C608.052 208.199 598.008 206.667 589.057 202.345C580.106 198.023 572.66 191.11 567.685 182.505C567.685 183.749 567.775 185.001 567.81 186.246C568.137 199.125 568.547 215.148 562.129 229.459C557.782 239.16 550.779 247.04 543.86 254.098C539.36 258.695 534.694 263.138 529.91 267.443C525.205 273.76 519.065 278.866 511.996 282.339C504.137 288.394 496.001 294.064 487.586 299.349L482.475 302.645C477.753 305.573 472.913 308.577 468.163 311.686C468.998 311.602 469.825 311.512 470.674 311.477C481.187 310.985 491.585 313.847 500.366 319.651C509.146 325.455 515.854 333.9 519.52 343.765L488.518 369.002L522.594 361.095C522.585 369.485 520.449 377.735 516.386 385.075C512.324 392.415 506.467 398.606 499.363 403.068C492.259 407.531 484.139 410.12 475.763 410.593C467.387 411.067 459.028 409.41 451.466 405.776C452.231 406.736 453.003 407.689 453.768 408.641C455.291 410.54 456.807 412.424 458.288 414.295C478.456 439.838 484.075 464.094 474.081 482.585L461.939 476.02C471.675 458.023 457.071 434.991 447.454 422.849C446 421.013 444.512 419.163 443.01 417.285C430.124 401.291 415.52 383.126 415.889 360.866C416.41 327.347 449.018 307.131 475.194 290.914Z" fill="#F2F2F2"/>
<path d="M316.764 489.958C491.708 489.958 633.528 483.419 633.528 475.354C633.528 467.288 491.708 460.75 316.764 460.75C141.82 460.75 0 467.288 0 475.354C0 483.419 141.82 489.958 316.764 489.958Z" fill="#3F3D56"/>
<path d="M572.671 469.907C574.757 466.076 572.393 461.382 569.695 457.96C566.996 454.539 563.707 451.006 563.776 446.632C563.874 440.373 570.515 436.68 575.828 433.363C579.763 430.899 583.392 427.979 586.642 424.663C588.006 423.388 589.134 421.881 589.973 420.213C591.065 417.765 591.037 414.983 590.967 412.299C590.736 403.37 590.295 394.45 589.646 385.539" stroke="#3F3D56" stroke-width="4" stroke-miterlimit="10"/>
<path d="M599.737 385.069C599.659 383.435 599.173 381.847 598.322 380.45C597.472 379.052 596.284 377.891 594.869 377.071L592.685 381.397L592.748 376.167C591.254 375.72 589.675 375.638 588.143 375.928C586.611 376.218 585.171 376.871 583.945 377.833C582.718 378.796 581.74 380.039 581.094 381.457C580.447 382.876 580.151 384.43 580.23 385.987C580.352 388.569 581.494 390.997 583.406 392.737C584.353 393.598 585.46 394.265 586.664 394.698C587.869 395.132 589.147 395.324 590.425 395.264C591.704 395.203 592.958 394.892 594.116 394.347C595.274 393.802 596.314 393.034 597.175 392.088C598.036 391.141 598.703 390.034 599.137 388.83C599.57 387.625 599.762 386.347 599.702 385.069H599.737Z" fill="#57B793"/>
<path d="M582.331 451.134C581.309 453.119 579.635 454.692 577.591 455.591C575.547 456.489 573.256 456.657 571.103 456.067C568.949 455.478 567.064 454.166 565.763 452.351C564.461 450.537 563.823 448.33 563.956 446.101C564.088 443.872 564.982 441.756 566.488 440.108C567.995 438.46 570.022 437.38 572.23 437.049C574.438 436.718 576.693 437.156 578.617 438.289C580.541 439.423 582.016 441.183 582.797 443.275L576.705 448.234L583.409 446.676C583.409 448.226 583.04 449.755 582.331 451.134Z" fill="#57B793"/>
<path d="M577.512 432.154C576.231 432.216 574.951 432.024 573.745 431.589C572.539 431.155 571.43 430.487 570.483 429.623C569.536 428.759 568.768 427.716 568.225 426.555C567.682 425.394 567.373 424.137 567.317 422.856C567.239 421.329 567.528 419.805 568.159 418.412C568.743 417.108 569.606 415.947 570.687 415.013C571.769 414.078 573.042 413.392 574.417 413.002L574.369 417.029L576.58 412.647C579.167 412.527 581.696 413.438 583.61 415.182C585.525 416.926 586.668 419.358 586.789 421.945C586.91 424.532 585.998 427.061 584.254 428.975C582.511 430.89 580.078 432.033 577.491 432.154H577.512Z" fill="#57B793"/>
<path d="M601.205 416.362C598.623 416.484 596.098 415.575 594.186 413.835C592.274 412.096 591.132 409.668 591.01 407.085C590.888 404.503 591.797 401.979 593.537 400.067C595.277 398.155 597.705 397.012 600.287 396.891C602.112 396.801 603.925 397.23 605.516 398.129L603.792 402.857L607.338 399.45C609.241 401.189 610.377 403.613 610.495 406.188C610.54 407.091 610.455 407.994 610.245 408.873C609.758 410.935 608.612 412.782 606.981 414.133C605.349 415.485 603.321 416.268 601.205 416.362Z" fill="#57B793"/>
<path opacity="0.1" d="M598.423 387.64C596.169 387.89 593.979 388.593 591.719 388.732C589.459 388.871 586.976 388.328 585.543 386.569C584.771 385.623 584.389 384.427 583.735 383.398C583.12 382.436 582.276 381.641 581.28 381.082C580.692 382.313 580.368 383.654 580.331 385.018C580.294 386.382 580.543 387.739 581.064 389C581.585 390.261 582.365 391.399 583.354 392.339C584.343 393.279 585.519 394.001 586.804 394.458C588.09 394.915 589.458 395.096 590.818 394.99C592.179 394.884 593.502 394.494 594.701 393.844C595.901 393.193 596.951 392.298 597.782 391.216C598.614 390.135 599.209 388.89 599.528 387.563C599.153 387.577 598.784 387.605 598.423 387.64Z" fill="black"/>
<path opacity="0.1" d="M601.205 416.362C599.522 416.447 597.845 416.094 596.339 415.337C594.833 414.58 593.55 413.445 592.614 412.043C591.678 410.642 591.122 409.021 591.001 407.34C590.879 405.659 591.196 403.975 591.921 402.453C592.696 402.976 593.362 403.645 593.882 404.421C594.577 405.471 594.995 406.681 595.815 407.648C597.331 409.435 599.932 410.019 602.29 409.908C604.647 409.797 606.914 409.136 609.244 408.921C609.564 408.921 609.898 408.865 610.224 408.858C609.741 410.919 608.599 412.767 606.972 414.121C605.344 415.475 603.32 416.262 601.205 416.362Z" fill="black"/>
<path opacity="0.1" d="M577.512 432.156C576.231 432.217 574.951 432.025 573.745 431.591C572.539 431.157 571.43 430.488 570.483 429.625C569.536 428.761 568.768 427.718 568.225 426.557C567.682 425.396 567.373 424.139 567.317 422.858C567.239 421.331 567.528 419.807 568.159 418.414C568.968 418.943 569.675 419.615 570.245 420.396C571.003 421.467 571.476 422.698 572.331 423.685C573.979 425.521 576.747 426.168 579.244 426.105C581.74 426.043 583.986 425.459 586.392 425.278C585.799 427.198 584.627 428.888 583.038 430.119C581.449 431.35 579.52 432.061 577.512 432.156Z" fill="black"/>
<path opacity="0.1" d="M582.331 451.13C581.806 452.299 581.055 453.352 580.123 454.231C579.191 455.109 578.095 455.796 576.897 456.251C575.7 456.706 574.424 456.92 573.144 456.882C571.863 456.844 570.603 456.554 569.434 456.029C568.266 455.504 567.212 454.754 566.333 453.822C565.455 452.89 564.769 451.793 564.314 450.596C563.859 449.398 563.644 448.123 563.682 446.842C563.72 445.562 564.01 444.301 564.535 443.133C565.336 443.665 566.057 444.309 566.677 445.045C567.602 446.179 568.214 447.458 569.292 448.522C571.287 450.476 574.507 451.304 577.372 451.36C579.028 451.381 580.684 451.305 582.331 451.13Z" fill="black"/>
<path d="M557.956 465.493C557.956 465.493 565.654 465.256 567.977 463.601C570.3 461.946 579.799 459.971 580.404 462.628C581.009 465.284 591.983 475.841 583.283 475.883C574.584 475.924 563.074 474.492 560.759 473.101C558.443 471.71 557.956 465.493 557.956 465.493Z" fill="#656380"/>
<path opacity="0.2" d="M583.436 474.957C574.744 475.027 563.227 473.566 560.912 472.176C559.152 471.105 558.443 467.245 558.213 465.465H557.956C557.956 465.465 558.443 471.675 560.738 473.114C563.033 474.554 574.563 475.952 583.262 475.896C585.773 475.896 586.642 474.978 586.593 473.657C586.267 474.443 585.307 474.943 583.436 474.957Z" fill="black"/>
<path d="M135.197 448.455C130.148 439.108 135.893 427.662 142.457 419.331C149.022 410.999 157.061 402.334 156.887 391.715C156.637 376.458 140.448 367.452 127.513 359.364C117.915 353.362 109.061 346.245 101.135 338.161C97.9574 334.914 94.8767 331.45 93.0269 327.306C90.3565 321.339 90.426 314.559 90.5999 308.022C91.1562 286.232 92.2318 264.484 93.8266 242.777" stroke="#3F3D56" stroke-width="4" stroke-miterlimit="10"/>
<path d="M69.2293 241.586C69.4198 237.606 70.6072 233.736 72.6826 230.334C74.7579 226.932 77.6548 224.106 81.1071 222.115L86.434 232.65L86.2741 219.896C91.1135 218.47 96.2808 218.619 101.03 220.321C105.779 222.024 109.865 225.191 112.696 229.367C115.528 233.543 116.959 238.51 116.783 243.552C116.608 248.594 114.834 253.45 111.718 257.418C108.603 261.386 104.307 264.262 99.4508 265.629C94.5946 266.997 89.4294 266.786 84.701 265.026C79.9727 263.267 75.9259 260.05 73.1449 255.841C70.3639 251.631 68.9927 246.647 69.2293 241.607V241.586Z" fill="#57B793"/>
<path d="M111.664 402.618C114.056 407.281 117.921 411.022 122.659 413.262C127.396 415.502 132.741 416.114 137.862 415.004C142.984 413.894 147.595 411.124 150.98 407.124C154.365 403.123 156.334 398.117 156.581 392.883C156.747 389.592 156.219 386.303 155.03 383.23C153.293 378.723 150.225 374.851 146.234 372.129C142.243 369.407 137.519 367.965 132.688 367.993C127.857 368.021 123.15 369.518 119.191 372.286C115.232 375.053 112.209 378.96 110.523 383.487L125.385 395.574L109.035 391.77C109.028 395.545 109.93 399.266 111.664 402.618Z" fill="#57B793"/>
<path d="M123.409 356.428C129.243 356.695 134.972 354.807 139.504 351.124C144.036 347.44 147.056 342.219 147.988 336.453C148.92 330.688 147.699 324.781 144.558 319.857C141.417 314.933 136.575 311.336 130.954 309.751L131.079 319.55L125.725 308.889H125.662C119.357 308.595 113.193 310.817 108.527 315.068C103.861 319.318 101.074 325.248 100.78 331.553C100.486 337.858 102.708 344.021 106.958 348.688C111.209 353.354 117.139 356.141 123.444 356.435L123.409 356.428Z" fill="#57B793"/>
<path d="M65.6472 317.992C69.331 318.172 73.0061 317.492 76.3824 316.008C79.7587 314.524 82.7438 312.275 85.102 309.439C87.4603 306.604 89.1272 303.259 89.9711 299.669C90.8151 296.078 90.813 292.341 89.965 288.752C89.117 285.162 87.4464 281.819 85.0849 278.986C82.7235 276.153 79.7358 273.908 76.3579 272.427C72.9799 270.947 69.3041 270.272 65.6205 270.455C61.9369 270.639 58.3465 271.676 55.1325 273.485L59.305 285.008L50.6887 276.684C48.3854 278.78 46.518 281.31 45.1935 284.128C43.8689 286.947 43.1132 289.999 42.9696 293.11C42.8591 295.311 43.0629 297.517 43.5746 299.661C44.7574 304.702 47.5528 309.22 51.5364 312.528C55.5201 315.837 60.4744 317.755 65.6472 317.992Z" fill="#57B793"/>
<path opacity="0.1" d="M72.4281 247.932C77.9219 248.537 83.2627 250.241 88.7704 250.582C94.2782 250.922 100.335 249.608 103.819 245.324C105.697 243.016 106.636 240.095 108.221 237.577C109.724 235.232 111.783 233.294 114.216 231.938C115.731 234.953 116.587 238.256 116.728 241.628C116.868 245 116.29 248.363 115.032 251.494C113.773 254.626 111.863 257.453 109.428 259.79C106.994 262.127 104.09 263.919 100.909 265.047C97.7288 266.176 94.3448 266.615 90.9816 266.336C87.6185 266.056 84.3533 265.065 81.4026 263.427C78.4519 261.79 75.8833 259.543 73.8672 256.837C71.8511 254.131 70.4337 251.026 69.709 247.731C70.6339 247.772 71.5379 247.835 72.4281 247.932Z" fill="black"/>
<path opacity="0.1" d="M65.6474 317.995C69.7478 318.184 73.8275 317.31 77.4905 315.457C81.1534 313.605 84.2753 310.837 86.553 307.422C88.8308 304.007 90.187 300.061 90.4902 295.968C90.7934 291.874 90.0331 287.772 88.2833 284.059C86.394 285.329 84.7692 286.954 83.4988 288.843C81.802 291.402 80.7797 294.358 78.7838 296.708C75.0772 301.062 68.7489 302.487 63.0048 302.23C57.2606 301.973 51.7181 300.331 46.0017 299.81C45.209 299.74 44.4023 299.685 43.6025 299.664C44.784 304.701 47.5753 309.215 51.5533 312.523C55.5314 315.831 60.4794 317.752 65.6474 317.995Z" fill="black"/>
<path opacity="0.1" d="M123.409 356.428C127.469 356.619 131.511 355.766 135.148 353.951C138.785 352.136 141.897 349.419 144.186 346.059C146.474 342.7 147.864 338.81 148.223 334.761C148.581 330.712 147.896 326.639 146.233 322.93C144.273 324.231 142.569 325.881 141.205 327.798C139.355 330.405 138.201 333.41 136.038 335.816C132.025 340.287 125.28 341.866 119.195 341.72C113.304 341.595 107.63 340.148 101.774 339.696C103.224 344.37 106.079 348.484 109.95 351.478C113.821 354.472 118.521 356.2 123.409 356.428Z" fill="black"/>
<path opacity="0.1" d="M111.663 402.619C114.055 407.281 117.921 411.023 122.658 413.263C127.396 415.502 132.74 416.115 137.861 415.005C142.983 413.895 147.594 411.124 150.979 407.124C154.364 403.124 156.333 398.117 156.58 392.883C156.746 389.592 156.218 386.303 155.029 383.23C153.072 384.516 151.314 386.084 149.814 387.883C147.554 390.665 146.059 393.766 143.444 396.339C138.576 401.11 130.725 403.085 123.736 403.293C119.702 403.307 115.67 403.082 111.663 402.619Z" fill="black"/>
<path d="M299.88 462.349L208.084 481.125L205.998 480.917L125.329 472.78V370.553L224.079 353.863L295.707 362.208L295.728 362.66L295.735 362.883L299.88 462.349Z" fill="#FFA001"/>
<path opacity="0.1" d="M299.879 462.349L208.083 481.125L205.997 480.916V376.117L295.727 362.66L299.879 462.349Z" fill="black"/>
<path opacity="0.05" d="M295.735 362.883L295.707 362.904L205.998 376.117L125.329 370.553L224.079 353.863L295.707 362.208L295.728 362.66L295.735 362.883Z" fill="black"/>
<path d="M400.715 466.521L308.92 485.297L306.834 485.088L226.165 476.952V374.725L324.915 358.035L396.543 366.38L396.564 366.832L396.571 367.055L400.715 466.521Z" fill="#3F3D56"/>
<path opacity="0.1" d="M400.715 466.521L308.919 485.297L306.833 485.088V380.288L396.563 366.832L400.715 466.521Z" fill="black"/>
<path opacity="0.05" d="M396.571 367.055L396.543 367.076L306.834 380.289L226.165 374.725L324.915 358.035L396.543 366.38L396.564 366.832L396.571 367.055Z" fill="black"/>
<path d="M337.432 366.38L245.637 385.156L243.551 384.948L162.882 376.811V274.585L261.631 257.895L333.26 266.24L333.281 266.692L333.288 266.914L337.432 366.38Z" fill="#3F3D56"/>
<path opacity="0.1" d="M337.432 366.38L245.636 385.156L243.55 384.948V280.148L333.28 266.691L337.432 366.38Z" fill="black"/>
<path opacity="0.05" d="M333.288 266.914L333.26 266.935L243.551 280.148L162.882 274.585L261.631 257.895L333.26 266.24L333.281 266.692L333.288 266.914Z" fill="black"/>
<path d="M389.588 370.664L341.681 380.47L340.589 380.358L298.488 376.109V322.757L350.026 314.043L387.412 318.403L387.426 318.64V318.751L389.588 370.664Z" fill="#3F3D56"/>
<path opacity="0.1" d="M389.588 370.665L341.681 380.47L340.589 380.359V325.664L387.425 318.641L389.588 370.665Z" fill="black"/>
<path opacity="0.05" d="M387.426 318.751L387.412 318.765L340.589 325.663L298.488 322.757L350.026 314.043L387.412 318.403L387.426 318.64V318.751Z" fill="black"/>
<path d="M260.936 267.047L213.028 276.845L211.937 276.741L169.836 272.492V219.139L221.374 210.426L258.759 214.786L258.773 215.022V215.134L260.936 267.047Z" fill="#3F3D56"/>
<path opacity="0.1" d="M260.936 267.048L213.028 276.846L211.937 276.742V222.047L258.773 215.023L260.936 267.048Z" fill="black"/>
<path opacity="0.05" d="M258.773 215.134L258.759 215.148L211.937 222.046L169.836 219.139L221.374 210.426L258.759 214.786L258.773 215.022V215.134Z" fill="black"/>
<path d="M345.081 264.961L297.174 274.759L296.082 274.655L253.981 270.406V217.053L305.519 208.34L342.905 212.7L342.919 212.937V213.048L345.081 264.961Z" fill="#FFA001"/>
<path opacity="0.1" d="M345.081 264.962L297.174 274.76L296.082 274.656V219.961L342.919 212.938L345.081 264.962Z" fill="black"/>
<path opacity="0.05" d="M342.919 213.048L342.905 213.062L296.082 219.96L253.981 217.053L305.519 208.34L342.905 212.7L342.919 212.937V213.048Z" fill="black"/>
<path d="M370.117 211.414L322.209 221.213L321.117 221.108L279.017 216.859V163.507L330.554 154.793L367.94 159.153L367.954 159.39V159.501L370.117 211.414Z" fill="#3F3D56"/>
<path opacity="0.1" d="M370.116 211.415L322.209 221.213L321.117 221.109V166.414L367.954 159.391L370.116 211.415Z" fill="black"/>
<path opacity="0.05" d="M367.954 159.501L367.94 159.515L321.117 166.413L279.017 163.507L330.554 154.793L367.94 159.153L367.954 159.39V159.501Z" fill="black"/>
<path d="M402.746 102.343C402.238 106.863 398.789 110.507 397.509 114.86C395.59 121.432 398.9 128.49 403.462 133.637C407.138 137.725 411.59 141.044 416.558 143.401C421.526 145.757 426.913 147.104 432.405 147.364C434.019 147.503 435.644 147.326 437.19 146.843C438.566 146.282 439.806 145.433 440.827 144.353C444.248 140.911 446.091 136.147 446.821 131.342C447.551 126.536 447.273 121.648 446.988 116.8C446.988 115.797 446.804 114.803 446.446 113.866C445.98 112.975 445.339 112.187 444.561 111.55C442.095 109.283 439.376 107.307 436.46 105.66C435.208 104.964 433.866 104.269 433.066 103.066C432.517 102.108 432.16 101.052 432.016 99.9574L431.119 95.3954C430.96 94.0801 430.511 92.8164 429.804 91.6958C428.226 89.5678 425.201 89.2757 422.551 89.1714L412.815 88.7889C409.79 88.6707 405.812 87.8014 402.857 88.3995C400.075 88.9489 401.014 91.4941 401.515 93.8029C402.239 96.5953 402.652 99.4594 402.746 102.343Z" fill="#FFC0C6"/>
<path opacity="0.1" d="M402.746 102.343C402.238 106.863 398.789 110.507 397.509 114.86C395.59 121.432 398.9 128.49 403.462 133.637C407.138 137.725 411.59 141.044 416.558 143.401C421.526 145.757 426.913 147.104 432.405 147.364C434.019 147.503 435.644 147.326 437.19 146.843C438.566 146.282 439.806 145.433 440.827 144.353C444.248 140.911 446.091 136.147 446.821 131.342C447.551 126.536 447.273 121.648 446.988 116.8C446.988 115.797 446.804 114.803 446.446 113.866C445.98 112.975 445.339 112.187 444.561 111.55C442.095 109.283 439.376 107.307 436.46 105.66C435.208 104.964 433.866 104.269 433.066 103.066C432.517 102.108 432.16 101.052 432.016 99.9574L431.119 95.3954C430.96 94.0801 430.511 92.8164 429.804 91.6958C428.226 89.5678 425.201 89.2757 422.551 89.1714L412.815 88.7889C409.79 88.6707 405.812 87.8014 402.857 88.3995C400.075 88.9489 401.014 91.4941 401.515 93.8029C402.239 96.5953 402.652 99.4594 402.746 102.343Z" fill="black"/>
<path d="M464.576 305.933L460.445 351.219C459.367 363.097 458.268 375.023 456.154 386.748C455.459 390.788 454.569 394.808 453.553 398.793C450.73 409.857 446.634 420.671 445.313 432.013C445.271 432.34 445.236 432.708 445.201 433.007C444.93 435.511 444.694 438.042 443.811 440.379C443.115 442.11 442.135 443.689 441.418 445.4C440.027 448.821 439.805 452.604 439.631 456.311C434.618 453.481 429.128 451.595 423.435 450.748C420.653 450.337 417.628 450.052 415.785 447.966C413.699 445.699 413.942 442.229 414.29 439.183C415.384 429.725 416.474 420.272 417.558 410.824C417.92 406.758 418.618 402.729 419.645 398.779C420.02 397.464 420.472 396.171 420.931 394.878C421.564 393.097 422.204 391.317 422.684 389.488C423.349 386.55 423.809 383.568 424.061 380.566C425.18 371.052 426.529 361.56 427.712 352.054L427.774 351.553C429.547 337.144 430.897 322.665 430.507 308.152C430.452 306.003 430.361 303.854 430.222 301.698C430.027 298.576 429.742 296.921 432.308 294.967C435.166 292.811 438.929 291.302 442.197 289.89C443.957 289.125 463.331 282.24 463.755 283.756C464.655 286.977 465.122 290.302 465.146 293.645C465.185 297.749 464.995 301.851 464.576 305.933Z" fill="#605D82"/>
<path opacity="0.1" d="M456.154 386.75C455.459 390.79 454.568 394.81 453.553 398.795C450.73 409.859 446.634 420.672 445.312 432.015C445.271 432.342 445.236 432.71 445.201 433.009C436.564 420.672 429.29 407.404 420.861 394.935C421.494 393.155 422.134 391.374 422.614 389.545C423.305 386.59 423.789 383.59 424.06 380.568C425.18 371.054 426.529 361.562 427.711 352.055L427.774 351.555C428.262 353.572 428.961 355.532 429.86 357.403C435.521 368.905 448.97 374.719 455.549 385.728C455.767 386.071 455.968 386.411 456.154 386.75Z" fill="black"/>
<path d="M386.07 285.622C386.355 294.843 387.829 303.988 389.304 313.098L392.343 331.874C394.005 342.166 395.743 352.66 400.611 361.874C404.255 368.773 409.499 374.656 414.248 380.838C425.917 396.04 434.687 413.266 445.751 428.913C448.971 433.461 453.567 438.384 459.054 437.432C462.656 436.813 465.271 433.809 468.095 431.5C471.433 428.774 475.452 426.778 478.081 423.356C480.71 419.935 481.224 414.26 477.664 411.826C476.447 410.999 474.965 410.686 473.588 410.157C468.074 408.071 464.499 402.675 462.232 397.223C459.965 391.77 458.581 385.922 455.556 380.852C448.978 369.844 435.521 364.03 429.86 352.521C426.689 346.081 426.383 338.613 426.147 331.471L425.528 313.174C425.458 311.171 425.41 309.092 426.223 307.263C428.386 302.395 434.923 301.936 440.222 301.317C446.232 300.615 452.053 298.78 457.378 295.907C460.431 294.259 463.407 292.158 465.028 289.099C466.516 286.317 466.718 283.042 466.892 279.884L468.727 246.72C468.887 243.869 469.026 240.913 468.032 238.243C465.508 231.525 457.024 229.327 449.854 229.647C436.516 230.245 424.207 235.982 411.606 239.863C408.483 240.823 405.347 241.685 402.127 242.332C399.345 242.895 395.868 242.665 393.198 243.569C388.413 245.183 388.532 255.656 387.857 259.995C386.465 268.463 385.867 277.042 386.07 285.622Z" fill="#605D82"/>
<path d="M457.246 438.838C458.421 440.027 458.803 441.766 459.109 443.407C460.809 452.515 461.694 461.757 461.752 471.022C461.676 471.886 461.847 472.755 462.246 473.526C462.579 473.982 463.028 474.342 463.546 474.569C466.947 476.189 470.89 473.929 473.727 471.446C478.978 466.85 483.421 460.674 483.72 453.699C483.797 451.905 483.595 450.09 483.908 448.317C484.367 445.688 485.904 443.4 487.253 441.105C489.561 437.193 491.427 433.037 492.816 428.713C493.331 427.085 493.679 425.041 492.399 423.907C491.951 423.551 491.439 423.284 490.89 423.122L475.521 417.419C474.186 416.925 470.876 425.43 470.354 426.362C469.068 428.636 467.788 429.923 465.208 430.451C462.628 430.98 459.443 430.215 456.981 431.529C452.809 433.748 454.888 436.467 457.246 438.838Z" fill="#535070"/>
<path d="M433.546 444.087C433.261 443.519 432.864 443.015 432.378 442.606C431.668 442.153 430.859 441.879 430.02 441.806C427.1 441.305 423.636 440.978 421.613 443.155C419.721 445.193 420.048 448.51 418.469 450.805C417.969 451.5 417.287 452.126 416.856 452.891C416.32 454.062 416.081 455.347 416.161 456.632C416.077 460.172 415.994 463.726 416.244 467.258C416.446 470.221 416.939 473.329 418.796 475.652C421.773 479.379 427.141 479.915 431.898 480.151L435.758 480.353C436.819 480.477 437.894 480.378 438.915 480.061C439.547 479.77 440.115 479.355 440.583 478.84C441.051 478.325 441.411 477.721 441.641 477.064C443.651 472.071 440.472 466.695 438.511 461.688C436.251 455.923 436.655 449.532 433.546 444.087Z" fill="#535070"/>
<path d="M401.633 76.8568C401.584 76.3506 401.657 75.84 401.848 75.3686C402.412 74.3741 403.886 74.6732 404.999 74.9235C409.47 76.0501 414.185 75.0278 418.796 75.2921C423.406 75.5564 428.594 77.8582 429.519 82.3784C432.864 80.0112 435.747 77.0508 438.024 73.6439C439.304 71.7315 440.416 69.541 440.243 67.2461C439.992 63.9359 437.217 61.4602 434.679 59.36L427.03 53.1012C426.022 52.1769 424.859 51.4377 423.594 50.9176C421.828 50.3126 419.895 50.6047 418.031 50.6047C412.467 50.6047 406.501 48.0664 401.542 50.6047C399.456 51.6687 397.905 53.4976 396.403 55.2779L389.567 63.3726C389.05 63.8886 388.672 64.5275 388.469 65.2294C388.274 66.2169 388.782 67.1905 388.962 68.1849C389.282 69.993 388.503 71.9263 389.101 73.6648C390.096 76.5439 393.601 76.9542 395.743 78.6093C396.535 79.2212 397.787 81.3144 398.74 81.2866C400.416 81.2518 401.584 78.192 401.633 76.8568Z" fill="#3F3D56"/>
<path d="M413.233 100.729C425.331 100.729 435.139 90.9219 435.139 78.8237C435.139 66.7255 425.331 56.918 413.233 56.918C401.135 56.918 391.327 66.7255 391.327 78.8237C391.327 90.9219 401.135 100.729 413.233 100.729Z" fill="#FFC0C6"/>
<path d="M418.364 126.76C417.622 124.637 416.225 122.805 414.374 121.527C412.523 120.25 410.313 119.594 408.065 119.653C407.42 119.776 406.753 119.691 406.16 119.41C405.823 119.153 405.554 118.819 405.374 118.436C404.046 116.039 402.976 113.507 402.182 110.884C401.834 109.723 401.354 108.353 400.179 108.054C399.233 107.81 398.267 108.422 397.634 109.166C397.073 109.965 396.465 110.729 395.812 111.454C393.03 113.916 388.162 111.67 385.248 113.93C384.769 114.299 384.372 114.771 383.858 115.112C383.357 115.417 382.816 115.651 382.251 115.808C376.595 117.648 371.05 119.814 365.645 122.296C367.592 134.007 369.581 145.94 374.143 156.893C376.312 162.109 378.767 167.22 380.506 172.596C384.358 184.508 384.525 197.255 384.574 209.78C384.574 218.347 384.574 227.096 381.792 235.204C381.166 237.04 380.401 238.862 380.227 240.768C380.054 242.673 380.624 244.829 382.189 245.969C383.094 246.567 384.133 246.932 385.214 247.033C390.019 247.729 394.859 246.463 399.588 245.364C412.265 242.43 425.2 240.747 438.1 239.106L459.728 236.324C461.279 236.215 462.798 235.822 464.206 235.163C468.163 233 468.539 227.047 466.077 223.264C464.902 221.449 463.24 219.961 462.245 218.041C461.251 216.122 461.174 213.424 462.878 212.095C466.355 209.383 465.312 204.355 465.479 199.96C465.943 187.665 465.88 175.38 465.291 163.103C465.114 160.557 465.072 158.004 465.166 155.454C465.409 151.128 466.48 146.893 467.551 142.686L474.123 116.816C472.405 114.104 469.116 112.379 466.008 111.6C462.899 110.821 459.651 110.592 456.585 109.639C450.326 107.692 444.707 102.755 438.149 103.214C437.652 103.222 437.163 103.341 436.716 103.561C435.242 104.403 435.472 106.531 435.381 108.228C435.173 111.99 432.405 115.126 429.359 117.331C426.313 119.535 422.822 121.135 420.019 123.645C419.533 124.012 419.132 124.481 418.846 125.019C418.56 125.557 418.396 126.152 418.364 126.76Z" fill="#3F3D56"/>
<path d="M331.569 151.301C330.118 152.244 328.576 153.038 326.965 153.672C325.435 154.277 323.801 154.757 322.549 155.814C321.93 156.352 321.409 156.994 321.012 157.712C320.271 159.027 319.897 160.517 319.928 162.026C319.958 163.535 320.394 165.009 321.188 166.292C321.982 167.576 323.106 168.623 324.443 169.324C325.779 170.025 327.28 170.355 328.787 170.279C330.797 170.174 332.696 169.361 334.538 168.561L349.991 161.836C352.605 160.703 355.429 159.381 356.667 156.808C356.809 156.567 356.863 156.285 356.82 156.009C356.7 155.705 356.472 155.458 356.18 155.313C352.698 153.048 349.652 150.174 347.188 146.829C346.555 145.967 345.797 143.936 344.879 143.415C341.611 141.599 334.191 149.604 331.569 151.301Z" fill="#FFC0C6"/>
<path d="M496.745 145.844L502.441 152.353C503.665 153.744 504.889 155.135 506.002 156.637C508.74 160.408 510.935 164.544 512.525 168.925C513.762 172.172 514.792 175.636 514.36 179.085C514.072 180.853 513.594 182.585 512.935 184.252C511.891 187.455 510.596 190.571 509.061 193.57C507.78 195.846 506.332 198.024 504.729 200.087C500.317 205.932 495.49 211.452 490.285 216.603C488.338 218.529 487.503 221.651 486.676 224.252C485.111 229.058 481.391 232.806 477.795 236.353C476.639 237.575 475.36 238.675 473.977 239.635C471.908 240.971 469.486 241.658 467.023 241.61C465.949 241.616 464.885 241.396 463.901 240.963C461.439 239.795 460.187 236.951 459.93 234.239C459.703 231.774 460.115 229.293 461.126 227.034C464.395 219.795 472.788 216.658 478.72 211.373C482.197 208.279 484.861 204.384 487.489 200.539C489.27 198.135 490.757 195.527 491.919 192.771C493.241 189.231 492.726 185.045 493.887 181.456C494.374 179.933 495.278 178.563 495.772 177.054C496.266 175.545 496.433 173.758 495.508 172.457C494.815 171.626 493.929 170.977 492.928 170.566C489.138 168.647 484.896 166.171 484.172 161.978C483.883 159.655 484.489 157.31 485.869 155.42C487.241 153.553 488.847 151.871 490.647 150.413C492.295 148.924 495.083 147.276 496.745 145.844Z" fill="#FFC0C6"/>
<path d="M327.912 160.383C326.91 158.352 325.651 156.28 323.621 155.271C322.633 154.845 321.568 154.625 320.491 154.625C319.415 154.625 318.35 154.845 317.362 155.271C315.394 156.122 313.551 157.236 311.882 158.581L306.973 162.205C305.86 162.935 304.875 163.844 304.059 164.896C303.28 166.172 302.765 167.59 302.543 169.068C301.847 172.455 301.284 175.939 301.771 179.368C302.55 184.931 305.888 189.743 309.559 193.971C311.854 196.6 314.692 199.257 318.183 199.375C319.692 199.423 321.368 198.825 321.994 197.455C322.212 196.911 322.327 196.331 322.334 195.745C322.71 189.569 320.498 183.54 317.925 177.914C317.23 176.384 316.479 174.799 316.535 173.123C316.513 172.838 316.587 172.555 316.743 172.316C316.964 172.085 317.26 171.939 317.578 171.906C321.103 171.21 327.181 173.95 329.65 170.035C331.25 167.448 329.052 162.684 327.912 160.383Z" fill="#FFC0C6"/>
<path d="M400.478 69.9662C400.435 69.4595 400.511 68.9497 400.701 68.478C401.264 67.4766 402.738 67.7826 403.851 68.0329C408.323 69.1595 413.038 68.1372 417.648 68.4015C422.259 68.6657 427.44 70.9676 428.372 75.4878C431.713 73.1168 434.595 70.157 436.877 66.7533C438.156 64.834 439.269 62.6434 439.095 60.3485C438.845 57.0383 436.063 54.5626 433.532 52.4694L425.882 46.2106C424.877 45.2864 423.716 44.5471 422.454 44.027C420.68 43.422 418.754 43.7141 416.89 43.7141C411.327 43.7141 405.36 41.1758 400.402 43.7141C398.316 44.7781 396.765 46.607 395.263 48.3873L388.42 56.482C387.905 56.9991 387.53 57.6378 387.328 58.3387C387.133 59.3262 387.641 60.2998 387.822 61.2943C388.142 63.1024 387.363 65.0356 387.961 66.7672C388.955 69.6532 392.46 70.0635 394.602 71.7186C395.395 72.3306 396.647 74.4238 397.599 74.396C399.247 74.3612 400.416 71.3014 400.478 69.9662Z" fill="#3F3D56"/>
<path d="M353.955 129.995C353.072 130.568 352.295 131.291 351.66 132.13C350.86 133.347 350.693 134.912 350.005 136.163C348.531 138.903 345.074 139.884 342.926 142.13C342.577 142.437 342.334 142.846 342.23 143.298C342.217 143.91 342.421 144.507 342.807 144.981L353.197 161.31C356.674 161.616 359.97 159.446 363.433 159.738C364.72 159.843 366.048 160.288 367.286 159.905C368.171 159.511 369.001 159.004 369.755 158.396C371.841 157.089 374.567 156.936 376.299 155.218C378.03 153.5 378.176 150.976 378.155 148.632C378.187 146.598 377.979 144.568 377.537 142.582C376.007 136.323 371.215 131.497 368.211 125.948C366.744 123.243 365.951 121.664 362.856 123.521C359.762 125.377 356.883 127.853 353.955 129.995Z" fill="#3F3D56"/>
<path d="M480.111 121.74C482.064 123.008 483.825 124.549 485.341 126.316C486.919 128.354 487.817 130.857 489.34 132.943C490.862 135.03 492.817 136.532 494.486 138.395C497.024 141.219 498.742 144.654 500.424 148.069C496.305 153.429 491.815 158.495 486.989 163.229C486.451 163.862 485.741 164.326 484.944 164.564C484.405 164.622 483.859 164.545 483.357 164.34C482.854 164.135 482.41 163.808 482.065 163.389C481.314 162.61 480.786 161.636 480.07 160.823C478.382 159.082 476.133 157.996 473.72 157.756C471.328 157.523 468.921 157.488 466.523 157.652C465.996 157.714 465.463 157.625 464.986 157.394C464.631 157.15 464.344 156.82 464.151 156.435C461.37 151.65 462.239 145.642 463.233 140.176L465.507 127.658C465.839 125.268 466.477 122.931 467.406 120.704C468.268 118.861 470.188 115.732 472.566 116.288C474.944 116.844 478.102 120.294 480.111 121.74Z" fill="#3F3D56"/>
<path d="M281.798 213.5L233.891 223.298L232.799 223.194L190.698 218.945V165.593L242.236 156.879L279.622 161.239L279.636 161.476V161.587L281.798 213.5Z" fill="#FFA001"/>
<path opacity="0.1" d="M281.798 213.501L233.891 223.299L232.799 223.195V168.5L279.635 161.477L281.798 213.501Z" fill="black"/>
<path opacity="0.05" d="M279.635 161.587L279.622 161.601L232.799 168.499L190.698 165.593L242.236 156.879L279.622 161.239L279.635 161.476V161.587Z" fill="black"/>
<path d="M306.833 160.648L258.926 170.454L257.834 170.343L215.733 166.094V112.741L267.271 104.027L304.657 108.388L304.671 108.624V108.735L306.833 160.648Z" fill="#3F3D56"/>
<path opacity="0.1" d="M306.833 160.649L258.926 170.455L257.834 170.344V115.649L304.671 108.625L306.833 160.649Z" fill="black"/>
<path opacity="0.05" d="M304.671 108.735L304.657 108.749L257.834 115.648L215.733 112.741L267.271 104.027L304.657 108.388L304.671 108.624V108.735Z" fill="black"/>
</g>
<defs>
<clipPath id="clip0">
<rect width="660.35" height="489.332" fill="white" transform="translate(0 0.625)"/>
</clipPath>
</defs>
</svg>
