<svg width="123" height="61" viewBox="0 0 123 61" fill="none" xmlns="http://www.w3.org/2000/svg">
<path d="M48.828 20.3379H10.7264C10.7089 20.3379 10.6973 20.3495 10.6973 20.367V25.6721C10.6973 29.1507 13.5476 31.972 17.0553 31.972C19.4228 31.972 21.4879 30.6922 22.5873 28.7901C22.756 28.4934 23.0759 28.3072 23.4191 28.3072C23.7624 28.3072 24.0765 28.4934 24.251 28.7901C25.3446 30.6922 27.4096 31.972 29.7772 31.972C32.1505 31.972 34.2214 30.6864 35.3092 28.7784C35.4779 28.4876 35.7862 28.3072 36.1178 28.3072H36.1527C36.49 28.3072 36.7925 28.4876 36.9612 28.7784C38.0548 30.6864 40.1257 31.972 42.4991 31.972C46.0067 31.972 48.8571 29.1507 48.8571 25.6721V20.367C48.8571 20.3495 48.8455 20.3379 48.828 20.3379Z" fill="#FEECEF"/>
<path d="M51.3094 16.1549V8.70325C51.3094 7.67363 50.4775 6.8418 49.4479 6.8418H10.1247C9.09505 6.8418 8.26322 7.67363 8.26322 8.70325V16.1549C7.29177 16.2131 6.5181 17.0216 6.5181 18.0105V25.6716C6.51438 27.0796 6.79947 28.4733 7.35576 29.7668C7.60589 30.3601 7.91419 30.9185 8.26322 31.4479V51.5167C8.26322 52.5405 9.09505 53.3782 10.1247 53.3782H49.4479C50.4775 53.3782 51.3094 52.5463 51.3094 51.5167V31.4479C51.6639 30.9172 51.9677 30.3544 52.2168 29.7668C52.7694 28.4696 53.0545 27.0909 53.0545 25.6716V18.0105C53.0545 17.0216 52.2808 16.2131 51.3094 16.1549ZM12.4515 11.0301H47.1211V16.1491H12.4515V11.0301ZM33.5092 49.1957H26.0634V43.1402H33.5092V49.1957ZM47.1444 49.1957H37.2321V41.2787C37.2321 40.2491 36.4003 39.4173 35.3706 39.4173H24.2019C23.1723 39.4173 22.3405 40.2491 22.3405 41.2787V49.1957H12.4515V35.1068C12.6202 35.1883 12.7947 35.2697 12.975 35.3395C14.2722 35.8863 15.6509 36.1597 17.0702 36.1597C18.4896 36.1597 19.8624 35.8863 21.1654 35.3395C21.9682 35.0021 22.7244 34.5717 23.4166 34.0539C23.4283 34.0481 23.4399 34.0481 23.4515 34.0539C24.1459 34.5739 24.9021 35.0057 25.7027 35.3395C26.9999 35.8863 28.3786 36.1597 29.7979 36.1597C31.2173 36.1597 32.5901 35.8863 33.8931 35.3395C34.6959 35.0021 35.4521 34.5717 36.1443 34.0539C36.156 34.0481 36.1676 34.0481 36.1792 34.0539C36.8736 34.5739 37.6298 35.0057 38.4304 35.3395C39.7276 35.8863 41.1063 36.1597 42.5256 36.1597C43.945 36.1597 45.3178 35.8863 46.6208 35.3395C46.7953 35.2639 46.9698 35.1883 47.1444 35.1068V49.1957ZM48.8662 25.6716C48.8662 29.1502 46.0158 31.9714 42.5082 31.9714C40.1348 31.9714 38.0639 30.6859 36.9703 28.7779C36.8016 28.487 36.4992 28.3067 36.1618 28.3067H36.1269C35.7953 28.3067 35.487 28.487 35.3183 28.7779C34.7602 29.7512 33.9544 30.5593 32.9827 31.1203C32.0111 31.6812 30.9082 31.9749 29.7863 31.9714C27.4187 31.9714 25.3537 30.6917 24.2601 28.7895C24.0856 28.4928 23.7715 28.3067 23.4283 28.3067C23.0851 28.3067 22.7651 28.4928 22.5964 28.7895C22.0351 29.7591 21.2282 30.5636 20.2571 31.1222C19.2859 31.6808 18.1847 31.9737 17.0644 31.9714C13.5567 31.9714 10.7064 29.1502 10.7064 25.6716V20.3664C10.7064 20.349 10.718 20.3373 10.7355 20.3373H48.8371C48.8546 20.3373 48.8662 20.349 48.8662 20.3664V25.6716Z" fill="#FE5366"/>
<path d="M76.4122 29.1298C77.414 29.288 78.3235 29.6966 79.1407 30.3557C79.9843 31.0148 80.6434 31.832 81.1179 32.8074C81.6188 33.7829 81.8693 34.8242 81.8693 35.9314C81.8693 37.3287 81.5134 38.5941 80.8016 39.7277C80.0898 40.8349 79.0485 41.718 77.6776 42.3771C76.3331 43.0098 74.7382 43.3262 72.8928 43.3262H62.6113V15.7639H72.4973C74.3691 15.7639 75.964 16.0803 77.2822 16.713C78.6003 17.3193 79.5889 18.1498 80.248 19.2043C80.907 20.2588 81.2366 21.4451 81.2366 22.7632C81.2366 24.3977 80.7884 25.7554 79.8921 26.8363C79.0221 27.8908 77.8621 28.6553 76.4122 29.1298ZM66.2098 27.6667H72.2601C73.9473 27.6667 75.2522 27.2713 76.1749 26.4804C77.0976 25.6895 77.559 24.5955 77.559 23.1982C77.559 21.801 77.0976 20.7069 76.1749 19.9161C75.2522 19.1252 73.9209 18.7297 72.181 18.7297H66.2098V27.6667ZM72.5764 40.3604C74.3691 40.3604 75.7663 39.9386 76.7681 39.095C77.7699 38.2513 78.2708 37.0782 78.2708 35.5755C78.2708 34.0465 77.7435 32.847 76.689 31.977C75.6345 31.0807 74.2241 30.6325 72.4578 30.6325H66.2098V40.3604H72.5764ZM89.552 40.3604H100.189V43.3262H85.4394V40.3604L95.9581 24.5823H85.5185V21.656H100.11V24.5823L89.552 40.3604ZM120.439 15.7639V18.6902H108.457V27.9831H118.185V30.9093H108.457V43.3262H104.859V15.7639H120.439Z" fill="#65617D"/>
</svg>
