<svg width="464" height="464" viewBox="0 0 464 464" fill="none" xmlns="http://www.w3.org/2000/svg">
<circle cx="231.825" cy="231.993" r="231.825" fill="#F5F5F5"/>
<path d="M367.089 191.875V190.375H365.589H98.0786H96.5808L96.5786 191.873C96.563 202.313 96.5525 207.836 96.5455 213.359C96.5263 228.522 96.5336 243.686 96.5336 360.628C96.5336 372.821 106.422 382.709 118.615 382.709H345.008C357.201 382.709 367.089 372.821 367.089 360.628V191.875Z" fill="#D6F4FC" stroke="#65617D" stroke-width="3"/>
<path d="M365.589 191.875V230.849C365.589 239.284 358.828 246.271 350.394 246.305C350.3 246.306 113.393 246.306 113.222 246.305C104.79 246.268 98.0337 239.281 98.0337 230.849C98.0337 219.604 98.0253 227.492 98.0787 191.875H365.589Z" fill="#BDEFFC"/>
<path d="M283.908 289.235V381.208H179.715V289.235C179.715 277.871 188.932 268.654 200.297 268.654H263.326C274.691 268.654 283.908 277.871 283.908 289.235Z" fill="#65617D"/>
<path d="M81.0978 191.874L81.0978 191.877C81.1312 213.19 98.6711 230.678 119.901 230.678C137.476 230.678 152.492 218.708 157.185 202.528C161.816 218.778 176.773 230.678 194.508 230.678C212.218 230.678 227.159 218.81 231.811 202.594C236.463 218.81 251.404 230.678 269.115 230.678C286.825 230.678 301.766 218.81 306.418 202.594C311.07 218.81 326.011 230.678 343.721 230.678C365.155 230.678 382.525 213.295 382.525 191.874C382.525 184.678 382.529 179.175 382.533 174.952C382.537 169.658 382.539 166.377 382.53 164.297C382.521 162.44 382.503 161.49 382.464 160.908C382.427 160.364 382.364 160.083 382.304 159.817C382.291 159.762 382.279 159.707 382.267 159.651L382.267 159.65C382.258 159.606 382.254 159.578 382.245 159.521L382.244 159.517C382.235 159.452 382.219 159.346 382.187 159.213C382.127 158.958 382.026 158.666 381.849 158.217C381.491 157.304 380.709 155.458 378.94 151.358C377.107 147.108 374.201 140.41 369.585 129.766C365.272 119.822 359.466 106.435 351.645 88.385L351.645 88.3839C349.774 84.0745 345.523 81.2812 340.827 81.2812H122.795C118.1 81.2812 113.849 84.0745 111.978 88.3839L111.977 88.385C104.172 106.4 98.373 119.77 94.0629 129.707C89.4388 140.369 86.5281 147.08 84.6911 151.338C82.9209 155.441 82.1362 157.293 81.7764 158.209C81.5992 158.661 81.497 158.954 81.4366 159.208C81.4046 159.343 81.3885 159.45 81.3784 159.516L81.378 159.519C81.3691 159.577 81.3648 159.605 81.3553 159.65L81.3552 159.651C81.3434 159.707 81.3313 159.761 81.3191 159.815C81.2588 160.085 81.1958 160.367 81.1587 160.915C81.1191 161.499 81.1011 162.452 81.0926 164.311C81.0832 166.387 81.0858 169.654 81.09 174.916C81.0934 179.143 81.0978 184.657 81.0978 191.874Z" fill="#FF6D7A" stroke="#65617D" stroke-width="3"/>
<path d="M381.025 191.875C381.025 212.467 364.327 229.178 343.722 229.178C323.121 229.178 306.418 212.475 306.418 191.875C306.418 212.475 289.715 229.178 269.115 229.178C248.514 229.178 231.811 212.475 231.811 191.875C231.811 212.475 215.109 229.178 194.508 229.178C173.908 229.178 157.205 212.475 157.205 191.875C157.173 212.34 140.328 229.178 119.901 229.178C99.4995 229.178 82.6301 212.361 82.5979 191.875V162.096C82.5979 161.376 82.6751 160.662 82.823 159.961H380.8C381.113 161.446 381.025 159.419 381.025 191.875Z" fill="#FE5366"/>
<path d="M338.047 110.273C272.717 101.282 206.783 112.814 153.454 152.998C147.452 157.521 140.135 159.959 132.619 159.959H82.823C83.1317 158.498 80.9919 163.67 113.354 88.9794C114.988 85.2169 118.699 82.7793 122.796 82.7793H340.827C344.928 82.7793 348.637 85.2143 350.268 88.9768L351.701 92.2839C355.719 101.554 348.056 111.651 338.047 110.273Z" fill="#FF7C87"/>
</svg>
