<svg width="227" height="199" viewBox="0 0 227 199" fill="none" xmlns="http://www.w3.org/2000/svg">
<path d="M159.868 160.274C180.775 160.274 197.723 143.326 197.723 122.418C197.723 101.511 180.775 84.5625 159.868 84.5625C138.96 84.5625 122.012 101.511 122.012 122.418C122.012 143.326 138.96 160.274 159.868 160.274Z" fill="#5C546A"/>
<path d="M174.487 170.901L185.804 168.853L182.133 148.577L170.817 150.626L174.487 170.901Z" fill="#5C546A"/>
<path d="M151.856 175.001L163.172 172.952L159.502 152.677L148.185 154.725L151.856 175.001Z" fill="#5C546A"/>
<path d="M157.864 179.267C161.903 175.846 164.137 171.845 162.854 170.331C161.572 168.816 157.257 170.361 153.218 173.782C149.179 177.203 146.945 181.203 148.227 182.718C149.51 184.233 153.824 182.688 157.864 179.267Z" fill="#5C546A"/>
<path d="M180.025 175.256C184.064 171.836 186.298 167.835 185.015 166.32C183.733 164.805 179.418 166.35 175.379 169.771C171.34 173.192 169.106 177.193 170.389 178.707C171.671 180.222 175.986 178.677 180.025 175.256Z" fill="#5C546A"/>
<path d="M157.218 126.096C164.363 126.096 170.156 120.303 170.156 113.158C170.156 106.012 164.363 100.22 157.218 100.22C150.072 100.22 144.28 106.012 144.28 113.158C144.28 120.303 150.072 126.096 157.218 126.096Z" fill="white"/>
<path d="M151.9 112.832C154.282 112.832 156.213 110.902 156.213 108.52C156.213 106.138 154.282 104.207 151.9 104.207C149.518 104.207 147.587 106.138 147.587 108.52C147.587 110.902 149.518 112.832 151.9 112.832Z" fill="#5C546A"/>
<path d="M189.731 81.2341C190.3 67.2193 178.221 55.3487 162.752 54.7203C147.283 54.0919 134.281 64.9438 133.712 78.9586C133.143 92.9734 143.896 96.1576 159.365 96.786C174.834 97.4144 189.161 95.2489 189.731 81.2341Z" fill="#FE5366"/>
<path d="M143.363 119.75C144.096 116.551 136.43 112.065 126.241 109.729C116.052 107.394 107.197 108.093 106.464 111.292C105.731 114.491 113.396 118.977 123.586 121.313C133.775 123.648 142.63 122.949 143.363 119.75Z" fill="#5C546A"/>
<path d="M217.673 132.107C218.406 128.909 210.74 124.422 200.551 122.087C190.362 119.751 181.507 120.451 180.774 123.65C180.041 126.848 187.706 131.335 197.896 133.67C208.085 136.006 216.94 135.306 217.673 132.107Z" fill="#5C546A"/>
<path d="M58.5439 54.627L102.15 88.1701" stroke="#3F3D56" stroke-width="0.958375" stroke-miterlimit="10"/>
<path d="M34.5848 65.1695C52.5808 65.1695 67.1695 50.5808 67.1695 32.5848C67.1695 14.5887 52.5808 0 34.5848 0C16.5887 0 2 14.5887 2 32.5848C2 50.5808 16.5887 65.1695 34.5848 65.1695Z" fill="#FF6584"/>
<path d="M121.22 198.128C179.641 198.128 227 191.685 227 183.737C227 175.79 179.641 169.347 121.22 169.347C62.7996 169.347 15.4404 175.79 15.4404 183.737C15.4404 191.685 62.7996 198.128 121.22 198.128Z" fill="#4D4B5F"/>
<path d="M4.06655 116.133C6.31243 116.133 8.13305 114.312 8.13305 112.067C8.13305 109.821 6.31243 108 4.06655 108C1.82067 108 0 109.821 0 112.067C0 114.312 1.82067 116.133 4.06655 116.133Z" fill="#FF6584"/>
<path d="M23.9893 179.562V133.261" stroke="#3F3D56" stroke-width="1.24447" stroke-miterlimit="10"/>
<path d="M23.9896 139.807C27.6057 139.807 30.5372 136.876 30.5372 133.26C30.5372 129.643 27.6057 126.712 23.9896 126.712C20.3734 126.712 17.4419 129.643 17.4419 133.26C17.4419 136.876 20.3734 139.807 23.9896 139.807Z" fill="#4D4B5F"/>
<path d="M23.9895 161.797C23.9895 161.797 23.0542 141.679 3.87891 144.017L23.9895 161.797Z" fill="#4D4B5F"/>
<path d="M176 142.536C176 140.003 168.957 135 161.142 135C153.327 135 146 142.133 146 144.666C146 147.2 153.327 144.175 161.142 144.175C168.957 144.175 176 145.07 176 142.536Z" fill="white"/>
</svg>
