<svg width="610" height="610" viewBox="0 0 610 610" fill="none" xmlns="http://www.w3.org/2000/svg">
<g clip-path="url(#clip0)">
<path d="M583.784 95.7396H25.382C11.4218 95.7396 0 107.161 0 121.122V499.313C0 513.273 11.4218 524.695 25.382 524.695H583.784C597.744 524.695 609.166 513.273 609.166 499.313V121.122C609.166 107.161 597.744 95.7396 583.784 95.7396Z" fill="#65617D"/>
<path d="M571.093 133.812H38.0728V485.352H571.093V133.812Z" fill="white"/>
<path d="M420.07 524.694H187.826V593.226H420.07V524.694Z" fill="#CDD6E0"/>
<path d="M491.14 593.225H118.026V609.723H491.14V593.225Z" fill="#F2F2F2"/>
<path d="M420.07 524.694H187.826V543.73H420.07V524.694Z" fill="#ACB3BA"/>
<path d="M525.406 142.697V465.047C525.406 476.469 516.522 485.353 505.101 485.353H102.797C91.375 485.353 82.4917 476.469 82.4917 465.047V142.697H525.406Z" fill="#F2F2F2"/>
<path d="M498.829 0.557617H109.069C95.1488 0.557617 83.7598 11.9794 83.7598 25.9396V91.933H525.403V25.9396C524.138 11.9794 512.749 0.557617 498.829 0.557617Z" fill="#65617D"/>
<path d="M394.688 333.06L418.801 419.359L440.376 397.784L460.682 419.359L479.717 400.323L459.412 378.748L479.717 357.173L394.688 333.06Z" fill="#40596B"/>
<path d="M250.012 61.4742C258.423 61.4742 265.242 54.6558 265.242 46.2448C265.242 37.8338 258.423 31.0154 250.012 31.0154C241.601 31.0154 234.783 37.8338 234.783 46.2448C234.783 54.6558 241.601 61.4742 250.012 61.4742Z" fill="#FFB9B9"/>
<path d="M191.634 61.4742C200.045 61.4742 206.864 54.6558 206.864 46.2448C206.864 37.8338 200.045 31.0154 191.634 31.0154C183.223 31.0154 176.405 37.8338 176.405 46.2448C176.405 54.6558 183.223 61.4742 191.634 61.4742Z" fill="#FE5366"/>
<path d="M133.255 61.4742C141.666 61.4742 148.484 54.6558 148.484 46.2448C148.484 37.8338 141.666 31.0154 133.255 31.0154C124.844 31.0154 118.025 37.8338 118.025 46.2448C118.025 54.6558 124.844 61.4742 133.255 61.4742Z" fill="#FFB9B9"/>
<path d="M159.906 142.697H63.4551L83.7602 91.9333H171.328L159.906 142.697Z" fill="#FFB9B9"/>
<path d="M256.357 142.697H159.906L171.328 91.9333H260.165L256.357 142.697Z" fill="#FFF0DE"/>
<path d="M352.809 142.697H256.357L260.164 91.9333H349.001L352.809 142.697Z" fill="#FFB9B9"/>
<path d="M449.261 142.697H352.81L349.002 91.9333H437.839L449.261 142.697Z" fill="#FFF0DE"/>
<path d="M545.711 142.697H449.26L437.839 91.9333H525.406L545.711 142.697Z" fill="#FFB9B9"/>
<path d="M159.906 164.271C159.906 190.922 181.481 212.497 208.132 212.497C234.783 212.497 256.358 190.922 256.358 164.271V142.697H159.906V164.271Z" fill="#FFA001"/>
<path d="M352.81 142.698V164.272C352.81 190.923 374.385 212.497 401.036 212.497C427.687 212.497 449.261 190.923 449.261 164.272V142.698C449.261 142.698 352.81 142.698 352.81 142.698Z" fill="#FFA001"/>
<path d="M63.4546 164.271C63.4546 190.922 85.0289 212.497 111.68 212.497C138.331 212.497 159.906 190.922 159.906 164.271V142.697H63.4546V164.271Z" fill="#FE5366"/>
<path d="M256.357 164.272C256.357 190.923 277.931 212.497 304.582 212.497C331.233 212.497 352.808 190.923 352.808 164.272V142.698H256.357V164.272Z" fill="#FE5366"/>
<path d="M449.26 142.698V164.272C449.26 190.923 470.834 212.497 497.485 212.497C524.136 212.497 545.711 190.923 545.711 164.272V142.698C545.711 142.698 449.26 142.698 449.26 142.698Z" fill="#FE5366"/>
<path d="M304.584 425.705C345.937 425.705 379.461 391.614 379.461 349.559C379.461 307.505 345.937 273.414 304.584 273.414C263.231 273.414 229.707 307.505 229.707 349.559C229.707 391.614 263.231 425.705 304.584 425.705Z" fill="#FE5366"/>
<rect x="247.573" y="330.931" width="39.8693" height="43.7774" fill="white"/>
<path d="M288.618 341.655H247.605C247.586 341.655 247.573 341.668 247.573 341.687V347.397C247.573 351.142 250.641 354.178 254.417 354.178C256.966 354.178 259.188 352.801 260.372 350.753C260.553 350.434 260.898 350.234 261.267 350.234C261.637 350.234 261.975 350.434 262.163 350.753C263.34 352.801 265.563 354.178 268.111 354.178C270.666 354.178 272.895 352.795 274.066 350.741C274.247 350.428 274.579 350.234 274.936 350.234H274.974C275.337 350.234 275.662 350.428 275.844 350.741C277.021 352.795 279.25 354.178 281.805 354.178C285.581 354.178 288.649 351.142 288.649 347.397V341.687C288.649 341.668 288.636 341.655 288.618 341.655Z" fill="#FEECEF"/>
<path d="M291.279 337.153V329.132C291.279 328.023 290.384 327.128 289.276 327.128H246.948C245.84 327.128 244.944 328.023 244.944 329.132V337.153C243.898 337.215 243.066 338.086 243.066 339.15V347.396C243.062 348.912 243.369 350.412 243.967 351.805C244.237 352.443 244.568 353.044 244.944 353.614V375.216C244.944 376.318 245.84 377.22 246.948 377.22H289.276C290.384 377.22 291.279 376.325 291.279 375.216V353.614C291.661 353.043 291.988 352.437 292.256 351.805C292.851 350.408 293.158 348.924 293.158 347.396V339.15C293.158 338.086 292.325 337.215 291.279 337.153ZM249.452 331.636H286.771V337.146H249.452V331.636ZM272.119 372.718H264.104V366.2H272.119V372.718ZM286.796 372.718H276.127V364.196C276.127 363.088 275.231 362.192 274.123 362.192H262.101C260.992 362.192 260.097 363.088 260.097 364.196V372.718H249.452V357.553C249.634 357.64 249.822 357.728 250.016 357.803C251.412 358.392 252.896 358.686 254.424 358.686C255.952 358.686 257.43 358.392 258.832 357.803C259.696 357.44 260.51 356.977 261.255 356.419C261.268 356.413 261.28 356.413 261.293 356.419C262.04 356.979 262.854 357.444 263.716 357.803C265.113 358.392 266.597 358.686 268.124 358.686C269.652 358.686 271.13 358.392 272.532 357.803C273.397 357.44 274.211 356.977 274.956 356.419C274.968 356.413 274.981 356.413 274.993 356.419C275.741 356.979 276.555 357.444 277.416 357.803C278.813 358.392 280.297 358.686 281.825 358.686C283.352 358.686 284.83 358.392 286.233 357.803C286.421 357.722 286.608 357.64 286.796 357.553V372.718ZM288.65 347.396C288.65 351.141 285.581 354.178 281.806 354.178C279.251 354.178 277.022 352.794 275.845 350.74C275.663 350.427 275.338 350.233 274.974 350.233H274.937C274.58 350.233 274.248 350.427 274.067 350.74C273.466 351.788 272.598 352.658 271.552 353.261C270.507 353.865 269.319 354.181 268.112 354.178C265.563 354.178 263.341 352.8 262.163 350.753C261.976 350.433 261.637 350.233 261.268 350.233C260.899 350.233 260.554 350.433 260.373 350.753C259.768 351.796 258.9 352.662 257.854 353.264C256.809 353.865 255.624 354.18 254.418 354.178C250.642 354.178 247.574 351.141 247.574 347.396V341.686C247.574 341.667 247.587 341.655 247.605 341.655H288.618C288.637 341.655 288.65 341.667 288.65 341.686V347.396Z" fill="#FE5366"/>
<path d="M318.303 351.833C319.381 352.004 320.36 352.443 321.24 353.153C322.148 353.862 322.858 354.742 323.368 355.792C323.908 356.842 324.177 357.963 324.177 359.155C324.177 360.659 323.794 362.021 323.028 363.241C322.262 364.433 321.141 365.383 319.665 366.093C318.218 366.774 316.501 367.114 314.515 367.114H303.448V337.446H314.089C316.104 337.446 317.821 337.787 319.24 338.468C320.658 339.12 321.723 340.014 322.432 341.149C323.141 342.284 323.496 343.561 323.496 344.98C323.496 346.74 323.014 348.201 322.049 349.365C321.112 350.5 319.864 351.323 318.303 351.833ZM307.321 350.258H313.834C315.65 350.258 317.055 349.833 318.048 348.981C319.041 348.13 319.538 346.952 319.538 345.448C319.538 343.944 319.041 342.767 318.048 341.916C317.055 341.064 315.621 340.639 313.749 340.639H307.321V350.258ZM314.174 363.922C316.104 363.922 317.608 363.468 318.686 362.56C319.765 361.652 320.304 360.389 320.304 358.772C320.304 357.126 319.736 355.834 318.601 354.898C317.466 353.933 315.948 353.451 314.047 353.451H307.321V363.922H314.174ZM332.447 363.922H343.897V367.114H328.02V363.922L339.343 346.938H328.105V343.788H343.812V346.938L332.447 363.922ZM365.694 337.446V340.596H352.797V350.599H363.268V353.749H352.797V367.114H348.923V337.446H365.694Z" fill="#FAFAFE"/>
</g>
<defs>
<clipPath id="clip0">
<rect width="609.166" height="609.166" fill="white" transform="translate(0 0.557617)"/>
</clipPath>
</defs>
</svg>
