<svg width="69" height="68" viewBox="0 0 69 68" fill="none" xmlns="http://www.w3.org/2000/svg">
<path d="M34.2454 67.7945C52.9391 67.7945 68.0933 52.6403 68.0933 33.9466C68.0933 15.2529 52.9391 0.0986328 34.2454 0.0986328C15.5516 0.0986328 0.3974 15.2529 0.3974 33.9466C0.3974 52.6403 15.5516 67.7945 34.2454 67.7945Z" fill="#F5F5F5"/>
<path d="M34.3409 67.8898C40.9552 67.9006 47.4264 65.9642 52.9477 62.322C51.7005 55.5071 46.9533 55.1162 46.9533 55.1162H20.7826C20.7826 55.1162 16.3069 55.4832 14.9045 61.7551C20.5946 65.7575 27.3841 67.9005 34.3409 67.8898Z" fill="#6C63FF"/>
<path d="M33.9856 48.2061C42.2728 48.2061 48.991 41.488 48.991 33.2007C48.991 24.9135 42.2728 18.1953 33.9856 18.1953C25.6983 18.1953 18.9802 24.9135 18.9802 33.2007C18.9802 41.488 25.6983 48.2061 33.9856 48.2061Z" fill="#333333"/>
<path d="M29.713 46.4219H38.1839C38.4491 46.4219 38.7033 46.5272 38.8907 46.7146C39.0782 46.9021 39.1835 47.1563 39.1835 47.4214V54.7973C39.1835 56.1854 38.6321 57.5165 37.6506 58.498C36.6692 59.4795 35.338 60.0309 33.95 60.0309C32.562 60.0309 31.2308 59.4795 30.2493 58.498C29.2678 57.5165 28.7164 56.1854 28.7164 54.7973V47.4214C28.7164 47.1569 28.8213 46.9031 29.0081 46.7157C29.195 46.5283 29.4484 46.4227 29.713 46.4219Z" fill="#FDA57D"/>
<path d="M33.9856 51.4639C42.2728 51.4639 48.991 44.7458 48.991 36.4585C48.991 28.1713 42.2728 21.4531 33.9856 21.4531C25.6983 21.4531 18.9802 28.1713 18.9802 36.4585C18.9802 44.7458 25.6983 51.4639 33.9856 51.4639Z" fill="#FDA57D"/>
<path d="M24.8941 30.2708C25.0702 29.6233 25.291 28.9102 25.8728 28.573C26.3323 28.3045 26.9022 28.3463 27.4333 28.3731C31.5808 28.5999 35.6924 27.654 39.7265 26.6664C42.0329 26.1025 44.5005 25.4162 45.9924 23.5573C47.4843 21.6984 45.5388 15.8562 43.2682 15.1669C41.7763 14.7104 40.0457 15.5608 38.6314 14.8924C38.0018 14.594 37.5394 14.0361 36.9963 13.6004C35.8834 12.7053 34.4541 12.3443 33.0697 12.0041C31.4524 11.6043 29.704 11.2134 28.1673 11.8549C26.9738 12.3502 26.1025 13.3975 24.9717 14.0182C22.8204 15.2117 20.1976 14.6567 17.733 14.6507C16.9006 14.6507 15.907 14.8178 15.5758 15.5817C15.352 16.1008 15.531 16.6916 15.5549 17.2556C15.6265 19.0458 14.1495 20.4393 12.9113 21.7312C11.673 23.0232 10.5034 24.8672 11.2851 26.4724C11.5835 27.0841 12.1295 27.5466 12.4398 28.1523C12.9739 29.2026 12.7054 30.4707 12.8993 31.6314C13.0935 32.5121 13.4226 33.3576 13.875 34.1378C14.794 35.928 19.4099 45.5656 21.5314 43.1159C22.5578 41.9224 22.7249 38.4732 23.1396 36.9216C23.7125 34.6918 24.2974 32.4748 24.8941 30.2708Z" fill="#333333"/>
<path d="M23.3096 38.5294C24.0808 38.5294 24.706 37.3579 24.706 35.9127C24.706 34.4675 24.0808 33.2959 23.3096 33.2959C22.5384 33.2959 21.9132 34.4675 21.9132 35.9127C21.9132 37.3579 22.5384 38.5294 23.3096 38.5294Z" fill="#FDA57D"/>
</svg>
