<svg width="722" height="505" viewBox="0 0 722 505" fill="none" xmlns="http://www.w3.org/2000/svg">
<g clip-path="url(#clip0)">
<path d="M191.089 79.5354C191.129 63.6338 185.306 48.2755 174.734 36.3975C164.162 24.5195 149.582 16.9556 133.783 15.1523C117.984 13.349 102.074 17.4329 89.0973 26.6229C76.1202 35.8129 66.9861 49.4641 63.442 64.9657C57.8841 61.9692 51.7236 60.2605 45.4162 59.9661C39.1088 59.6716 32.8159 60.7989 27.003 63.2645C21.19 65.7301 16.0058 69.471 11.8336 74.2105C7.66144 78.95 4.60815 84.5668 2.89957 90.6455C1.19099 96.7242 0.870838 103.109 1.96279 109.328C3.05473 115.547 5.53085 121.442 9.20798 126.575C12.8851 131.708 17.6692 135.948 23.2063 138.983C28.7435 142.018 34.892 143.769 41.1972 144.107V144.172H132.558V143.879C148.571 142.358 163.441 134.922 174.264 123.024C185.087 111.126 191.086 95.6199 191.089 79.5354Z" fill="#C8D3D9"/>
<path opacity="0.4" d="M721.19 65.7137C721.23 49.8122 715.408 34.4538 704.835 22.5758C694.263 10.6979 679.683 3.13394 663.884 1.33064C648.085 -0.472663 632.175 3.61121 619.198 12.8012C606.221 21.9913 597.087 35.6425 593.543 51.1441C587.985 48.1476 581.825 46.4389 575.517 46.1444C569.21 45.8499 562.917 46.9772 557.104 49.4428C551.291 51.9085 546.107 55.6494 541.935 60.3889C537.763 65.1284 534.709 70.7452 533.001 76.8239C531.292 82.9026 530.972 89.2876 532.064 95.5067C533.156 101.726 535.632 107.62 539.309 112.753C542.986 117.886 547.77 122.127 553.307 125.162C558.845 128.196 564.993 129.947 571.298 130.285V130.35H662.66V130.058C678.672 128.536 693.542 121.1 704.365 109.202C715.189 97.304 721.187 81.7982 721.19 65.7137Z" fill="#C8D3D9"/>
<path d="M608.12 151.891H114.398V495.733H608.12V151.891Z" fill="#FFE1B2"/>
<path d="M608.12 442.834H114.398V495.733H608.12V442.834Z" fill="#FFB980"/>
<path d="M608.12 134.258H114.398V195.973H608.12V134.258Z" fill="#FFB980"/>
<path d="M290.728 213.606H167.297C162.429 213.606 158.481 217.554 158.481 222.423V486.916H299.544V222.423C299.544 217.554 295.597 213.606 290.728 213.606Z" fill="#65617D"/>
<path d="M634.57 504.549H87.9493C83.076 504.549 79.1328 500.606 79.1328 495.733C79.1328 490.859 83.076 486.916 87.9493 486.916H634.57C639.443 486.916 643.386 490.859 643.386 495.733C643.386 500.606 639.443 504.549 634.57 504.549Z" fill="#5C546A"/>
<path d="M273.095 381.119C268.221 381.119 264.278 377.176 264.278 372.302V354.669C264.278 349.796 268.221 345.853 273.095 345.853C277.968 345.853 281.911 349.796 281.911 354.669V372.302C281.911 377.176 277.968 381.119 273.095 381.119Z" fill="#5C546A"/>
<path d="M123.215 178.34C108.607 178.34 96.7656 166.499 96.7656 151.891V90.1757C96.7656 80.4368 104.66 72.5428 114.399 72.5428H149.664V151.891C149.664 166.499 137.823 178.34 123.215 178.34Z" fill="#FE5366"/>
<path d="M176.114 178.34C161.506 178.34 149.665 166.499 149.665 151.891V72.5428H202.563V151.891C202.563 166.499 190.722 178.34 176.114 178.34Z" fill="#FEECEF"/>
<path d="M229.012 178.34C214.405 178.34 202.563 166.499 202.563 151.891V72.5428H255.462V151.891C255.462 166.499 243.62 178.34 229.012 178.34Z" fill="#FE5366"/>
<path d="M281.911 178.34C267.304 178.34 255.462 166.499 255.462 151.891V72.5428H308.361V151.891C308.361 166.499 296.519 178.34 281.911 178.34Z" fill="#FEECEF"/>
<path d="M334.81 178.34C320.202 178.34 308.361 166.499 308.361 151.891V72.5428H361.26V151.891C361.26 166.499 349.418 178.34 334.81 178.34Z" fill="#FE5366"/>
<path d="M387.709 178.34C373.101 178.34 361.259 166.499 361.259 151.891V72.5428H414.158V151.891C414.158 166.499 402.316 178.34 387.709 178.34Z" fill="#FEECEF"/>
<path d="M440.608 178.34C426 178.34 414.158 166.499 414.158 151.891V72.5428H467.057V151.891C467.057 166.499 455.215 178.34 440.608 178.34Z" fill="#FE5366"/>
<path d="M493.506 178.34C478.898 178.34 467.057 166.499 467.057 151.891V72.5428H519.955V151.891C519.955 166.499 508.114 178.34 493.506 178.34Z" fill="#FEECEF"/>
<path d="M546.405 178.34C531.797 178.34 519.956 166.499 519.956 151.891V72.5428H572.854V151.891C572.854 166.499 561.013 178.34 546.405 178.34Z" fill="#FE5366"/>
<path d="M599.304 178.34C584.696 178.34 572.854 166.499 572.854 151.891V72.5428H608.12C617.859 72.5428 625.753 80.4368 625.753 90.1757V151.891C625.753 166.499 613.912 178.34 599.304 178.34Z" fill="#FEECEF"/>
<path d="M564.038 222.423H343.627C338.758 222.423 334.81 226.37 334.81 231.239V407.568C334.81 412.437 338.758 416.385 343.627 416.385H564.038C568.907 416.385 572.854 412.437 572.854 407.568V231.239C572.854 226.37 568.907 222.423 564.038 222.423Z" fill="#F2F2F2"/>
<path d="M564.038 425.201H343.627C333.906 425.201 325.994 417.288 325.994 407.568V231.239C325.994 221.519 333.906 213.606 343.627 213.606H564.038C573.758 213.606 581.671 221.519 581.671 231.239V407.568C581.671 417.288 573.758 425.201 564.038 425.201ZM343.627 231.239V407.568H564.056L564.038 231.239H343.627Z" fill="#65617D"/>
<path d="M273.095 328.22H184.93C180.061 328.22 176.114 324.272 176.114 319.404V240.055C176.114 235.187 180.061 231.239 184.93 231.239H273.095C277.964 231.239 281.911 235.187 281.911 240.055V319.404C281.911 324.272 277.964 328.22 273.095 328.22Z" fill="#F2F2F2"/>
<path d="M398.115 245.068C397.231 245.069 396.383 245.42 395.757 246.046C395.132 246.671 394.78 247.519 394.779 248.404V386.288C394.78 387.172 395.132 388.02 395.757 388.645C396.383 389.271 397.231 389.623 398.115 389.624H535.999C536.884 389.623 537.732 389.271 538.357 388.645C538.982 388.02 539.334 387.172 539.335 386.288V248.404C539.334 247.519 538.982 246.671 538.357 246.046C537.732 245.42 536.884 245.069 535.999 245.068H398.115Z" fill="#E6E6E6"/>
<path d="M394.78 389.788C394.769 396.562 396.324 403.247 399.324 409.321C399.663 410.018 400.022 410.695 400.401 411.372H477.517C477.896 410.695 478.255 410.018 478.594 409.321C481.538 403.351 483.095 396.794 483.15 390.138C483.204 383.482 481.754 376.9 478.908 370.883C476.062 364.866 471.894 359.57 466.714 355.39C461.534 351.21 455.477 348.254 448.994 346.743C442.512 345.233 435.772 345.206 429.278 346.665C422.784 348.125 416.703 351.032 411.49 355.171C406.277 359.31 402.067 364.573 399.173 370.567C396.28 376.561 394.778 383.132 394.78 389.788Z" fill="#65617D"/>
<path d="M424.718 389.624C417.958 389.624 412.478 384.143 412.478 377.383C412.478 370.623 417.958 365.142 424.718 365.142C431.479 365.142 436.959 370.623 436.959 377.383C436.959 384.143 431.479 389.624 424.718 389.624Z" fill="white"/>
<path d="M424.718 381.463C422.465 381.463 420.638 379.636 420.638 377.383C420.638 375.13 422.465 373.303 424.718 373.303C426.972 373.303 428.798 375.13 428.798 377.383C428.798 379.636 426.972 381.463 424.718 381.463Z" fill="#5C546A"/>
<path d="M454.817 396.072C448.057 396.072 442.577 390.592 442.577 383.832C442.577 377.072 448.057 371.592 454.817 371.592C461.577 371.592 467.057 377.072 467.057 383.832C467.057 390.592 461.577 396.072 454.817 396.072Z" fill="white"/>
<path d="M454.817 386.969C452.564 386.969 450.737 385.247 450.737 383.124C450.737 381.001 452.564 379.28 454.817 379.28C457.07 379.28 458.897 381.001 458.897 383.124C458.897 385.247 457.07 386.969 454.817 386.969Z" fill="#5C546A"/>
<path d="M481.818 348.696C485.385 332.719 473.981 316.575 456.346 312.637C438.712 308.7 421.524 318.459 417.956 334.436C414.389 350.413 426.076 356.306 443.711 360.243C461.346 364.181 478.25 364.673 481.818 348.696Z" fill="#FE5366"/>
<path d="M462.983 398.039C460.734 393.296 471.159 383.641 486.269 376.474C501.379 369.308 515.452 367.344 517.702 372.087C519.952 376.831 509.526 386.486 494.416 393.652C479.306 400.819 465.233 402.783 462.983 398.039Z" fill="#65617D"/>
<path d="M363.9 384.567C365.358 379.523 379.564 379.2 395.629 383.845C411.695 388.49 423.536 396.344 422.078 401.387C420.62 406.431 406.414 406.754 390.349 402.109C374.284 397.464 362.442 389.61 363.9 384.567Z" fill="#65617D"/>
</g>
<defs>
<clipPath id="clip0">
<rect width="720.745" height="503.64" fill="white" transform="translate(0.886719 0.909058)"/>
</clipPath>
</defs>
</svg>
