<svg width="24" height="24" viewBox="0 0 24 24" fill="none" xmlns="http://www.w3.org/2000/svg">
<g clip-path="url(#clip0)">
<rect x="2.5459" y="14.8359" width="7.32036" height="6.97499" transform="rotate(-67.5 2.5459 14.8359)" fill="#FFB9B9"/>
<path d="M8.90279 10.7666L7.32596 10.1404C6.95963 9.99493 6.5447 10.174 6.3992 10.5404C6.25374 10.9067 6.4328 11.3216 6.79913 11.4671L8.37601 12.0933C8.46245 12.1277 8.5516 12.1439 8.63926 12.1439C8.92318 12.1439 9.19164 11.9734 9.30282 11.6934C9.44818 11.3271 9.26912 10.9121 8.90279 10.7666Z" fill="#FE5366"/>
<path d="M23.5495 3.26719L21.3096 2.37765C20.5643 2.08168 19.7484 2.09368 19.0122 2.41135C18.2759 2.72907 17.7075 3.31444 17.4115 4.05971L12.4489 16.5563C11.836 16.4921 11.2268 16.6464 10.7233 16.9752L13.2318 10.6583C13.3016 10.4824 13.2988 10.2859 13.2238 10.1121C13.1488 9.93832 13.0078 9.80139 12.8319 9.73155L5.17781 6.69198C4.81148 6.54653 4.39654 6.72554 4.25104 7.09192L1.44458 14.159L0.977375 13.9735C0.610999 13.8281 0.196108 14.0071 0.0506076 14.3734C-0.0949395 14.7398 0.0841702 15.1547 0.450499 15.3002L9.2333 18.7934C9.2588 18.8036 9.28458 18.8117 9.31045 18.8187L9.54042 18.91C9.49266 19.3571 9.55974 19.8112 9.74278 20.2354C10.0228 20.8843 10.5388 21.3853 11.1955 21.6461C11.5117 21.7717 11.8424 21.8344 12.1726 21.8344C12.5285 21.8344 12.8838 21.7617 13.2204 21.6164C13.8693 21.3364 14.3703 20.8204 14.6311 20.1636C15.0783 19.0376 14.6949 17.7844 13.7755 17.0832L18.7382 4.58663C18.8934 4.19579 19.1916 3.88871 19.5777 3.72212C19.9638 3.55552 20.3917 3.54919 20.7826 3.7044L23.0225 4.5939C23.3889 4.73935 23.8038 4.56034 23.9493 4.19396C24.0949 3.82759 23.9158 3.41269 23.5495 3.26719ZM9.09863 17.1986L2.77124 14.6859L5.31431 8.28213L11.6416 10.7948L9.09863 17.1986ZM13.3044 19.6368C13.1844 19.9393 12.9536 20.1768 12.6549 20.3058C12.356 20.4347 12.0249 20.4396 11.7225 20.3195C11.0981 20.0714 10.7919 19.3618 11.0398 18.7375C11.2293 18.2602 11.6888 17.9688 12.1736 17.9688C12.323 17.9688 12.4748 17.9964 12.6218 18.0548C13.2461 18.3028 13.5524 19.0124 13.3044 19.6368Z" fill="#FE5366"/>
</g>
<defs>
<clipPath id="clip0">
<rect width="24" height="24" fill="white"/>
</clipPath>
</defs>
</svg>
