<svg width="25" height="24" viewBox="0 0 25 24" fill="none" xmlns="http://www.w3.org/2000/svg">
<g clip-path="url(#clip0)">
<rect x="3.0459" y="14.8359" width="7.32036" height="6.97499" transform="rotate(-67.5 3.0459 14.8359)" fill="#F9F7F7"/>
<path d="M9.40279 10.7666L7.82596 10.1404C7.45963 9.99493 7.0447 10.174 6.8992 10.5404C6.75374 10.9067 6.9328 11.3216 7.29913 11.4671L8.87601 12.0933C8.96245 12.1277 9.0516 12.1439 9.13926 12.1439C9.42318 12.1439 9.69164 11.9734 9.80282 11.6934C9.94818 11.3271 9.76912 10.9121 9.40279 10.7666Z" fill="#DAD6D6"/>
<path d="M24.0495 3.26719L21.8096 2.37765C21.0643 2.08168 20.2484 2.09368 19.5122 2.41135C18.7759 2.72907 18.2075 3.31444 17.9115 4.05971L12.9489 16.5563C12.336 16.4921 11.7268 16.6464 11.2233 16.9752L13.7318 10.6583C13.8016 10.4824 13.7988 10.2859 13.7238 10.1121C13.6488 9.93832 13.5078 9.80139 13.3319 9.73155L5.67781 6.69198C5.31148 6.54653 4.89654 6.72554 4.75104 7.09192L1.94458 14.159L1.47738 13.9735C1.111 13.8281 0.696108 14.0071 0.550608 14.3734C0.40506 14.7398 0.58417 15.1547 0.950499 15.3002L9.7333 18.7934C9.7588 18.8036 9.78458 18.8117 9.81045 18.8187L10.0404 18.91C9.99266 19.3571 10.0597 19.8112 10.2428 20.2354C10.5228 20.8843 11.0388 21.3853 11.6955 21.6461C12.0117 21.7717 12.3424 21.8344 12.6726 21.8344C13.0285 21.8344 13.3838 21.7617 13.7204 21.6164C14.3693 21.3364 14.8703 20.8204 15.1311 20.1636C15.5783 19.0376 15.1949 17.7844 14.2755 17.0832L19.2382 4.58663C19.3934 4.19579 19.6916 3.88871 20.0777 3.72212C20.4638 3.55552 20.8917 3.54919 21.2826 3.7044L23.5225 4.5939C23.8889 4.73935 24.3038 4.56034 24.4493 4.19396C24.5949 3.82759 24.4158 3.41269 24.0495 3.26719ZM9.59863 17.1986L3.27124 14.6859L5.81431 8.28213L12.1416 10.7948L9.59863 17.1986ZM13.8044 19.6368C13.6844 19.9393 13.4536 20.1768 13.1549 20.3058C12.856 20.4347 12.5249 20.4396 12.2225 20.3195C11.5981 20.0714 11.2919 19.3618 11.5398 18.7375C11.7293 18.2602 12.1888 17.9688 12.6736 17.9688C12.823 17.9688 12.9748 17.9964 13.1218 18.0548C13.7461 18.3028 14.0524 19.0124 13.8044 19.6368Z" fill="#DAD6D6"/>
</g>
<defs>
<clipPath id="clip0">
<rect width="24" height="24" fill="white" transform="translate(0.5)"/>
</clipPath>
</defs>
</svg>
