<svg width="24" height="24" viewBox="0 0 24 24" fill="none" xmlns="http://www.w3.org/2000/svg">
<path d="M9.13755 2.8623H15.174C19.0208 2.8623 22.1392 5.98072 22.1392 9.82749V15.0521C22.1392 18.8988 19.0208 22.0172 15.174 22.0172H9.13755C7.64429 22.0172 6.26079 21.5473 5.12684 20.7473C5.06157 20.7837 4.98976 20.8128 4.91181 20.8328C4.25329 21.0019 3.65927 20.3935 3.84406 19.7392C3.8552 19.6998 3.86869 19.6619 3.88431 19.6258C2.81808 18.4021 2.17236 16.8025 2.17236 15.0521V9.82749C2.17236 5.98072 5.29078 2.8623 9.13755 2.8623Z" fill="#1BD741"/>
<path d="M3.82165 19.8516L3.43848 21.1943L5.24523 20.7513L4.02545 19.8901L3.82165 20.8779L4.6371 20.6388L4.08872 20.3119L4.21527 20.6107" stroke="#1BD741" stroke-width="0.464346"/>
<path d="M0.626465 23.9527L2.24136 18.2171C1.20289 16.4529 0.656125 14.4457 0.656125 12.3836C0.656125 6.03451 5.8215 0.869141 12.1706 0.869141C18.5197 0.869141 23.685 6.03451 23.685 12.3836C23.685 18.7327 18.5197 23.8981 12.1706 23.8981C10.1923 23.8981 8.25509 23.3917 6.54137 22.4301L0.626465 23.9527ZM6.84376 20.3353L7.19621 20.5505C8.69037 21.4627 10.4105 21.9449 12.1706 21.9449C17.4427 21.9449 21.7318 17.6557 21.7318 12.3836C21.7318 7.11154 17.4427 2.82238 12.1706 2.82238C6.89853 2.82238 2.60936 7.11154 2.60936 12.3836C2.60936 14.2206 3.13146 16.0045 4.11907 17.5424L4.35642 17.912L3.42647 21.215L6.84376 20.3353Z" fill="white"/>
<path d="M8.93615 7.02353L8.189 6.9828C7.95432 6.96999 7.72413 7.04841 7.54675 7.2025C7.18453 7.51705 6.60536 8.12515 6.42747 8.91759C6.16219 10.0992 6.57215 11.546 7.6332 12.9928C8.69424 14.4397 10.6716 16.7546 14.1681 17.7433C15.2948 18.0619 16.1811 17.8471 16.865 17.4097C17.4066 17.0632 17.78 16.5071 17.9145 15.8785L18.0338 15.3213C18.0717 15.1442 17.9818 14.9645 17.8173 14.8887L15.2922 13.7248C15.1283 13.6493 14.9339 13.697 14.8236 13.8399L13.8323 15.125C13.7575 15.2221 13.6293 15.2605 13.5135 15.2199C12.8347 14.9813 10.5607 14.0289 9.31291 11.6254C9.2588 11.5212 9.27225 11.3947 9.34901 11.3057L10.2964 10.2098C10.3932 10.0979 10.4176 9.94051 10.3595 9.8045L9.27102 7.25799C9.21308 7.12242 9.08322 7.03156 8.93615 7.02353Z" fill="white"/>
</svg>
