<svg width="166" height="166" viewBox="0 0 166 166" fill="none" xmlns="http://www.w3.org/2000/svg">
<g clip-path="url(#clip0)">
<mask id="path-1-outside-1" maskUnits="userSpaceOnUse" x="0.033614" y="2.98633" width="166.577" height="161.307" fill="black">
<rect fill="white" x="0.033614" y="2.98633" width="166.577" height="161.307"/>
<path d="M34.5717 41.7713L55.8606 48.3783C59.5343 49.5184 61.5952 53.4364 60.4543 57.1123L52.8498 81.6154L60.8127 84.0867C60.8694 82.3406 61.2943 80.3922 62.0872 78.2174L62.0873 78.2171C65.1563 68.939 69.2904 61.5997 74.3753 56.4032C78.3236 52.3688 82.0862 50.3831 85.0826 49.4279C83.1144 45.5588 82.7553 40.8123 84.2686 35.9361C86.9913 27.1629 96.2049 22.1975 104.807 24.8672C113.409 27.5368 118.193 36.8461 115.47 45.6194C115.155 46.6352 114.076 47.2028 113.06 46.8876L111.811 46.4998C111.71 47.2294 111.552 47.9556 111.329 48.6738C109.41 54.8565 103.389 58.6529 97.1885 57.9982C97.0952 60.4617 96.5675 63.2368 95.6212 66.2817L98.9835 71.6501L109.863 76.0161L124.057 75.7557C125.359 75.7296 126.834 75.7013 127.735 76.898C128.622 78.0779 128.174 79.5223 128.026 79.9968L125.056 89.5679C124.741 90.5837 123.662 91.1513 122.646 90.8361L120.457 90.1567L120.214 102.802C120.193 103.865 119.315 104.711 118.251 104.69C117.187 104.671 116.343 103.791 116.363 102.728L116.628 88.9683L111.4 87.3458C111.748 109.193 103.93 121.278 94.0701 132.903L97.3758 133.929L115.922 122.807L116.132 111.846C116.152 110.782 117.031 109.937 118.094 109.958C119.157 109.978 120.002 110.857 119.982 111.92L119.781 122.405C128.438 124.934 134.299 133.263 133.611 142.415C133.531 143.475 132.608 144.27 131.548 144.191L128.751 143.982C127.268 151.116 120.678 156.236 113.224 155.678C112.091 155.593 110.989 155.383 109.93 155.054C107.32 154.244 104.984 152.717 103.157 150.592C101.013 148.098 99.7907 145.031 99.6168 141.8L97.4098 141.635C96.7521 141.586 96.1477 141.477 95.6632 140.984C95.2125 140.524 95.016 139.887 95.0654 139.251C95.1228 138.609 95.214 137.967 95.3372 137.328L56.8767 125.392C53.2737 132.657 44.9785 136.402 37.2081 133.991C29.4377 131.579 24.7202 123.796 25.8635 115.767L24.46 115.332C24.46 115.332 24.1805 115.248 24.117 115.229C23.591 115.065 22.8495 114.771 22.4227 113.943C22.2091 113.529 22.0191 112.847 22.3274 111.953C22.9151 110.242 23.6921 108.654 24.6266 107.206C25.9216 97.8584 29.0119 92.8797 32.4166 89.2894C31.3645 88.0137 30.9516 86.2502 31.4776 84.5554L33.0461 79.5012L23.7575 76.6185C20.0837 75.4784 18.0229 71.5604 19.1637 67.8845L25.8408 46.3698C26.981 42.6939 30.8977 40.6311 34.5717 41.7713ZM106.077 148.082C107.973 150.288 110.613 151.621 113.51 151.838L113.51 151.838C118.843 152.237 123.58 148.704 124.869 143.694L103.497 142.094C103.719 144.294 104.606 146.371 106.077 148.082ZM99.1479 137.903L129.796 140.199C129.465 133.469 124.766 127.623 118.166 125.952L99.2902 137.271C99.2383 137.482 99.1908 137.692 99.1479 137.903ZM81.3164 97.2374C81.4133 98.811 80.8746 100.547 80.129 102.949L77.9753 109.889L84.709 111.979L87.6637 102.458C91.0041 91.6948 85.7251 87.9535 83.187 86.8188L65.1582 81.2236C64.4726 83.689 64.4849 85.5965 65.1893 87.0234C66.0104 88.6862 67.903 89.9596 70.9758 90.9165L77.5745 92.9719C79.9283 93.7027 81.1873 95.1374 81.3164 97.2374ZM76.834 113.566L75.4712 117.957C75.4879 117.963 75.5051 117.968 75.5227 117.973L88.5849 122.027C88.8607 120.62 88.7635 119.434 88.2933 118.489C87.5936 117.083 86.1844 116.468 85.4066 116.227L76.834 113.566ZM66.3807 77.5711L83.1046 82.7614C84.432 80.8565 85.749 78.7282 86.9794 76.5026L82.9191 71.6243C80.7029 68.9605 80.0494 65.9655 81.1262 63.4071C82.0806 61.1391 84.3191 59.5433 86.8288 59.3418C89.1207 59.158 91.2354 60.0954 92.7898 61.9372C93.1758 60.1286 93.3655 58.466 93.3486 56.9995C92.5898 56.6753 91.8589 56.2805 91.1642 55.8184C89.7201 54.974 88.4608 53.9517 87.3995 52.785C83.201 53.8018 73.2811 58.2477 66.3807 77.5711ZM112.228 42.5975C113.184 36.4525 109.631 30.3966 103.666 28.5453C97.0914 26.505 90.0397 30.3328 87.9464 37.0778C86.2438 42.5637 87.5023 47.8017 91.1402 51.064L94.1432 41.388C94.6631 39.7126 95.9421 37.8564 99.0821 38.526C99.1391 38.538 99.1955 38.5529 99.2512 38.5701L112.228 42.5975ZM107.651 47.5325C107.876 46.8067 108.014 46.0722 108.064 45.3372L98.2 42.276C98.0826 42.2531 97.9957 42.2406 97.9326 42.2342C97.9019 42.2994 97.8631 42.3949 97.8213 42.5295L94.4826 53.2876C94.9007 53.488 95.3314 53.6575 95.772 53.7945C95.7762 53.7958 95.7803 53.797 95.7842 53.7983C100.777 55.3426 106.099 52.5335 107.651 47.5325ZM101.214 76.6952L96.9679 74.9911C96.5894 74.8395 96.2691 74.5715 96.0524 74.226L90.2898 65.0252L90.289 65.0236C89.7321 64.1328 89.025 63.5451 88.235 63.2999C87.8834 63.1908 87.5153 63.1497 87.1368 63.18C86.0443 63.2676 85.0783 63.943 84.6753 64.9002C84.1684 66.1049 84.596 67.6182 85.8789 69.1604L92.8739 77.5645L100.235 79.8489L101.214 76.695L101.214 76.6952ZM108.791 79.7357L104.8 78.1342L103.913 80.991L108.67 82.4673C109.287 82.6587 109.596 82.1929 109.747 81.7685C109.833 81.5279 110.189 80.2987 108.791 79.7357ZM113.537 79.8169C113.809 80.897 113.738 82.0397 113.375 83.0595C113.281 83.3236 113.167 83.5707 113.042 83.807C113.04 83.8122 113.041 83.8183 113.039 83.8229L121.948 86.5879L124.115 79.6065L113.534 79.8005C113.536 79.8063 113.536 79.8114 113.537 79.8169ZM107.518 86.1418L91.1883 81.0738C90.833 80.9635 90.5171 80.7525 90.2792 80.4666L89.6145 79.6679C88.6648 81.3134 87.6743 82.8941 86.6727 84.3666C90.0796 86.6376 94.9223 92.0627 91.3419 103.6L88.33 113.304C89.5394 113.965 90.879 115.041 91.741 116.773C92.6498 118.599 92.8262 120.746 92.2754 123.172L95.9852 124.324C103.067 114.71 108.046 103.687 107.518 86.1418ZM90.0705 131.655C91.2353 130.303 92.3737 128.949 93.4757 127.577L74.3816 121.651C71.9068 120.883 71.0018 119.367 71.6913 117.146L73.727 110.586L75.8807 103.647L61.3655 99.1419C60.3497 98.8267 59.782 97.7481 60.0972 96.7323C60.4125 95.7164 61.4911 95.1488 62.5069 95.464L77.0089 99.9647C77.3095 98.9129 77.5077 98.0378 77.4728 97.4738C77.456 97.1995 77.4413 96.9627 76.4314 96.6493L69.831 94.5933C65.697 93.306 63.0492 91.3876 61.7362 88.728C61.6755 88.6049 61.6212 88.4786 61.5664 88.3527L49.8692 84.7225L36.7232 80.6427L35.1546 85.6969C34.9585 86.329 35.3255 87.0283 35.9562 87.2241L54.2635 92.9057C55.2794 93.221 55.847 94.2995 55.5318 95.3154C55.2165 96.3312 54.1379 96.8989 53.1221 96.5836L35.8953 91.2373C33.6045 93.4841 31.2553 96.4353 29.6871 101.763C34.8936 97.8386 41.7919 96.4169 48.4764 98.4914C53.8446 100.157 58.2284 103.827 60.8203 108.823C63.1204 113.256 63.7676 118.285 62.706 123.169L90.0705 131.655ZM38.3492 130.313C44.098 132.097 50.2319 129.46 53.1401 124.233L29.5996 116.927C29.0378 122.882 32.6006 128.529 38.3492 130.313ZM28.652 112.601L56.3701 121.203L59.012 122.023C60.6899 113.428 55.7509 104.781 47.3349 102.169C39.946 99.8762 32.2288 102.823 28.0571 109.005C28.0438 109.025 28.0305 109.045 28.0165 109.064C27.4223 109.952 26.901 110.907 26.4641 111.922L28.652 112.601ZM22.841 69.026C22.3296 70.6739 23.2526 72.43 24.8983 72.9407L49.1719 80.474L52.1192 70.9774L24.8608 62.5178L22.841 69.026ZM26.0023 58.8399L53.2606 67.2995L54.4744 63.3885L27.2161 54.9289L26.0023 58.8399ZM28.3575 51.251L55.6158 59.7106L56.7764 55.9709C57.2879 54.3229 56.3649 52.5669 54.7192 52.0561L33.4303 45.4492C31.7845 44.9384 30.0294 45.8636 29.5181 47.5113L28.3575 51.251Z"/>
</mask>
<path d="M34.5717 41.7713L55.8606 48.3783C59.5343 49.5184 61.5952 53.4364 60.4543 57.1123L52.8498 81.6154L60.8127 84.0867C60.8694 82.3406 61.2943 80.3922 62.0872 78.2174L62.0873 78.2171C65.1563 68.939 69.2904 61.5997 74.3753 56.4032C78.3236 52.3688 82.0862 50.3831 85.0826 49.4279C83.1144 45.5588 82.7553 40.8123 84.2686 35.9361C86.9913 27.1629 96.2049 22.1975 104.807 24.8672C113.409 27.5368 118.193 36.8461 115.47 45.6194C115.155 46.6352 114.076 47.2028 113.06 46.8876L111.811 46.4998C111.71 47.2294 111.552 47.9556 111.329 48.6738C109.41 54.8565 103.389 58.6529 97.1885 57.9982C97.0952 60.4617 96.5675 63.2368 95.6212 66.2817L98.9835 71.6501L109.863 76.0161L124.057 75.7557C125.359 75.7296 126.834 75.7013 127.735 76.898C128.622 78.0779 128.174 79.5223 128.026 79.9968L125.056 89.5679C124.741 90.5837 123.662 91.1513 122.646 90.8361L120.457 90.1567L120.214 102.802C120.193 103.865 119.315 104.711 118.251 104.69C117.187 104.671 116.343 103.791 116.363 102.728L116.628 88.9683L111.4 87.3458C111.748 109.193 103.93 121.278 94.0701 132.903L97.3758 133.929L115.922 122.807L116.132 111.846C116.152 110.782 117.031 109.937 118.094 109.958C119.157 109.978 120.002 110.857 119.982 111.92L119.781 122.405C128.438 124.934 134.299 133.263 133.611 142.415C133.531 143.475 132.608 144.27 131.548 144.191L128.751 143.982C127.268 151.116 120.678 156.236 113.224 155.678C112.091 155.593 110.989 155.383 109.93 155.054C107.32 154.244 104.984 152.717 103.157 150.592C101.013 148.098 99.7907 145.031 99.6168 141.8L97.4098 141.635C96.7521 141.586 96.1477 141.477 95.6632 140.984C95.2125 140.524 95.016 139.887 95.0654 139.251C95.1228 138.609 95.214 137.967 95.3372 137.328L56.8767 125.392C53.2737 132.657 44.9785 136.402 37.2081 133.991C29.4377 131.579 24.7202 123.796 25.8635 115.767L24.46 115.332C24.46 115.332 24.1805 115.248 24.117 115.229C23.591 115.065 22.8495 114.771 22.4227 113.943C22.2091 113.529 22.0191 112.847 22.3274 111.953C22.9151 110.242 23.6921 108.654 24.6266 107.206C25.9216 97.8584 29.0119 92.8797 32.4166 89.2894C31.3645 88.0137 30.9516 86.2502 31.4776 84.5554L33.0461 79.5012L23.7575 76.6185C20.0837 75.4784 18.0229 71.5604 19.1637 67.8845L25.8408 46.3698C26.981 42.6939 30.8977 40.6311 34.5717 41.7713ZM106.077 148.082C107.973 150.288 110.613 151.621 113.51 151.838L113.51 151.838C118.843 152.237 123.58 148.704 124.869 143.694L103.497 142.094C103.719 144.294 104.606 146.371 106.077 148.082ZM99.1479 137.903L129.796 140.199C129.465 133.469 124.766 127.623 118.166 125.952L99.2902 137.271C99.2383 137.482 99.1908 137.692 99.1479 137.903ZM81.3164 97.2374C81.4133 98.811 80.8746 100.547 80.129 102.949L77.9753 109.889L84.709 111.979L87.6637 102.458C91.0041 91.6948 85.7251 87.9535 83.187 86.8188L65.1582 81.2236C64.4726 83.689 64.4849 85.5965 65.1893 87.0234C66.0104 88.6862 67.903 89.9596 70.9758 90.9165L77.5745 92.9719C79.9283 93.7027 81.1873 95.1374 81.3164 97.2374ZM76.834 113.566L75.4712 117.957C75.4879 117.963 75.5051 117.968 75.5227 117.973L88.5849 122.027C88.8607 120.62 88.7635 119.434 88.2933 118.489C87.5936 117.083 86.1844 116.468 85.4066 116.227L76.834 113.566ZM66.3807 77.5711L83.1046 82.7614C84.432 80.8565 85.749 78.7282 86.9794 76.5026L82.9191 71.6243C80.7029 68.9605 80.0494 65.9655 81.1262 63.4071C82.0806 61.1391 84.3191 59.5433 86.8288 59.3418C89.1207 59.158 91.2354 60.0954 92.7898 61.9372C93.1758 60.1286 93.3655 58.466 93.3486 56.9995C92.5898 56.6753 91.8589 56.2805 91.1642 55.8184C89.7201 54.974 88.4608 53.9517 87.3995 52.785C83.201 53.8018 73.2811 58.2477 66.3807 77.5711ZM112.228 42.5975C113.184 36.4525 109.631 30.3966 103.666 28.5453C97.0914 26.505 90.0397 30.3328 87.9464 37.0778C86.2438 42.5637 87.5023 47.8017 91.1402 51.064L94.1432 41.388C94.6631 39.7126 95.9421 37.8564 99.0821 38.526C99.1391 38.538 99.1955 38.5529 99.2512 38.5701L112.228 42.5975ZM107.651 47.5325C107.876 46.8067 108.014 46.0722 108.064 45.3372L98.2 42.276C98.0826 42.2531 97.9957 42.2406 97.9326 42.2342C97.9019 42.2994 97.8631 42.3949 97.8213 42.5295L94.4826 53.2876C94.9007 53.488 95.3314 53.6575 95.772 53.7945C95.7762 53.7958 95.7803 53.797 95.7842 53.7983C100.777 55.3426 106.099 52.5335 107.651 47.5325ZM101.214 76.6952L96.9679 74.9911C96.5894 74.8395 96.2691 74.5715 96.0524 74.226L90.2898 65.0252L90.289 65.0236C89.7321 64.1328 89.025 63.5451 88.235 63.2999C87.8834 63.1908 87.5153 63.1497 87.1368 63.18C86.0443 63.2676 85.0783 63.943 84.6753 64.9002C84.1684 66.1049 84.596 67.6182 85.8789 69.1604L92.8739 77.5645L100.235 79.8489L101.214 76.695L101.214 76.6952ZM108.791 79.7357L104.8 78.1342L103.913 80.991L108.67 82.4673C109.287 82.6587 109.596 82.1929 109.747 81.7685C109.833 81.5279 110.189 80.2987 108.791 79.7357ZM113.537 79.8169C113.809 80.897 113.738 82.0397 113.375 83.0595C113.281 83.3236 113.167 83.5707 113.042 83.807C113.04 83.8122 113.041 83.8183 113.039 83.8229L121.948 86.5879L124.115 79.6065L113.534 79.8005C113.536 79.8063 113.536 79.8114 113.537 79.8169ZM107.518 86.1418L91.1883 81.0738C90.833 80.9635 90.5171 80.7525 90.2792 80.4666L89.6145 79.6679C88.6648 81.3134 87.6743 82.8941 86.6727 84.3666C90.0796 86.6376 94.9223 92.0627 91.3419 103.6L88.33 113.304C89.5394 113.965 90.879 115.041 91.741 116.773C92.6498 118.599 92.8262 120.746 92.2754 123.172L95.9852 124.324C103.067 114.71 108.046 103.687 107.518 86.1418ZM90.0705 131.655C91.2353 130.303 92.3737 128.949 93.4757 127.577L74.3816 121.651C71.9068 120.883 71.0018 119.367 71.6913 117.146L73.727 110.586L75.8807 103.647L61.3655 99.1419C60.3497 98.8267 59.782 97.7481 60.0972 96.7323C60.4125 95.7164 61.4911 95.1488 62.5069 95.464L77.0089 99.9647C77.3095 98.9129 77.5077 98.0378 77.4728 97.4738C77.456 97.1995 77.4413 96.9627 76.4314 96.6493L69.831 94.5933C65.697 93.306 63.0492 91.3876 61.7362 88.728C61.6755 88.6049 61.6212 88.4786 61.5664 88.3527L49.8692 84.7225L36.7232 80.6427L35.1546 85.6969C34.9585 86.329 35.3255 87.0283 35.9562 87.2241L54.2635 92.9057C55.2794 93.221 55.847 94.2995 55.5318 95.3154C55.2165 96.3312 54.1379 96.8989 53.1221 96.5836L35.8953 91.2373C33.6045 93.4841 31.2553 96.4353 29.6871 101.763C34.8936 97.8386 41.7919 96.4169 48.4764 98.4914C53.8446 100.157 58.2284 103.827 60.8203 108.823C63.1204 113.256 63.7676 118.285 62.706 123.169L90.0705 131.655ZM38.3492 130.313C44.098 132.097 50.2319 129.46 53.1401 124.233L29.5996 116.927C29.0378 122.882 32.6006 128.529 38.3492 130.313ZM28.652 112.601L56.3701 121.203L59.012 122.023C60.6899 113.428 55.7509 104.781 47.3349 102.169C39.946 99.8762 32.2288 102.823 28.0571 109.005C28.0438 109.025 28.0305 109.045 28.0165 109.064C27.4223 109.952 26.901 110.907 26.4641 111.922L28.652 112.601ZM22.841 69.026C22.3296 70.6739 23.2526 72.43 24.8983 72.9407L49.1719 80.474L52.1192 70.9774L24.8608 62.5178L22.841 69.026ZM26.0023 58.8399L53.2606 67.2995L54.4744 63.3885L27.2161 54.9289L26.0023 58.8399ZM28.3575 51.251L55.6158 59.7106L56.7764 55.9709C57.2879 54.3229 56.3649 52.5669 54.7192 52.0561L33.4303 45.4492C31.7845 44.9384 30.0294 45.8636 29.5181 47.5113L28.3575 51.251Z" fill="#4770FF"/>
<path d="M34.5717 41.7713L55.8606 48.3783C59.5343 49.5184 61.5952 53.4364 60.4543 57.1123L52.8498 81.6154L60.8127 84.0867C60.8694 82.3406 61.2943 80.3922 62.0872 78.2174L62.0873 78.2171C65.1563 68.939 69.2904 61.5997 74.3753 56.4032C78.3236 52.3688 82.0862 50.3831 85.0826 49.4279C83.1144 45.5588 82.7553 40.8123 84.2686 35.9361C86.9913 27.1629 96.2049 22.1975 104.807 24.8672C113.409 27.5368 118.193 36.8461 115.47 45.6194C115.155 46.6352 114.076 47.2028 113.06 46.8876L111.811 46.4998C111.71 47.2294 111.552 47.9556 111.329 48.6738C109.41 54.8565 103.389 58.6529 97.1885 57.9982C97.0952 60.4617 96.5675 63.2368 95.6212 66.2817L98.9835 71.6501L109.863 76.0161L124.057 75.7557C125.359 75.7296 126.834 75.7013 127.735 76.898C128.622 78.0779 128.174 79.5223 128.026 79.9968L125.056 89.5679C124.741 90.5837 123.662 91.1513 122.646 90.8361L120.457 90.1567L120.214 102.802C120.193 103.865 119.315 104.711 118.251 104.69C117.187 104.671 116.343 103.791 116.363 102.728L116.628 88.9683L111.4 87.3458C111.748 109.193 103.93 121.278 94.0701 132.903L97.3758 133.929L115.922 122.807L116.132 111.846C116.152 110.782 117.031 109.937 118.094 109.958C119.157 109.978 120.002 110.857 119.982 111.92L119.781 122.405C128.438 124.934 134.299 133.263 133.611 142.415C133.531 143.475 132.608 144.27 131.548 144.191L128.751 143.982C127.268 151.116 120.678 156.236 113.224 155.678C112.091 155.593 110.989 155.383 109.93 155.054C107.32 154.244 104.984 152.717 103.157 150.592C101.013 148.098 99.7907 145.031 99.6168 141.8L97.4098 141.635C96.7521 141.586 96.1477 141.477 95.6632 140.984C95.2125 140.524 95.016 139.887 95.0654 139.251C95.1228 138.609 95.214 137.967 95.3372 137.328L56.8767 125.392C53.2737 132.657 44.9785 136.402 37.2081 133.991C29.4377 131.579 24.7202 123.796 25.8635 115.767L24.46 115.332C24.46 115.332 24.1805 115.248 24.117 115.229C23.591 115.065 22.8495 114.771 22.4227 113.943C22.2091 113.529 22.0191 112.847 22.3274 111.953C22.9151 110.242 23.6921 108.654 24.6266 107.206C25.9216 97.8584 29.0119 92.8797 32.4166 89.2894C31.3645 88.0137 30.9516 86.2502 31.4776 84.5554L33.0461 79.5012L23.7575 76.6185C20.0837 75.4784 18.0229 71.5604 19.1637 67.8845L25.8408 46.3698C26.981 42.6939 30.8977 40.6311 34.5717 41.7713ZM106.077 148.082C107.973 150.288 110.613 151.621 113.51 151.838L113.51 151.838C118.843 152.237 123.58 148.704 124.869 143.694L103.497 142.094C103.719 144.294 104.606 146.371 106.077 148.082ZM99.1479 137.903L129.796 140.199C129.465 133.469 124.766 127.623 118.166 125.952L99.2902 137.271C99.2383 137.482 99.1908 137.692 99.1479 137.903ZM81.3164 97.2374C81.4133 98.811 80.8746 100.547 80.129 102.949L77.9753 109.889L84.709 111.979L87.6637 102.458C91.0041 91.6948 85.7251 87.9535 83.187 86.8188L65.1582 81.2236C64.4726 83.689 64.4849 85.5965 65.1893 87.0234C66.0104 88.6862 67.903 89.9596 70.9758 90.9165L77.5745 92.9719C79.9283 93.7027 81.1873 95.1374 81.3164 97.2374ZM76.834 113.566L75.4712 117.957C75.4879 117.963 75.5051 117.968 75.5227 117.973L88.5849 122.027C88.8607 120.62 88.7635 119.434 88.2933 118.489C87.5936 117.083 86.1844 116.468 85.4066 116.227L76.834 113.566ZM66.3807 77.5711L83.1046 82.7614C84.432 80.8565 85.749 78.7282 86.9794 76.5026L82.9191 71.6243C80.7029 68.9605 80.0494 65.9655 81.1262 63.4071C82.0806 61.1391 84.3191 59.5433 86.8288 59.3418C89.1207 59.158 91.2354 60.0954 92.7898 61.9372C93.1758 60.1286 93.3655 58.466 93.3486 56.9995C92.5898 56.6753 91.8589 56.2805 91.1642 55.8184C89.7201 54.974 88.4608 53.9517 87.3995 52.785C83.201 53.8018 73.2811 58.2477 66.3807 77.5711ZM112.228 42.5975C113.184 36.4525 109.631 30.3966 103.666 28.5453C97.0914 26.505 90.0397 30.3328 87.9464 37.0778C86.2438 42.5637 87.5023 47.8017 91.1402 51.064L94.1432 41.388C94.6631 39.7126 95.9421 37.8564 99.0821 38.526C99.1391 38.538 99.1955 38.5529 99.2512 38.5701L112.228 42.5975ZM107.651 47.5325C107.876 46.8067 108.014 46.0722 108.064 45.3372L98.2 42.276C98.0826 42.2531 97.9957 42.2406 97.9326 42.2342C97.9019 42.2994 97.8631 42.3949 97.8213 42.5295L94.4826 53.2876C94.9007 53.488 95.3314 53.6575 95.772 53.7945C95.7762 53.7958 95.7803 53.797 95.7842 53.7983C100.777 55.3426 106.099 52.5335 107.651 47.5325ZM101.214 76.6952L96.9679 74.9911C96.5894 74.8395 96.2691 74.5715 96.0524 74.226L90.2898 65.0252L90.289 65.0236C89.7321 64.1328 89.025 63.5451 88.235 63.2999C87.8834 63.1908 87.5153 63.1497 87.1368 63.18C86.0443 63.2676 85.0783 63.943 84.6753 64.9002C84.1684 66.1049 84.596 67.6182 85.8789 69.1604L92.8739 77.5645L100.235 79.8489L101.214 76.695L101.214 76.6952ZM108.791 79.7357L104.8 78.1342L103.913 80.991L108.67 82.4673C109.287 82.6587 109.596 82.1929 109.747 81.7685C109.833 81.5279 110.189 80.2987 108.791 79.7357ZM113.537 79.8169C113.809 80.897 113.738 82.0397 113.375 83.0595C113.281 83.3236 113.167 83.5707 113.042 83.807C113.04 83.8122 113.041 83.8183 113.039 83.8229L121.948 86.5879L124.115 79.6065L113.534 79.8005C113.536 79.8063 113.536 79.8114 113.537 79.8169ZM107.518 86.1418L91.1883 81.0738C90.833 80.9635 90.5171 80.7525 90.2792 80.4666L89.6145 79.6679C88.6648 81.3134 87.6743 82.8941 86.6727 84.3666C90.0796 86.6376 94.9223 92.0627 91.3419 103.6L88.33 113.304C89.5394 113.965 90.879 115.041 91.741 116.773C92.6498 118.599 92.8262 120.746 92.2754 123.172L95.9852 124.324C103.067 114.71 108.046 103.687 107.518 86.1418ZM90.0705 131.655C91.2353 130.303 92.3737 128.949 93.4757 127.577L74.3816 121.651C71.9068 120.883 71.0018 119.367 71.6913 117.146L73.727 110.586L75.8807 103.647L61.3655 99.1419C60.3497 98.8267 59.782 97.7481 60.0972 96.7323C60.4125 95.7164 61.4911 95.1488 62.5069 95.464L77.0089 99.9647C77.3095 98.9129 77.5077 98.0378 77.4728 97.4738C77.456 97.1995 77.4413 96.9627 76.4314 96.6493L69.831 94.5933C65.697 93.306 63.0492 91.3876 61.7362 88.728C61.6755 88.6049 61.6212 88.4786 61.5664 88.3527L49.8692 84.7225L36.7232 80.6427L35.1546 85.6969C34.9585 86.329 35.3255 87.0283 35.9562 87.2241L54.2635 92.9057C55.2794 93.221 55.847 94.2995 55.5318 95.3154C55.2165 96.3312 54.1379 96.8989 53.1221 96.5836L35.8953 91.2373C33.6045 93.4841 31.2553 96.4353 29.6871 101.763C34.8936 97.8386 41.7919 96.4169 48.4764 98.4914C53.8446 100.157 58.2284 103.827 60.8203 108.823C63.1204 113.256 63.7676 118.285 62.706 123.169L90.0705 131.655ZM38.3492 130.313C44.098 132.097 50.2319 129.46 53.1401 124.233L29.5996 116.927C29.0378 122.882 32.6006 128.529 38.3492 130.313ZM28.652 112.601L56.3701 121.203L59.012 122.023C60.6899 113.428 55.7509 104.781 47.3349 102.169C39.946 99.8762 32.2288 102.823 28.0571 109.005C28.0438 109.025 28.0305 109.045 28.0165 109.064C27.4223 109.952 26.901 110.907 26.4641 111.922L28.652 112.601ZM22.841 69.026C22.3296 70.6739 23.2526 72.43 24.8983 72.9407L49.1719 80.474L52.1192 70.9774L24.8608 62.5178L22.841 69.026ZM26.0023 58.8399L53.2606 67.2995L54.4744 63.3885L27.2161 54.9289L26.0023 58.8399ZM28.3575 51.251L55.6158 59.7106L56.7764 55.9709C57.2879 54.3229 56.3649 52.5669 54.7192 52.0561L33.4303 45.4492C31.7845 44.9384 30.0294 45.8636 29.5181 47.5113L28.3575 51.251Z" stroke="#4770FF" stroke-width="2" mask="url(#path-1-outside-1)"/>
</g>
<defs>
<clipPath id="clip0">
<rect width="131.446" height="131.446" fill="white" transform="matrix(-0.955063 -0.296402 -0.296402 0.955063 165.469 39.9302)"/>
</clipPath>
</defs>
</svg>
