<svg width="337" height="208" viewBox="0 0 337 208" fill="none" xmlns="http://www.w3.org/2000/svg">
<g clip-path="url(#clip0)">
<path opacity="0.1" d="M336.975 133.115C336.981 138.73 336.301 144.326 334.952 149.776C334.498 151.613 333.971 153.411 333.37 155.172C332.635 157.345 331.783 159.476 330.818 161.557C330.332 162.61 329.818 163.642 329.276 164.652C329.285 170.411 328.1 176.108 325.795 181.385C321.628 190.853 314.199 198.508 304.86 202.955C299.021 205.741 292.64 207.206 286.17 207.247H63.9902C54.105 207.268 44.3905 204.671 35.8344 199.72L35.7028 199.646C34.4841 198.932 33.2959 198.177 32.1383 197.38C29.5336 195.58 27.0864 193.563 24.8233 191.349C21.76 188.356 19.0608 185.011 16.7816 181.385C11.4285 172.885 8.59267 163.043 8.60262 152.998C3.18143 143.485 0.0202637 132.091 0.0202637 119.847C0.0202637 104.399 5.0438 90.3064 13.2972 79.6385C15.0178 77.4098 16.9026 75.3127 18.9358 73.3648C20.9419 71.4373 23.0981 69.6723 25.384 68.0867C27.2129 66.8167 29.1243 65.6698 31.1055 64.6537C31.9323 64.2332 32.7619 63.8355 33.6059 63.4665C34.3468 63.1375 35.0963 62.8314 35.8544 62.5425C36.7642 62.1973 37.6853 61.8797 38.618 61.5898C39.5506 61.2999 40.4708 61.0463 41.3786 60.8289C42.7136 60.5027 44.0716 60.2376 45.4524 60.0336C46.5967 59.8648 47.741 59.7475 48.8853 59.6588C49.795 59.5901 50.7134 59.553 51.6374 59.5415H52.138C53.1565 59.5415 54.1692 59.5816 55.1733 59.6502C55.2792 59.4385 55.3936 59.224 55.4994 59.0151C55.9 58.2513 56.3148 57.4903 56.7324 56.7465C56.7315 56.7399 56.7315 56.7331 56.7324 56.7265C56.804 56.5949 56.8755 56.4662 56.9499 56.3403C57.2874 55.7309 57.6393 55.1273 57.9998 54.5294C58.1657 54.2433 58.3288 53.9744 58.4976 53.7055C58.5333 53.6387 58.5724 53.5737 58.6148 53.511C58.7865 53.2249 58.961 52.9388 59.1384 52.6527C60.0214 51.2414 60.9397 49.8549 61.8933 48.4932L62.1365 48.1441C62.2852 47.9324 62.4225 47.7265 62.5885 47.5148C62.9833 46.9626 63.3895 46.4076 63.7986 45.8641C64.0847 45.475 64.3707 45.0888 64.6797 44.7198C65.4235 43.7662 66.1864 42.8126 66.9683 41.859C67.7503 40.9054 68.5627 39.9642 69.4057 39.0354C69.5201 38.9067 69.6346 38.7808 69.7547 38.6549L70.9763 37.3218C71.0364 37.2589 71.0879 37.2016 71.1451 37.1444C71.291 36.9871 71.4311 36.8297 71.5885 36.6781C72.2436 35.9829 72.9159 35.3021 73.591 34.6241C77.027 31.2019 80.6874 28.0126 84.5478 25.0776C84.6995 24.9575 84.854 24.8431 85.0056 24.7286C85.7322 24.1822 86.4703 23.6415 87.2084 23.1094C91.2681 20.197 95.5119 17.55 99.9131 15.185C100.216 15.0105 100.525 14.8475 100.837 14.6873C104.783 12.5998 108.841 10.7317 112.993 9.09158C115.256 8.19616 117.57 7.35508 119.899 6.58553C121.449 6.07631 123.005 5.59284 124.582 5.13798C127.046 4.4285 129.527 3.79246 132.025 3.22984C139.386 1.57826 146.874 0.558025 154.408 0.180238C156.697 0.0638998 159.011 0.00382415 161.351 9.76652e-06C172.643 -0.014939 183.89 1.40782 194.822 4.23397C194.936 4.40478 195.09 4.54404 195.272 4.63862C195.453 4.73321 195.656 4.78002 195.861 4.77466H196.822C197.24 4.88909 197.655 5.00352 198.072 5.12367C200.405 5.795 202.704 6.52832 204.97 7.32362L205.542 7.52959C211.134 9.51811 216.575 11.9083 221.823 14.6816C226.553 17.1754 231.107 19.9894 235.454 23.1037C236.124 23.5843 236.784 24.0687 237.434 24.557C238.223 24.0516 239.026 23.5671 239.843 23.1037C242.995 21.3084 246.343 19.881 249.821 18.8497C257.093 16.6979 264.786 16.397 272.204 17.9743C281.716 19.9912 290.327 24.9975 297.281 32.118C300.113 35.0314 302.634 38.2318 304.802 41.6673C304.96 41.9134 305.117 42.1622 305.269 42.414C307.133 45.4547 308.735 48.6483 310.058 51.9604C310.106 52.0834 310.155 52.1979 310.198 52.318C311.419 55.4194 312.404 58.6088 313.145 61.8587C313.179 62.0247 313.219 62.1877 313.253 62.3537C313.946 65.4989 314.416 68.6889 314.661 71.9001C314.661 72.0145 314.661 72.1318 314.684 72.252C314.804 73.9131 314.865 75.5915 314.867 77.287C314.867 78.8032 314.815 80.3079 314.721 81.8013C314.721 81.9643 314.698 82.1331 314.684 82.3019C314.658 82.7339 314.621 83.1601 314.583 83.595C316.768 85.3574 318.813 87.2866 320.7 89.3652C321.533 90.2749 322.34 91.219 323.12 92.1974C325.496 95.1752 327.584 98.3716 329.357 101.744C334.194 110.875 336.975 121.618 336.975 133.115Z" fill="#4770FF"/>
<path opacity="0.1" d="M304.648 201.897C304.648 203.851 297.916 205.682 286.17 207.255H63.9898C54.1046 207.276 44.3901 204.679 35.834 199.728L35.7024 199.654C39.0781 198.424 45.1716 197.277 53.465 196.241L53.8369 196.195C57.5559 195.741 61.7126 195.309 66.2556 194.899C66.37 194.899 66.4873 194.882 66.6017 194.868C70.2063 194.548 74.0407 194.247 78.1049 193.967C78.2337 193.967 78.3595 193.944 78.4883 193.938C80.056 193.826 81.6561 193.719 83.2887 193.618L83.918 193.578C95.8046 192.84 109.316 192.25 123.969 191.861H123.986C126.038 191.804 128.112 191.754 130.208 191.71C132.539 191.654 134.898 191.606 137.286 191.564C139.108 191.524 140.953 191.495 142.804 191.467H142.847C151.198 191.341 159.826 191.278 168.649 191.278C190.465 191.278 211.086 191.675 229.357 192.391H229.409C232.218 192.499 234.976 192.619 237.665 192.742L239.954 192.851C242.988 192.996 245.944 193.152 248.822 193.317C282.665 195.243 304.648 198.37 304.648 201.897Z" fill="#4770FF"/>
<g opacity="0.2">
<path opacity="0.2" d="M194.639 189.965C194.63 190.273 194.595 190.58 194.533 190.883C192.542 190.566 190.54 190.28 188.526 190.025C188.526 189.945 188.526 189.862 188.526 189.779C188.544 188.921 188.791 188.084 189.241 187.353C189.83 186.42 190.726 185.837 191.713 185.868C192.7 185.9 193.555 186.537 194.084 187.502C194.484 188.259 194.676 189.109 194.639 189.965Z" fill="#3F3D56"/>
<path opacity="0.2" d="M194.803 185.076C194.873 182.864 193.56 181.027 191.87 180.973C190.181 180.92 188.754 182.67 188.684 184.883C188.614 187.095 189.927 188.932 191.617 188.985C193.307 189.039 194.733 187.289 194.803 185.076Z" fill="#3F3D56"/>
<path opacity="0.2" d="M194.959 180.178C195.029 177.966 193.716 176.129 192.026 176.076C190.337 176.022 188.91 177.773 188.84 179.985C188.77 182.197 190.083 184.034 191.773 184.088C193.463 184.141 194.889 182.391 194.959 180.178Z" fill="#3F3D56"/>
<path opacity="0.2" d="M195.113 175.281C195.182 173.068 193.869 171.231 192.18 171.178C190.49 171.124 189.063 172.875 188.994 175.087C188.924 177.3 190.237 179.136 191.926 179.19C193.616 179.243 195.043 177.493 195.113 175.281Z" fill="#3F3D56"/>
<path opacity="0.2" d="M195.266 170.383C195.336 168.17 194.023 166.333 192.333 166.28C190.643 166.227 189.217 167.977 189.147 170.189C189.077 172.402 190.39 174.239 192.08 174.292C193.769 174.345 195.196 172.595 195.266 170.383Z" fill="#3F3D56"/>
<path opacity="0.2" d="M181.794 136.399C181.391 135.854 181.028 135.28 180.707 134.683L188.791 133.616L180.089 133.407C179.312 131.565 178.92 129.584 178.935 127.585C178.95 125.586 179.373 123.611 180.178 121.781L191.655 128.203L181.142 119.953C182.202 118.237 183.605 116.759 185.263 115.61C186.92 114.461 188.797 113.667 190.775 113.276C192.754 112.885 194.792 112.906 196.762 113.338C198.732 113.77 200.591 114.603 202.225 115.786C203.858 116.969 205.23 118.476 206.255 120.213C207.28 121.951 207.935 123.88 208.181 125.882C208.426 127.884 208.256 129.915 207.681 131.848C207.107 133.781 206.14 135.575 204.84 137.117C205.467 137.966 205.999 138.88 206.428 139.844L195.818 144.936L207.069 141.552C207.778 143.89 207.892 146.367 207.401 148.761C206.911 151.154 205.831 153.387 204.26 155.258C205.893 157.474 206.87 160.105 207.079 162.851C207.287 165.596 206.719 168.345 205.439 170.782C204.158 173.22 202.218 175.248 199.84 176.635C197.461 178.022 194.74 178.711 191.988 178.624C189.236 178.537 186.564 177.678 184.278 176.144C181.991 174.61 180.183 172.464 179.059 169.951C177.935 167.437 177.541 164.658 177.922 161.931C178.303 159.205 179.443 156.64 181.213 154.531C179.262 151.882 178.257 148.654 178.361 145.366C178.465 142.078 179.671 138.92 181.785 136.399H181.794Z" fill="#4770FF"/>
<path opacity="0.1" d="M207.693 146.292C207.593 149.582 206.383 152.742 204.26 155.258C205.893 157.474 206.87 160.105 207.079 162.851C207.287 165.596 206.719 168.345 205.439 170.782C204.158 173.22 202.218 175.248 199.84 176.635C197.461 178.022 194.74 178.711 191.988 178.624C189.236 178.538 186.564 177.678 184.278 176.144C181.991 174.61 180.183 172.464 179.059 169.951C177.935 167.437 177.541 164.658 177.922 161.931C178.303 159.205 179.443 156.64 181.213 154.531C179.334 151.976 207.744 144.647 207.693 146.292Z" fill="black"/>
</g>
<g opacity="0.2">
<path opacity="0.2" d="M151.155 189.965C151.146 190.273 151.11 190.58 151.049 190.883C149.058 190.566 147.055 190.28 145.042 190.025C145.042 189.945 145.042 189.862 145.042 189.779C145.06 188.921 145.307 188.084 145.757 187.353C146.346 186.42 147.241 185.837 148.228 185.868C149.215 185.9 150.071 186.537 150.6 187.502C151 188.259 151.192 189.109 151.155 189.965Z" fill="#3F3D56"/>
<path opacity="0.2" d="M151.316 185.077C151.386 182.865 150.073 181.028 148.383 180.975C146.694 180.921 145.267 182.672 145.197 184.884C145.127 187.096 146.44 188.933 148.13 188.987C149.82 189.04 151.246 187.29 151.316 185.077Z" fill="#3F3D56"/>
<path opacity="0.2" d="M151.472 180.179C151.542 177.967 150.229 176.13 148.54 176.077C146.85 176.023 145.423 177.774 145.353 179.986C145.283 182.199 146.597 184.035 148.286 184.089C149.976 184.142 151.402 182.392 151.472 180.179Z" fill="#3F3D56"/>
<path opacity="0.2" d="M151.625 175.282C151.695 173.069 150.382 171.232 148.693 171.179C147.003 171.126 145.576 172.876 145.506 175.088C145.437 177.301 146.75 179.138 148.439 179.191C150.129 179.244 151.556 177.494 151.625 175.282Z" fill="#3F3D56"/>
<path opacity="0.2" d="M151.779 170.384C151.849 168.171 150.536 166.335 148.846 166.281C147.156 166.228 145.73 167.978 145.66 170.191C145.59 172.403 146.903 174.24 148.593 174.293C150.282 174.347 151.709 172.596 151.779 170.384Z" fill="#3F3D56"/>
<path opacity="0.2" d="M138.31 136.399C137.907 135.854 137.544 135.28 137.223 134.683L145.308 133.616L136.605 133.407C135.828 131.565 135.436 129.584 135.451 127.585C135.466 125.586 135.889 123.611 136.694 121.781L148.171 128.203L137.658 119.953C138.718 118.237 140.121 116.759 141.779 115.61C143.436 114.461 145.313 113.667 147.292 113.276C149.27 112.885 151.308 112.906 153.278 113.338C155.248 113.77 157.108 114.603 158.741 115.786C160.374 116.969 161.746 118.476 162.771 120.213C163.796 121.951 164.451 123.88 164.697 125.882C164.942 127.884 164.772 129.915 164.198 131.848C163.623 133.781 162.656 135.575 161.357 137.117C161.983 137.966 162.516 138.88 162.944 139.844L152.334 144.936L163.585 141.552C164.294 143.89 164.408 146.367 163.917 148.761C163.427 151.154 162.347 153.387 160.776 155.258C162.409 157.474 163.386 160.105 163.595 162.851C163.803 165.596 163.235 168.345 161.955 170.782C160.675 173.22 158.734 175.248 156.356 176.635C153.977 178.022 151.256 178.711 148.504 178.624C145.753 178.537 143.081 177.678 140.794 176.144C138.508 174.61 136.699 172.464 135.575 169.951C134.451 167.437 134.057 164.658 134.438 161.931C134.819 159.205 135.959 156.64 137.729 154.531C135.778 151.882 134.773 148.654 134.877 145.366C134.981 142.078 136.187 138.92 138.302 136.399H138.31Z" fill="#4770FF"/>
<path opacity="0.1" d="M164.209 146.292C164.109 149.582 162.899 152.742 160.776 155.258C162.409 157.474 163.386 160.105 163.595 162.851C163.803 165.596 163.235 168.345 161.955 170.782C160.675 173.22 158.734 175.248 156.356 176.635C153.977 178.022 151.256 178.711 148.504 178.624C145.753 178.538 143.081 177.678 140.794 176.144C138.508 174.61 136.699 172.464 135.575 169.951C134.451 167.437 134.057 164.658 134.438 161.931C134.819 159.205 135.959 156.64 137.729 154.531C135.85 151.976 164.26 144.647 164.209 146.292Z" fill="black"/>
</g>
<g opacity="0.2">
<path opacity="0.2" d="M269.934 193.094C269.913 193.679 269.843 194.261 269.726 194.834C265.892 194.221 262.031 193.674 258.142 193.192C258.142 193.037 258.142 192.88 258.142 192.72C258.179 191.067 258.655 189.455 259.521 188.048C260.666 186.254 262.382 185.13 264.279 185.187C266.175 185.244 267.826 186.477 268.856 188.334C269.633 189.797 270.005 191.44 269.934 193.094Z" fill="#3F3D56"/>
<path opacity="0.2" d="M270.246 183.676C270.381 179.415 267.851 175.878 264.597 175.775C261.342 175.672 258.594 179.043 258.46 183.303C258.325 187.564 260.854 191.101 264.109 191.204C267.364 191.307 270.111 187.936 270.246 183.676Z" fill="#3F3D56"/>
<path opacity="0.2" d="M270.543 174.246C270.678 169.986 268.149 166.448 264.894 166.346C261.639 166.243 258.892 169.613 258.757 173.874C258.623 178.134 261.152 181.672 264.407 181.775C267.661 181.877 270.409 178.507 270.543 174.246Z" fill="#3F3D56"/>
<path opacity="0.2" d="M270.844 164.817C270.978 160.557 268.449 157.019 265.194 156.916C261.939 156.814 259.192 160.184 259.057 164.445C258.923 168.705 261.452 172.243 264.707 172.345C267.961 172.448 270.709 169.078 270.844 164.817Z" fill="#3F3D56"/>
<path opacity="0.2" d="M270.805 154.959C270.933 150.696 268.397 147.161 265.141 147.063C261.885 146.966 259.141 150.342 259.013 154.605C258.885 158.868 261.421 162.403 264.678 162.5C267.934 162.598 270.678 159.222 270.805 154.959Z" fill="#3F3D56"/>
<path opacity="0.2" d="M245.203 89.9745C244.431 88.9243 243.733 87.8222 243.112 86.676L258.675 84.622L241.925 84.2186C240.429 80.6726 239.672 76.8587 239.7 73.0101C239.729 69.1615 240.542 65.3592 242.091 61.8358L264.19 74.1973L243.953 58.3142C245.999 55.0197 248.702 52.182 251.893 49.9778C255.084 47.7737 258.695 46.2504 262.5 45.5029C266.306 44.7554 270.225 44.7997 274.012 45.633C277.8 46.4663 281.375 48.0708 284.516 50.3464C287.656 52.6221 290.294 55.5202 292.265 58.8601C294.237 62.1999 295.499 65.91 295.973 69.7591C296.448 73.6082 296.125 77.5137 295.024 81.2324C293.923 84.951 292.068 88.4031 289.574 91.3734C290.779 93.0082 291.805 94.7682 292.632 96.623L272.203 106.433L293.862 99.91C295.227 104.406 295.45 109.171 294.509 113.774C293.569 118.377 291.495 122.672 288.476 126.272C291.62 130.539 293.5 135.604 293.901 140.889C294.302 146.174 293.207 151.466 290.743 156.158C288.278 160.85 284.543 164.754 279.964 167.424C275.385 170.093 270.148 171.42 264.85 171.253C259.552 171.086 254.409 169.432 250.007 166.479C245.606 163.527 242.124 159.395 239.96 154.557C237.796 149.719 237.037 144.369 237.77 139.12C238.503 133.871 240.698 128.934 244.105 124.873C240.35 119.774 238.417 113.562 238.616 107.232C238.815 100.903 241.135 94.8243 245.203 89.9716V89.9745Z" fill="#4770FF"/>
<path opacity="0.1" d="M295.067 109.016C294.879 115.346 292.561 121.428 288.487 126.278C291.631 130.545 293.511 135.61 293.912 140.895C294.313 146.18 293.219 151.471 290.754 156.164C288.29 160.856 284.554 164.76 279.975 167.429C275.397 170.099 270.159 171.426 264.861 171.259C259.564 171.092 254.42 169.438 250.019 166.485C245.617 163.532 242.135 159.401 239.971 154.563C237.807 149.724 237.048 144.375 237.781 139.125C238.514 133.876 240.71 128.939 244.116 124.879C240.472 119.955 295.167 105.849 295.067 109.016Z" fill="black"/>
</g>
<path d="M45.1746 193.598L48.1755 193.589H52.4066L57.7563 106.684L110.735 18.2775L108.432 15.8058V9.54643L51.1364 104.636L45.1746 193.598Z" fill="#F1C0C0"/>
<path opacity="0.1" d="M48.4958 193.589H52.4065L57.7562 106.684L110.735 18.2775L108.432 15.8058L53.7854 105.36L48.4958 193.589Z" fill="black"/>
<path d="M36.3318 194.322L173.607 204.826L173.724 204.835L306.576 196.665L306.676 196.659V191.049L160.29 188.363L38.1598 188.245H37.2673L37.17 188.875L36.3318 194.322Z" fill="#F1C0C0"/>
<path opacity="0.1" d="M36.3318 194.322L173.607 204.826L173.724 204.835L306.576 196.665L306.676 196.556V191.166H306.559L173.607 195.606L38.1598 188.245H38.1398L37.8995 188.403L37.17 188.875L36.3318 194.322Z" fill="black"/>
<path opacity="0.1" d="M36.3318 194.322L173.607 204.826V195.606L37.8995 188.403L37.17 188.875L36.3318 194.322Z" fill="black"/>
<path d="M108.415 15.6885L168.935 80.6455L167.064 194.905L172.205 195.526L172.291 195.537H177.431L178.047 85.5517L291.371 123.406L293.282 190.806L297.418 191.269L298.82 191.427L295.576 118.731L177.111 77.141L112.154 9.61223H108.415V15.6885Z" fill="#F1C0C0"/>
<path opacity="0.1" d="M177.58 83.4491L178.046 85.5517L291.371 123.406L293.282 190.806L297.418 191.269L294.174 122.004L177.58 83.4491Z" fill="black"/>
<path opacity="0.1" d="M108.415 15.6885L168.935 80.6455L167.064 194.905L172.205 195.526L173.607 76.9064L108.415 9.61223V15.6885Z" fill="black"/>
<path d="M177.801 129.305L219.365 137.489L219.379 137.492L292.178 151.833L295.51 150.497L295.499 150.263L295.281 145.614L177.843 121.884L177.801 129.305Z" fill="#F1C0C0"/>
<path opacity="0.1" d="M219.379 137.492L292.178 151.833L295.51 150.497L295.499 150.263L219.379 137.492Z" fill="black"/>
<path d="M222.163 100.288L223.287 162.178L223.868 193.93L228.986 193.758L232.207 193.649L231.206 101.183L228.986 100.445L228.499 100.288H222.163Z" fill="#F1C0C0"/>
<path opacity="0.1" d="M222.208 100.273V100.288L223.287 162.178L223.868 193.93L228.986 193.758V100.273H222.208Z" fill="black"/>
<path d="M141.995 116.093C142.295 116.257 142.582 116.443 142.853 116.651C143.174 116.932 143.462 117.248 143.711 117.593C144.939 119.18 146.072 121.025 145.951 123.028C145.954 123.319 145.899 123.608 145.789 123.878C145.68 124.148 145.518 124.394 145.313 124.601C144.807 125.033 144.08 125.053 143.417 125.053C142.696 125.053 141.938 125.053 141.314 124.682C140.69 124.31 140.17 123.586 139.432 123.603C139.328 123.62 139.221 123.62 139.117 123.603C138.862 123.52 138.811 123.185 138.645 122.974C138.359 122.593 137.755 122.688 137.306 122.853C136.857 123.019 136.359 123.268 135.916 123.077C135.658 122.941 135.448 122.73 135.312 122.473C134.251 120.757 134.025 118.694 133.825 116.7C133.702 115.487 132.763 111.35 135.352 112.291C136.497 112.703 137.566 113.527 138.608 114.131L141.995 116.093Z" fill="#3F3D56"/>
<path d="M139.437 116.503C139.668 116.669 139.949 116.753 140.233 116.742C140.518 116.73 140.791 116.624 141.008 116.44C141.434 116.055 141.705 115.528 141.772 114.958C142.058 114.869 142.204 115.244 142.387 115.473C142.707 115.862 143.359 115.856 143.651 116.271C143.854 116.557 143.808 116.955 143.951 117.278C144.137 117.696 144.598 117.913 144.913 118.251C145.21 118.619 145.424 119.048 145.542 119.506L146.011 120.914C146.236 121.499 146.38 122.112 146.44 122.736C146.47 123.048 146.437 123.363 146.344 123.662C146.25 123.961 146.099 124.239 145.897 124.478C145.267 125.156 144.235 125.228 143.322 125.208C143.017 125.214 142.713 125.179 142.418 125.102C141.608 124.85 141.091 124.035 140.876 123.214C140.662 122.393 140.684 121.532 140.559 120.691C140.423 119.865 140.182 119.059 139.843 118.293C139.592 117.698 138.899 116.812 138.911 116.179C139.117 116.179 139.266 116.368 139.437 116.503Z" fill="#3F3D56"/>
<path d="M140.464 113.605C140.331 113.198 140.253 112.776 140.233 112.349C140.233 111.49 140.625 110.684 141.019 109.917L137.75 110.36C137.355 110.415 136.914 110.495 136.691 110.824C136.606 110.987 136.562 111.168 136.562 111.352C136.562 111.535 136.606 111.716 136.691 111.88C136.855 112.206 136.985 112.548 137.08 112.901C137.087 113.209 137.123 113.517 137.186 113.819C137.288 114.041 137.43 114.242 137.606 114.411C138.542 115.447 139.243 116.668 139.941 117.879C139.921 117.844 141.912 116.302 141.832 115.799C141.786 115.513 141.211 115.169 141.028 114.895C140.775 114.496 140.585 114.061 140.464 113.605Z" fill="#BE6F72"/>
<path d="M168.5 102.427V105.245L120.247 114.657L117.744 116.174H109.107V114.586L156.516 103.131L168.5 102.427Z" fill="#F1C0C0"/>
<path opacity="0.1" d="M168.5 105.245L120.247 114.657L117.744 116.174H109.107L156.868 105.952L168.5 105.245Z" fill="black"/>
<path d="M129.759 182.421C129.222 181.77 128.48 181.32 127.654 181.144C126.828 180.969 125.967 181.078 125.211 181.454C125.049 181.53 124.906 181.641 124.793 181.78C124.507 182.18 124.69 182.733 124.716 183.228C124.782 184.435 123.82 185.416 122.956 186.26C122.493 186.712 122.021 187.195 121.812 187.811C121.603 188.426 121.758 189.207 122.319 189.527C122.563 189.65 122.829 189.723 123.102 189.744C124.017 189.923 124.954 189.949 125.877 189.822C126.79 189.647 127.685 189.129 128.08 188.288C128.156 188.06 128.282 187.852 128.449 187.679C128.953 187.281 129.725 187.748 130.297 187.464C130.769 187.23 130.789 186.861 130.795 186.374C130.812 185.03 130.612 183.508 129.759 182.421Z" fill="#4770FF"/>
<path d="M136.625 182.369C136.977 183.296 137.026 184.306 137.072 185.296C137.097 185.868 137.115 186.48 136.806 186.964C136.497 187.447 135.893 187.702 135.315 187.822C134.122 188.068 132.74 187.836 131.971 186.889C131.382 186.165 131.259 185.173 131.367 184.234C131.459 183.465 131.653 182.564 131.101 182.017C130.958 181.871 130.772 181.768 130.641 181.611C130.355 181.262 130.4 180.736 130.555 180.307C130.756 179.896 130.907 179.463 131.004 179.016C131.027 178.805 134.877 179.165 135.232 179.34C135.716 179.577 135.641 179.975 135.787 180.455C135.99 181.125 136.379 181.728 136.625 182.369Z" fill="#4770FF"/>
<path d="M137.332 141.271C138.087 141.76 138.379 142.722 138.496 143.614C138.82 146.06 138.253 148.532 138.21 151.001C138.17 154.459 139.171 157.981 138.316 161.331C137.804 163.334 138.239 165.622 137.758 167.645C137.615 168.246 137.352 168.812 137.215 169.413C136.929 170.714 137.229 172.076 137.632 173.349C137.761 173.692 137.843 174.051 137.876 174.416C137.856 174.978 137.714 175.529 137.458 176.03L135.741 180.089C135.55 180.544 134.794 180.618 134.311 180.679C133.401 180.787 132.386 180.864 131.662 180.301C130.938 179.737 130.764 178.793 130.652 177.912C130.438 176.221 130.342 174.516 130.366 172.811C130.397 172.366 130.358 171.919 130.249 171.487C130.091 170.998 129.745 170.574 129.651 170.056C129.531 169.387 129.871 168.729 129.997 168.054C130.083 167.437 130.074 166.811 129.968 166.197C129.857 165.282 129.728 164.366 129.582 163.457C129.376 162.184 129.671 160.928 129.868 159.652C130.054 158.453 129.817 157.232 129.582 156.041C129.602 157.007 129.482 157.971 129.224 158.902C129.073 159.357 128.855 159.792 128.724 160.255C128.137 162.335 129.388 164.518 129.21 166.672C129.127 167.679 128.732 168.675 128.844 169.667C128.921 170.394 129.259 171.061 129.491 171.753C129.722 172.445 129.842 173.238 129.491 173.884C128.561 175.641 129.256 178.029 130.088 179.832C130.257 180.151 130.405 180.482 130.529 180.822C130.775 181.634 130.569 182.507 130.635 183.353C130.395 183.393 130.15 183.377 129.917 183.307C129.685 183.237 129.471 183.115 129.293 182.95C129.167 182.818 129.064 182.664 128.941 182.527C128.598 182.199 128.191 181.945 127.745 181.78C127.484 181.634 127.186 181.565 126.887 181.583C126.573 181.67 126.29 181.846 126.072 182.089C125.789 182.338 125.489 182.566 125.174 182.773C125.039 182.876 124.882 182.945 124.716 182.976C124.632 182.989 124.546 182.975 124.471 182.936C124.395 182.898 124.334 182.837 124.295 182.761C124.277 182.713 124.267 182.663 124.264 182.612C124.158 181.749 124.101 180.879 124.095 180.009C124.095 178.513 122.304 177.483 122.078 176.004C121.898 174.811 122.233 173.595 122.121 172.394C122.067 171.776 121.895 171.169 121.907 170.551C121.907 170.151 121.998 169.759 122.03 169.361C122.056 168.92 122.049 168.477 122.01 168.037L121.921 166.655C121.835 165.29 121.741 163.897 121.203 162.65C120.565 161.193 120.187 159.637 120.087 158.05C120.03 157.048 120.067 156.047 119.953 155.043C119.85 154.136 119.621 153.235 119.687 152.325C119.741 151.622 119.973 150.941 120.027 150.237C120.139 148.884 119.624 147.568 119.22 146.272C118.817 144.976 118.519 143.54 119.049 142.29C119.124 142.084 119.25 141.902 119.415 141.758C119.618 141.623 119.849 141.537 120.09 141.506C124.998 140.475 130.029 140.154 135.029 140.553C135.844 140.599 136.635 140.846 137.332 141.271Z" fill="#3F3D56"/>
<path d="M121.091 110.887C123.622 110.887 125.674 108.835 125.674 106.304C125.674 103.773 123.622 101.721 121.091 101.721C118.56 101.721 116.508 103.773 116.508 106.304C116.508 108.835 118.56 110.887 121.091 110.887Z" fill="#BE6F72"/>
<path d="M120.204 112.028C120.27 112.29 120.27 112.565 120.204 112.826C120.132 113.01 120.031 113.18 119.904 113.33C119.46 113.902 118.969 114.436 118.436 114.926C118.708 115.533 119.197 116.016 119.807 116.279C120.412 116.537 121.047 116.719 121.698 116.82C122.022 116.905 122.36 116.929 122.693 116.889C123 116.812 123.291 116.68 123.551 116.5L126.097 114.975C126.482 114.767 126.837 114.51 127.156 114.211C127.623 113.731 127.887 113.09 127.894 112.42C127.906 112.3 127.873 112.18 127.802 112.083C127.705 111.998 127.582 111.947 127.453 111.937C126.558 111.739 125.851 111.013 125.451 110.189C125.089 109.344 124.855 108.45 124.756 107.537L122.041 108.967C121.637 109.182 121.237 109.396 120.819 109.582C120.553 109.703 120.015 109.803 119.827 110.046C119.466 110.495 120.11 111.488 120.204 112.028Z" fill="#BE6F72"/>
<path d="M118.453 114.094C118.067 114.411 117.765 114.819 117.575 115.281C117.398 115.853 117.575 116.457 117.735 117.023C118.486 119.438 119.06 121.903 119.452 124.401C119.692 126.118 119.781 127.86 119.898 129.596C120.138 133.138 120.487 138.785 120.954 142.304C122.67 142.381 124.344 141.881 126.046 141.697C129.227 141.36 132.503 142.132 135.618 141.411C134.863 138.428 134.108 133.333 133.352 130.352C133.018 129.177 132.787 127.976 132.66 126.761C132.594 125.889 132.634 125.013 132.646 124.135C132.671 122.419 132.577 120.702 132.483 118.986C132.374 116.983 132.265 114.981 131.79 113.021C131.757 112.771 131.64 112.54 131.459 112.366C131.172 112.157 130.801 112.231 130.46 112.277C129.418 112.41 128.363 112.16 127.491 111.573C127.113 111.316 126.607 111.001 126.255 111.287C126.105 111.46 126.006 111.671 125.969 111.897C125.813 112.301 125.573 112.668 125.264 112.973C124.955 113.277 124.585 113.512 124.178 113.662C123.363 113.957 122.509 114.132 121.643 114.182C121.378 114.239 121.102 114.208 120.856 114.094C120.45 113.845 120.422 112.949 119.91 112.889C119.46 112.838 118.757 113.805 118.453 114.094Z" fill="#3F3D56"/>
<path d="M125.222 121.08C124.166 120.07 123.703 118.605 122.933 117.361C122.409 116.524 121.74 115.788 120.957 115.187C120.563 114.927 120.202 114.62 119.881 114.274C119.609 113.939 119.403 113.493 118.991 113.364C118.821 113.327 118.644 113.332 118.476 113.378C118.308 113.425 118.154 113.511 118.027 113.63C117.775 113.871 117.536 114.125 117.312 114.391C116.099 115.647 113.968 115.822 113.006 117.275C112.747 117.583 112.571 117.952 112.494 118.348C112.218 120.463 112.765 122.604 114.022 124.327C114.265 124.726 114.639 125.029 115.08 125.185C115.021 125.718 115.091 126.258 115.286 126.758C115.816 128.569 116.467 130.342 117.235 132.065C117.051 132.739 116.923 133.427 116.851 134.122C116.651 135.87 116.837 137.644 116.648 139.395C116.494 140.825 116.076 142.218 116.062 143.651C116.062 143.88 116.082 144.152 116.279 144.269C116.384 144.323 116.502 144.348 116.62 144.341L120.138 144.447C122.181 144.507 124.244 144.567 126.255 144.189C126.523 144.15 126.782 144.068 127.024 143.946C127.705 143.566 127.931 142.707 128.04 141.944C128.182 140.953 128.238 139.952 128.209 138.951C128.635 140.299 129.141 141.692 130.429 142.275C131.109 142.584 131.888 142.561 132.634 142.541C134.244 142.47 135.847 142.304 137.438 142.046C137.536 142.059 137.635 142.048 137.728 142.015C137.821 141.981 137.905 141.927 137.973 141.855C138.041 141.784 138.092 141.697 138.12 141.603C138.149 141.508 138.155 141.409 138.138 141.311L138.156 139.749C138.19 136.577 137.403 133.544 137.097 130.386C137 129.39 137.008 128.383 136.765 127.408C136.665 126.999 136.519 126.598 136.431 126.186C136.354 125.783 136.306 125.375 136.287 124.965L136.064 121.818C135.959 120.362 135.807 118.957 135.695 117.504C135.634 116.089 135.429 114.684 135.083 113.31C134.834 112.452 134.316 111.479 133.421 111.373C132.943 111.319 132.48 111.528 132.025 111.674C130.907 112.026 129.707 112.021 128.592 111.659C128.247 111.523 127.888 111.427 127.522 111.373C127.338 111.348 127.15 111.372 126.978 111.444C126.806 111.515 126.656 111.631 126.544 111.779C126.433 112.003 126.38 112.251 126.392 112.5C126.258 115.358 126.009 118.302 125.222 121.08Z" fill="#4770FF"/>
<path d="M120.619 121.166C119.3 119.775 117.947 118.359 116.248 117.475C115.578 117.126 114.817 116.863 114.076 116.995C113.336 117.126 112.646 117.77 112.68 118.522C112.703 118.989 112.987 119.4 113.075 119.858C113.178 120.373 113.029 120.922 113.19 121.42C113.32 121.748 113.514 122.047 113.762 122.298L115.787 124.699C116.645 125.7 117.504 126.716 118.608 127.408C119.712 128.1 121.143 128.423 122.356 127.931C123.219 127.53 123.936 126.872 124.41 126.046C124.913 125.245 125.268 124.37 125.74 123.543C126.475 122.222 127.444 121.046 128.601 120.073C128.006 119.918 127.259 119.701 126.884 119.215C126.778 119.06 126.687 118.895 126.612 118.722L126.149 117.721C125.991 117.713 125.834 117.737 125.686 117.793C125.538 117.849 125.404 117.934 125.291 118.044C125.092 118.274 124.879 118.491 124.653 118.694C124.249 118.997 123.703 119.08 123.337 119.426C123.195 119.575 123.067 119.736 122.954 119.907C122.677 120.271 122.325 120.572 121.922 120.789C121.52 121.006 121.075 121.134 120.619 121.166Z" fill="#3F3D56"/>
<path d="M128.707 115.184C129.699 113.373 129.653 111.202 129.937 109.156C129.967 108.614 130.157 108.094 130.483 107.66C131.055 107.013 132.065 107.005 132.929 107.088C133.184 107.116 133.501 107.236 133.487 107.491C133.467 107.582 133.422 107.666 133.358 107.734C132.521 108.815 132.028 110.123 131.945 111.488C132.394 111.799 133.089 111.159 133.521 111.488C133.807 111.728 133.676 112.203 133.504 112.546C133.105 113.341 132.694 114.131 132.271 114.915C131.933 115.606 131.492 116.241 130.964 116.8C130.6 117.149 130.174 117.424 129.805 117.767C128.947 118.571 128.429 119.707 127.542 120.49C127.467 120.572 127.366 120.623 127.256 120.636C127.143 120.628 127.037 120.581 126.956 120.502C126.513 120.142 126.145 119.697 125.874 119.195C125.537 118.571 125.588 118.388 126.12 117.947C127.116 117.161 128.086 116.317 128.707 115.184Z" fill="#BE6F72"/>
<path d="M118.96 119.936C119.132 120.041 119.343 120.162 119.532 120.073C119.609 120.026 119.675 119.963 119.724 119.887C120.051 119.45 120.324 118.976 120.536 118.474C120.573 118.403 120.593 118.325 120.596 118.245C120.596 118.062 120.433 117.927 120.282 117.821C119.469 117.304 118.596 116.888 117.681 116.586C116.926 116.299 116.136 116.051 115.335 116.122C115.034 116.142 114.741 116.223 114.472 116.36C114.203 116.497 113.964 116.686 113.771 116.917C113.198 117.653 114.157 117.876 114.758 118.142C116.148 118.774 117.653 119.14 118.96 119.936Z" fill="#4770FF"/>
<path opacity="0.1" d="M118.059 124.799C118.049 124.864 118.055 124.931 118.076 124.993C118.097 125.056 118.132 125.113 118.179 125.159C118.262 124.753 118.153 124.324 118.239 123.915C118.365 123.3 118.963 122.836 119.014 122.218C117.919 122.004 118.067 124.135 118.059 124.799Z" fill="black"/>
<path opacity="0.2" d="M168.5 102.427V105.245L156.868 105.952L156.516 103.131L168.5 102.427Z" fill="black"/>
<path d="M116.966 106.985C117.693 106.393 117.272 105.151 117.764 104.356C118.05 103.921 118.534 103.692 119.009 103.497C119.582 103.229 120.196 103.059 120.825 102.994C121.14 102.964 121.458 103.005 121.755 103.114C122.053 103.224 122.321 103.399 122.542 103.626C122.728 103.838 122.853 104.095 123.028 104.316C123.244 104.573 123.526 104.766 123.843 104.876C124.16 104.986 124.501 105.008 124.83 104.939C125.211 104.853 125.605 104.565 125.58 104.175C125.537 103.939 125.416 103.723 125.236 103.563L124.418 102.656C123.489 101.626 122.456 100.534 121.091 100.276C120.141 100.096 119.169 100.351 118.253 100.657C117.884 100.78 117.469 100.963 117.366 101.338C117.298 101.595 117.401 101.875 117.341 102.136C117.223 102.654 116.56 102.828 116.251 103.263C115.942 103.698 116.036 104.213 115.947 104.693C115.859 105.174 115.601 105.643 115.57 106.141C115.55 106.441 115.701 106.999 116.039 107.108C116.377 107.216 116.757 106.627 116.966 106.985Z" fill="#3F3D56"/>
<path d="M125.302 103.763C125.061 102.505 124.541 101.316 123.78 100.285C123.104 99.3211 122.163 98.5739 121.071 98.1334C120.525 97.9202 119.938 97.8333 119.354 97.8794C118.77 97.9255 118.204 98.1033 117.698 98.3995C116.948 98.9353 116.364 99.672 116.013 100.525C115.272 102.121 114.998 104.072 115.859 105.606C116.202 105.188 116.791 105.377 117.312 105.225C117.964 105.039 118.516 104.605 119.137 104.333C121.011 103.506 123.3 104.175 125.302 103.763Z" fill="#FED253"/>
<path opacity="0.1" d="M116.296 103.675C116.231 103.16 116.188 102.562 116.554 102.196C116.572 102.173 116.595 102.155 116.622 102.144C116.648 102.132 116.677 102.126 116.706 102.127C116.731 102.135 116.755 102.149 116.775 102.167C116.795 102.184 116.811 102.206 116.823 102.23C117.034 102.564 117.214 102.916 117.361 103.283C117.147 103.234 116.924 103.25 116.72 103.329C116.516 103.408 116.341 103.546 116.216 103.726" fill="black"/>
<path opacity="0.1" d="M122.982 102.222L122.879 101.2C122.863 101.116 122.87 101.029 122.899 100.948C122.943 100.881 123.009 100.832 123.086 100.811C123.163 100.79 123.246 100.798 123.317 100.834C123.458 100.912 123.574 101.028 123.652 101.169C123.89 101.534 124.088 101.925 124.241 102.333C123.78 102.244 123.306 102.25 122.848 102.35" fill="black"/>
<path opacity="0.1" d="M125.543 143.671V146.006L123.572 146.137H113.204V143.671H125.543Z" fill="black"/>
<path d="M125.542 143.671V146.137H113.204L80.425 105.077V103.137H87.2966L125.542 143.671Z" fill="#F1C0C0"/>
<path opacity="0.1" d="M125.542 143.671V146.137H113.204L80.425 105.077V103.137H87.2966L125.542 143.671Z" fill="black"/>
<path opacity="0.1" d="M125.542 143.671V146.137H113.204L80.425 105.077V103.137L113.381 143.671H125.542Z" fill="black"/>
<path d="M84.722 184.827C84.7436 184.943 84.741 185.062 84.7143 185.177C84.6877 185.292 84.6377 185.4 84.5674 185.495C84.497 185.59 84.4079 185.669 84.3055 185.728C84.2032 185.787 84.0898 185.824 83.9725 185.837C83.1772 186.105 82.3332 186.371 81.7697 186.981C81.2061 187.59 81.0945 188.72 81.7697 189.215C82.1148 189.423 82.511 189.531 82.914 189.527C84.2099 189.616 85.5602 189.598 86.736 189.049C87.5771 188.66 88.3695 187.996 89.2935 188.056C89.7713 188.085 90.2805 188.308 90.7068 188.091C91.133 187.873 91.2532 187.267 91.256 186.761C91.2669 185.703 91.1075 184.652 90.784 183.645C90.7411 183.508 88.9216 183.402 88.7042 183.359L86.4985 183.073C86.0809 183.019 85.1797 182.704 84.8507 183.053C84.5217 183.402 84.722 184.412 84.722 184.827Z" fill="#4770FF"/>
<path d="M97.8846 177.686C97.978 178.201 98.1296 178.704 98.3366 179.185C98.6427 179.963 99.0346 180.79 99.7842 181.168C100.465 181.508 101.3 181.385 101.993 181.062C102.282 180.942 102.535 180.75 102.728 180.504C102.951 180.115 103.051 179.667 103.014 179.22C103.014 178.112 102.948 176.968 102.442 175.984C102.007 175.126 101.249 174.388 101.237 173.438L98.6313 173.941C98.4917 173.955 98.3589 174.007 98.2479 174.093C98.1653 174.18 98.108 174.288 98.082 174.405C97.8037 175.475 97.7367 176.59 97.8846 177.686Z" fill="#4770FF"/>
<path d="M66.762 150.509C66.6533 151.43 66.699 152.417 67.1796 153.212C67.6603 154.007 68.673 154.534 69.5484 154.216C69.5932 154.205 69.6353 154.184 69.6722 154.156C69.709 154.128 69.7399 154.093 69.7629 154.053C69.7862 153.957 69.773 153.855 69.7257 153.767C69.3393 152.736 69.3711 151.594 69.8144 150.586C69.8716 150.454 69.9947 150.3 70.1291 150.351C70.1853 150.38 70.2306 150.426 70.2578 150.483C70.3963 150.723 70.4657 150.996 70.4581 151.273C70.4177 151.523 70.41 151.778 70.4352 152.031C70.4896 152.277 70.7528 152.508 70.9816 152.403C71.0478 152.362 71.105 152.308 71.1497 152.245C71.1945 152.181 71.2259 152.109 71.242 152.033C71.8799 150.188 71.591 148.171 71.2992 146.24C71.3016 146.196 71.2943 146.152 71.2777 146.111C71.2611 146.069 71.2357 146.032 71.2032 146.002C71.1708 145.972 71.132 145.949 71.0898 145.935C71.0475 145.922 71.0028 145.917 70.9587 145.923C69.6084 145.788 68.8704 145.465 68.0979 146.721C67.4342 147.78 66.762 149.236 66.762 150.509Z" fill="#4770FF"/>
<path d="M82.5479 145.814C82.1474 147.479 81.744 149.164 81.7183 150.875C81.7253 151.94 81.8056 153.004 81.9586 154.059L82.259 156.536C82.3619 157.372 82.4621 158.204 82.608 159.031C82.701 159.457 82.7518 159.891 82.7596 160.327C82.7315 160.757 82.6635 161.183 82.5565 161.6C82.3766 162.476 82.276 163.366 82.2561 164.26C82.2246 165.691 82.402 167.121 82.5136 168.552C82.7363 171.402 82.7028 174.267 82.4134 177.111C82.2979 177.879 82.4646 178.663 82.8826 179.317C83.0522 179.523 83.1919 179.752 83.2974 179.998C83.512 180.653 83.0113 181.308 82.8826 181.98C82.8003 182.504 82.9294 183.04 83.2415 183.469C83.5537 183.898 84.0235 184.186 84.5476 184.269C86.8362 184.541 89.1878 184.418 91.2504 185.465C91.4678 184.83 90.9929 184.109 91.2103 183.462C91.3477 183.062 91.7253 182.801 91.9828 182.464C92.3287 181.949 92.5011 181.338 92.4748 180.719C92.4849 179.91 92.3412 179.107 92.0514 178.353C91.8082 177.723 91.4592 177.103 91.4793 176.427C91.4793 176.096 91.5965 175.747 91.4621 175.44C91.3699 175.265 91.2446 175.108 91.0931 174.98C90.2381 174.043 89.7126 172.853 89.5969 171.59C89.4853 170.337 89.5256 169.074 89.717 167.831C89.8572 166.646 90.046 165.396 90.7984 164.472C90.4495 161.67 90.6546 158.827 91.402 156.104C91.4764 155.853 91.5937 155.561 91.8512 155.501C91.9534 155.49 92.0567 155.505 92.1523 155.542C92.2479 155.58 92.333 155.641 92.4004 155.718C92.8496 156.139 93.0641 156.748 93.2587 157.332C93.4732 157.964 93.6906 158.639 93.5276 159.286C93.4589 159.572 93.3216 159.823 93.2415 160.098C93.0675 160.65 93.0979 161.246 93.3273 161.777C93.4391 161.971 93.5093 162.187 93.5333 162.41C93.5068 162.601 93.4488 162.786 93.3617 162.959C93.2555 163.297 93.2218 163.654 93.2628 164.007C93.3037 164.359 93.4183 164.699 93.5991 165.004C93.9637 165.612 94.4136 166.164 94.9351 166.644C94.686 167.742 94.7504 168.887 95.121 169.951C95.1478 169.998 95.1648 170.051 95.1712 170.106C95.1776 170.16 95.1732 170.215 95.1582 170.268C95.1067 170.377 94.9751 170.417 94.8721 170.494C94.5861 170.729 94.7634 171.172 94.9551 171.478C95.4804 172.318 96.0605 173.123 96.6916 173.887C97.2638 174.571 97.2123 175.89 98.0648 176.136C98.423 176.213 98.7936 176.213 99.1519 176.136C99.993 176.007 100.931 175.764 101.343 175.02C101.512 174.714 101.581 174.342 101.844 174.113C102.107 173.884 102.448 173.844 102.593 173.569C102.739 173.295 102.576 172.934 102.625 172.617C102.674 172.299 102.951 172.045 103.04 171.71C103.251 170.938 102.35 170.302 102.227 169.513C102.05 168.369 103.492 167.51 103.432 166.366C103.306 163.88 103.226 161.383 103.097 158.897C102.935 156.67 102.912 154.435 103.028 152.205C103.128 150.818 103.314 149.364 102.805 148.074C102.073 146.255 100.053 145.233 98.0991 145.039C96.1452 144.844 94.197 145.308 92.2603 145.611C89.0459 146.106 85.7801 146.175 82.5479 145.814Z" fill="#3F3D56"/>
<path d="M88.3552 118.471C90.8863 118.471 92.9382 116.419 92.9382 113.888C92.9382 111.357 90.8863 109.305 88.3552 109.305C85.8241 109.305 83.7722 111.357 83.7722 113.888C83.7722 116.419 85.8241 118.471 88.3552 118.471Z" fill="#FBBEBE"/>
<path d="M86.49 119.326C86.3343 119.689 86.0726 119.996 85.7391 120.206C85.4057 120.417 85.0162 120.522 84.6219 120.508C84.456 121.194 84.8537 121.887 85.3085 122.427C86.2531 123.526 87.4737 124.354 88.8445 124.824C90.2153 125.294 91.6867 125.39 93.107 125.102C93.6597 125.003 94.1841 124.784 94.6433 124.461C95.2623 123.944 95.6779 123.225 95.8162 122.43C95.9479 121.641 95.9853 120.839 95.9278 120.041C95.9438 119.884 95.8987 119.726 95.8019 119.601C95.6875 119.512 95.546 119.466 95.4014 119.469C94.4344 119.383 93.4246 119.346 92.5749 118.871C91.7253 118.396 91.1216 117.324 91.5307 116.443C91.4649 116.58 89.7942 116.646 89.574 116.674C88.8845 116.771 88.1951 116.88 87.5085 117.006C87.1786 117.024 86.8525 117.086 86.5387 117.189C86.1238 117.404 86.2783 117.298 86.3756 117.687C86.5215 118.282 86.7361 118.708 86.49 119.326Z" fill="#FBBEBE"/>
<path d="M89.9773 122.113C89.3601 122.12 88.7443 122.051 88.1436 121.909C87.537 121.768 87.0024 121.411 86.6388 120.905C86.4271 120.585 86.2898 120.182 85.9522 120.001C85.4001 119.715 84.7707 120.199 84.3301 120.642C83.929 121.079 83.4641 121.454 82.9512 121.752C82.339 122.075 81.6238 122.19 81.046 122.57C80.5945 122.911 80.2071 123.33 79.9017 123.806L75.8479 129.327C74.2201 131.547 72.8041 133.93 71.3536 136.273C70.0978 138.302 69.4398 140.636 68.4928 142.825C68.4178 142.959 68.3868 143.113 68.4042 143.265C68.4385 143.414 68.6187 143.534 68.7446 143.448C68.3183 143.872 68.6931 144.593 68.593 145.188C68.4792 145.604 68.2418 145.976 67.9121 146.255C68.5418 146.173 69.181 146.203 69.8002 146.343C70.4402 146.525 71.0441 146.815 71.5854 147.202C71.9315 147.147 71.9 146.532 72.1575 146.303C72.312 146.169 72.5409 146.186 72.744 146.146C73.5078 145.997 73.811 145.079 74.3975 144.561C74.8867 144.129 75.579 143.989 76.0968 143.583C76.9379 142.922 77.1181 141.746 77.5587 140.771C77.9334 139.944 78.5228 139.223 78.8517 138.376C79.0663 137.827 79.1693 137.232 79.4754 136.725C79.9646 135.907 80.8858 135.472 81.764 135.08C82.319 134.832 82.9083 134.574 83.5062 134.614C83.4748 135.944 83.306 137.255 83.5949 138.553C83.6951 139.011 83.8352 139.457 83.9554 139.912C84.5018 141.961 84.6305 144.095 84.6563 146.206C85.9707 145.905 87.3132 145.744 88.6614 145.725C89.7227 145.694 90.7812 145.831 91.8426 145.811C93.1013 145.788 94.3458 145.545 95.6045 145.459C96.8632 145.374 98.1792 145.459 99.292 146.032C99.2017 144.219 99.2524 142.401 99.4437 140.596L99.7469 137.752C99.8153 136.926 99.9425 136.106 100.127 135.298C100.293 134.646 100.534 134.016 100.717 133.367C101.36 131.078 101.243 128.635 101.12 126.252C101.057 125.028 100.585 123.823 100.03 122.733C99.8293 122.328 99.5998 121.938 99.3435 121.566C98.6729 120.642 97.7791 119.903 96.7456 119.418C95.7121 118.932 94.5725 118.717 93.4332 118.791C93.2876 118.796 93.1441 118.827 93.0098 118.883C92.7683 119.037 92.5797 119.262 92.4691 119.526C91.8772 120.59 91.0184 121.481 89.9773 122.113Z" fill="#3F3D56"/>
<path d="M84.3245 115.407C84.4532 115.121 84.7994 115.015 85.0111 114.786C85.4173 114.351 85.2342 113.656 85.2972 113.07C85.4001 112.211 86.1125 111.493 86.9278 111.187C87.7593 110.92 88.644 110.864 89.5025 111.024C89.9157 111.054 90.315 111.187 90.664 111.41C90.8127 111.519 90.9501 111.659 91.0902 111.759C91.3458 111.914 91.6515 111.962 91.9423 111.894C92.2331 111.826 92.4858 111.648 92.6465 111.396C91.6338 110.177 90.5124 108.89 88.9733 108.515C88.4453 108.407 87.9072 108.357 87.3684 108.364C86.656 108.349 85.9208 108.338 85.2628 108.61C84.3674 108.979 83.738 109.828 83.4148 110.744C83.1321 111.672 82.9809 112.635 82.9656 113.605C82.907 114.252 82.907 114.903 82.9656 115.55C83.0762 116.434 83.4045 117.276 83.9211 118.002C83.991 118.114 84.0898 118.206 84.2072 118.268C85.5117 118.84 84.2186 115.644 84.3245 115.407Z" fill="#3F3D56"/>
<path d="M92.4976 110.689C92.3403 109.342 91.3791 108.229 90.3578 107.334C89.5346 106.557 88.5541 105.967 87.4827 105.603C86.4042 105.285 85.1626 105.354 84.2386 105.998C83.4947 106.516 83.0227 107.339 82.6594 108.169C82.1821 109.148 81.9457 110.227 81.97 111.316C82.0415 112.397 82.5679 113.493 83.5062 114.039C83.8438 113.542 84.4302 113.284 84.9938 113.081C87.4501 112.149 89.9551 111.351 92.4976 110.689Z" fill="#FED253"/>
<path opacity="0.1" d="M83.8209 110.129C83.9124 110.129 83.9725 110.223 84.0183 110.3C84.2512 110.663 84.4513 111.046 84.6162 111.445C84.2815 111.516 83.7065 111.596 83.5405 111.302C83.4519 111.153 83.5577 110.114 83.8209 110.129Z" fill="black"/>
<path opacity="0.1" d="M90.3405 109.482C90.2718 109.548 90.1917 109.414 90.1917 109.316V108.206C90.1898 108.175 90.1968 108.145 90.2117 108.118C90.2236 108.104 90.2381 108.093 90.2543 108.085C90.2705 108.077 90.2881 108.073 90.3061 108.072C90.5379 108.046 90.7295 108.243 90.8783 108.432C91.104 108.738 91.3004 109.065 91.4648 109.408L90.2546 109.371" fill="black"/>
<path d="M105.443 127.863C105.706 127.613 105.987 127.382 106.284 127.173C107.076 126.644 108.034 126.435 108.924 126.098C109.814 125.76 110.718 125.214 111.064 124.327C111.237 123.772 111.294 123.188 111.23 122.61C111.238 122.368 111.195 122.128 111.104 121.904C110.995 121.706 110.84 121.537 110.652 121.412C109.445 120.519 107.826 120.448 106.327 120.539C103.022 120.744 99.7822 121.553 96.7687 122.925C96.6093 122.978 96.4697 123.077 96.3682 123.211C96.3095 123.335 96.2829 123.472 96.2909 123.609C96.2376 124.452 96.3474 125.298 96.6142 126.1C97.009 127.119 97.8214 127.94 98.1619 128.978C98.3164 129.445 98.3679 129.94 98.5023 130.409C98.6126 130.893 98.8991 131.32 99.3062 131.605C100.436 132.28 101.503 131.373 102.287 130.669L105.443 127.863Z" fill="#3F3D56"/>
<path d="M90.6439 131.825L89.1934 128.661C88.9808 128.222 88.7973 127.77 88.6442 127.308C88.4782 126.756 88.3981 126.183 88.2437 125.628C87.7344 123.78 86.45 122.241 85.8234 120.43C85.7838 120.267 85.7031 120.116 85.5889 119.993C85.4974 119.928 85.3929 119.884 85.2826 119.864C85.1724 119.845 85.0591 119.849 84.9509 119.878C84.0755 120.03 83.3918 120.696 82.5908 121.074C82.2189 121.246 81.8183 121.36 81.4464 121.558C81.2605 121.646 81.0958 121.773 80.9635 121.93C80.8312 122.088 80.7344 122.272 80.6797 122.47C80.5911 122.908 80.8085 123.328 80.9916 123.755C81.7697 125.511 81.9471 127.474 81.9814 129.396C82.0072 130.689 81.9414 132.077 81.1775 133.115C79.7099 135.118 80.6483 138.059 81.1975 140.482C81.2633 140.768 81.3406 141.077 81.3864 141.38C81.4348 141.759 81.4568 142.142 81.4522 142.524C81.4522 143.809 81.3806 145.133 80.8428 146.298C81.3738 146.58 81.959 146.746 82.5593 146.784C84.2204 146.996 85.8883 147.144 87.5628 147.23C88.0874 147.28 88.6165 147.253 89.1334 147.15C89.7472 146.984 90.2883 146.619 90.6712 146.111C91.054 145.603 91.2568 144.982 91.2475 144.347C91.339 145.139 91.5078 146 92.0828 146.549C92.6579 147.099 93.4961 147.182 94.2771 147.225C96.4813 147.341 98.6913 147.279 100.885 147.039C101.026 147.032 101.163 147 101.292 146.944C101.715 146.732 101.738 146.149 101.704 145.68C101.641 144.801 101.575 143.923 101.469 143.051C101.379 142.494 101.333 141.932 101.332 141.368C101.375 140.789 101.471 140.214 101.618 139.652C102.001 137.867 102.304 136.045 102.176 134.217C102.125 133.771 102.107 133.323 102.121 132.875C102.196 131.865 102.728 130.904 102.628 129.9C102.342 126.947 102.11 123.918 101.286 121.068C101.137 120.559 100.948 120.013 100.505 119.721C99.9328 119.338 99.1289 119.538 98.4738 119.295C98.1664 119.152 97.8741 118.978 97.6013 118.777C97.0085 118.406 96.3289 118.197 95.6302 118.17C95.1038 118.15 94.5174 118.268 94.1998 118.691C94.0528 118.929 93.9555 119.195 93.9137 119.472C93.4989 121.217 93.0126 122.942 92.5263 124.667L92.0599 126.321L90.8098 130.761C90.6868 131.233 90.7697 131.379 90.6439 131.825Z" fill="#4770FF"/>
<path d="M97.9588 114.503L125.631 143.583V146.049H113.293L92.4976 118.908" fill="#F1C0C0"/>
<path opacity="0.1" d="M97.9588 114.503L125.631 143.583V146.049H113.293L92.4976 118.908" fill="black"/>
<path opacity="0.1" d="M92.9381 118.525L93.0268 118.557L113.47 143.583H125.631V146.049H113.293L92.4976 118.908L92.9381 118.525Z" fill="black"/>
<path d="M96.1223 119.137C95.121 119.575 94.0081 120.136 93.7078 121.189C93.6485 121.373 93.6357 121.57 93.6706 121.761C93.7438 121.985 93.8833 122.182 94.0707 122.326C94.2582 122.469 94.4847 122.552 94.7205 122.565C95.1916 122.576 95.66 122.49 96.0965 122.313L102.004 120.362C102.164 120.31 102.347 120.233 102.387 120.076C102.398 119.977 102.378 119.877 102.33 119.79C102.147 119.343 101.967 118.431 101.584 118.119C101.269 117.867 100.645 117.956 100.265 117.962C98.8 117.973 97.4239 118.565 96.1223 119.137Z" fill="#4770FF"/>
<path d="M101.389 120.593C102.384 120.591 103.374 120.744 104.321 121.048C105.273 121.357 106.116 121.933 106.75 122.708C106.935 122.924 107.066 123.181 107.133 123.457C107.19 123.743 108.123 123.915 107.917 124.109C108.544 124.009 108.395 124.304 109.03 124.298C109.665 124.292 110.352 124.129 110.732 123.623C110.996 123.207 111.114 122.715 111.067 122.224C111.075 121.884 111.011 121.547 110.878 121.234C110.592 120.634 109.934 120.31 109.327 120.033L104.218 117.696C103.922 117.538 103.604 117.425 103.274 117.361C102.997 117.335 102.717 117.341 102.442 117.381L100.127 117.647C100.633 117.974 101.045 118.428 101.323 118.963C101.6 119.499 101.733 120.097 101.709 120.699" fill="#3F3D56"/>
</g>
<defs>
<clipPath id="clip0">
<rect width="336.949" height="207.255" fill="white" transform="translate(0.0256348)"/>
</clipPath>
</defs>
</svg>
