<svg width="57" height="58" viewBox="0 0 57 58" fill="none" xmlns="http://www.w3.org/2000/svg">
<g clip-path="url(#clip0)">
<path d="M49.9295 20.0179V12.6226C49.9295 11.6008 49.104 10.7753 48.0822 10.7753H9.05649C8.03466 10.7753 7.20912 11.6008 7.20912 12.6226V20.0179C6.24502 20.0756 5.47721 20.8781 5.47721 21.8595V29.4626C5.47351 30.8599 5.75645 32.2431 6.30853 33.5268C6.55677 34.1156 6.86274 34.6698 7.20912 35.1952V55.1121C7.20912 56.1282 8.03466 56.9595 9.05649 56.9595H48.0822C49.104 56.9595 49.9295 56.134 49.9295 55.1121V35.1952C50.2814 34.6685 50.5829 34.1099 50.8301 33.5268C51.3786 32.2394 51.6614 30.8712 51.6614 29.4626V21.8595C51.6614 20.8781 50.8936 20.0756 49.9295 20.0179ZM11.3657 14.9318H45.773V20.0121H11.3657V14.9318ZM32.2641 52.8087H24.8746V46.799H32.2641V52.8087ZM45.7961 52.8087H35.9588V44.9516C35.9588 43.9298 35.1333 43.1042 34.1114 43.1042H23.0272C22.0054 43.1042 21.1799 43.9298 21.1799 44.9516V52.8087H11.3657V38.8264C11.5331 38.9072 11.7063 38.9881 11.8853 39.0573C13.1727 39.6 14.5409 39.8713 15.9495 39.8713C17.3581 39.8713 18.7205 39.6 20.0137 39.0573C20.8104 38.7225 21.5609 38.2953 22.2479 37.7815C22.2594 37.7757 22.271 37.7757 22.2825 37.7815C22.9716 38.2975 23.7221 38.726 24.5167 39.0573C25.804 39.6 27.1723 39.8713 28.5809 39.8713C29.9895 39.8713 31.3519 39.6 32.6451 39.0573C33.4418 38.7225 34.1923 38.2953 34.8792 37.7815C34.8908 37.7757 34.9023 37.7757 34.9139 37.7815C35.603 38.2975 36.3535 38.726 37.1481 39.0573C38.4354 39.6 39.8036 39.8713 41.2123 39.8713C42.6209 39.8713 43.9833 39.6 45.2765 39.0573C45.4497 38.9823 45.6229 38.9072 45.7961 38.8264V52.8087ZM47.5049 29.4626C47.5049 32.9148 44.6761 35.7148 41.1949 35.7148C38.8396 35.7148 36.7844 34.4389 35.699 32.5454C35.5316 32.2567 35.2314 32.0777 34.8966 32.0777H34.8619C34.5329 32.0777 34.2269 32.2567 34.0595 32.5454C33.5056 33.5113 32.7059 34.3134 31.7416 34.87C30.7773 35.4267 29.6828 35.7182 28.5693 35.7148C26.2197 35.7148 24.1703 34.4447 23.0849 32.5569C22.9118 32.2625 22.6 32.0777 22.2594 32.0777C21.9188 32.0777 21.6013 32.2625 21.4339 32.5569C20.8768 33.5191 20.076 34.3176 19.1122 34.872C18.1484 35.4264 17.0556 35.717 15.9437 35.7148C12.4626 35.7148 9.63379 32.9148 9.63379 29.4626V24.1976C9.63379 24.1802 9.64534 24.1687 9.66266 24.1687H47.476C47.4933 24.1687 47.5049 24.1802 47.5049 24.1976V29.4626Z" fill="#FAFAFE"/>
</g>
<defs>
<clipPath id="clip0">
<rect width="55.2809" height="56.7913" fill="white" transform="translate(0.928711 0.20813)"/>
</clipPath>
</defs>
</svg>
