<svg width="153" height="154" viewBox="0 0 153 154" fill="none" xmlns="http://www.w3.org/2000/svg">
<path d="M147.211 30.7522V6.2712C147.211 2.88858 144.478 0.155731 141.095 0.155731H11.9061C8.52347 0.155731 5.79062 2.88858 5.79062 6.2712V30.7522C2.59911 30.9433 0.0573694 33.5997 0.0573694 36.8485V62.0175C0.0451307 66.6432 0.98175 71.2222 2.80933 75.4716C3.6311 77.4209 4.64397 79.2555 5.79062 80.9946V146.927C5.79062 150.29 8.52347 153.042 11.9061 153.042H141.095C144.478 153.042 147.211 150.31 147.211 146.927V80.9946C148.376 79.2511 149.374 77.4019 150.192 75.4716C152.008 71.2098 152.944 66.6806 152.944 62.0175V36.8485C152.944 33.5997 150.402 30.9433 147.211 30.7522ZM19.5504 13.9155H133.451V30.7331H19.5504V13.9155ZM88.7317 139.302H64.2698V119.407H88.7317V139.302ZM133.527 139.302H100.963V113.292C100.963 109.909 98.2298 107.176 94.8471 107.176H58.1543C54.7717 107.176 52.0389 109.909 52.0389 113.292V139.302H19.5504V93.0153C20.1046 93.2829 20.678 93.5504 21.2704 93.7797C25.5321 95.5762 30.0614 96.4744 34.7244 96.4744C39.3875 96.4744 43.8976 95.5762 48.1785 93.7797C50.8158 92.6713 53.3002 91.2571 55.5744 89.5562C55.6126 89.5371 55.6508 89.5371 55.689 89.5562C57.9703 91.2643 60.4545 92.683 63.0849 93.7797C67.3466 95.5762 71.8759 96.4744 76.539 96.4744C81.202 96.4744 85.7122 95.5762 89.993 93.7797C92.6303 92.6713 95.1147 91.2571 97.3889 89.5562C97.4271 89.5371 97.4653 89.5371 97.5036 89.5562C99.7848 91.2643 102.269 92.683 104.899 93.7797C109.161 95.5762 113.69 96.4744 118.353 96.4744C123.017 96.4744 127.527 95.5762 131.808 93.7797C132.381 93.5313 132.954 93.2829 133.527 93.0153V139.302ZM139.184 62.0175C139.184 73.4458 129.82 82.7146 118.296 82.7146C110.499 82.7146 103.695 78.4911 100.103 72.2227C99.5484 71.2672 98.5546 70.6747 97.4462 70.6747H97.3316C96.2422 70.6747 95.2294 71.2672 94.6751 72.2227C92.8416 75.4203 90.1943 78.0754 87.0021 79.9182C83.8099 81.761 80.1867 82.7258 76.5007 82.7146C68.7226 82.7146 61.9383 78.5102 58.3454 72.2609C57.7721 71.2863 56.7401 70.6747 55.6126 70.6747C54.485 70.6747 53.4339 71.2863 52.8797 72.2609C51.0355 75.4463 48.3848 78.0895 45.1942 79.9247C42.0037 81.7598 38.386 82.7221 34.7053 82.7146C23.1815 82.7146 13.8172 73.4458 13.8172 62.0175V44.5884C13.8172 44.5311 13.8554 44.4929 13.9127 44.4929H139.089C139.146 44.4929 139.184 44.5311 139.184 44.5884V62.0175Z" fill="#4770FF"/>
</svg>
