<svg width="361" height="361" viewBox="0 0 361 361" fill="none" xmlns="http://www.w3.org/2000/svg">
<path d="M38.6495 161.44V195.801C38.6495 198.787 39.8357 201.651 41.9471 203.762C44.0586 205.874 46.9223 207.06 49.9084 207.06H173.107C176.092 207.058 178.954 205.871 181.064 203.76C183.174 201.648 184.359 198.786 184.359 195.801V166.77L199.7 150.657L49.9516 150.188C48.4701 150.183 47.002 150.469 45.6314 151.032C44.2609 151.595 43.0149 152.423 41.965 153.468C40.915 154.513 40.0816 155.756 39.5127 157.124C38.9438 158.492 38.6504 159.958 38.6495 161.44Z" fill="#F5F5F5"/>
<path d="M166.197 171.004L54.4091 170.485L54.4163 167.051L166.212 167.564L166.197 171.004Z" fill="#E0E0E0"/>
<path d="M166.197 182.306L54.4091 181.794L54.4163 178.354L166.212 178.873L166.197 182.306Z" fill="#E0E0E0"/>
<path d="M121.972 189.67L121.956 193.103L166.19 193.32L166.207 189.886L121.972 189.67Z" fill="#E0E0E0"/>
<path d="M152.804 280.16V314.521C152.804 317.507 153.99 320.37 156.101 322.482C158.213 324.593 161.076 325.78 164.062 325.78H287.247C290.232 325.778 293.093 324.591 295.203 322.479C297.313 320.368 298.498 317.505 298.498 314.521V285.49L313.84 269.377L164.084 268.908C162.604 268.905 161.139 269.194 159.771 269.758C158.403 270.322 157.159 271.15 156.111 272.195C155.064 273.24 154.232 274.482 153.665 275.848C153.097 277.215 152.805 278.68 152.804 280.16Z" fill="#F5F5F5"/>
<path d="M280.892 288.829L169.097 288.317L169.104 284.877L280.9 285.396L280.892 288.829Z" fill="#E0E0E0"/>
<path d="M280.892 300.131L169.097 299.619L169.104 296.179L280.9 296.698L280.892 300.131Z" fill="#E0E0E0"/>
<path d="M236.657 307.489L236.64 310.922L280.874 311.138L280.891 307.705L236.657 307.489Z" fill="#E0E0E0"/>
<path d="M104.501 32.0168H177.161C178.882 32.0168 180.533 32.7007 181.751 33.9181C182.968 35.1355 183.652 36.7866 183.652 38.5082V74.0448C183.652 75.7664 182.968 77.4175 181.751 78.6348C180.533 79.8522 178.882 80.5361 177.161 80.5361H115.507C113.786 80.5361 112.134 79.8522 110.917 78.6348C109.7 77.4175 109.016 75.7664 109.016 74.0448V36.5103L104.501 32.0168Z" fill="#F5F5F5"/>
<path d="M146.601 66.5653V89.3571C146.601 91.337 145.814 93.2358 144.414 94.6357C143.014 96.0357 141.116 96.8222 139.136 96.8222H57.4456C56.4631 96.825 55.4897 96.6341 54.5811 96.2603C53.6725 95.8865 52.8465 95.3372 52.1504 94.6438C51.4544 93.9505 50.9019 93.1266 50.5246 92.2194C50.1473 91.3123 49.9526 90.3396 49.9516 89.3571V70.0994L39.8107 59.4103L139.136 59.1002C141.116 59.1002 143.014 59.8867 144.414 61.2867C145.814 62.6866 146.601 64.5854 146.601 66.5653Z" fill="#E0E0E0"/>
<path d="M62.0256 72.9052L136.171 72.5662L136.164 70.287L62.0184 70.6332L62.0256 72.9052Z" fill="#F5F5F5"/>
<path d="M62.0256 80.4063L136.171 80.0601L136.164 77.7881L62.0184 78.1271L62.0256 80.4063Z" fill="#F5F5F5"/>
<path d="M90.941 85.7364H61.6V88.0156H90.941V85.7364Z" fill="#F5F5F5"/>
<path d="M301.412 172.237V195.029C301.412 197.009 300.626 198.908 299.226 200.308C297.826 201.708 295.927 202.494 293.947 202.494H212.236C210.255 202.494 208.356 201.708 206.954 200.308C205.553 198.908 204.765 197.01 204.763 195.029V175.772L194.594 165.082L293.918 164.772C294.901 164.769 295.874 164.96 296.783 165.334C297.692 165.708 298.518 166.257 299.214 166.951C299.91 167.644 300.462 168.468 300.839 169.375C301.217 170.282 301.411 171.255 301.412 172.237Z" fill="#E0E0E0"/>
<path d="M216.816 178.584L290.969 178.238L290.954 175.959L216.808 176.305L216.816 178.584Z" fill="#F5F5F5"/>
<path d="M216.816 186.078L290.969 185.739L290.954 183.46L216.808 183.799L216.816 186.078Z" fill="#F5F5F5"/>
<path d="M245.212 192.173H215.871V194.452H245.212V192.173Z" fill="#F5F5F5"/>
<path d="M231.421 285.367C219.21 273.474 219.008 255.074 222.182 239.098C222.715 236.43 222.903 233.552 224.547 231.402C226.192 229.253 229.445 228.135 231.666 229.664C233.506 230.926 233.996 233.386 234.797 235.485C235.863 238.287 237.704 240.728 240.105 242.524C241.67 243.693 243.711 244.58 245.529 243.931C248.053 243.029 248.854 239.877 249.272 237.209C250.051 232.227 250.835 227.248 251.624 222.271C252.042 219.595 252.482 216.869 253.722 214.474C254.963 212.08 257.192 210.024 259.846 209.729C262.5 209.433 265.4 211.409 265.508 214.114C265.426 215.234 265.269 216.347 265.039 217.446C264.931 218.564 265.248 219.877 266.251 220.331C267.253 220.785 268.458 220.237 269.381 219.61C272.576 217.367 275.014 214.208 277.315 211.041C279.616 207.875 281.902 204.615 284.888 202.083C287.874 199.552 291.704 197.792 295.563 198.203C299.422 198.614 303.115 201.636 303.461 205.56C303.807 209.483 300.994 212.938 298.109 215.592C293.825 219.53 288.996 222.829 283.77 225.387C282.833 225.849 281.816 226.339 281.332 227.277C280.46 228.965 281.859 231.006 283.496 231.878C285.379 232.867 287.564 233.011 289.605 233.602C291.646 234.194 293.753 235.47 294.221 237.569C294.863 240.454 292.115 242.957 289.562 244.465C284.451 247.48 278.859 249.593 273.031 250.711C270.953 251.107 268.782 251.396 266.972 252.521C265.162 253.646 263.82 255.882 264.469 257.916C265.118 259.95 267.47 260.96 269.59 260.916C271.711 260.873 273.73 260.051 275.815 259.633C279.71 258.854 284.405 259.878 286.23 263.434C287.434 265.771 287.095 268.692 285.905 271.05C284.614 273.352 282.872 275.371 280.784 276.986C273.774 282.915 265.342 287.235 256.348 288.793C247.354 290.351 239.348 289.861 231.399 285.382" fill="#4770FF"/>
<path d="M229.257 297.254C231.215 289.922 233.872 282.794 237.191 275.969C241.294 267.651 245.869 259.574 250.895 251.778L254.819 245.626C256.11 243.606 257.387 241.601 258.764 239.726C261.414 236.116 264.263 232.655 267.297 229.361C270.182 226.195 272.995 223.303 275.671 220.612C278.346 217.922 280.885 215.477 283.301 213.342C287.089 209.948 291.141 206.861 295.419 204.11C296.933 203.136 298.131 202.415 298.946 201.946L299.883 201.405C299.993 201.336 300.109 201.278 300.229 201.232C300.135 201.313 300.034 201.385 299.927 201.448L299.018 202.025C298.217 202.523 297.042 203.266 295.548 204.269C291.32 207.071 287.31 210.191 283.554 213.602C281.159 215.765 278.642 218.211 275.981 220.901C273.319 223.591 270.506 226.505 267.657 229.664C264.654 232.951 261.832 236.399 259.204 239.993C257.841 241.861 256.571 243.851 255.28 245.871C253.989 247.89 252.691 249.946 251.364 252.023C246.354 259.806 241.779 267.86 237.66 276.15C234.325 282.939 231.635 290.026 229.625 297.319" fill="#5C546A"/>
<path d="M258.93 239.726C258.866 239.335 258.842 238.939 258.858 238.543C258.858 237.786 258.858 236.682 258.858 235.326C258.916 232.607 259.125 228.835 259.363 224.716C259.601 220.598 259.767 216.84 259.781 214.121C259.781 212.765 259.781 211.669 259.781 210.911C259.75 210.517 259.764 210.12 259.824 209.729C259.914 210.114 259.965 210.508 259.976 210.904C260.048 211.625 260.098 212.758 260.135 214.121C260.207 216.84 260.135 220.612 259.86 224.745C259.586 228.878 259.384 232.52 259.204 235.341C259.139 236.61 259.081 237.685 259.031 238.55C259.043 238.945 259.01 239.339 258.93 239.726Z" fill="#5C546A"/>
<path d="M294.293 238.932C293.829 238.959 293.362 238.94 292.901 238.875C292.007 238.81 290.738 238.702 289.115 238.629C285.912 238.456 281.491 238.37 276.601 238.485C271.711 238.601 267.297 238.911 264.101 239.206C262.507 239.351 261.216 239.502 260.329 239.603C259.867 239.683 259.399 239.719 258.93 239.711C259.377 239.57 259.835 239.468 260.3 239.408C261.188 239.25 262.464 239.048 264.065 238.853C267.261 238.449 271.689 238.096 276.594 237.966C280.777 237.851 284.963 237.95 289.136 238.262C290.738 238.384 292.022 238.536 292.923 238.666C293.388 238.709 293.847 238.799 294.293 238.932Z" fill="#5C546A"/>
<path d="M237.747 275.407C237.747 275.407 237.674 275.255 237.581 274.952C237.487 274.649 237.35 274.152 237.191 273.611C236.867 272.449 236.434 270.726 235.929 268.656C234.919 264.451 233.707 258.608 232.452 252.132C231.197 245.655 230.036 239.812 229.113 235.593C228.659 233.545 228.284 231.857 228.01 230.602C227.887 230.061 227.793 229.607 227.714 229.239C227.668 229.082 227.644 228.919 227.642 228.755C227.722 228.9 227.781 229.055 227.815 229.217C227.916 229.578 228.038 230.018 228.197 230.551C228.522 231.713 228.954 233.436 229.459 235.514C230.469 239.711 231.688 245.561 232.936 252.038C234.184 258.515 235.352 264.357 236.275 268.576C236.73 270.625 237.105 272.312 237.379 273.567C237.501 274.108 237.595 274.556 237.674 274.923C237.719 275.081 237.743 275.243 237.747 275.407Z" fill="#5C546A"/>
<path d="M285.747 268.18C285.591 268.237 285.428 268.273 285.263 268.288L283.864 268.519L278.721 269.297C274.394 269.961 268.4 270.949 261.786 272.038C255.172 273.127 249.171 274.065 244.815 274.635C242.651 274.923 240.87 275.14 239.651 275.262L238.208 275.399C238.046 275.425 237.88 275.425 237.718 275.399C237.874 275.346 238.036 275.31 238.201 275.291L239.593 275.06L244.736 274.281C249.063 273.618 255.064 272.637 261.678 271.541C268.292 270.444 274.293 269.514 278.649 268.944C280.813 268.656 282.587 268.439 283.814 268.317L285.256 268.187C285.418 268.158 285.584 268.156 285.747 268.18Z" fill="#5C546A"/>
<path d="M110.09 123.184C109.003 122.278 108.175 121.1 107.69 119.77C107.204 118.44 107.08 117.005 107.328 115.611C107.602 114.224 108.148 112.906 108.936 111.732C109.723 110.558 110.736 109.553 111.915 108.773C112.99 108.052 114.324 107.446 115.579 107.814C116.154 108.024 116.663 108.383 117.054 108.855C117.444 109.326 117.702 109.893 117.801 110.497C117.983 111.715 117.839 112.96 117.382 114.104C116.012 118.056 113.964 121.634 110.09 123.206" fill="#65617D"/>
<path d="M106.434 129.935C104.212 127.947 101.548 126.517 98.6626 125.765C95.7776 125.012 92.7546 124.958 89.8446 125.608C88.4021 125.947 86.7071 126.726 86.4691 128.219C86.2311 129.712 87.5582 130.988 88.8709 131.753C91.6416 133.291 94.8057 133.975 97.9644 133.718C101.123 133.462 104.135 132.276 106.621 130.31" fill="#65617D"/>
<path d="M85.2934 98.6758C86.5186 98.3931 87.7879 98.3584 89.0267 98.574C90.2654 98.7895 91.4484 99.2509 92.5061 99.9308C94.6302 101.317 96.4071 103.172 97.6991 105.355C100.31 109.48 101.233 115.034 101.349 119.917C95.9248 119.701 91.2943 115.438 89.0873 113.123C85.5819 109.473 81.4708 100.753 85.2502 98.6975" fill="#65617D"/>
<path d="M114.634 137.314C114.141 136.66 113.688 135.975 113.278 135.265C111.875 132.514 110.849 129.586 110.227 126.56C109.616 123.494 109.85 120.32 110.905 117.378C111.235 116.498 111.674 115.662 112.211 114.89C112.393 114.595 112.62 114.33 112.882 114.104C112.255 115.194 111.715 116.333 111.266 117.508C110.351 120.405 110.178 123.485 110.761 126.466C111.39 129.452 112.358 132.355 113.646 135.121" fill="#5C546A"/>
<path d="M114.685 137.379L111.858 133.736C109.485 130.657 106.188 126.408 102.481 121.763C98.7738 117.119 95.3767 112.964 92.91 109.964L90.0249 106.357C89.645 105.938 89.3023 105.487 89.0007 105.009C89.4262 105.381 89.8218 105.786 90.1836 106.22C90.9049 107.028 91.9651 108.204 93.2418 109.675C95.7878 112.618 99.2426 116.743 102.95 121.388C106.657 126.033 109.896 130.325 112.197 133.47C113.351 135.042 114.267 136.355 114.887 137.213" fill="#5C546A"/>
<path d="M93.2273 128.803C93.5223 128.657 93.8389 128.559 94.165 128.514C94.536 128.412 94.9147 128.34 95.2973 128.298C95.8012 128.215 96.3092 128.159 96.8192 128.132C98.1504 128.048 99.4867 128.099 100.808 128.284C102.422 128.524 104.006 128.938 105.532 129.517C107.051 130.124 108.502 130.891 109.86 131.803C110.956 132.56 111.973 133.425 112.896 134.385C113.256 134.748 113.596 135.131 113.913 135.532C114.174 135.824 114.415 136.132 114.634 136.456C114.988 136.982 114.937 137.227 114.908 137.249C114.205 136.346 113.454 135.482 112.658 134.66C111.717 133.759 110.699 132.943 109.614 132.222C108.278 131.362 106.86 130.637 105.381 130.058C103.889 129.492 102.345 129.074 100.772 128.81C99.4841 128.605 98.1804 128.518 96.8769 128.55C94.5977 128.572 93.2273 128.904 93.2273 128.803Z" fill="#5C546A"/>
<path d="M214.212 312.84L130.906 312.451C126.1 312.422 121.502 310.487 118.121 307.071C114.74 303.656 112.853 299.038 112.874 294.232L113.754 85.3758C113.775 80.5666 115.705 75.9625 119.118 72.5748C122.531 69.1871 127.15 67.2928 131.959 67.3082L215.265 67.6904C220.071 67.7228 224.668 69.6597 228.048 73.0764C231.428 76.493 233.316 81.1106 233.296 85.9167L232.431 294.765C232.41 299.578 230.479 304.185 227.063 307.574C223.646 310.963 219.024 312.857 214.212 312.84Z" fill="#5C546A"/>
<path d="M215.121 74.903L198.964 74.8237C198.438 74.8331 197.918 74.9461 197.435 75.1564C196.952 75.3666 196.515 75.67 196.15 76.0491C195.784 76.4282 195.496 76.8756 195.304 77.3658C195.111 77.856 195.017 78.3794 195.026 78.906V81.8344C195.036 82.361 194.941 82.8844 194.749 83.3746C194.556 83.8648 194.269 84.3122 193.903 84.6913C193.537 85.0704 193.1 85.3738 192.617 85.584C192.134 85.7943 191.615 85.9073 191.088 85.9167L159.605 85.7724C158.542 85.7422 157.534 85.2918 156.803 84.5197C156.071 83.7477 155.676 82.7172 155.703 81.654V78.7257C155.73 77.6614 155.334 76.6297 154.601 75.8575C153.868 75.0853 152.858 74.6356 151.794 74.6073H146.117L131.981 74.5424C128.609 74.529 125.369 75.8546 122.974 78.2281C120.579 80.6015 119.224 83.8287 119.207 87.2005L118.349 291.051C118.335 294.421 119.66 297.658 122.032 300.052C124.405 302.446 127.63 303.8 131 303.817L214.14 304.199C215.809 304.207 217.463 303.886 219.007 303.254C220.552 302.622 221.957 301.693 223.143 300.518C224.328 299.343 225.271 297.946 225.917 296.407C226.562 294.868 226.898 293.217 226.906 291.548L227.764 87.691C227.777 86.0203 227.459 84.3637 226.83 82.816C226.201 81.2683 225.272 79.8601 224.097 78.672C222.923 77.484 221.525 76.5395 219.985 75.8927C218.444 75.246 216.791 74.9096 215.121 74.903Z" fill="#FAFAFA"/>
<path d="M168.094 284.653C168.147 285.004 168.092 285.364 167.934 285.682C167.777 286.001 167.526 286.264 167.215 286.435C166.904 286.607 166.547 286.679 166.194 286.642C165.841 286.604 165.507 286.46 165.238 286.227C164.97 285.995 164.779 285.686 164.691 285.342C164.603 284.997 164.623 284.634 164.748 284.302C164.873 283.969 165.097 283.683 165.39 283.481C165.682 283.28 166.03 283.173 166.385 283.175C166.807 283.149 167.222 283.289 167.541 283.565C167.861 283.842 168.059 284.232 168.094 284.653Z" fill="#65617D"/>
<path d="M173.41 284.682C173.462 285.033 173.404 285.392 173.246 285.71C173.088 286.027 172.836 286.289 172.524 286.46C172.213 286.63 171.857 286.701 171.504 286.663C171.151 286.625 170.818 286.479 170.55 286.246C170.282 286.013 170.092 285.704 170.005 285.36C169.918 285.016 169.939 284.653 170.064 284.321C170.189 283.989 170.413 283.703 170.706 283.502C170.998 283.301 171.346 283.194 171.701 283.196C172.123 283.17 172.54 283.312 172.859 283.589C173.179 283.867 173.377 284.26 173.41 284.682Z" fill="#65617D"/>
<path d="M178.726 284.704C178.779 285.055 178.723 285.414 178.566 285.733C178.408 286.051 178.157 286.314 177.846 286.486C177.535 286.657 177.179 286.729 176.825 286.692C176.472 286.655 176.139 286.51 175.87 286.278C175.601 286.046 175.41 285.736 175.322 285.392C175.235 285.048 175.255 284.685 175.38 284.352C175.505 284.02 175.728 283.733 176.021 283.532C176.314 283.33 176.661 283.223 177.016 283.225C177.438 283.197 177.855 283.337 178.174 283.614C178.494 283.89 178.692 284.282 178.726 284.704Z" fill="#65617D"/>
<path d="M144.091 173.175C145.447 173.37 227.166 189.396 227.166 189.396V173.175H144.091Z" fill="#EBEBEB"/>
<path d="M118.378 276.171C118.378 276.171 207.28 263.592 206.501 263.982C205.723 264.371 118.378 263.982 118.378 263.982V276.171Z" fill="#EBEBEB"/>
<path d="M221.612 38.162C221.713 38.162 221.799 42.6554 221.799 48.1947C221.799 53.734 221.713 58.2347 221.612 58.2347C221.511 58.2347 221.424 53.7412 221.424 48.1947C221.424 42.6482 221.511 38.162 221.612 38.162Z" fill="#5C546A"/>
<path d="M257.192 61.264C257.235 61.3577 253.153 63.2475 248.082 65.4834C243.012 67.7193 238.865 69.4647 238.821 69.3637C238.778 69.2628 242.86 67.3803 247.931 65.1444C253.001 62.9085 257.148 61.163 257.192 61.264Z" fill="#5C546A"/>
<path d="M256.29 26.2251C256.248 26.3636 256.184 26.4949 256.103 26.6146C255.937 26.8886 255.735 27.2421 255.482 27.6748C254.941 28.598 254.141 29.9179 253.131 31.5336C251.112 34.7792 248.205 39.1789 244.909 43.9825C241.613 48.7862 238.684 53.1642 236.607 56.3666C235.59 57.9318 234.761 59.2517 234.155 60.1605L233.477 61.1846C233.405 61.3103 233.317 61.4266 233.217 61.5308C233.27 61.3956 233.336 61.2653 233.412 61.1414C233.578 60.8673 233.78 60.5139 234.032 60.0811C234.566 59.1579 235.374 57.8452 236.383 56.2224C238.403 52.9767 241.31 48.577 244.599 43.7734C247.887 38.9698 250.83 34.6206 252.907 31.3965L255.36 27.5955L256.038 26.5713C256.112 26.4491 256.197 26.3334 256.29 26.2251Z" fill="#5C546A"/>
<path d="M306.165 111.139H143.557C142.722 111.139 141.895 111.304 141.124 111.624C140.352 111.943 139.651 112.412 139.061 113.003C138.471 113.594 138.003 114.295 137.684 115.067C137.365 115.839 137.202 116.666 137.203 117.501V167.939C137.202 168.774 137.365 169.601 137.684 170.373C138.003 171.144 138.471 171.846 139.061 172.436C139.651 173.027 140.352 173.496 141.124 173.816C141.895 174.136 142.722 174.3 143.557 174.3H155.674C156.648 179.565 157.787 186.208 157.787 186.208L168.751 174.3H306.165C307.001 174.3 307.827 174.136 308.599 173.816C309.37 173.496 310.071 173.027 310.661 172.436C311.251 171.846 311.719 171.144 312.038 170.373C312.357 169.601 312.521 168.774 312.52 167.939V117.501C312.521 116.666 312.357 115.839 312.038 115.067C311.719 114.295 311.251 113.594 310.661 113.003C310.071 112.412 309.37 111.943 308.599 111.624C307.827 111.304 307.001 111.139 306.165 111.139Z" fill="#4770FF"/>
<path d="M239.074 138.482C239.074 138.583 219.722 138.67 195.856 138.67C171.989 138.67 152.63 138.583 152.63 138.482C152.63 138.381 171.982 138.288 195.856 138.288C219.729 138.288 239.074 138.396 239.074 138.482Z" fill="#F5F5F5"/>
<path d="M239.074 130.75C239.074 130.851 219.722 130.938 195.856 130.938C171.989 130.938 152.63 130.851 152.63 130.75C152.63 130.649 171.982 130.563 195.856 130.563C219.729 130.563 239.074 130.642 239.074 130.75Z" fill="#F5F5F5"/>
<path d="M239.074 146.171C239.074 146.272 219.722 146.358 195.856 146.358C171.989 146.358 152.63 146.272 152.63 146.171C152.63 146.07 171.982 145.983 195.856 145.983C219.729 145.983 239.074 146.063 239.074 146.171Z" fill="#F5F5F5"/>
<path d="M209.249 154.112C209.249 154.213 196.577 154.3 180.94 154.3C165.303 154.3 152.63 154.213 152.63 154.112C152.63 154.011 165.303 153.924 180.94 153.924C196.577 153.924 209.249 154.004 209.249 154.112Z" fill="#F5F5F5"/>
<path d="M232.69 201.823H68.7549C68.1696 201.823 67.5899 201.937 67.0491 202.161C66.5083 202.385 66.017 202.713 65.6035 203.127C65.1899 203.542 64.8623 204.033 64.6394 204.575C64.4166 205.116 64.3028 205.696 64.3047 206.281V259.654C64.3047 260.835 64.7736 261.966 65.6081 262.801C66.4427 263.636 67.5746 264.104 68.7549 264.104H187.821L198.64 275.883C198.64 275.883 199.772 269.261 200.731 264.104H232.669C233.849 264.104 234.981 263.636 235.816 262.801C236.65 261.966 237.119 260.835 237.119 259.654V206.281C237.121 205.697 237.008 205.119 236.786 204.58C236.565 204.04 236.239 203.549 235.828 203.135C235.417 202.721 234.928 202.392 234.39 202.167C233.851 201.942 233.274 201.825 232.69 201.823Z" fill="#65617D"/>
<path d="M226.264 229.361C226.264 229.462 206.913 229.549 183.039 229.549C159.165 229.549 139.814 229.462 139.814 229.361C139.814 229.26 159.165 229.174 183.039 229.174C206.913 229.174 226.264 229.231 226.264 229.361Z" fill="#F5F5F5"/>
<path d="M226.264 221.586C226.264 221.687 206.913 221.774 183.039 221.774C159.165 221.774 139.814 221.687 139.814 221.586C139.814 221.485 159.165 221.399 183.039 221.399C206.913 221.399 226.264 221.478 226.264 221.586Z" fill="#F5F5F5"/>
<path d="M226.264 237.007C226.264 237.108 206.913 237.194 183.039 237.194C159.165 237.194 139.814 237.108 139.814 237.007C139.814 236.906 159.165 236.819 183.039 236.819C206.913 236.819 226.264 236.906 226.264 237.007Z" fill="#F5F5F5"/>
<path d="M196.44 244.948C196.44 245.056 183.767 245.135 168.13 245.135C152.493 245.135 139.814 245.056 139.814 244.948C139.814 244.84 152.493 244.76 168.13 244.76C183.767 244.76 196.44 244.847 196.44 244.948Z" fill="#F5F5F5"/>
<path d="M265.284 89.7466C265.385 88.4195 264.202 86.5947 263.121 85.5417C262.494 84.9767 262.046 84.2408 261.832 83.4245C261.618 82.6082 261.647 81.7471 261.916 80.9472C262.356 79.31 263.395 79.4326 263.806 78.4661C264.006 77.7189 264.086 76.9448 264.044 76.1725C264.129 75.5201 264.349 74.8923 264.688 74.3283C265.027 73.7644 265.478 73.2763 266.014 72.8946C266.55 72.5129 267.159 72.2458 267.803 72.1098C268.447 71.9739 269.112 71.9721 269.756 72.1046C270.114 70.8246 270.849 69.6819 271.865 68.8247C272.881 67.9676 274.131 67.4357 275.453 67.2981C276.775 67.1604 278.108 67.4234 279.278 68.0529C280.449 68.6823 281.403 69.6492 282.018 70.8279C282.764 70.4485 283.593 70.2589 284.43 70.2758C285.268 70.2928 286.088 70.5157 286.819 70.9249C287.55 71.3342 288.168 71.9171 288.62 72.6223C289.072 73.3274 289.344 74.1331 289.411 74.968C290.168 74.485 291.074 74.292 291.962 74.4246C292.85 74.5571 293.66 75.0063 294.243 75.6892C294.79 76.4037 295.115 77.2636 295.177 78.1615C295.238 79.0594 295.034 79.9556 294.589 80.7381C294.132 81.5142 293.505 82.1768 292.756 82.6764C292.007 83.1761 291.154 83.4997 290.262 83.6231C288.472 83.8504 286.656 83.5205 285.061 82.6783C283.473 81.8417 282.031 80.7529 280.791 79.4542" fill="#5C546A"/>
<path d="M277.077 172.634C294.321 172.634 308.3 158.981 308.3 142.139C308.3 125.297 294.321 111.644 277.077 111.644C259.833 111.644 245.854 125.297 245.854 142.139C245.854 158.981 259.833 172.634 277.077 172.634Z" fill="#E0E0E0"/>
<path d="M308.43 142.161L304.975 133.304L292.591 141.086L303.627 158.101C303.627 158.101 308.113 152.273 308.43 142.161Z" fill="#EB996E"/>
<path d="M274.264 122.975C276.397 122.988 278.454 122.179 280.007 120.717C281.561 119.255 282.492 117.251 282.609 115.121C282.789 111.449 282.948 107.908 282.948 107.908C282.948 107.908 289.757 107.418 290.384 100.753C291.012 94.0886 291.106 78.6897 291.106 78.6897C287.411 76.7507 283.27 75.8247 279.102 76.0059C274.934 76.1871 270.888 77.4689 267.376 79.7211L266.727 80.1322L265.941 114.609C265.933 115.706 266.143 116.794 266.558 117.809C266.973 118.825 267.585 119.748 268.359 120.526C269.133 121.304 270.053 121.921 271.067 122.341C272.08 122.762 273.167 122.977 274.264 122.975Z" fill="#FFBE9D"/>
<path d="M278.144 88.946C278.324 89.0092 278.48 89.1239 278.595 89.2757C278.709 89.4276 278.776 89.6098 278.788 89.7995C278.799 89.9893 278.754 90.1783 278.659 90.3427C278.564 90.5071 278.422 90.6398 278.251 90.724C278.081 90.8082 277.889 90.8403 277.701 90.8163C277.512 90.7922 277.335 90.713 277.191 90.5887C277.047 90.4643 276.943 90.3003 276.892 90.1172C276.841 89.9341 276.845 89.7399 276.904 89.5591C276.988 89.3137 277.165 89.1114 277.398 88.9965C277.63 88.8816 277.899 88.8635 278.144 88.946Z" fill="#5C546A"/>
<path d="M280.034 89.2922C279.919 89.4004 279.313 88.8522 278.361 88.7945C277.409 88.7368 276.731 89.1696 276.637 89.047C276.543 88.9244 276.709 88.7873 277.012 88.5854C277.427 88.3236 277.915 88.2023 278.404 88.2392C278.891 88.2721 279.354 88.4619 279.724 88.7801C279.976 89.0253 280.07 89.2417 280.034 89.2922Z" fill="#5C546A"/>
<path d="M288.314 88.946C288.494 89.0092 288.65 89.1239 288.765 89.2757C288.879 89.4276 288.946 89.6098 288.958 89.7995C288.969 89.9893 288.924 90.1783 288.829 90.3427C288.733 90.5071 288.592 90.6398 288.421 90.724C288.251 90.8082 288.059 90.8403 287.871 90.8163C287.682 90.7922 287.505 90.713 287.361 90.5887C287.217 90.4643 287.113 90.3003 287.062 90.1172C287.011 89.9341 287.015 89.7399 287.074 89.5591C287.157 89.3137 287.335 89.1114 287.567 88.9965C287.8 88.8816 288.068 88.8635 288.314 88.946Z" fill="#5C546A"/>
<path d="M290.305 89.3066C290.197 89.422 289.584 88.8739 288.632 88.8162C287.68 88.7585 287.002 89.1912 286.908 89.0686C286.814 88.946 286.98 88.809 287.29 88.607C287.702 88.3444 288.188 88.2229 288.675 88.2608C289.164 88.2952 289.628 88.4848 290.002 88.8018C290.276 89.047 290.363 89.2634 290.305 89.3066Z" fill="#5C546A"/>
<path d="M283.309 96.5121C283.801 96.3601 284.316 96.2942 284.831 96.3173C285.076 96.3173 285.27 96.274 285.299 96.1442C285.333 95.8977 285.293 95.6466 285.184 95.423C284.996 94.7955 284.802 94.1607 284.6 93.4972C283.806 90.7564 283.28 88.5061 283.417 88.4483C283.554 88.3906 284.318 90.6121 285.112 93.3385C285.299 94.0021 285.472 94.644 285.653 95.2715C285.784 95.5926 285.801 95.9487 285.703 96.2813C285.66 96.3711 285.596 96.4498 285.517 96.5111C285.439 96.5724 285.347 96.6147 285.249 96.6347C285.11 96.6518 284.969 96.6518 284.831 96.6347C284.32 96.6806 283.805 96.6392 283.309 96.5121Z" fill="#5C546A"/>
<path d="M282.919 107.821C279.812 107.629 276.831 106.523 274.351 104.641C274.351 104.641 276.031 109.61 282.797 109.552L282.919 107.821Z" fill="#EB996E"/>
<path d="M266.525 89.9269C266.531 89.6651 266.435 89.4112 266.257 89.2188C266.08 89.0263 265.834 88.9104 265.573 88.8955C264.318 88.8378 262.255 89.2922 261.967 92.7254C261.591 97.63 266.381 96.4976 266.402 96.3317C266.424 96.1658 266.503 91.8383 266.525 89.9269Z" fill="#FFBE9D"/>
<path d="M265.378 94.406C265.378 94.406 265.284 94.4637 265.133 94.5142C265.031 94.5564 264.922 94.5782 264.812 94.5782C264.702 94.5782 264.593 94.5564 264.491 94.5142C264.186 94.2903 263.948 93.9889 263.799 93.6413C263.651 93.2937 263.598 92.9127 263.647 92.5379C263.665 92.1165 263.779 91.7047 263.979 91.3334C264.041 91.1814 264.139 91.0468 264.265 90.9412C264.39 90.8356 264.54 90.7623 264.7 90.7275C264.801 90.7074 264.906 90.7239 264.996 90.7742C265.086 90.8244 265.155 90.905 265.191 91.0016C265.248 91.1386 265.191 91.2396 265.234 91.2468C265.277 91.2541 265.349 91.1747 265.32 90.9655C265.303 90.8424 265.241 90.7298 265.147 90.6482C265.021 90.5353 264.855 90.4759 264.686 90.4823C264.477 90.5089 264.279 90.5894 264.11 90.7158C263.942 90.8423 263.81 91.0104 263.726 91.2036C263.479 91.6087 263.34 92.0707 263.323 92.5451C263.266 92.9812 263.341 93.4241 263.536 93.8181C263.731 94.2121 264.038 94.5396 264.419 94.7594C264.549 94.8065 264.689 94.8244 264.827 94.812C264.965 94.7995 265.099 94.7569 265.219 94.6873C265.356 94.5286 265.393 94.4204 265.378 94.406Z" fill="#EB996E"/>
<path d="M275.62 86.674C275.865 86.9914 276.716 86.8471 277.827 86.7967C278.938 86.7462 279.796 86.7534 279.991 86.4072C280.186 86.061 279.154 85.2315 277.726 85.3541C276.298 85.4767 275.346 86.3495 275.62 86.674Z" fill="#5C546A"/>
<path d="M286.425 86.3495C286.554 86.775 287.369 86.9049 288.271 86.8976C289.173 86.8904 289.98 86.7317 290.103 86.299C290.226 85.8662 289.382 85.282 288.249 85.2964C287.117 85.3109 286.287 85.9311 286.425 86.3495Z" fill="#5C546A"/>
<path d="M292.022 80.7813C292.022 80.7813 287.975 82.7432 282.717 80.1178C279.262 78.394 275.245 77.5501 274.358 78.2425C273.471 78.9349 273.283 82.4979 269.864 83.5366C269.864 83.5366 270.095 90.3164 267.39 90.0784C264.686 89.8404 266.373 79.3388 266.373 79.3388L272.995 76.1076L280.207 74.7444L287.009 75.7036L292.274 77.1462L292.022 80.7813Z" fill="#5C546A"/>
<path d="M246.719 120.076C253.795 112.798 266.244 113.584 266.244 113.584L276.565 120.977L282.414 114.161C286.562 114.726 290.588 115.971 294.33 117.847L294.726 117.97V118.049C299.256 120.508 305.661 126.408 311.77 132.128L304.463 138.908L296.371 146.12C296.389 146.167 296.389 146.218 296.371 146.265C296.291 146.705 297.496 156.579 298.736 164.08C295.214 167.554 290.899 170.117 286.164 171.549C281.429 172.98 276.416 173.236 271.559 172.295C268.249 171.711 266.648 170.91 263.582 170.131C261.373 169.546 259.399 168.293 257.929 166.544C256.459 164.795 255.564 162.635 255.367 160.358C254.819 154.069 254.4 146.279 254.4 146.279" fill="#65617D"/>
<path d="M288.884 115.438C289.065 115.812 289.214 116.2 289.331 116.599C289.598 117.32 289.951 118.453 290.377 119.816C291.228 122.542 292.317 126.307 293.341 130.584C294.366 134.862 295.137 138.706 295.621 141.519C295.866 142.961 296.046 144.072 296.154 144.865C296.232 145.272 296.277 145.685 296.291 146.099C296.164 145.703 296.07 145.298 296.01 144.887C295.844 144.043 295.628 142.925 295.361 141.569C294.806 138.771 293.998 134.912 292.974 130.671C291.949 126.43 290.911 122.615 290.132 119.895L289.194 116.642C289.063 116.249 288.959 115.846 288.884 115.438Z" fill="#5C546A"/>
<path d="M295.527 141.439C295.462 141.36 298.549 138.735 302.422 135.583C306.295 132.431 309.483 129.935 309.548 130.015C309.613 130.094 306.533 132.719 302.66 135.871C298.787 139.023 295.599 141.519 295.527 141.439Z" fill="#5C546A"/>
<path opacity="0.2" d="M256.059 130.058L249.741 150.881L252.1 152.107L254.422 146.221C254.422 146.221 256.788 133.845 256.059 130.058Z" fill="#65617D"/>
<g opacity="0.2">
<path opacity="0.2" d="M288.199 115.452C291.61 117.248 283.056 121.576 279.197 121.46L282.003 114.06C282.003 114.06 287.052 114.847 288.199 115.452Z" fill="#65617D"/>
</g>
<path d="M265.227 114.06V108.543C265.227 108.543 275.995 111.32 276.385 117.76C276.385 117.76 277.755 110.634 283.309 110.295L284.095 120.314L277.603 125.94H271.091L265.905 121.46L265.227 114.508" fill="#65617D"/>
<path d="M278.815 148.674C278.778 148.28 278.778 147.884 278.815 147.491C278.815 146.726 278.815 145.623 278.851 144.26C278.851 141.54 278.772 137.768 278.433 133.635C278.094 129.503 277.546 125.766 277.091 123.083C276.861 121.792 276.666 120.725 276.522 119.91C276.428 119.524 276.37 119.13 276.348 118.734C276.484 119.108 276.59 119.491 276.666 119.881C276.853 120.602 277.091 121.699 277.351 123.04C278.018 126.534 278.5 130.061 278.794 133.607C279.085 137.152 279.186 140.711 279.097 144.267C279.06 145.63 279.01 146.734 278.945 147.498C278.929 147.893 278.886 148.285 278.815 148.674Z" fill="#5C546A"/>
<path d="M275.894 115.907C275.679 115.87 275.458 115.89 275.252 115.964C274.723 116.262 274.334 116.758 274.17 117.342C273.281 119.265 272.587 121.273 272.1 123.336L272.043 123.581L271.826 123.451C271.184 123.062 270.521 122.643 269.857 122.196C268.648 121.373 267.483 120.487 266.366 119.542C265.858 119.118 265.452 118.586 265.176 117.984C264.959 117.454 264.837 116.89 264.816 116.318C264.794 115.508 264.874 114.699 265.054 113.909C265.097 113.614 265.177 113.326 265.292 113.051C265.282 113.346 265.251 113.64 265.198 113.931C265.075 114.715 265.037 115.511 265.082 116.303C265.117 116.839 265.246 117.364 265.465 117.854C265.729 118.414 266.116 118.907 266.597 119.297C267.614 120.148 268.797 121.028 270.066 121.893C270.73 122.34 271.379 122.766 272.021 123.155L271.747 123.271C272.229 121.199 272.955 119.192 273.911 117.292C274.057 116.959 274.247 116.646 274.473 116.361C274.651 116.141 274.889 115.978 275.158 115.892C275.707 115.719 275.909 115.9 275.894 115.907Z" fill="#5C546A"/>
<path d="M283.309 110.295C283.374 110.577 283.408 110.865 283.41 111.154L283.583 113.505C283.662 114.493 283.785 115.669 283.987 116.96C284.16 117.653 284.204 118.372 284.116 119.08C283.843 119.824 283.337 120.459 282.674 120.891C281.831 121.414 281.039 122.015 280.308 122.687L280.02 123.011V122.578C279.889 120.694 279.345 118.862 278.426 117.212C277.741 115.979 277.178 115.351 277.221 115.315C277.265 115.279 277.394 115.445 277.647 115.741C278.009 116.166 278.337 116.62 278.628 117.097C279.631 118.755 280.231 120.625 280.38 122.557L280.063 122.449C280.804 121.749 281.614 121.126 282.479 120.588C283.065 120.203 283.515 119.642 283.763 118.987C283.839 118.326 283.8 117.657 283.648 117.01C283.467 115.705 283.374 114.515 283.323 113.519C283.273 112.524 283.265 111.716 283.273 111.161C283.248 110.872 283.26 110.581 283.309 110.295Z" fill="#5C546A"/>
<path d="M317.98 111.68C317.54 112.192 301.672 133.433 301.672 133.433L303.908 134.703L320.18 113.786L317.98 111.68Z" fill="#5C546A"/>
<path d="M254.271 128.442C254.271 128.442 270.953 152.46 271.963 152.929C273.939 153.86 296.76 134.14 298.938 132.251C299.241 131.847 299.862 131.003 301.102 129.322C301.102 129.322 302.905 121.085 304.824 121.713C306.742 122.34 303.771 125.903 305.026 129.034C306.281 132.164 312.008 124.706 312.238 124.028L313.717 122.095C313.717 122.095 315.268 126.488 315.16 128.327C314.821 134.205 309.26 141.194 309.26 141.194C309.26 141.194 284.282 172.136 267.174 173.096C262.248 173.37 253.47 159.392 247.635 148.905C245.931 145.842 245.406 142.262 246.159 138.84C246.913 135.417 248.892 132.389 251.725 130.325L254.271 128.442Z" fill="#FFBE9D"/>
<path d="M312.325 129.366C312.645 128.627 313.001 127.905 313.393 127.202C313.714 126.462 314.075 125.739 314.474 125.038C314.02 126.599 313.287 128.065 312.311 129.366H312.325Z" fill="#EB996E"/>
<path d="M251.451 116.722C251.451 116.722 233.542 123.091 246.856 153.203L267.527 140.725L264.585 133.686L251.451 116.722Z" fill="#65617D"/>
<path d="M250.08 117.248C250.806 117.181 251.539 117.242 252.244 117.429C253.069 117.642 253.859 117.975 254.588 118.417C255.552 119.017 256.43 119.745 257.199 120.581C259.152 122.762 260.788 125.207 262.06 127.844C263.575 130.772 264.989 134.111 266.438 137.61C266.871 138.663 267.304 139.694 267.708 140.675L267.773 140.834L267.621 140.913C261.642 144.173 256.434 147.224 252.756 149.51C250.91 150.65 249.445 151.588 248.428 152.237L247.274 152.958C247.142 153.05 247.002 153.129 246.856 153.196C246.971 153.085 247.096 152.986 247.231 152.9C247.484 152.713 247.859 152.439 248.356 152.1C249.337 151.378 250.787 150.441 252.612 149.272C256.261 146.928 261.454 143.827 267.441 140.56L267.354 140.79C266.95 139.809 266.518 138.778 266.085 137.725C264.642 134.227 263.2 130.895 261.757 127.973C260.51 125.365 258.913 122.939 257.011 120.761C256.268 119.933 255.419 119.205 254.487 118.597C253.774 118.149 253.002 117.802 252.193 117.566C251.499 117.4 250.792 117.294 250.08 117.248Z" fill="#5C546A"/>
<path d="M288.596 72.6022C288.641 72.7027 288.67 72.8099 288.682 72.9196C288.737 73.2265 288.756 73.5387 288.74 73.85C288.671 75.0213 288.185 76.1292 287.369 76.9731C286.75 77.5909 285.976 78.0302 285.128 78.2448C284.28 78.4593 283.39 78.4411 282.551 78.192C281.536 77.9219 280.657 77.2845 280.085 76.4033C279.782 75.917 279.652 75.3425 279.717 74.7732C279.75 74.4765 279.846 74.1903 279.999 73.9339C280.152 73.6776 280.358 73.4571 280.604 73.2874C280.86 73.1261 281.153 73.031 281.455 73.0109C281.757 72.9907 282.06 73.0461 282.335 73.172C282.87 73.3988 283.294 73.826 283.518 74.3621C283.696 74.8621 283.745 75.3988 283.662 75.923C283.579 76.4472 283.366 76.9421 283.042 77.3626C282.5 78.0635 281.729 78.5507 280.863 78.7381C279.997 78.9255 279.093 78.801 278.31 78.3868C277.745 78.091 277.147 77.8634 276.529 77.7088C276.066 77.6046 275.582 77.6553 275.151 77.853C274.79 78.0479 274.447 78.2748 274.127 78.531C274.127 78.531 274.192 78.4372 274.336 78.2786C274.425 78.1794 274.524 78.0899 274.632 78.0117C274.773 77.8944 274.928 77.7951 275.093 77.716C275.539 77.4932 276.044 77.4175 276.536 77.4996C277.178 77.6384 277.801 77.8564 278.39 78.1487C278.724 78.2961 279.072 78.4096 279.428 78.4877C279.812 78.5595 280.206 78.5595 280.59 78.4877C281.453 78.3506 282.229 77.8823 282.753 77.1822C283.038 76.8095 283.226 76.3716 283.299 75.9081C283.372 75.4447 283.328 74.9703 283.172 74.528C283.086 74.3044 282.954 74.1013 282.784 73.932C282.614 73.7627 282.411 73.6309 282.188 73.5452C281.964 73.4595 281.724 73.4218 281.485 73.4346C281.246 73.4473 281.012 73.5102 280.799 73.6192C280.599 73.7618 280.432 73.9446 280.308 74.1558C280.184 74.367 280.105 74.6019 280.077 74.8454C280.026 75.3317 280.138 75.8214 280.395 76.2374C280.918 77.0429 281.719 77.6282 282.645 77.8819C283.427 78.1216 284.26 78.1485 285.056 77.9596C285.852 77.7707 286.583 77.3729 287.175 76.8072C287.968 76.0172 288.465 74.9779 288.581 73.8644C288.612 73.4444 288.617 73.0229 288.596 72.6022Z" fill="#65617D"/>
<path d="M284.693 99.801C284.693 99.8443 284.477 99.9453 284.08 99.9597C283.561 99.9667 283.047 99.8485 282.582 99.615C282.118 99.3815 281.716 99.0395 281.412 98.6181C281.195 98.2864 281.13 98.0484 281.174 98.0267C281.648 98.5065 282.179 98.9278 282.753 99.2817C283.377 99.5322 284.028 99.7065 284.693 99.801Z" fill="#5C546A"/>
<path d="M265.782 96.6491C265.818 96.6491 266.02 96.9665 265.782 97.4641C265.707 97.6046 265.604 97.7287 265.48 97.829C265.356 97.9293 265.214 98.0039 265.061 98.0484C264.864 98.0923 264.66 98.0884 264.466 98.0369C264.271 97.9855 264.092 97.888 263.943 97.7526C263.78 97.6198 263.65 97.451 263.564 97.2595C263.478 97.068 263.437 96.859 263.445 96.6491C263.457 96.332 263.574 96.0277 263.777 95.7836C264.123 95.3797 264.498 95.3364 264.498 95.3797C264.498 95.423 264.238 95.56 264.008 95.9423C263.86 96.1639 263.796 96.431 263.828 96.6955C263.86 96.9599 263.985 97.2044 264.181 97.3848C264.287 97.4812 264.413 97.5527 264.55 97.5938C264.688 97.635 264.833 97.6449 264.974 97.6228C265.212 97.5693 265.422 97.4308 265.566 97.2333C265.796 96.9376 265.724 96.6491 265.782 96.6491Z" fill="#5C546A"/>
<path d="M289.786 75.0112C290.023 75.4125 290.143 75.8723 290.132 76.3384C290.189 77.4774 289.803 78.5945 289.056 79.456C288.309 80.3176 287.257 80.857 286.122 80.9617C285.661 81.0404 285.188 80.9853 284.758 80.803C284.758 80.7381 285.285 80.803 286.086 80.6948C287.125 80.535 288.074 80.0131 288.766 79.2212C289.457 78.4293 289.847 77.4184 289.865 76.3672C289.887 75.545 289.721 75.0473 289.786 75.0112Z" fill="#65617D"/>
<path d="M265.393 135.381C265.436 135.475 260.683 137.92 254.768 140.841C248.854 143.762 244.029 146.063 243.949 145.969C243.87 145.875 248.652 143.43 254.566 140.502C260.481 137.573 265.349 135.287 265.393 135.381Z" fill="#E0E0E0"/>
<path d="M261.058 127.202C261.108 127.288 256.874 129.661 251.602 132.489C246.33 135.316 242.016 137.537 241.973 137.444C241.93 137.35 246.156 134.984 251.429 132.157C256.701 129.329 261.007 127.108 261.058 127.202Z" fill="#E0E0E0"/>
<path d="M256.867 120.588C256.194 121.054 255.488 121.471 254.754 121.836L249.575 124.721L244.425 127.663C243.733 128.104 243.01 128.495 242.262 128.832C242.899 128.311 243.579 127.845 244.296 127.44C245.579 126.625 247.375 125.543 249.395 124.396C251.414 123.249 253.275 122.283 254.639 121.605C255.351 121.203 256.097 120.862 256.867 120.588Z" fill="#E0E0E0"/>
<path d="M272.713 119.008C272.225 118.985 271.748 118.858 271.314 118.633C270.257 118.159 269.283 117.519 268.429 116.736C267.573 115.955 266.786 115.1 266.078 114.183C265.754 113.83 265.48 113.434 265.263 113.007C265.306 113.007 265.681 113.361 266.28 114.017C266.878 114.673 267.686 115.568 268.681 116.455C269.52 117.216 270.453 117.866 271.458 118.388C272.201 118.799 272.728 118.965 272.713 119.008Z" fill="#E0E0E0"/>
<path d="M283.229 115.113C282.991 115.983 282.465 116.746 281.736 117.277C281.09 117.908 280.248 118.297 279.349 118.381C280.096 117.959 280.819 117.494 281.513 116.989C282.116 116.393 282.689 115.767 283.229 115.113Z" fill="#E0E0E0"/>
<path d="M301.989 125.968C301.858 126.009 301.723 126.033 301.585 126.041L300.424 126.185C299.414 126.3 297.95 126.437 296.147 126.581C292.541 126.87 287.492 127.151 281.989 127.353C276.486 127.555 271.444 127.62 267.809 127.591C265.998 127.591 264.527 127.541 263.517 127.505L262.349 127.447C262.213 127.447 262.077 127.43 261.945 127.396C262.079 127.379 262.215 127.379 262.349 127.396H263.517L267.809 127.36C271.415 127.324 276.464 127.209 281.974 127.014C287.485 126.819 292.505 126.567 296.125 126.351L300.41 126.077L301.578 126.004C301.713 125.974 301.851 125.962 301.989 125.968Z" fill="#E0E0E0"/>
<path d="M296.291 134.523C295.902 134.612 295.507 134.674 295.109 134.71C294.337 134.804 293.226 134.919 291.856 135.049C289.108 135.302 285.307 135.561 281.102 135.734C276.897 135.907 273.081 135.943 270.283 135.915C268.905 135.915 267.787 135.871 267.015 135.842C266.614 135.846 266.214 135.814 265.818 135.749C266.215 135.701 266.615 135.682 267.015 135.691L270.283 135.648C273.038 135.648 276.846 135.525 281.044 135.359C285.242 135.193 289.05 134.97 291.798 134.782L295.058 134.559C295.467 134.508 295.88 134.496 296.291 134.523Z" fill="#E0E0E0"/>
<path d="M283.359 145.067C282.575 145.249 281.776 145.362 280.972 145.406C279.486 145.558 277.438 145.724 275.166 145.839C272.894 145.955 270.838 145.991 269.345 145.983C268.541 146.021 267.735 145.99 266.936 145.89C267.731 145.768 268.534 145.71 269.338 145.717L275.144 145.464L280.914 145.14C281.726 145.06 282.543 145.036 283.359 145.067Z" fill="#E0E0E0"/>
<path d="M266.835 120.04C266.835 120.148 264.621 120.169 261.894 120.285C259.168 120.4 256.968 120.552 256.954 120.444C260.215 119.867 263.538 119.731 266.835 120.04Z" fill="#E0E0E0"/>
<path d="M297.258 119.65C295.128 119.825 292.989 119.878 290.853 119.809C288.713 119.865 286.572 119.795 284.441 119.6C286.573 119.42 288.714 119.364 290.853 119.434C292.99 119.377 295.129 119.449 297.258 119.65Z" fill="#E0E0E0"/>
<path d="M298.369 163.539C298.166 163.69 297.945 163.816 297.712 163.914C297.28 164.138 296.638 164.433 295.837 164.772C293.733 165.639 291.562 166.331 289.346 166.842C287.13 167.348 284.877 167.673 282.609 167.816C281.744 167.866 281.037 167.881 280.546 167.866C280.305 167.878 280.063 167.861 279.825 167.816C279.825 167.758 280.892 167.715 282.616 167.549C284.861 167.333 287.089 166.974 289.288 166.474C291.493 165.968 293.661 165.315 295.779 164.52C297.344 163.914 298.347 163.481 298.369 163.539Z" fill="#E0E0E0"/>
<path d="M103.534 261.71C120.778 261.71 134.758 248.373 134.758 231.922C134.758 215.47 120.778 202.134 103.534 202.134C86.2899 202.134 72.3107 215.47 72.3107 231.922C72.3107 248.373 86.2899 261.71 103.534 261.71Z" fill="#E0E0E0"/>
<path d="M97.1726 160.12C92.2248 160.38 90.2774 165.544 89.6859 166.698C89.178 167.894 88.9085 169.178 88.8925 170.477C88.8774 171.779 88.551 173.057 87.9405 174.206C86.8514 175.945 84.5578 176.846 83.9375 178.801C83.2162 181.015 85.041 183.381 84.5578 185.653C84.2981 186.872 83.411 187.874 83.1152 189.079C82.8424 190.366 83.0831 191.709 83.786 192.822C85.4088 195.621 88.7844 197.02 92.0156 197.15C95.2469 197.28 98.406 196.299 101.5 195.347" fill="#5C546A"/>
<path d="M118.969 166.525C118.779 167.072 118.746 167.661 118.874 168.226C119.001 168.79 119.284 169.308 119.69 169.72C120.521 170.517 121.419 171.241 122.374 171.884C122.85 172.213 123.258 172.632 123.572 173.119C123.887 173.605 124.102 174.149 124.206 174.718C124.299 175.772 123.766 176.825 123.91 177.87C124.285 180.575 128.591 181.383 128.814 184.095C128.973 185.905 127.112 187.571 127.632 189.31C127.912 189.962 128.276 190.575 128.713 191.134C129.94 193.168 129.11 195.967 127.336 197.539C125.561 199.112 123.109 199.667 120.743 199.775C118.753 199.862 116.488 199.537 115.32 197.929C114.245 196.45 114.468 194.445 114.678 192.635C115.68 184.181 115.507 175.642 115.341 167.131" fill="#5C546A"/>
<path d="M98.4781 205.639C98.5142 201.196 98.4781 196.522 98.4781 196.522C98.4781 196.522 92.7729 195.505 91.6694 188.033C90.6236 180.9 92.3907 165.566 92.3907 165.566C100.664 162.298 109.982 163.561 115.774 170.218L114.865 206.281C114.764 210.464 111.079 213.71 106.6 213.566C102.077 213.414 98.442 209.887 98.4781 205.639Z" fill="#FFBE9D"/>
<path d="M93.9486 177.337C93.9426 177.586 94.0342 177.828 94.2039 178.012C94.3736 178.195 94.608 178.305 94.8574 178.318C94.9793 178.328 95.1021 178.315 95.2187 178.278C95.3353 178.241 95.4434 178.181 95.5367 178.102C95.63 178.023 95.7066 177.926 95.7621 177.817C95.8176 177.708 95.8508 177.589 95.8599 177.466C95.864 177.216 95.7708 176.974 95.5999 176.791C95.4291 176.608 95.1939 176.499 94.9439 176.486C94.8224 176.475 94.7 176.488 94.5838 176.525C94.4676 176.563 94.3599 176.622 94.2672 176.702C94.1745 176.781 94.0986 176.878 94.0439 176.987C93.9891 177.096 93.9567 177.215 93.9486 177.337Z" fill="#5C546A"/>
<path d="M92.4123 176.601C92.5277 176.724 93.2562 176.197 94.2876 176.211C96.2278 176.493 96.1917 176.789 96.1773 176.623C96.235 176.572 96.1196 176.341 95.7878 176.103C95.3487 175.787 94.8217 175.615 94.2804 175.613C93.7434 175.607 93.2185 175.772 92.7801 176.082C92.4628 176.32 92.3546 176.543 92.4123 176.601Z" fill="#5C546A"/>
<path d="M104.493 177.647C104.488 177.896 104.579 178.137 104.749 178.319C104.919 178.501 105.154 178.609 105.402 178.621C105.524 178.632 105.647 178.62 105.763 178.583C105.88 178.546 105.988 178.486 106.081 178.407C106.174 178.327 106.25 178.23 106.304 178.12C106.359 178.011 106.39 177.891 106.398 177.769C106.404 177.52 106.312 177.278 106.142 177.095C105.973 176.911 105.738 176.802 105.489 176.789C105.367 176.779 105.244 176.793 105.128 176.831C105.012 176.869 104.904 176.93 104.812 177.01C104.719 177.089 104.643 177.187 104.589 177.296C104.534 177.406 104.502 177.525 104.493 177.647Z" fill="#5C546A"/>
<path d="M103.152 176.954C103.267 177.084 104.003 176.55 105.027 176.565C106.051 176.579 106.809 177.106 106.924 176.983C107.039 176.861 106.859 176.702 106.535 176.457C106.093 176.141 105.563 175.972 105.02 175.973C104.484 175.964 103.958 176.126 103.52 176.435C103.202 176.709 103.094 176.897 103.152 176.954Z" fill="#5C546A"/>
<path d="M99.322 184.347C98.784 184.164 98.2235 184.054 97.6559 184.023C97.3962 184.023 97.1438 183.936 97.1005 183.756C97.0853 183.483 97.1505 183.213 97.288 182.977L98.0886 180.986C98.8262 179.295 99.4315 177.549 99.899 175.764C99.7836 175.721 98.7883 177.993 97.6703 180.813C97.4034 181.534 97.151 182.184 96.9058 182.818C96.7336 183.133 96.6799 183.499 96.7543 183.85C96.7906 183.944 96.8488 184.029 96.924 184.096C96.9992 184.164 97.0893 184.213 97.1871 184.239C97.3295 184.283 97.4779 184.305 97.627 184.304C98.188 184.39 98.7574 184.404 99.322 184.347Z" fill="#5C546A"/>
<path d="M98.4709 196.522C101.984 196.617 105.454 195.736 108.496 193.976C108.496 193.976 106.015 199.075 98.5502 198.304L98.4709 196.522Z" fill="#EB996E"/>
<path d="M99.7187 186.807C99.9183 186.563 100.176 186.374 100.469 186.256C100.762 186.139 101.079 186.098 101.392 186.136C101.63 186.157 101.86 186.227 102.069 186.343C102.278 186.458 102.46 186.616 102.604 186.807C102.739 186.981 102.818 187.193 102.829 187.413C102.841 187.634 102.785 187.853 102.669 188.04C102.499 188.221 102.281 188.349 102.04 188.407C101.798 188.464 101.546 188.45 101.313 188.365C100.829 188.187 100.385 187.915 100.007 187.564C99.893 187.479 99.7953 187.374 99.7187 187.254C99.6802 187.198 99.6596 187.131 99.6596 187.063C99.6596 186.995 99.6802 186.928 99.7187 186.872" fill="#EB996E"/>
<path d="M102.351 185.09C102.178 185.09 102.164 186.201 101.197 186.98C100.231 187.759 99.0335 187.629 99.0335 187.781C99.0335 187.932 99.3003 188.004 99.798 188.019C100.455 188.041 101.098 187.826 101.608 187.413C102.097 187.02 102.414 186.454 102.496 185.833C102.546 185.364 102.423 185.083 102.351 185.09Z" fill="#5C546A"/>
<path d="M112.528 164.895C109.802 168.79 102.568 172.793 97.3818 173.723C97.9804 172.93 101.161 170.968 101.767 170.175C99.423 171.92 96.0619 174.271 92.9533 174.423C92.5865 174.477 92.212 174.419 91.8786 174.257C91.7041 174.117 91.5644 173.939 91.4705 173.736C91.3766 173.534 91.3311 173.312 91.3376 173.088C91.1607 170.832 91.2333 168.563 91.554 166.323C91.8007 164.43 92.7635 162.703 94.2443 161.498C96.2422 159.954 99.0912 159.579 101.781 159.514C104.033 159.368 106.291 159.672 108.424 160.409C110.487 161.216 112.254 162.825 112.557 164.736" fill="#5C546A"/>
<path d="M120.361 182.342C120.703 180.695 120.944 179.028 121.082 177.351C121.306 173.5 120.195 159.32 106.917 160.43L106.376 164.477C106.376 164.477 104.328 178.318 112.918 178.419C113.495 181.509 115.005 184.348 117.245 186.554C117.245 186.554 119.496 186.489 120.303 182.342" fill="#5C546A"/>
<path d="M112.939 178.419C113.742 178.261 114.572 178.323 115.341 178.599C116.112 178.889 116.737 179.473 117.079 180.222C117.379 180.987 117.379 181.837 117.079 182.602C116.771 183.36 116.298 184.039 115.695 184.593C115.297 185.02 114.802 185.344 114.252 185.537C113.975 185.633 113.678 185.658 113.388 185.61C113.098 185.562 112.825 185.443 112.593 185.263" fill="#FFBE9D"/>
<path d="M113.322 183.265C113.228 183.265 113.574 183.778 114.303 183.59C114.499 183.528 114.68 183.427 114.836 183.293C114.993 183.159 115.12 182.995 115.211 182.811C115.437 182.406 115.579 181.959 115.63 181.498C115.699 180.994 115.583 180.482 115.305 180.056C115.193 179.878 115.04 179.728 114.86 179.619C114.68 179.51 114.476 179.445 114.267 179.428C113.545 179.428 113.278 179.919 113.358 179.933C113.437 179.948 113.711 179.731 114.202 179.854C114.502 179.971 114.749 180.192 114.899 180.477C115.049 180.762 115.091 181.091 115.017 181.405C114.923 182.227 114.598 182.977 114.158 183.157C113.718 183.338 113.372 183.201 113.322 183.265Z" fill="#EB996E"/>
<path d="M114.389 163.438C115.419 164.022 116.636 164.18 117.78 163.878C118.925 163.576 119.905 162.838 120.513 161.822C120.933 161.185 121.083 160.407 120.931 159.659C120.761 159.17 120.465 158.734 120.074 158.395C119.683 158.056 119.21 157.825 118.702 157.726C117.976 157.536 117.215 157.528 116.485 157.703C115.756 157.878 115.08 158.23 114.519 158.728C113.97 159.242 113.577 159.901 113.386 160.628C113.195 161.355 113.212 162.122 113.437 162.839C113.692 163.544 114.16 164.153 114.777 164.579C115.394 165.006 116.128 165.23 116.878 165.219" fill="#5C546A"/>
<path d="M115.586 184.96C114.826 185.465 114.133 186.063 113.524 186.742C112.913 187.432 112.595 188.332 112.636 189.252C112.748 189.749 112.804 190.257 112.802 190.767C112.583 191.434 112.227 192.048 111.757 192.57C111.321 193.368 111.151 194.284 111.272 195.186C111.392 196.087 111.797 196.927 112.427 197.582C113.737 198.87 115.503 199.586 117.339 199.573C118.395 199.663 119.453 199.41 120.354 198.852C121.595 197.986 122.071 196.356 122.107 194.834" fill="#5C546A"/>
<path d="M116.495 166.417C116.312 166.908 116.048 167.366 115.716 167.773C114.983 168.809 114.123 169.749 113.156 170.571C112.196 171.403 111.137 172.112 110.004 172.685C109.555 172.948 109.069 173.14 108.561 173.254C110.094 172.383 111.555 171.391 112.932 170.29C114.219 169.094 115.41 167.799 116.495 166.417Z" fill="#65617D"/>
<path d="M117.873 166.337C117.893 166.955 117.813 167.571 117.635 168.162C117.279 169.606 116.71 170.99 115.947 172.266C115.179 173.539 114.223 174.689 113.113 175.678C112.673 176.112 112.166 176.472 111.612 176.745C113.154 175.376 114.503 173.804 115.623 172.071C116.632 170.272 117.389 168.343 117.873 166.337Z" fill="#65617D"/>
<path d="M89.044 172.382C89.1522 172.382 89.2964 173.622 89.7652 175.101C90.2341 176.579 90.7317 177.712 90.6307 177.762C89.5146 176.197 88.9559 174.302 89.044 172.382Z" fill="#65617D"/>
<path d="M120.859 197.871C121.186 198.086 121.565 198.208 121.955 198.224C122.409 198.218 122.851 198.078 123.225 197.82C123.704 197.467 124.044 196.957 124.184 196.378C124.357 195.667 124.357 194.925 124.184 194.214C124.032 193.428 123.729 192.62 123.463 191.733C123.136 190.809 123.025 189.822 123.138 188.848C123.304 187.795 123.989 186.937 124.321 185.963C124.478 185.498 124.54 185.007 124.504 184.517C124.468 184.028 124.335 183.551 124.112 183.114C123.701 182.286 122.997 181.64 122.135 181.304C121.713 181.146 121.298 180.965 120.895 180.763C120.492 180.564 120.151 180.26 119.907 179.883C119.549 179.182 119.394 178.395 119.46 177.611C119.508 176.999 119.484 176.384 119.387 175.779C119.308 175.328 119.123 174.903 118.847 174.538C118.598 174.234 118.256 174.021 117.873 173.932C117.977 173.907 118.086 173.907 118.19 173.932C118.489 174.01 118.758 174.176 118.962 174.408C119.268 174.785 119.485 175.227 119.597 175.699C119.72 176.319 119.763 176.951 119.726 177.582C119.676 178.31 119.831 179.037 120.174 179.681C120.578 180.344 121.414 180.618 122.265 180.957C123.207 181.317 123.98 182.017 124.429 182.919C124.676 183.4 124.825 183.925 124.867 184.463C124.91 185.002 124.844 185.544 124.674 186.057C124.299 187.088 123.636 187.91 123.491 188.855C123.382 189.782 123.483 190.721 123.787 191.603C124.04 192.469 124.335 193.298 124.508 194.113C124.669 194.877 124.647 195.668 124.444 196.421C124.272 197.055 123.881 197.607 123.34 197.979C122.928 198.249 122.44 198.38 121.948 198.354C121.639 198.34 121.34 198.243 121.082 198.073C120.995 198.022 120.918 197.953 120.859 197.871Z" fill="#65617D"/>
<path d="M115.651 197.359C115.651 197.359 115.745 197.59 116.091 197.756C116.334 197.856 116.603 197.873 116.856 197.804C117.11 197.735 117.333 197.583 117.491 197.373C117.677 197.022 117.764 196.626 117.744 196.229C117.724 195.831 117.596 195.447 117.375 195.116C116.964 194.301 116.149 193.5 115.933 192.31C115.874 192.02 115.879 191.721 115.947 191.433C116.016 191.145 116.146 190.876 116.329 190.644C116.683 190.211 117.101 189.923 117.368 189.569C117.83 188.895 118.011 188.067 117.873 187.261C117.784 186.705 117.646 186.157 117.462 185.624C117.378 185.43 117.32 185.227 117.289 185.018C117.289 185.018 117.426 185.206 117.592 185.573C117.843 186.098 118.025 186.653 118.132 187.225C118.225 187.66 118.23 188.11 118.147 188.547C118.064 188.984 117.895 189.4 117.649 189.771C117.339 190.19 116.928 190.492 116.625 190.875C116.474 191.067 116.366 191.29 116.31 191.528C116.254 191.766 116.251 192.013 116.3 192.252C116.474 193.284 117.238 194.07 117.678 194.957C117.915 195.345 118.041 195.79 118.041 196.245C118.041 196.699 117.915 197.144 117.678 197.532C117.569 197.674 117.431 197.792 117.273 197.878C117.115 197.964 116.941 198.015 116.762 198.03C116.498 198.061 116.232 198.011 115.998 197.885C115.637 197.626 115.637 197.352 115.651 197.359Z" fill="#65617D"/>
<path d="M87.3779 195.462C87.1568 195.293 86.9581 195.097 86.7864 194.878C86.2716 194.315 85.8482 193.675 85.5314 192.981C85.3178 192.485 85.2144 191.948 85.2285 191.408C85.2318 190.769 85.456 190.149 85.8632 189.656C86.3104 189.144 86.9595 188.87 87.349 188.386C87.5378 188.121 87.6627 187.816 87.714 187.494C87.7653 187.173 87.7416 186.844 87.6447 186.533C87.4687 185.866 87.2043 185.225 86.8586 184.629C86.5202 184.038 86.2768 183.398 86.1373 182.732C86.0204 182.101 86.1522 181.45 86.5051 180.914C86.8201 180.487 87.1885 180.101 87.6015 179.767C88.198 179.335 88.6324 178.716 88.8348 178.007C88.8837 177.745 88.8837 177.476 88.8348 177.214C88.8348 177.214 88.8925 177.272 88.943 177.402C89.0153 177.602 89.0376 177.818 89.0079 178.029C88.8519 178.795 88.4273 179.481 87.8106 179.962C87.4302 180.295 87.089 180.67 86.7937 181.08C86.4947 181.554 86.3913 182.125 86.5051 182.674C86.6535 183.301 86.8967 183.902 87.2264 184.456C87.5905 185.079 87.8695 185.749 88.0559 186.446C88.1625 186.812 88.1841 187.197 88.1191 187.572C88.0541 187.947 87.9042 188.302 87.6808 188.61C87.1903 189.187 86.5412 189.439 86.1662 189.879C85.801 190.307 85.5946 190.847 85.5819 191.408C85.5599 191.901 85.6409 192.392 85.82 192.851C86.1032 193.536 86.482 194.177 86.9451 194.755C87.1119 194.976 87.2568 195.213 87.3779 195.462Z" fill="#65617D"/>
<path d="M117.455 164.376C116.939 163.676 116.349 163.035 115.695 162.464C114.968 161.991 114.192 161.6 113.379 161.296C114.298 161.31 115.187 161.617 115.92 162.17C116.652 162.724 117.19 163.496 117.455 164.376Z" fill="#4770FF"/>
<path d="M118.471 157.473C118.515 157.473 118.753 157.733 118.948 158.288C119.197 159.027 119.22 159.824 119.013 160.576C118.806 161.327 118.379 162 117.786 162.508C117.325 162.89 116.978 163.005 116.957 162.969C116.935 162.933 117.224 162.724 117.599 162.32C118.098 161.804 118.46 161.172 118.652 160.48C118.843 159.788 118.858 159.059 118.695 158.36C118.595 158.072 118.52 157.775 118.471 157.473Z" fill="#65617D"/>
<path opacity="0.3" d="M81.8675 246.196C81.8675 246.196 99.7908 263.217 110.444 260.13C121.097 257.043 124.242 249.059 124.242 249.059L124.501 246.174L123.434 245.453L82.4084 242.178L81.8675 246.196Z" fill="#65617D"/>
<path d="M71.2721 230.256L74.7269 221.427L87.111 229.21L76.0757 246.224C76.0757 246.224 71.5894 240.368 71.2721 230.256Z" fill="#EB996E"/>
<path d="M85.243 205.776C91.0131 202.761 98.4709 201.896 98.4709 201.896C100.635 206.223 107.465 206.779 111.598 203.821L115.089 201.463C115.57 201.456 116.052 201.477 116.531 201.528C120.513 201.902 124.267 203.548 127.24 206.223C130.212 208.897 132.244 212.459 133.034 216.379C133.722 219.454 134.015 222.605 133.906 225.755C133.452 233.638 125.295 234.352 125.295 234.352C125.295 234.352 124.876 242.135 124.321 248.431C124.201 250.625 123.47 252.741 122.209 254.54C120.948 256.338 119.209 257.748 117.188 258.608C114.331 260.037 111.258 260.985 108.093 261.414C103.151 262.187 98.0956 261.737 93.3687 260.102C88.6419 258.468 84.3882 255.699 80.9803 252.038C82.2209 244.537 83.4037 234.821 83.3172 234.381C83.3032 234.334 83.3032 234.284 83.3172 234.237L75.2318 227.06L70.6446 223.209C70.6446 223.209 80.7423 208.279 85.2285 205.826" fill="#4770FF"/>
<path d="M95.2685 210.608C94.6584 210.262 93.9721 210.071 93.2706 210.053C92.5209 210.051 91.7931 210.306 91.2078 210.774C90.8753 211.08 90.5666 211.41 90.2846 211.763C89.9628 212.193 89.5014 212.499 88.9791 212.628C88.4386 212.696 87.8929 212.551 87.4572 212.224C87.0389 211.957 86.6855 211.669 86.3176 211.46C86.0013 211.274 85.6476 211.16 85.2821 211.128C84.9166 211.095 84.5485 211.145 84.2043 211.272C83.7223 211.436 83.2953 211.731 82.971 212.123C82.7474 212.404 82.6681 212.592 82.632 212.578C82.6591 212.381 82.7361 212.195 82.8556 212.037C83.1578 211.577 83.5968 211.224 84.1106 211.027C84.4906 210.864 84.903 210.791 85.3158 210.814C85.7286 210.836 86.1307 210.954 86.4907 211.157C86.8947 211.373 87.2553 211.669 87.652 211.914C88.0132 212.186 88.4647 212.31 88.9142 212.26C89.3515 212.148 89.7394 211.894 90.0177 211.539C90.3103 211.173 90.6363 210.835 90.9914 210.529C91.642 210.027 92.4495 209.771 93.2706 209.808C93.8132 209.827 94.343 209.978 94.8141 210.248C95.1459 210.45 95.2829 210.608 95.2685 210.608Z" fill="#FAFAFA"/>
<path d="M103.484 221.427C103.018 220.901 102.428 220.499 101.767 220.259C101.066 220.019 100.305 220.019 99.6033 220.259C99.1947 220.445 98.7995 220.66 98.4204 220.901C97.9766 221.205 97.442 221.347 96.9058 221.305C96.3711 221.196 95.9001 220.883 95.5931 220.432C95.2829 220.05 95.0377 219.66 94.7564 219.343C94.5162 219.066 94.2176 218.846 93.882 218.699C93.5465 218.552 93.1824 218.481 92.8162 218.492C92.3072 218.497 91.8089 218.639 91.3737 218.903C91.0708 219.098 90.9337 219.249 90.9049 219.228C90.876 219.206 90.9986 219.026 91.2943 218.78C91.846 218.366 92.5316 218.17 93.2189 218.232C93.9062 218.293 94.5464 218.607 95.0161 219.112C95.3262 219.451 95.5786 219.833 95.8744 220.201C96.1342 220.566 96.5193 220.823 96.9562 220.923C97.4112 220.947 97.8616 220.823 98.2401 220.569C98.635 220.315 99.0528 220.097 99.4879 219.92C100.268 219.653 101.118 219.676 101.882 219.985C102.394 220.172 102.85 220.484 103.21 220.894C103.426 221.189 103.498 221.384 103.484 221.427Z" fill="#FAFAFA"/>
<path d="M121.739 205.632C121.069 205.424 120.359 205.382 119.669 205.509C118.934 205.665 118.275 206.067 117.801 206.649C117.545 207.017 117.316 207.402 117.116 207.803C116.89 208.294 116.503 208.694 116.019 208.935C115.504 209.107 114.942 209.079 114.447 208.856C113.985 208.683 113.574 208.474 113.17 208.344C112.821 208.231 112.451 208.197 112.086 208.244C111.722 208.291 111.373 208.419 111.064 208.618C110.631 208.882 110.277 209.259 110.04 209.707C109.881 210.024 109.838 210.233 109.809 210.226C109.78 210.219 109.809 210.01 109.91 209.642C110.171 209.003 110.66 208.483 111.282 208.183C111.905 207.884 112.616 207.825 113.278 208.019C113.718 208.149 114.137 208.351 114.569 208.51C114.979 208.701 115.447 208.727 115.875 208.582C116.281 208.373 116.605 208.036 116.798 207.622C117.003 207.205 117.244 206.807 117.519 206.432C118.053 205.804 118.791 205.385 119.604 205.249C120.138 205.15 120.689 205.187 121.205 205.358C121.404 205.402 121.587 205.496 121.739 205.632Z" fill="#FAFAFA"/>
<path d="M113.314 217.46C112.956 217.063 112.515 216.748 112.023 216.537C111.493 216.33 110.907 216.313 110.364 216.487C110.043 216.61 109.732 216.76 109.434 216.934C109.072 217.158 108.645 217.252 108.222 217.201C107.805 217.099 107.444 216.841 107.213 216.48C106.989 216.169 106.816 215.859 106.614 215.607C106.443 215.386 106.224 215.207 105.975 215.082C105.725 214.958 105.45 214.89 105.171 214.886C104.638 214.889 104.118 215.052 103.678 215.354C103.678 215.354 103.751 215.196 103.981 215.015C104.422 214.707 104.962 214.574 105.495 214.642C106.028 214.71 106.517 214.974 106.866 215.383C107.097 215.657 107.285 215.967 107.494 216.249C107.672 216.538 107.953 216.749 108.28 216.84C108.944 216.956 109.549 216.357 110.242 216.162C110.861 215.982 111.524 216.031 112.11 216.299C113.127 216.754 113.358 217.475 113.314 217.46Z" fill="#FAFAFA"/>
<path d="M94.742 227.428C94.3794 227.032 93.9369 226.717 93.4437 226.505C92.9104 226.305 92.3247 226.295 91.7848 226.476C91.4636 226.601 91.1526 226.751 90.8544 226.923C90.488 227.156 90.0515 227.253 89.621 227.198C89.2071 227.094 88.8484 226.836 88.6184 226.476C88.3876 226.166 88.2145 225.856 88.0198 225.611C87.8475 225.392 87.6287 225.213 87.3793 225.088C87.1299 224.964 86.856 224.896 86.5773 224.889C86.0433 224.889 85.5221 225.053 85.0843 225.358C85.0843 225.358 85.1492 225.2 85.3872 225.019C85.7324 224.765 86.1488 224.627 86.5773 224.623C86.9018 224.61 87.2248 224.673 87.5213 224.805C87.8177 224.938 88.0796 225.137 88.2867 225.387C88.5175 225.661 88.6978 225.971 88.9142 226.253C89.089 226.542 89.3676 226.753 89.6931 226.844C90.3567 226.959 90.9698 226.361 91.6622 226.166C92.2787 225.986 92.9396 226.034 93.523 226.303C94.5472 226.721 94.778 227.443 94.742 227.428Z" fill="#FAFAFA"/>
<path d="M112.103 227.659C111.638 227.389 111.117 227.231 110.581 227.198C110.012 227.177 109.452 227.35 108.994 227.688C108.735 227.909 108.493 228.15 108.273 228.409C108.002 228.737 107.628 228.963 107.213 229.051C106.783 229.083 106.357 228.949 106.023 228.676C105.705 228.46 105.445 228.222 105.171 228.049C104.938 227.898 104.673 227.801 104.398 227.765C104.122 227.729 103.842 227.754 103.577 227.839C103.073 228.017 102.634 228.341 102.315 228.77C102.315 228.77 102.315 228.597 102.496 228.344C102.743 227.994 103.094 227.729 103.498 227.587C103.801 227.47 104.126 227.425 104.449 227.455C104.772 227.485 105.083 227.589 105.359 227.76C105.662 227.94 105.936 228.178 106.232 228.373C106.491 228.59 106.825 228.699 107.162 228.676C107.826 228.575 108.208 227.811 108.799 227.399C109.327 227.031 109.969 226.862 110.61 226.923C110.898 226.926 111.182 226.994 111.44 227.121C111.699 227.248 111.925 227.432 112.103 227.659Z" fill="#FAFAFA"/>
<path d="M106.369 235.579C105.9 235.318 105.381 235.161 104.847 235.117C104.276 235.097 103.714 235.27 103.253 235.607C102.995 235.83 102.754 236.071 102.532 236.329C102.262 236.657 101.888 236.883 101.471 236.971C101.043 237.001 100.618 236.87 100.281 236.603C99.9639 236.379 99.7043 236.141 99.4302 235.975C99.1976 235.822 98.9337 235.723 98.6578 235.686C98.3819 235.648 98.1012 235.673 97.8362 235.759C97.3307 235.934 96.8904 236.258 96.574 236.689C96.5901 236.534 96.6501 236.386 96.7471 236.264C97.0656 235.82 97.5399 235.514 98.075 235.405C98.61 235.297 99.1662 235.395 99.6321 235.68C99.9423 235.86 100.216 236.098 100.512 236.293C100.772 236.51 101.105 236.618 101.443 236.596C102.106 236.495 102.488 235.73 103.08 235.319C103.609 234.953 104.25 234.784 104.89 234.843C105.176 234.849 105.456 234.918 105.712 235.046C105.967 235.173 106.192 235.355 106.369 235.579Z" fill="#FAFAFA"/>
<path d="M94.2587 255.24C93.8899 254.848 93.4426 254.539 92.946 254.331C92.4093 254.142 91.8239 254.142 91.2871 254.331C90.9675 254.463 90.6588 254.62 90.3639 254.8C90.0058 255.027 89.5805 255.124 89.1594 255.074C88.7395 254.975 88.3748 254.717 88.1424 254.353C87.9116 254.05 87.7313 253.74 87.5294 253.495C87.356 253.277 87.1371 253.099 86.8879 252.974C86.6387 252.85 86.3653 252.781 86.0868 252.773C85.5519 252.781 85.0326 252.955 84.601 253.271C84.601 253.271 84.666 253.105 84.8968 252.918C85.2427 252.664 85.6581 252.523 86.0868 252.514C86.4091 252.495 86.7313 252.55 87.0289 252.675C87.3264 252.8 87.5914 252.992 87.8034 253.235C88.0343 253.509 88.2218 253.819 88.4382 254.093C88.6192 254.38 88.9031 254.586 89.2315 254.67C89.8951 254.779 90.4938 254.173 91.1862 253.949C91.8027 253.763 92.4653 253.804 93.0542 254.065C94.0496 254.533 94.2948 255.247 94.2587 255.24Z" fill="#FAFAFA"/>
<path d="M108.432 259.423C107.973 259.154 107.461 258.986 106.931 258.933C106.362 258.906 105.801 259.071 105.337 259.402C105.078 259.622 104.836 259.863 104.616 260.123C104.341 260.445 103.964 260.664 103.549 260.743C103.12 260.774 102.696 260.637 102.366 260.361C102.048 260.138 101.789 259.892 101.522 259.719C101.29 259.565 101.027 259.464 100.751 259.422C100.476 259.381 100.195 259.401 99.9278 259.481C99.4224 259.652 98.9801 259.971 98.6584 260.397C98.6584 260.397 98.6584 260.224 98.8387 259.979C99.0946 259.642 99.4467 259.39 99.8485 259.258C100.154 259.15 100.48 259.112 100.802 259.147C101.124 259.182 101.434 259.289 101.709 259.46C102.012 259.647 102.286 259.885 102.575 260.087C102.835 260.305 103.166 260.418 103.505 260.404C104.169 260.303 104.566 259.553 105.157 259.149C105.691 258.79 106.334 258.63 106.975 258.695C107.256 258.704 107.532 258.773 107.783 258.899C108.035 259.025 108.256 259.204 108.432 259.423Z" fill="#FAFAFA"/>
<path d="M61.7226 199.79C62.1554 200.302 78.0159 221.507 78.0159 221.507L75.7872 222.776L59.5083 201.86L61.7226 199.79Z" fill="#5C546A"/>
<path d="M123.614 214.936C123.614 214.936 108.742 240.591 107.746 241.06C105.763 241.991 82.9421 222.264 80.7639 220.382C80.4682 219.978 79.8479 219.134 78.6001 217.453C78.6001 217.453 76.8042 209.209 74.8784 209.844C72.9526 210.479 75.9315 214.034 74.6837 217.165C73.4359 220.295 67.7019 212.837 67.4711 212.159L66.0285 210.226C66.0285 210.226 64.4778 214.619 64.586 216.458C64.9178 222.336 70.4787 229.325 70.4787 229.325C70.4787 229.325 93.0831 257.642 110.191 258.601C115.118 258.882 124.53 244.695 130.387 234.208C133.921 227.875 132.276 221.449 126.42 217.172L123.614 214.936Z" fill="#FFBE9D"/>
<path d="M67.3773 217.46C66.4011 216.16 65.668 214.694 65.2135 213.133C65.2712 213.133 65.6967 214.107 66.2954 215.297C66.894 216.487 67.4278 217.432 67.3773 217.46Z" fill="#EB996E"/>
<path d="M122.914 207.767C122.33 208.12 108.489 233.797 108.489 233.797L126.297 247.739C129.019 240.977 131.379 234.074 133.366 227.06C134.029 224.543 133.69 217.814 132.752 215.217C131.425 211.532 129.42 212.448 126.413 210.291L122.914 207.767Z" fill="#4770FF"/>
<g opacity="0.7">
<path opacity="0.7" d="M128.764 207.767C128.764 207.767 128.591 207.666 128.259 207.5C127.776 207.254 127.235 207.142 126.694 207.175C125.84 207.256 125.03 207.593 124.371 208.142C123.49 208.847 122.717 209.678 122.078 210.608C121.294 211.772 120.572 212.976 119.914 214.215C119.193 215.52 118.37 216.92 117.534 218.391C115.853 221.326 114 224.558 112.067 227.948C110.877 230.003 109.73 232.001 108.648 233.876L108.605 233.646L120.65 243.166L124.148 245.972L125.071 246.736C125.184 246.819 125.288 246.913 125.381 247.018C125.258 246.953 125.142 246.876 125.035 246.787L124.068 246.066L120.505 243.339L108.381 233.963L108.251 233.862L108.374 233.689C109.456 231.814 110.603 229.816 111.778 227.753C113.726 224.37 115.586 221.153 117.274 218.218L119.683 214.056C120.34 212.817 121.063 211.613 121.847 210.45C122.516 209.494 123.329 208.648 124.256 207.94C124.954 207.384 125.804 207.052 126.694 206.988C127.258 206.968 127.817 207.11 128.302 207.399C128.428 207.469 128.549 207.548 128.663 207.637C128.735 207.723 128.771 207.759 128.764 207.767Z" fill="#65617D"/>
</g>
<path d="M123.448 231.842C123.092 231.443 122.651 231.127 122.157 230.919C121.626 230.714 121.042 230.693 120.498 230.862C120.176 230.988 119.865 231.14 119.568 231.316C119.205 231.537 118.778 231.63 118.356 231.583C117.939 231.481 117.577 231.223 117.346 230.862C117.123 230.551 116.95 230.241 116.748 229.989C116.576 229.768 116.358 229.589 116.108 229.464C115.859 229.34 115.584 229.272 115.305 229.268C114.772 229.271 114.252 229.434 113.812 229.736C113.812 229.736 113.884 229.578 114.115 229.39C114.467 229.145 114.883 229.009 115.312 229.001C115.636 228.988 115.958 229.051 116.253 229.183C116.548 229.316 116.809 229.515 117.015 229.765C117.245 230.039 117.433 230.349 117.642 230.631C117.822 230.918 118.102 231.128 118.428 231.222C119.092 231.338 119.698 230.739 120.39 230.544C121.008 230.362 121.671 230.408 122.258 230.674C123.261 231.128 123.52 231.85 123.448 231.842Z" fill="#FAFAFA"/>
<path d="M131.584 228.525C131.354 228.037 131.013 227.609 130.589 227.277C130.132 226.94 129.576 226.764 129.009 226.779C128.666 226.819 128.327 226.881 127.992 226.967C127.582 227.082 127.145 227.057 126.752 226.895C126.377 226.679 126.101 226.328 125.98 225.914C125.85 225.553 125.763 225.192 125.641 224.918C125.534 224.66 125.371 224.43 125.164 224.243C124.957 224.055 124.711 223.917 124.444 223.836C123.929 223.695 123.383 223.713 122.878 223.887C122.878 223.887 122.987 223.75 123.261 223.642C123.662 223.489 124.102 223.469 124.516 223.584C124.832 223.659 125.127 223.806 125.377 224.014C125.627 224.222 125.826 224.484 125.958 224.781C126.102 225.106 126.196 225.452 126.326 225.784C126.419 226.109 126.633 226.385 126.925 226.556C127.531 226.851 128.273 226.44 128.995 226.433C129.637 226.432 130.26 226.657 130.755 227.068C130.993 227.233 131.192 227.449 131.335 227.702C131.479 227.954 131.564 228.235 131.584 228.525Z" fill="#FAFAFA"/>
<path d="M132.002 217.908C131.769 217.424 131.429 217 131.007 216.667C130.552 216.327 129.995 216.151 129.427 216.169C129.084 216.202 128.743 216.265 128.41 216.357C128 216.473 127.562 216.445 127.17 216.278C126.798 216.064 126.522 215.715 126.398 215.304C126.268 214.943 126.182 214.583 126.059 214.301C125.95 214.045 125.786 213.816 125.579 213.629C125.373 213.442 125.128 213.302 124.862 213.219C124.347 213.078 123.801 213.096 123.297 213.27C123.297 213.27 123.405 213.14 123.679 213.025C124.081 212.875 124.52 212.855 124.934 212.967C125.249 213.046 125.542 213.194 125.792 213.401C126.041 213.609 126.241 213.869 126.377 214.164C126.521 214.489 126.615 214.842 126.744 215.167C126.837 215.494 127.051 215.772 127.343 215.946C127.949 216.234 128.692 215.823 129.413 215.823C130.057 215.815 130.682 216.041 131.173 216.458C131.41 216.623 131.608 216.838 131.752 217.089C131.895 217.34 131.981 217.619 132.002 217.908Z" fill="#FAFAFA"/>
<path d="M128.064 242.344C127.828 241.862 127.488 241.439 127.069 241.103C126.612 240.762 126.052 240.587 125.482 240.606C125.141 240.638 124.803 240.701 124.472 240.793C124.062 240.909 123.626 240.883 123.232 240.721C122.861 240.503 122.585 240.152 122.46 239.74C122.323 239.38 122.244 239.019 122.114 238.738C122.006 238.482 121.844 238.252 121.638 238.065C121.433 237.879 121.189 237.739 120.924 237.656C120.409 237.51 119.861 237.53 119.359 237.713C119.359 237.713 119.467 237.576 119.741 237.461C120.251 237.28 120.81 237.297 121.307 237.508C121.805 237.719 122.206 238.109 122.431 238.601C122.583 238.925 122.676 239.279 122.806 239.603C122.898 239.928 123.11 240.206 123.398 240.382C124.011 240.671 124.754 240.26 125.475 240.26C126.119 240.252 126.744 240.477 127.235 240.894C127.472 241.059 127.67 241.274 127.814 241.525C127.957 241.776 128.043 242.056 128.064 242.344Z" fill="#FAFAFA"/>
</svg>
