<svg width="159" height="271" viewBox="0 0 159 271" fill="none" xmlns="http://www.w3.org/2000/svg">
<rect width="159" height="271" rx="16.3168" fill="white"/>
<path d="M89.405 260.455C89.2672 264.014 89.1379 267.349 89.0259 270.132H106.26L104.149 259.516L89.405 260.455Z" fill="#F5F5F5"/>
<path d="M19.2103 264.893L19.3568 270.132H87.3024C87.4144 267.185 87.5436 263.928 87.6729 260.568L19.2103 264.893Z" fill="#F5F5F5"/>
<path d="M105.054 259.464L107.173 270.124H139.022L138.634 257.345L105.054 259.464Z" fill="#F5F5F5"/>
<path d="M91.1285 110.398L97.1518 75.4902L81.3826 74.3183V110.398H91.1285Z" fill="#F5F5F5"/>
<path d="M17.7886 245.513L0.675113 252.218L0.623413 264.342L18.297 263.221L17.7886 245.513Z" fill="#F5F5F5"/>
<path d="M17.711 242.79L16.7804 210.278H16.7631V198.809L0.890517 200.489L0.683716 249.443L17.7024 242.773L17.711 242.79Z" fill="#F5F5F5"/>
<path d="M16.7631 173.216L1.01974 171.131L0.907715 197.896L16.7631 196.215V173.216Z" fill="#F5F5F5"/>
<path d="M134.119 199.292L133.455 208.615L114.86 210.614L116.299 217.991L137.402 216.396L137.092 205.823L138.772 198.826L134.119 199.292Z" fill="#F5F5F5"/>
<path d="M100.599 219.171L115.429 218.051L112.197 201.506L99.2543 202.816L100.599 219.171Z" fill="#F5F5F5"/>
<path d="M100.745 220.895L101.874 234.69L103.882 253.614L104.709 257.758L138.583 255.621L137.454 218.12L100.745 220.895Z" fill="#F5F5F5"/>
<path d="M42.442 155.741L43.7432 157.973L17.6249 173.234V209.382L45.1995 207.426L98.3754 202.04L96.4279 178.352L45.6648 171.717L46.0009 169.132L96.2125 175.689L92.9208 135.594L43.2176 140.368L43.0538 138.645L92.7743 133.871L91.0509 112.949H43.2262L1.25246 120.583L1.04565 168.494L16.9269 170.648L42.442 155.741ZM20.2962 205.901C20.2962 205.901 20.4944 176.103 20.2962 174.992L41.6148 163.651L44.3809 204.384L20.2962 205.901Z" fill="#F5F5F5"/>
<path d="M132.37 199.473L113.059 201.42L114.524 208.917L131.835 207.056L132.37 199.473Z" fill="#F5F5F5"/>
<path d="M89.6463 254.07C89.586 255.638 89.5257 257.19 89.474 258.723L103.847 257.81L103.106 254.105L89.6463 254.07Z" fill="#F5F5F5"/>
<path d="M58.6851 110.398L61.2185 98.9114H80.5208V74.258L20.1755 69.7857V92.9398L1.32995 97.2052L1.24377 117.99L42.9762 110.398H58.6851Z" fill="#F5F5F5"/>
<path d="M98.9527 41.7803L98.4357 39.6691L121.478 30.5523L106.493 0.461475C106.208 0.507618 105.92 0.530673 105.631 0.530413L80.1675 0.409775L80.8569 42.5214L98.9527 41.7803Z" fill="#F5F5F5"/>
<path d="M47.2504 27.407L45.3029 0.359923H40.6411L22.416 0.306046L14.6606 24.4922L47.2504 27.407ZM43.097 3.10235L43.7174 25.128L19.4948 22.9135L24.7943 3.10235H43.097Z" fill="#F5F5F5"/>
<path d="M48.1293 27.5363V27.8982C48.1293 31.2761 48.2327 37.3769 48.2844 43.8484L80.0211 42.5558L79.3317 0.409768L60.1243 0.314978C59.3626 0.29488 57.9713 0.314978 57.314 0.314978C56.4961 0.314974 55.8126 0.335595 54.9609 0.343754C54.1832 0.351205 55.9766 0.375004 53.5898 0.343754C52.8004 0.345558 55.3528 4.9412 55.3734 4.17956L57.1808 2.341C57.2179 0.801776 56.9891 0.778428 55.4766 0.957035C53.5673 0.957033 55.2032 0.389828 53.6642 0.344723L47.2557 0.314978L48.0948 27.5363H48.1293Z" fill="#F5F5F5"/>
<path d="M13.3556 22.3574L21.9715 0.306053C16.5904 0.355293 5.84318 0.306053 1.7454 0.306053C1.74536 4.28441 1.76979 8.069 1.7454 10.8332L1.6488 21.8266L1.7454 21.5041L13.3556 22.3574Z" fill="#F5F5F5"/>
<path d="M17.5904 69.5962L1.45065 68.3984L1.33862 94.5512L17.5904 90.8717V69.5962Z" fill="#F5F5F5"/>
<path d="M11.9203 23.2019L1.64874 21.7284L1.46777 64.0812L3.68237 64.245L11.9203 23.2019Z" fill="#F5F5F5"/>
<path d="M44.5187 242.291L44.7858 208.296L17.6334 210.218L18.5985 243.523L44.5187 242.291Z" fill="#F5F5F5"/>
<path d="M49.5166 234.415L87.9659 252.838C88.4313 240.774 88.8276 229.572 88.8276 228.822L89.6893 228.779L90.1029 227.969C90.6458 228.236 90.6458 228.236 90.3615 236.448C90.1977 241.024 89.9737 247.116 89.741 253.209H103.037L101.081 234.734L98.496 202.85L48.2499 207.917L49.5166 234.415Z" fill="#F5F5F5"/>
<path d="M143.779 178.025L143.339 173.535L97.2466 178.335L99.1854 201.954L138.988 197.939L143.779 178.025Z" fill="#F5F5F5"/>
<path d="M80.5208 101.497H63.2953L61.3306 110.398H80.5208V101.497Z" fill="#F5F5F5"/>
<path d="M136.661 104.504L93.5326 101.522L91.8092 111.708L93.6274 133.819L139.108 129.442L136.661 104.504ZM95.1182 111.691L97.4361 105.262L134.895 107.632L137.057 126.021L96.3849 130.846L95.1182 111.691Z" fill="#F5F5F5"/>
<path d="M141.133 150.717L139.237 131.165L93.7307 135.534L95.4455 156.344L141.133 150.717Z" fill="#F5F5F5"/>
<path d="M18.3488 264.954L0.692444 266.065L0.623506 264.919L0.597656 270.124H18.4953L18.3488 264.954Z" fill="#F5F5F5"/>
<path d="M158.41 15.9291L158.669 16.5926L158.41 0.628546C150.748 0.62854 154.197 0.62854 149.452 0.62854C143.337 0.62854 145.496 0.653622 140.623 0.62854H107.565L123.864 29.8751L134.67 25.3303L158.41 15.9291Z" fill="#F5F5F5"/>
<path d="M87.9314 253.812L48.6807 235.001L47.2933 208.055L45.6561 208.219L45.3717 243.118L18.6157 244.385V245.16L19.1327 263.153L87.716 258.844C87.8021 257.164 87.8711 255.483 87.9314 253.812ZM20.296 246.608L57.7458 244.023L82.1062 255.32L20.296 258.663V246.608Z" fill="#F5F5F5"/>
<path d="M147.251 61.2118L148.863 51.6899C134.782 46.6662 133.809 31.9827 133.852 27.5621L124.666 31.1985L138.496 58.9713L147.251 61.2118Z" fill="#F5F5F5"/>
<path d="M97.0311 175.758L116.17 173.768L112.404 156.861L95.6523 158.929L97.0311 175.758Z" fill="#F5F5F5"/>
<path d="M136.721 75.7746H100.978L98.0134 75.5505L93.972 98.9631L136.402 101.893L135.42 91.7161L139.599 76.688L136.721 75.7746Z" fill="#F5F5F5"/>
<path d="M135.851 71.4661L136.299 60.2639L122.253 32.0602L100.469 40.6773L107.957 71.423L135.851 71.4661ZM121.4 35.5243L134.274 60.014L132.413 67.6487L110.387 66.787L104.881 43.6243L121.4 35.5243Z" fill="#F5F5F5"/>
<path d="M141.409 206.271L142.073 228.219L157.557 227.349L157.609 228.21L142.098 229.081L142.883 255.346L157.532 254.415L157.635 256.138L142.934 257.069L143.331 270.124H157.6L157.911 196.896L143.313 198.37L141.409 206.271Z" fill="#F5F5F5"/>
<path d="M47.2762 28.2773L14.4797 23.5724L6.27625 64.4346L47.4227 67.485C47.5864 61.2118 47.44 41.8923 47.2762 28.2773Z" fill="#F5F5F5"/>
<path d="M101.219 71.4661H106.182L99.1595 42.6334L80.9086 43.3831L81.348 69.9925L101.219 71.4661Z" fill="#F5F5F5"/>
<path d="M48.2585 67.5453L80.4778 69.9322L80.0469 43.4175L48.3016 44.7101C48.3964 53.6804 48.3964 63.2454 48.2585 67.5453Z" fill="#F5F5F5"/>
<path d="M141.383 153.294L113.257 156.758L117.04 173.673L143.089 170.967L141.383 153.294Z" fill="#F5F5F5"/>
<path d="M149.009 50.7851L150.81 40.1L158.566 40.7032L158.669 17.687L134.722 27.1657C134.231 43.3572 144.408 49.0531 149.009 50.7851Z" fill="#F5F5F5"/>
<path d="M139.789 92.0953L140.763 102.195L158.307 103.41L158.393 82.6166L143.71 77.9806L139.789 92.0953Z" fill="#F5F5F5"/>
<path d="M148.13 178.326L143.529 197.482L157.911 196.026L157.997 175.939C153.585 174.776 149.733 173.828 147.656 173.432L148.13 178.326Z" fill="#F5F5F5"/>
<path d="M138.428 71.7935L158.411 78.1098L158.462 66.7439L138.833 61.6685L138.428 71.7935Z" fill="#F5F5F5"/>
<path d="M147.406 170.804C149.018 171.045 152.068 171.665 158.005 173.259L158.195 129.312L143.546 130.726L147.406 170.804Z" fill="#F5F5F5"/>
<path d="M143.365 129.037L158.204 127.606L158.29 106.003L141.013 104.805L143.365 129.037Z" fill="#F5F5F5"/>
<path d="M150.664 51.328C153.245 52.1285 155.865 52.7986 158.514 53.3358V42.4266L152.198 41.9354L150.664 51.328Z" fill="#F5F5F5"/>
<path d="M148.932 61.6082L158.471 64.0727L158.514 54.2234C156.041 53.7236 153.344 53.0514 150.517 52.1897L148.932 61.6082Z" fill="#F5F5F5"/>
<path d="M113.024 226.412L132.344 224.24L131.801 232.695L114.489 234.771L113.024 226.412ZM112.163 226.508L115.394 244.955L100.564 246.204L99.2198 227.949L112.163 226.508ZM137.368 243.11L116.264 244.888L114.825 236.663L133.421 234.434L134.084 224.039L138.738 223.52L137.057 231.321L137.368 243.11ZM112.378 176.73L116.144 195.58L97.0052 197.8L95.6265 179.035L112.378 176.73ZM117.014 195.474L113.231 176.614L141.357 172.771L143.081 192.477L117.014 195.474ZM136.377 115.441L93.9461 112.165L97.9875 86.0698L100.952 86.3196H136.704L139.574 87.3381L135.429 104.094L136.377 115.441ZM133.791 32.4964C133.748 37.4541 134.722 53.8259 148.802 59.3984L147.251 70.0824L138.496 67.5555L124.666 36.5509L133.791 32.4964ZM122.193 37.6174L136.29 69.0639L135.842 81.5541H107.957L100.469 47.2733L122.193 37.6174ZM99.0992 49.3678L106.122 81.5157H101.219L81.348 79.8824L80.9085 50.2037L99.0992 49.3678ZM79.9865 50.2421L80.4174 79.8055L48.1982 77.1441C48.336 72.3402 48.3102 61.6851 48.1982 51.6833L79.9865 50.2421ZM14.4193 28.144L47.2158 33.3899C47.3795 48.5703 47.526 70.092 47.3623 77.1057L6.21583 73.7045L14.4193 28.144ZM97.0914 86.0314L91.0594 124.953H81.3825V84.6959L97.0914 86.0314ZM63.2349 115.037H80.4691V124.953H61.3219L63.2349 115.037ZM91.6712 126.413L93.3947 115.057L136.523 118.381L138.936 146.186L93.455 151.067L91.6712 126.413ZM139.134 148.108L141.03 169.908L95.3594 176.191L93.6359 152.979L139.134 148.108ZM97.1431 200.701L143.236 195.35L143.675 200.355L138.884 222.559L99.0819 227.036L97.1431 200.701Z" fill="white"/>
<path d="M57.7459 243.98L20.2961 246.599V258.629L82.115 255.277L57.7459 243.98Z" fill="#EBEBEB"/>
<path d="M134.894 107.632L97.436 105.262L95.118 111.691L96.3848 130.846L137.057 126.021L134.894 107.632Z" fill="#EBEBEB"/>
<path d="M43.7174 23.762L43.097 4.00809H24.803L19.4949 21.776L43.7174 23.762Z" fill="#EBEBEB"/>
<path d="M132.413 67.6487L134.274 60.014L121.4 35.5243L104.881 43.6588L110.388 66.8215L132.413 67.6487Z" fill="#EBEBEB"/>
<path d="M20.2961 174.957C20.4943 176.069 20.2961 205.866 20.2961 205.866L44.4239 204.35L41.6578 163.617L20.2961 174.957Z" fill="#EBEBEB"/>
<path d="M100.607 199.188L99.3319 180.722L140.634 175.414V178.602L135.636 195.586L100.607 199.188Z" fill="#EBEBEB"/>
<path d="M70.0596 46.0371C70.0596 47.0324 69.7645 48.0054 69.2115 48.833C68.6585 49.6605 67.8726 50.3055 66.953 50.6864C66.0335 51.0673 65.0217 51.167 64.0455 50.9728C63.0693 50.7786 62.1726 50.2993 61.4688 49.5955C60.765 48.8918 60.2857 47.9951 60.0916 47.0189C59.8974 46.0427 59.997 45.0309 60.3779 44.1113C60.7588 43.1918 61.4038 42.4058 62.2314 41.8529C63.059 41.2999 64.0319 41.0048 65.0272 41.0048C66.3619 41.0048 67.6419 41.535 68.5857 42.4787C69.5294 43.4225 70.0596 44.7025 70.0596 46.0371Z" fill="#4770FF"/>
<g opacity="0.6">
<path opacity="0.6" d="M70.0512 45.8217C70.0946 46.8164 69.842 47.8016 69.3253 48.6527C68.8087 49.5038 68.0511 50.1825 67.1486 50.603C66.2461 51.0234 65.2391 51.1667 64.2552 51.0146C63.2712 50.8626 62.3544 50.4221 61.6209 49.7489C60.8873 49.0757 60.37 48.2 60.1343 47.2326C59.8986 46.2653 59.9551 45.2498 60.2967 44.3146C60.6384 43.3794 61.2497 42.5665 62.0535 41.9789C62.8572 41.3913 63.8172 41.0552 64.812 41.0134C66.1441 40.9573 67.444 41.4322 68.4263 42.3337C69.4086 43.2352 69.993 44.4897 70.0512 45.8217Z" fill="white"/>
</g>
<path d="M65.0274 49.2082C66.8739 49.2082 68.3708 47.7113 68.3708 45.8648C68.3708 44.0183 66.8739 42.5214 65.0274 42.5214C63.1809 42.5214 61.684 44.0183 61.684 45.8648C61.684 47.7113 63.1809 49.2082 65.0274 49.2082Z" fill="#4770FF"/>
<path d="M142.779 246.944C142.772 247.367 142.641 247.779 142.401 248.128C142.162 248.478 141.824 248.748 141.432 248.907C141.039 249.065 140.608 249.105 140.193 249.02C139.778 248.935 139.398 248.73 139.099 248.43C138.8 248.13 138.596 247.748 138.513 247.333C138.43 246.918 138.471 246.487 138.631 246.095C138.791 245.703 139.063 245.367 139.413 245.128C139.763 244.89 140.176 244.76 140.599 244.755C140.887 244.752 141.173 244.806 141.439 244.915C141.706 245.024 141.948 245.185 142.151 245.389C142.355 245.593 142.515 245.836 142.623 246.103C142.731 246.37 142.784 246.656 142.779 246.944Z" fill="#4770FF"/>
<path d="M139.341 246.246L138.815 234.182L102.52 235.949C101.569 235.993 100.622 235.791 99.7713 235.363L48.2844 209.356C47.6984 209.059 47.2012 208.613 46.8426 208.062C46.4841 207.511 46.277 206.876 46.2421 206.22L39.2278 70.2941C39.2109 69.9722 39.2629 69.6503 39.3803 69.35C39.4978 69.0498 39.6779 68.778 39.9087 68.5529C40.1395 68.3278 40.4157 68.1545 40.7188 68.0446C41.022 67.9348 41.345 67.8909 41.6665 67.9158L63.7348 69.5445V45.4167H66.3199V69.8719C66.326 70.1843 66.268 70.4945 66.1495 70.7836C66.0309 71.0726 65.8543 71.3342 65.6305 71.5522C65.3984 71.7627 65.1259 71.9239 64.8297 72.0261C64.5335 72.1283 64.2197 72.1693 63.9071 72.1468L41.8561 70.5182L48.8445 206.09C48.8571 206.291 48.9218 206.484 49.0321 206.652C49.1424 206.82 49.2946 206.956 49.4735 207.047L100.96 233.07C101.411 233.298 101.913 233.405 102.417 233.381L139.022 231.597C139.628 231.571 140.219 231.784 140.668 232.192C140.893 232.394 141.075 232.639 141.204 232.913C141.333 233.187 141.405 233.483 141.418 233.786L141.943 246.134L139.341 246.246Z" fill="#4770FF"/>
<path d="M43.4503 135.844C47.0481 135.844 49.9648 132.928 49.9648 129.33C49.9648 125.732 47.0481 122.815 43.4503 122.815C39.8524 122.815 36.9358 125.732 36.9358 129.33C36.9358 132.928 39.8524 135.844 43.4503 135.844Z" fill="#4770FF"/>
<path d="M43.4502 133.854C45.9487 133.854 47.9742 131.828 47.9742 129.33C47.9742 126.831 45.9487 124.806 43.4502 124.806C40.9517 124.806 38.9263 126.831 38.9263 129.33C38.9263 131.828 40.9517 133.854 43.4502 133.854Z" fill="#FAFAFA"/>
<path d="M43.4502 134.181C42.4903 134.183 41.5515 133.9 40.7526 133.368C39.9537 132.836 39.3305 132.078 38.962 131.192C38.5935 130.306 38.4962 129.33 38.6824 128.388C38.8686 127.447 39.33 126.582 40.0081 125.902C40.6863 125.223 41.5507 124.76 42.492 124.572C43.4333 124.384 44.4092 124.48 45.2962 124.847C46.1832 125.214 46.9414 125.835 47.4748 126.633C48.0083 127.431 48.293 128.37 48.293 129.33C48.2908 130.614 47.7801 131.845 46.8726 132.755C45.9652 133.664 44.7347 134.176 43.4502 134.181ZM43.4502 125.125C42.6182 125.123 41.8043 125.368 41.1116 125.829C40.419 126.29 39.8787 126.946 39.5591 127.714C39.2395 128.483 39.155 129.328 39.3162 130.145C39.4775 130.961 39.8773 131.711 40.4651 132.3C41.0528 132.889 41.8021 133.29 42.6181 133.453C43.434 133.616 44.28 133.534 45.0489 133.215C45.8177 132.897 46.475 132.359 46.9374 131.667C47.3999 130.975 47.6467 130.162 47.6468 129.33C47.6445 128.217 47.2019 127.15 46.4156 126.362C45.6294 125.574 44.5633 125.129 43.4502 125.125Z" fill="#4770FF"/>
<path d="M71.5762 29.1391C71.584 28.1442 71.3613 27.161 70.9256 26.2665C70.4899 25.3721 69.8531 24.5906 69.065 23.9833C68.2769 23.3761 67.3589 22.9595 66.383 22.7662C65.407 22.5729 64.3995 22.6082 63.4395 22.8693C62.4794 23.1304 61.5928 23.6102 60.8491 24.2711C60.1055 24.932 59.5249 25.7561 59.1529 26.6789C58.7808 27.6016 58.6275 28.598 58.7048 29.5899C58.7821 30.5818 59.088 31.5423 59.5985 32.3963C59.8484 32.8099 60.1586 33.1115 60.4602 33.551L64.2087 38.5058C64.317 38.6503 64.4575 38.7675 64.619 38.8483C64.7806 38.9291 64.9587 38.9711 65.1393 38.9711C65.3199 38.9711 65.498 38.9291 65.6595 38.8483C65.8211 38.7675 65.9616 38.6503 66.0699 38.5058L69.7494 33.6285C70.0857 33.233 70.3993 32.8187 70.6887 32.3877C71.268 31.4029 71.5743 30.2816 71.5762 29.1391ZM65.1307 31.9137C64.5679 31.9155 64.0173 31.7501 63.5485 31.4387C63.0797 31.1273 62.7139 30.6838 62.4974 30.1643C62.2808 29.6449 62.2233 29.0728 62.332 28.5207C62.4408 27.9685 62.7109 27.461 63.1083 27.0624C63.5056 26.6639 64.0123 26.3922 64.5641 26.2818C65.116 26.1714 65.6882 26.2272 66.2083 26.4421C66.7284 26.6571 67.173 27.0216 67.4858 27.4894C67.7987 27.9572 67.9657 28.5073 67.9657 29.0701C67.9657 29.8228 67.6673 30.5448 67.1359 31.0778C66.6044 31.6109 65.8834 31.9115 65.1307 31.9137Z" fill="#4770FF"/>
</svg>
