<svg width="371" height="247" viewBox="0 0 371 247" fill="none" xmlns="http://www.w3.org/2000/svg">
<path d="M43.3296 162.189H94.759V122.522H43.3296L43.3296 162.189Z" fill="#F5F5F5"/>
<path d="M56.2129 161.908C56.282 161.908 56.3413 153.069 56.3413 142.156C56.3413 131.243 56.282 122.404 56.2129 122.404C56.1437 122.404 56.0845 131.243 56.0845 142.156C56.0845 153.069 56.124 161.908 56.2129 161.908Z" fill="#EBEBEB"/>
<path d="M47.6898 157.617H51.6304V153.157H47.6898V157.617Z" fill="#FAFAFA"/>
<path d="M79.066 122.621H73.2243V131.085H79.066V122.621Z" fill="#EBEBEB"/>
<path d="M79.066 153.607H73.2243V162.071H79.066V153.607Z" fill="#EBEBEB"/>
<path d="M114.358 162.747H29.4538V228.23H114.358V162.747Z" fill="#EBEBEB"/>
<path d="M93.085 227.771C92.9912 227.771 92.9171 213.174 92.9171 195.18C92.9171 177.186 92.9912 162.589 93.085 162.589C93.1789 162.589 93.2529 177.181 93.2529 195.18C93.2529 213.179 93.1591 227.771 93.085 227.771Z" fill="#E0E0E0"/>
<path d="M107.158 213.327H100.65V220.685H107.158V213.327Z" fill="#FAFAFA"/>
<path d="M64.9976 162.915H55.3537V176.89H64.9976V162.915Z" fill="#E0E0E0"/>
<path d="M64.9976 214.063H55.3537V228.038H64.9976V214.063Z" fill="#E0E0E0"/>
<path d="M180.69 47.4049C179.876 47.5761 179.035 47.5761 178.221 47.4049C179.035 47.2338 179.876 47.2338 180.69 47.4049Z" fill="#EBEBEB"/>
<path d="M185.628 47.4049C184.814 47.5761 183.973 47.5761 183.159 47.4049C183.973 47.2338 184.814 47.2338 185.628 47.4049Z" fill="#EBEBEB"/>
<path d="M190.566 47.4049C189.752 47.5761 188.912 47.5761 188.097 47.4049C188.912 47.2338 189.752 47.2338 190.566 47.4049Z" fill="#EBEBEB"/>
<path d="M195.504 47.4049C194.69 47.5761 193.85 47.5761 193.035 47.4049C193.85 47.2338 194.69 47.2338 195.504 47.4049Z" fill="#EBEBEB"/>
<path d="M200.442 47.4049C199.628 47.5761 198.788 47.5761 197.973 47.4049C198.788 47.2338 199.628 47.2338 200.442 47.4049Z" fill="#EBEBEB"/>
<path d="M205.38 47.4049C204.566 47.5761 203.726 47.5761 202.911 47.4049C203.726 47.2338 204.566 47.2338 205.38 47.4049Z" fill="#EBEBEB"/>
<path d="M210.318 47.4049C209.504 47.5761 208.664 47.5761 207.849 47.4049C208.664 47.2338 209.504 47.2338 210.318 47.4049Z" fill="#EBEBEB"/>
<path d="M215.256 47.4049C214.442 47.5761 213.602 47.5761 212.787 47.4049C213.602 47.2338 214.442 47.2338 215.256 47.4049Z" fill="#EBEBEB"/>
<path d="M220.195 47.4049C219.38 47.5761 218.54 47.5761 217.725 47.4049C218.54 47.2338 219.38 47.2338 220.195 47.4049Z" fill="#EBEBEB"/>
<path d="M225.133 47.4049C224.318 47.5761 223.478 47.5761 222.664 47.4049C223.478 47.2338 224.318 47.2338 225.133 47.4049Z" fill="#EBEBEB"/>
<path d="M230.071 47.4049C229.256 47.5761 228.416 47.5761 227.602 47.4049C228.416 47.2338 229.256 47.2338 230.071 47.4049Z" fill="#EBEBEB"/>
<path d="M235.009 47.4049C234.194 47.5761 233.354 47.5761 232.54 47.4049C233.354 47.2338 234.194 47.2338 235.009 47.4049Z" fill="#EBEBEB"/>
<path d="M239.947 47.4049C239.132 47.5761 238.292 47.5761 237.478 47.4049C238.292 47.2338 239.132 47.2338 239.947 47.4049Z" fill="#EBEBEB"/>
<path d="M244.885 47.4049C244.07 47.5761 243.23 47.5761 242.416 47.4049C243.23 47.2338 244.07 47.2338 244.885 47.4049Z" fill="#EBEBEB"/>
<path d="M249.823 47.4049C249.008 47.5761 248.168 47.5761 247.354 47.4049C248.168 47.2338 249.008 47.2338 249.823 47.4049Z" fill="#EBEBEB"/>
<path d="M254.761 47.4049C253.947 47.5761 253.106 47.5761 252.292 47.4049C253.106 47.2338 253.947 47.2338 254.761 47.4049Z" fill="#EBEBEB"/>
<path d="M259.699 47.4049C258.885 47.5761 258.044 47.5761 257.23 47.4049C258.044 47.2338 258.885 47.2338 259.699 47.4049Z" fill="#EBEBEB"/>
<path d="M264.637 47.4049C263.823 47.5761 262.982 47.5761 262.168 47.4049C262.982 47.2338 263.823 47.2338 264.637 47.4049Z" fill="#EBEBEB"/>
<path d="M269.575 47.4049C268.761 47.5761 267.92 47.5761 267.106 47.4049C267.92 47.2338 268.761 47.2338 269.575 47.4049Z" fill="#EBEBEB"/>
<path d="M274.513 47.4049C273.699 47.5761 272.858 47.5761 272.044 47.4049C272.858 47.2338 273.699 47.2338 274.513 47.4049Z" fill="#EBEBEB"/>
<path d="M279.451 47.4049C278.637 47.5761 277.796 47.5761 276.982 47.4049C277.796 47.2338 278.637 47.2338 279.451 47.4049Z" fill="#EBEBEB"/>
<path d="M284.389 47.4049C283.575 47.5761 282.734 47.5761 281.92 47.4049C282.734 47.2338 283.575 47.2338 284.389 47.4049Z" fill="#EBEBEB"/>
<path d="M289.327 47.4049C288.513 47.5761 287.672 47.5761 286.858 47.4049C287.672 47.2338 288.513 47.2338 289.327 47.4049Z" fill="#EBEBEB"/>
<path d="M290.591 51.064C290.465 50.6654 290.421 50.2455 290.462 49.8295C290.422 49.4136 290.466 48.9937 290.591 48.595C290.719 48.9932 290.762 49.4136 290.719 49.8295C290.763 50.2455 290.719 50.666 290.591 51.064Z" fill="#EBEBEB"/>
<path d="M290.591 56.002C290.465 55.6034 290.421 55.1835 290.462 54.7675C290.422 54.3516 290.466 53.9317 290.591 53.533C290.719 53.9312 290.762 54.3516 290.719 54.7675C290.763 55.1835 290.719 55.604 290.591 56.002Z" fill="#EBEBEB"/>
<path d="M290.591 60.94C290.465 60.5414 290.421 60.1215 290.462 59.7055C290.422 59.2896 290.466 58.8698 290.591 58.471C290.719 58.8692 290.762 59.2896 290.719 59.7055C290.763 60.1215 290.719 60.542 290.591 60.94Z" fill="#EBEBEB"/>
<path d="M290.591 65.8781C290.42 65.064 290.42 64.2232 290.591 63.4091C290.762 64.2232 290.762 65.064 290.591 65.8781Z" fill="#EBEBEB"/>
<path d="M290.591 70.8161C290.42 70.002 290.42 69.1612 290.591 68.3471C290.762 69.1612 290.762 70.002 290.591 70.8161Z" fill="#EBEBEB"/>
<path d="M291.554 74.7912C291.554 74.8554 291.144 74.9048 290.591 74.9196H290.467V74.7912C290.467 74.7023 290.467 74.6134 290.467 74.5196C290.427 74.1037 290.471 73.6838 290.596 73.2851C290.724 73.6833 290.767 74.1036 290.724 74.5196V74.7912L290.596 74.6677C290.92 74.6404 291.247 74.6824 291.554 74.7912Z" fill="#EBEBEB"/>
<path d="M296.492 74.7912C295.678 74.9624 294.837 74.9624 294.023 74.7912C294.837 74.62 295.678 74.62 296.492 74.7912Z" fill="#EBEBEB"/>
<path d="M301.43 74.7912C300.616 74.9624 299.775 74.9624 298.961 74.7912C299.775 74.62 300.616 74.62 301.43 74.7912Z" fill="#EBEBEB"/>
<path d="M306.368 74.7912C305.554 74.9624 304.713 74.9624 303.899 74.7912C304.713 74.62 305.554 74.62 306.368 74.7912Z" fill="#EBEBEB"/>
<path d="M311.306 74.7912C310.492 74.9624 309.651 74.9624 308.837 74.7912C309.651 74.62 310.492 74.62 311.306 74.7912Z" fill="#EBEBEB"/>
<path d="M316.244 74.7912C315.43 74.9624 314.589 74.9624 313.775 74.7912C314.589 74.62 315.43 74.62 316.244 74.7912Z" fill="#EBEBEB"/>
<path d="M321.182 74.7912C320.368 74.9624 319.527 74.9624 318.713 74.7912C319.527 74.62 320.368 74.62 321.182 74.7912Z" fill="#EBEBEB"/>
<path d="M326.12 74.7912C325.306 74.9624 324.465 74.9624 323.651 74.7912C324.465 74.62 325.306 74.62 326.12 74.7912Z" fill="#EBEBEB"/>
<path d="M331.058 74.7912C330.244 74.9624 329.403 74.9624 328.589 74.7912C329.403 74.62 330.244 74.62 331.058 74.7912Z" fill="#EBEBEB"/>
<path d="M332.979 77.8132C332.808 76.9991 332.808 76.1583 332.979 75.3442C333.15 76.1583 333.15 76.9991 332.979 77.8132Z" fill="#EBEBEB"/>
<path d="M332.979 82.7513C332.808 81.9372 332.808 81.0964 332.979 80.2823C333.15 81.0964 333.15 81.9372 332.979 82.7513Z" fill="#EBEBEB"/>
<path d="M332.979 87.6893C332.808 86.8752 332.808 86.0344 332.979 85.2203C333.15 86.0344 333.15 86.8752 332.979 87.6893Z" fill="#EBEBEB"/>
<path d="M332.979 92.6273C332.808 91.8132 332.808 90.9724 332.979 90.1583C333.15 90.9724 333.15 91.8132 332.979 92.6273Z" fill="#EBEBEB"/>
<path d="M332.979 97.5653C332.808 96.7512 332.808 95.9104 332.979 95.0963C333.15 95.9104 333.15 96.7512 332.979 97.5653Z" fill="#EBEBEB"/>
<path d="M332.979 102.503C332.808 101.689 332.808 100.848 332.979 100.034C333.15 100.848 333.15 101.689 332.979 102.503Z" fill="#EBEBEB"/>
<path d="M332.979 107.441C332.808 106.627 332.808 105.786 332.979 104.972C333.15 105.786 333.15 106.627 332.979 107.441Z" fill="#EBEBEB"/>
<path d="M332.979 112.379C332.808 111.565 332.808 110.724 332.979 109.91C333.15 110.724 333.15 111.565 332.979 112.379Z" fill="#EBEBEB"/>
<path d="M332.979 117.317C332.808 116.503 332.808 115.662 332.979 114.848C333.15 115.662 333.15 116.503 332.979 117.317Z" fill="#EBEBEB"/>
<path d="M332.979 122.255C332.808 121.441 332.808 120.6 332.979 119.786C333.15 120.6 333.15 121.441 332.979 122.255Z" fill="#EBEBEB"/>
<path d="M332.979 127.193C332.808 126.379 332.808 125.538 332.979 124.724C333.15 125.538 333.15 126.379 332.979 127.193Z" fill="#EBEBEB"/>
<path d="M206.6 55.7996C206.6 55.7996 202.768 53.6762 199.01 62.7424C195.253 71.8086 193.969 76.9639 193.969 76.9639C193.969 76.9639 192.937 78.8848 191.589 77.7886C190.24 76.6923 188.255 73.4431 186.157 74.2184C183.994 75.0282 183.461 77.5515 184.182 81.1316C184.902 84.7117 186.157 92.652 186.26 93.368C186.364 94.084 186.043 95.1506 185.006 94.5482C183.969 93.9457 177.807 88.0893 175.199 91.1755C172.592 94.2618 176.187 103.955 176.582 105.002C176.977 106.049 176.779 106.548 176.286 106.859C175.792 107.17 173.901 105.002 172.083 103.402C170.266 101.802 167.871 100.276 166.513 102.182C165.155 104.088 165.264 111.565 173.293 123.085L177.357 128.181L183.851 127.307C197.623 124.591 202.887 119.288 203.237 116.972C203.588 114.656 200.808 114.157 198.388 114.068C195.969 113.979 193.109 114.201 192.956 113.634C192.803 113.066 193.026 112.597 194.033 112.088C195.04 111.579 204.368 107.12 204.64 103.086C204.911 99.0516 196.403 98.9924 195.258 98.7011C194.112 98.4097 194.606 97.4122 195.174 96.9826C195.741 96.553 202.166 91.7138 205.168 89.62C208.17 87.5263 209.543 85.3388 208.546 83.2549C207.588 81.2501 203.904 82.2081 202.171 82.0599C200.437 81.9118 201.03 79.8181 201.03 79.8181C201.03 79.8181 203.687 75.2109 207.277 66.0805C210.867 56.9501 206.526 55.8094 206.526 55.8094" fill="#EBEBEB"/>
<path d="M177.599 126.907C180.261 120.211 184.019 110.992 188.206 100.819C192.393 90.6471 196.166 81.4427 198.867 74.7615C200.21 71.4284 201.297 68.7273 202.057 66.8607L202.926 64.7127C203.025 64.4757 203.099 64.288 203.158 64.1547C203.183 64.0908 203.211 64.0281 203.242 63.967C203.242 63.967 203.242 64.0362 203.178 64.1646C203.114 64.293 203.06 64.4855 202.966 64.7275C202.773 65.2213 202.497 65.962 202.136 66.8953C201.41 68.7767 200.344 71.4876 199.01 74.8356C196.349 81.5316 192.591 90.7508 188.409 100.918C184.226 111.086 180.448 120.3 177.747 126.981" fill="#E0E0E0"/>
<path d="M188.764 78.8996C188.847 79.0331 188.915 79.1755 188.966 79.3243C189.085 79.6057 189.243 80.0156 189.431 80.5193C189.811 81.5365 190.295 82.9537 190.799 84.524C191.302 86.0943 191.732 87.4868 192.077 88.5584L192.468 89.7781C192.528 89.9236 192.569 90.0763 192.591 90.2324C192.508 90.0989 192.44 89.9564 192.389 89.8077C192.27 89.5262 192.112 89.1164 191.929 88.6078C191.559 87.5905 191.095 86.1684 190.586 84.5931L189.283 80.5736C189.129 80.0798 188.996 79.6897 188.887 79.3539C188.827 79.2084 188.786 79.0557 188.764 78.8996Z" fill="#E0E0E0"/>
<path d="M193.198 90.3015C193.198 90.2422 196.053 89.1114 199.618 87.7782C203.183 86.4449 206.096 85.403 206.116 85.4622C206.136 85.5215 203.267 86.6523 199.697 87.9855C196.127 89.3188 193.218 90.3657 193.198 90.3015Z" fill="#E0E0E0"/>
<path d="M186.068 105.629C186.229 105.587 186.395 105.565 186.562 105.565L187.865 105.461C188.966 105.377 190.487 105.254 192.161 105.056C193.835 104.859 195.341 104.637 196.433 104.464L197.727 104.261C197.888 104.222 198.054 104.207 198.22 104.217C198.071 104.277 197.915 104.322 197.756 104.35C197.455 104.419 197.015 104.513 196.472 104.622C195.391 104.829 193.88 105.081 192.201 105.278C190.522 105.476 188.996 105.575 187.89 105.619C187.337 105.619 186.902 105.654 186.581 105.649C186.41 105.662 186.238 105.655 186.068 105.629Z" fill="#E0E0E0"/>
<path d="M179.792 96.1975C179.901 96.299 179.997 96.4134 180.078 96.5382C180.246 96.7654 180.493 97.1011 180.789 97.5258C181.382 98.3554 182.192 99.501 183.07 100.8C183.949 102.098 184.735 103.269 185.298 104.113C185.579 104.538 185.791 104.888 185.949 105.13C186.038 105.251 186.111 105.382 186.167 105.52C186.167 105.52 186.053 105.407 185.88 105.18C185.707 104.953 185.465 104.617 185.164 104.192C184.572 103.358 183.767 102.217 182.883 100.918C181.999 99.6195 181.219 98.4492 180.656 97.6048C180.379 97.1801 180.162 96.8295 180.004 96.5876C179.915 96.4681 179.844 96.3368 179.792 96.1975Z" fill="#E0E0E0"/>
<path d="M171.777 108.928C171.912 109.061 172.033 109.208 172.138 109.367C172.38 109.703 172.691 110.118 173.056 110.621C173.822 111.683 174.868 113.155 176.019 114.794C177.17 116.433 178.192 117.92 178.923 119.006C179.268 119.5 179.555 119.954 179.782 120.295C179.892 120.451 179.99 120.616 180.073 120.789C179.936 120.657 179.815 120.509 179.713 120.349L178.794 119.1C178.029 118.038 176.982 116.562 175.831 114.927C174.681 113.293 173.664 111.802 172.933 110.715L172.074 109.426C171.956 109.272 171.856 109.105 171.777 108.928Z" fill="#E0E0E0"/>
<path d="M179.945 120.448C180.142 120.397 180.344 120.364 180.547 120.349L182.196 120.162C183.589 120.004 185.51 119.781 187.628 119.475C189.747 119.169 191.653 118.843 193.03 118.601L194.665 118.315C194.865 118.27 195.068 118.243 195.272 118.236C195.082 118.309 194.885 118.363 194.685 118.399C194.3 118.493 193.746 118.616 193.06 118.754C191.687 119.041 189.776 119.391 187.658 119.693C185.54 119.994 183.609 120.186 182.226 120.32C181.53 120.379 180.962 120.418 180.572 120.438C180.364 120.461 180.154 120.464 179.945 120.448Z" fill="#E0E0E0"/>
<path d="M350.331 139.277C350.336 136.608 349.725 133.974 348.546 131.58C347.367 129.185 345.652 127.095 343.533 125.472C341.415 123.849 338.951 122.736 336.332 122.22C333.714 121.704 331.011 121.8 328.436 122.498C325.86 123.197 323.48 124.481 321.481 126.249C319.482 128.017 317.918 130.223 316.911 132.694C315.903 135.166 315.479 137.836 315.672 140.498C315.865 143.16 316.669 145.741 318.022 148.042L318.071 148.106C318.733 149.227 319.552 150.027 320.412 151.207L330.485 164.54C330.776 164.927 331.154 165.241 331.587 165.458C332.021 165.675 332.499 165.787 332.984 165.787C333.468 165.787 333.946 165.675 334.38 165.458C334.814 165.241 335.191 164.927 335.482 164.54L345.393 151.419C346.294 150.353 347.135 149.237 347.911 148.076L347.946 148.032C349.507 145.378 350.33 142.355 350.331 139.277ZM332.979 146.832C331.468 146.833 329.99 146.386 328.733 145.547C327.476 144.708 326.497 143.515 325.918 142.12C325.339 140.724 325.187 139.188 325.481 137.705C325.775 136.223 326.502 134.862 327.57 133.793C328.639 132.724 330 131.996 331.482 131.701C332.964 131.406 334.5 131.557 335.896 132.135C337.292 132.713 338.486 133.692 339.325 134.948C340.165 136.205 340.613 137.682 340.613 139.193C340.613 141.218 339.809 143.16 338.377 144.593C336.946 146.025 335.004 146.831 332.979 146.832Z" fill="#F5F5F5"/>
<path d="M268.409 62.1301V82.534C268.409 82.7448 268.493 82.9471 268.642 83.0962C268.791 83.2453 268.993 83.329 269.204 83.329H311.987C312.093 83.3297 312.197 83.3093 312.295 83.2689C312.392 83.2286 312.48 83.1692 312.554 83.0942C312.629 83.0192 312.687 82.9301 312.726 82.8322C312.765 82.7343 312.784 82.6295 312.782 82.5241L312.688 75.0578C312.689 74.8808 312.633 74.7081 312.53 74.564L306.393 66.362C306.319 66.2641 306.223 66.1847 306.114 66.1299C306.004 66.0751 305.883 66.0463 305.76 66.046L298.689 65.9916C298.48 65.9891 298.279 65.9043 298.132 65.7556C297.984 65.607 297.9 65.4062 297.899 65.1966V62.1104C297.899 61.8995 297.815 61.6973 297.666 61.5482C297.517 61.3991 297.315 61.3153 297.104 61.3153H269.204C269.098 61.3153 268.993 61.3365 268.895 61.3777C268.798 61.4189 268.709 61.4792 268.635 61.5551C268.561 61.6311 268.503 61.7211 268.464 61.8198C268.425 61.9185 268.407 62.0241 268.409 62.1301Z" fill="#F5F5F5"/>
<path d="M299.889 67.7891V74.3369C299.889 74.3974 299.901 74.4573 299.925 74.513C299.948 74.5688 299.982 74.6193 300.026 74.6617C300.069 74.704 300.12 74.7372 300.176 74.7595C300.233 74.7817 300.293 74.7925 300.353 74.7912L309.8 74.6233C309.882 74.6225 309.963 74.5993 310.033 74.5563C310.103 74.5132 310.16 74.4519 310.198 74.3789C310.236 74.3058 310.254 74.2238 310.249 74.1416C310.244 74.0594 310.217 73.9801 310.17 73.9122L305.726 67.399C305.684 67.3354 305.627 67.2834 305.559 67.248C305.492 67.2126 305.417 67.1949 305.341 67.1965L300.309 67.3348C300.194 67.3435 300.088 67.3952 300.01 67.4795C299.932 67.5637 299.889 67.6743 299.889 67.7891Z" fill="#EBEBEB"/>
<path d="M313.637 83.9512H267.55V85.3734H313.637V83.9512Z" fill="#F5F5F5"/>
<path d="M281.452 87.7174C283.232 85.9375 283.232 83.0517 281.452 81.2717C279.672 79.4918 276.786 79.4918 275.006 81.2718C273.226 83.0517 273.226 85.9375 275.006 87.7174C276.786 89.4974 279.672 89.4974 281.452 87.7174Z" fill="#EBEBEB"/>
<path d="M280.912 84.4944C280.912 85.0247 280.755 85.5431 280.46 85.9841C280.166 86.425 279.747 86.7687 279.257 86.9716C278.767 87.1746 278.228 87.2277 277.708 87.1242C277.188 87.0207 276.71 86.7654 276.335 86.3904C275.96 86.0154 275.705 85.5376 275.601 85.0175C275.498 84.4974 275.551 83.9582 275.754 83.4683C275.957 82.9783 276.3 82.5596 276.741 82.2649C277.182 81.9703 277.701 81.813 278.231 81.813C278.942 81.8143 279.623 82.0973 280.126 82.5998C280.628 83.1024 280.911 83.7836 280.912 84.4944Z" fill="#FAFAFA"/>
<path d="M297.865 83.329C297.751 83.329 297.657 78.391 297.657 72.332C297.657 66.2731 297.751 61.3351 297.865 61.3351C297.978 61.3351 298.072 66.2731 298.072 72.332C298.072 78.391 297.978 83.329 297.865 83.329Z" fill="#EBEBEB"/>
<path d="M306.297 87.7152C308.077 85.9353 308.077 83.0494 306.297 81.2695C304.517 79.4896 301.631 79.4896 299.851 81.2695C298.071 83.0494 298.071 85.9353 299.851 87.7152C301.631 89.4951 304.517 89.4951 306.297 87.7152Z" fill="#EBEBEB"/>
<path d="M305.756 84.4944C305.756 85.0261 305.6 85.5461 305.305 85.9886C305.01 86.4312 304.591 86.7762 304.099 86.9802C303.608 87.1841 303.068 87.2377 302.546 87.1342C302.025 87.0307 301.546 86.7748 301.17 86.3988C300.794 86.0228 300.538 85.5437 300.434 85.0222C300.331 84.5006 300.384 83.9601 300.588 83.469C300.792 82.978 301.137 82.5585 301.58 82.2637C302.022 81.9689 302.542 81.812 303.074 81.813C303.785 81.8143 304.466 82.0972 304.969 82.5998C305.471 83.1024 305.754 83.7836 305.756 84.4944Z" fill="#FAFAFA"/>
<path d="M303.084 76.0849C303.084 76.1985 302.432 76.2923 301.603 76.2923C300.773 76.2923 300.146 76.1985 300.146 76.0849C300.146 75.9714 300.798 75.8775 301.603 75.8775C302.407 75.8775 303.084 75.9664 303.084 76.0849Z" fill="#EBEBEB"/>
<path d="M358.893 228.23C358.893 228.304 281.5 228.359 186.063 228.359C90.6259 228.359 13.2028 228.304 13.2028 228.23C13.2028 228.156 90.5815 228.102 186.063 228.102C281.544 228.102 358.893 228.161 358.893 228.23Z" fill="#65617D"/>
<path d="M82.2263 226.057C88.8828 221.44 90.4185 212.838 90.1815 205.1C90.142 203.812 90.2901 202.449 89.6877 201.313C89.0852 200.177 87.6483 199.402 86.4879 199.94C85.5299 200.39 85.1052 201.501 84.567 202.409C83.8469 203.638 82.7941 204.637 81.5301 205.293C80.7054 205.713 79.6882 205.97 78.8734 205.52C77.7624 204.903 77.6389 203.362 77.6488 202.064C77.6751 199.67 77.6982 197.277 77.7179 194.884C77.8009 193.612 77.6792 192.335 77.3575 191.101C76.9624 189.882 76.0834 188.746 74.8588 188.395C73.6342 188.045 72.1281 188.751 71.8664 190.005C71.8144 190.537 71.7996 191.071 71.8219 191.605C71.8291 191.871 71.7574 192.134 71.616 192.359C71.4746 192.585 71.2697 192.764 71.0269 192.874C70.5331 193.022 69.9998 192.657 69.6196 192.281C68.2962 190.978 67.4024 189.319 66.5679 187.64C65.7334 185.961 64.9235 184.272 63.7236 182.855C62.5237 181.438 60.8645 180.307 59.0275 180.198C57.1906 180.089 55.2253 181.215 54.7512 183.018C54.2772 184.82 55.329 186.672 56.4746 188.138C58.1644 190.318 60.1602 192.243 62.4002 193.852C62.8352 194.097 63.181 194.474 63.3878 194.928C63.6594 195.787 62.8496 196.632 62.0002 196.903C61.0423 197.219 60.025 197.116 59.0029 197.229C57.9807 197.343 56.9141 197.782 56.5338 198.711C56.0055 200.024 57.0968 201.402 58.1733 202.306C60.3314 204.121 62.7872 205.549 65.4322 206.528C66.4037 206.802 67.3172 207.25 68.1283 207.851C68.8888 208.518 69.3431 209.673 68.8789 210.577C68.4147 211.48 67.2345 211.767 66.242 211.564C65.2494 211.362 64.3705 210.838 63.4273 210.478C61.6644 209.806 59.3831 209.92 58.2473 211.441C57.901 211.965 57.6807 212.563 57.6036 213.186C57.5265 213.81 57.5947 214.443 57.8029 215.036C58.2292 216.214 58.8874 217.296 59.7386 218.216C62.5249 221.586 66.1564 224.156 70.2615 225.662C74.3502 227.099 78.1624 227.494 82.2165 226.023" fill="#4770FF"/>
<path d="M81.8017 228.235C81.535 225.169 81.3968 225.104 80.261 221.198C78.9932 216.978 77.4829 212.835 75.7378 208.789C75.2769 207.713 74.8259 206.649 74.3848 205.599C73.9354 204.552 73.4959 203.515 72.9972 202.528C72.0368 200.636 70.9719 198.8 69.8072 197.027C68.7159 195.318 67.6148 193.743 66.5728 192.271C65.5309 190.8 64.5334 189.457 63.5705 188.267C62.0657 186.382 60.4146 184.618 58.6325 182.993C58.0004 182.415 57.4968 182.005 57.1511 181.699L56.7561 181.378C56.6672 181.304 56.6178 181.27 56.6129 181.275C56.6535 181.318 56.6963 181.359 56.7412 181.398L57.1215 181.739C57.4573 182.035 57.9511 182.474 58.5732 183.062C60.3311 184.709 61.9636 186.485 63.4569 188.375C64.41 189.565 65.3976 190.918 66.4198 192.39C67.4419 193.862 68.5431 195.442 69.6344 197.145C70.7824 198.92 71.8325 200.757 72.7799 202.646C73.2737 203.634 73.7132 204.661 74.1576 205.708C74.602 206.755 75.0514 207.821 75.5106 208.898C77.2513 212.937 78.7647 217.07 80.0437 221.277C81.1844 225.169 81.3375 225.228 81.6288 228.265" fill="#65617D"/>
<path d="M72.9132 202.518C72.974 202.34 73.0154 202.156 73.0367 201.97C73.1058 201.614 73.1898 201.101 73.2836 200.459C73.4663 199.18 73.6638 197.407 73.8762 195.452C74.0885 193.496 74.3058 191.728 74.5082 190.454C74.6119 189.817 74.6959 189.304 74.765 188.948C74.8106 188.766 74.8338 188.578 74.8341 188.39C74.7638 188.564 74.7093 188.745 74.6712 188.928C74.5823 189.279 74.4687 189.793 74.3453 190.41C74.0984 191.679 73.8515 193.452 73.6391 195.407C73.4268 197.363 73.254 199.086 73.1157 200.424C73.0515 201.027 72.9923 201.535 72.9478 201.94C72.9109 202.13 72.8993 202.325 72.9132 202.518Z" fill="#65617D"/>
<path d="M56.4104 199.372C56.6277 199.422 56.8493 199.45 57.0721 199.456C57.4918 199.496 58.1091 199.545 58.8646 199.639C60.3756 199.807 62.4545 200.133 64.7359 200.553C67.0173 200.972 69.0616 201.481 70.5331 201.876C71.2689 202.069 71.8614 202.241 72.2713 202.37C72.4822 202.44 72.6985 202.493 72.9182 202.528C72.72 202.426 72.5135 202.342 72.3009 202.276C71.896 202.133 71.3133 201.935 70.5776 201.723C69.0962 201.283 67.0666 200.77 64.7803 200.325C62.8212 199.941 60.8433 199.659 58.8547 199.481C58.0943 199.412 57.477 199.382 57.0523 199.372C56.8388 199.354 56.624 199.354 56.4104 199.372Z" fill="#65617D"/>
<path d="M80.0437 220.897C80.092 220.835 80.1318 220.767 80.1623 220.695C80.2363 220.532 80.3302 220.334 80.4437 220.097C80.6906 219.579 81.0215 218.818 81.4313 217.875C82.2313 215.984 83.2633 213.342 84.3546 210.404C85.4459 207.466 86.4533 204.819 87.2137 202.918L88.1273 200.666C88.2211 200.419 88.305 200.217 88.3692 200.054C88.4334 199.891 88.4482 199.837 88.4384 199.832C88.3924 199.894 88.3543 199.962 88.3248 200.034L88.0433 200.627C87.7964 201.15 87.4606 201.911 87.0557 202.854C86.2508 204.74 85.2237 207.387 84.1324 210.32C83.0411 213.253 82.0338 215.905 81.2684 217.811C80.898 218.734 80.5869 219.495 80.3598 220.058C80.261 220.305 80.182 220.507 80.1178 220.675C80.0855 220.746 80.0607 220.821 80.0437 220.897Z" fill="#65617D"/>
<path d="M58.1239 213.747C58.1929 213.784 58.2657 213.814 58.3412 213.836L58.9782 214.053L61.3287 214.823C63.3039 215.47 66.0346 216.404 69.0468 217.431C72.059 218.458 74.7996 219.371 76.7945 219.979C77.7821 220.285 78.6018 220.522 79.1648 220.675L79.8166 220.853C79.8908 220.874 79.9669 220.889 80.0437 220.897C80.0437 220.897 79.9746 220.858 79.8265 220.803L79.1944 220.591L76.8637 219.821C74.8884 219.169 72.1577 218.241 69.1406 217.209C66.1235 216.176 63.3927 215.268 61.3978 214.66C60.4102 214.354 59.5905 214.117 59.0275 213.964L58.3757 213.791C58.2954 213.761 58.2099 213.745 58.1239 213.747Z" fill="#65617D"/>
<path d="M162.41 228.23H93.6875C85.3867 228.196 78.3796 221.114 78.4043 212.809L79.1351 39.7263C79.1429 37.7509 79.5399 35.7964 80.3033 33.9744C81.0667 32.1525 82.1817 30.4988 83.5845 29.1079C84.9873 27.717 86.6504 26.6162 88.4789 25.8684C90.3073 25.1205 92.2651 24.7402 94.2405 24.7493L163.279 25.0703C165.253 25.0787 167.207 25.476 169.027 26.2395C170.848 27.003 172.501 28.1177 173.891 29.52C175.281 30.9223 176.381 32.5846 177.128 34.4121C177.875 36.2396 178.255 38.1964 178.246 40.1708L177.515 213.253C177.507 215.229 177.111 217.183 176.347 219.005C175.584 220.827 174.469 222.481 173.066 223.872C171.663 225.262 170 226.363 168.172 227.111C166.343 227.859 164.385 228.239 162.41 228.23Z" fill="#65617D"/>
<path d="M163.185 31.6428L149.798 31.6033C149.362 31.611 148.931 31.7046 148.531 31.8788C148.131 32.053 147.769 32.3043 147.465 32.6184C147.162 32.9325 146.924 33.3033 146.764 33.7095C146.604 34.1157 146.526 34.5494 146.534 34.9858V37.4153C146.549 38.2964 146.213 39.1473 145.601 39.7814C144.989 40.4154 144.151 40.781 143.27 40.7979L117.178 40.6744C116.741 40.6629 116.311 40.5655 115.912 40.3878C115.514 40.21 115.154 39.9554 114.853 39.6386C114.553 39.3217 114.318 38.9487 114.162 38.541C114.006 38.1332 113.931 37.6987 113.943 37.2623V34.8377C113.964 33.9556 113.636 33.101 113.029 32.4607C112.422 31.8204 111.586 31.4464 110.704 31.4206H105.998L94.28 31.3663C92.8968 31.3604 91.526 31.6271 90.2459 32.151C88.9658 32.6749 87.8014 33.4459 86.8192 34.4198C85.837 35.3937 85.0563 36.5516 84.5215 37.8273C83.9868 39.1029 83.7086 40.4714 83.7028 41.8546L82.9868 210.759C82.975 213.552 84.0727 216.235 86.0386 218.219C88.0045 220.202 90.6776 221.324 93.4702 221.337L162.37 221.653C163.754 221.66 165.126 221.394 166.407 220.871C167.688 220.347 168.853 219.577 169.836 218.602C170.819 217.628 171.6 216.47 172.135 215.194C172.669 213.917 172.947 212.548 172.952 211.164L173.649 42.22C173.659 39.4312 172.564 36.7519 170.603 34.7693C168.641 32.7867 165.974 31.6624 163.185 31.6428Z" fill="#F5F5F5"/>
<path d="M133.942 189.728C133.863 191.768 133.789 193.679 133.725 195.274H143.601L142.391 189.19L133.942 189.728Z" fill="#F5F5F5"/>
<path d="M93.7171 192.272L93.801 195.274H132.737C132.801 193.585 132.876 191.718 132.95 189.793L93.7171 192.272Z" fill="#F5F5F5"/>
<path d="M142.91 189.161L144.124 195.269H162.375L162.153 187.946L142.91 189.161Z" fill="#F5F5F5"/>
<path d="M134.93 103.738L138.381 83.7339L129.345 83.0624V103.738H134.93Z" fill="#F5F5F5"/>
<path d="M92.9023 181.166L83.0954 185.008L83.0658 191.955L93.1937 191.314L92.9023 181.166Z" fill="#F5F5F5"/>
<path d="M92.8579 179.605L92.3246 160.974H92.3147V154.402L83.2189 155.365L83.1004 183.418L92.853 179.596L92.8579 179.605Z" fill="#F5F5F5"/>
<path d="M92.3147 139.736L83.293 138.541L83.2288 153.878L92.3147 152.916V139.736Z" fill="#F5F5F5"/>
<path d="M159.566 154.678L159.185 160.021L148.529 161.167L149.354 165.394L161.447 164.48L161.269 158.421L162.232 154.412L159.566 154.678Z" fill="#F5F5F5"/>
<path d="M140.357 166.07L148.855 165.428L147.003 155.947L139.586 156.698L140.357 166.07Z" fill="#F5F5F5"/>
<path d="M140.441 167.058L141.087 174.964L142.238 185.808L142.712 188.183L162.123 186.958L161.477 165.468L140.441 167.058Z" fill="#F5F5F5"/>
<path d="M107.03 129.722L107.776 131.001L92.8085 139.746V160.461L108.61 159.34L139.083 156.254L137.967 142.679L108.877 138.877L109.069 137.395L137.843 141.153L135.957 118.177L107.474 120.912L107.381 119.925L135.873 117.189L134.885 105.199H107.479L83.4263 109.575L83.3078 137.03L92.4085 138.264L107.03 129.722ZM94.3393 158.466C94.3393 158.466 94.4529 141.39 94.3393 140.753L106.556 134.255L108.141 157.597L94.3393 158.466Z" fill="#F5F5F5"/>
<path d="M158.563 154.782L147.497 155.898L148.336 160.194L158.257 159.128L158.563 154.782Z" fill="#F5F5F5"/>
<path d="M134.08 186.069C134.046 186.968 134.011 187.857 133.982 188.736L142.218 188.212L141.794 186.089L134.08 186.069Z" fill="#F5F5F5"/>
<path d="M116.338 103.738L117.79 97.1555H128.851V83.0278L94.2702 80.465V93.7334L83.4707 96.1777L83.4213 108.088L107.336 103.738H116.338Z" fill="#F5F5F5"/>
<path d="M139.414 64.4164L139.117 63.2066L152.321 57.9822L143.734 40.7386C143.571 40.7651 143.406 40.7783 143.24 40.7781L128.649 40.709L129.044 64.8411L139.414 64.4164Z" fill="#F5F5F5"/>
<path d="M159.422 55.1675V31.628L149.798 31.6033C149.362 31.611 148.931 31.7046 148.531 31.8788C148.131 32.053 147.769 32.3043 147.465 32.6184C147.162 32.9325 146.924 33.3033 146.764 33.7095C146.604 34.1157 146.526 34.5494 146.534 34.9858V37.4153C146.534 37.9578 146.406 38.4926 146.16 38.9764C145.915 39.4603 145.559 39.8796 145.122 40.2004L153.714 57.4538L159.422 55.1675Z" fill="#F5F5F5"/>
<path d="M109.785 56.1798L108.669 31.391H105.998L95.554 31.3416L91.1098 53.5083L109.785 56.1798ZM107.405 33.9044L107.761 54.091L93.8801 52.0615L96.9169 33.9044H107.405Z" fill="#F5F5F5"/>
<path d="M110.289 56.2539V56.4613C110.289 58.397 110.348 61.8931 110.378 65.6016L128.565 64.8608L128.17 40.709L117.163 40.6547C116.726 40.6432 116.296 40.5458 115.898 40.368C115.499 40.1903 115.139 39.9357 114.839 39.6188C114.538 39.3019 114.303 38.929 114.147 38.5212C113.991 38.1135 113.917 37.679 113.928 37.2425V34.818C113.95 33.9359 113.621 33.0813 113.014 32.441C112.407 31.8007 111.571 31.4267 110.689 31.4008H109.153L110.269 56.2539H110.289Z" fill="#F5F5F5"/>
<path d="M89.6383 53.2861L94.043 31.3367C91.292 31.3857 88.6695 32.5097 86.737 34.4681C84.8044 36.4265 83.7153 39.0637 83.7028 41.8151L83.6534 52.7578L83.7028 52.4368L89.6383 53.2861Z" fill="#F5F5F5"/>
<path d="M92.7888 80.3563L83.5399 79.67L83.4757 94.6568L92.7888 92.5483V80.3563Z" fill="#F5F5F5"/>
<path d="M89.5395 53.7701L83.6534 52.9257L83.5497 77.196L84.8188 77.2898L89.5395 53.7701Z" fill="#F5F5F5"/>
<path d="M108.22 179.319L108.373 159.839L92.8134 160.94L93.3665 180.025L108.22 179.319Z" fill="#F5F5F5"/>
<path d="M111.084 174.806L133.118 185.363C133.384 178.45 133.611 172.031 133.611 171.601L134.105 171.576L134.342 171.112C134.653 171.265 134.653 171.265 134.49 175.971C134.396 178.593 134.268 182.084 134.135 185.576H141.754L140.633 174.988L139.152 156.718L110.358 159.621L111.084 174.806Z" fill="#F5F5F5"/>
<path d="M165.101 142.491L164.849 139.919L138.436 142.669L139.547 156.204L162.356 153.903L165.101 142.491Z" fill="#F5F5F5"/>
<path d="M128.851 98.6369H118.98L117.854 103.738H128.851V98.6369Z" fill="#F5F5F5"/>
<path d="M161.022 100.36L136.307 98.6517L135.32 104.488L136.362 117.159L162.425 114.651L161.022 100.36ZM137.216 104.479L138.544 100.795L160.01 102.153L161.249 112.69L137.942 115.456L137.216 104.479Z" fill="#F5F5F5"/>
<path d="M163.585 126.843L162.499 115.638L136.421 118.142L137.404 130.067L163.585 126.843Z" fill="#F5F5F5"/>
<path d="M93.2233 192.306L83.1053 192.943L83.0658 192.286L83.051 195.269H93.3073L93.2233 192.306Z" fill="#F5F5F5"/>
<path d="M173.486 49.6024L173.634 49.9826L173.649 42.22C173.659 39.4278 172.561 36.7456 170.596 34.7624C168.63 32.7792 165.958 31.6572 163.165 31.6428H159.882V54.9897L173.486 49.6024Z" fill="#F5F5F5"/>
<path d="M133.098 185.921L110.605 175.142L109.81 159.7L108.872 159.794L108.709 179.793L93.3764 180.519V180.963L93.6727 191.274L132.974 188.805C133.024 187.842 133.063 186.879 133.098 185.921ZM94.3393 181.793L115.8 180.312L129.76 186.785L94.3393 188.701V181.793Z" fill="#F5F5F5"/>
<path d="M167.091 75.5516L168.015 70.0951C159.946 67.2163 159.388 58.8019 159.412 56.2687L154.149 58.3525L162.074 74.2678L167.091 75.5516Z" fill="#F5F5F5"/>
<path d="M138.312 141.193L149.28 140.052L147.122 130.364L137.522 131.549L138.312 141.193Z" fill="#F5F5F5"/>
<path d="M161.057 83.8969H140.574L138.875 83.7685L136.559 97.1851L160.874 98.864L160.311 93.0322L162.706 84.4203L161.057 83.8969Z" fill="#F5F5F5"/>
<path d="M160.558 81.4279L160.815 75.0085L152.766 58.8463L140.283 63.7843L144.574 81.4032L160.558 81.4279ZM152.277 60.8314L159.654 74.8653L158.588 79.2403L145.966 78.7465L142.811 65.4731L152.277 60.8314Z" fill="#F5F5F5"/>
<path d="M163.743 158.678L164.123 171.255L172.997 170.757L173.027 171.25L164.138 171.749L164.587 186.8L172.982 186.267L173.041 187.254L164.617 187.788L164.844 195.269H173.022L173.199 153.306L164.834 154.15L163.743 158.678Z" fill="#F5F5F5"/>
<path d="M109.8 56.6785L91.0061 53.9824L86.3051 77.3985L109.884 79.1465C109.978 75.5516 109.894 64.4806 109.8 56.6785Z" fill="#F5F5F5"/>
<path d="M140.712 81.4279H143.556L139.532 64.9053L129.073 65.3349L129.325 80.5835L140.712 81.4279Z" fill="#F5F5F5"/>
<path d="M110.363 79.1811L128.826 80.5489L128.58 65.3546L110.388 66.0953C110.442 71.2358 110.442 76.717 110.363 79.1811Z" fill="#F5F5F5"/>
<path d="M163.728 128.319L147.611 130.304L149.778 139.998L164.706 138.447L163.728 128.319Z" fill="#F5F5F5"/>
<path d="M168.098 69.5766L169.13 63.4535L173.575 63.7992L173.634 50.6097L159.911 56.0415C159.63 65.3201 165.462 68.5841 168.098 69.5766Z" fill="#F5F5F5"/>
<path d="M162.815 93.2495L163.373 99.0368L173.427 99.7331L173.476 87.8177L165.062 85.161L162.815 93.2495Z" fill="#F5F5F5"/>
<path d="M167.595 142.664L164.958 153.641L173.199 152.807L173.249 141.296C170.721 140.63 168.513 140.087 167.323 139.859L167.595 142.664Z" fill="#F5F5F5"/>
<path d="M162.035 81.6155L173.486 85.2351L173.515 78.7218L162.267 75.8134L162.035 81.6155Z" fill="#F5F5F5"/>
<path d="M167.18 138.353C168.103 138.492 169.851 138.847 173.254 139.761L173.362 114.577L164.968 115.387L167.18 138.353Z" fill="#F5F5F5"/>
<path d="M164.864 114.419L173.367 113.599L173.417 101.219L163.516 100.533L164.864 114.419Z" fill="#F5F5F5"/>
<path d="M169.047 69.8877C170.526 70.3465 172.027 70.7305 173.545 71.0383V64.7868L169.926 64.5053L169.047 69.8877Z" fill="#F5F5F5"/>
<path d="M168.054 75.7788L173.52 77.1911L173.545 71.5469C172.128 71.2605 170.582 70.8753 168.963 70.3815L168.054 75.7788Z" fill="#F5F5F5"/>
<path d="M93.2233 192.301L93.3072 195.264H93.801L93.7171 192.262L132.95 189.793C132.876 191.718 132.801 193.585 132.737 195.274H133.725C133.789 193.679 133.863 191.768 133.942 189.728L142.411 189.19L143.621 195.274H144.114L142.9 189.161L162.158 187.946L162.38 195.274H164.849L164.622 187.788L173.046 187.254L172.987 186.267L164.592 186.8L164.143 171.749L173.032 171.255L173.002 170.762L164.113 171.255L163.733 158.678L164.825 154.15L173.19 153.306V152.812L164.948 153.646L167.585 142.669L167.313 139.864C168.503 140.091 170.711 140.635 173.239 141.301V139.746C169.837 138.847 168.089 138.477 167.165 138.339L164.943 115.387L173.338 114.577V113.589L164.834 114.409L163.486 100.523L173.362 101.21V99.7282L163.309 99.0319L162.751 93.2445L164.997 85.1561L173.392 87.8127V85.2302L161.941 81.6106L162.173 75.8084L173.422 78.7169V77.1861L167.955 75.7738L168.864 70.3766C170.503 70.8704 172.029 71.2556 173.446 71.542V71.0482C171.928 70.7403 170.427 70.3563 168.948 69.8976L169.851 64.5152L173.471 64.7966V63.809L169.027 63.4634L167.995 69.5865C165.358 68.5989 159.526 65.3299 159.808 56.0465L173.53 50.6147V49.9875L173.382 49.6073L159.812 54.9799V31.6329H159.319V55.1724L153.6 57.439L145.008 40.1856C144.6 40.4795 144.128 40.6709 143.631 40.7436L152.218 57.9871L139.117 63.2066L139.414 64.4164L129.044 64.8411L128.649 40.709H128.155L128.55 64.8608L110.363 65.6015C110.334 61.8783 110.294 58.397 110.274 56.4613V56.2539L109.158 31.4008H108.664L109.78 56.1897L91.1 53.5083L95.5442 31.3416H94.2702H94.0331L89.6284 53.2911L83.7028 52.4417L83.6534 52.7627V52.9306L89.5395 53.775L84.8188 77.2948L83.5497 77.2009V79.6699L92.7986 80.3563V92.5483L83.4855 94.6568V96.1777L94.285 93.7087V80.4897L128.851 83.0525V97.1851H117.79L116.338 103.763H107.336L83.4213 108.113V109.619L107.479 105.219H134.875L135.863 117.209L107.371 119.944L107.465 120.932L135.947 118.196L137.833 141.173L109.06 137.415L108.867 138.896L137.957 142.699L139.083 156.254L108.63 159.325L92.8283 160.446V139.746L107.795 131.015L107.05 129.736L92.4085 138.264L83.2831 137.05V138.531L92.3147 139.746V152.925L83.2288 153.888V155.37L92.3246 154.407V160.979L92.8628 179.61L83.1102 183.432V185.023L92.9171 181.181L93.2085 191.328L83.0806 191.97V192.301L83.1201 192.958L93.2233 192.301ZM133.982 188.736C134.011 187.857 134.046 186.968 134.08 186.069H141.794L142.218 188.193L133.982 188.736ZM142.712 188.183L142.218 185.808L141.068 174.944L140.421 167.043L161.457 165.453L162.104 186.938L142.712 188.183ZM147.477 155.898L158.548 154.782L158.237 159.128L148.317 160.194L147.477 155.898ZM146.983 155.947L148.835 165.428L140.337 166.07L139.567 156.688L146.983 155.947ZM161.427 164.48L149.334 165.394L148.509 161.167L159.166 160.021L159.546 154.678L162.212 154.412L161.249 158.421L161.427 164.48ZM147.107 130.364L149.265 140.052L138.298 141.193L137.507 131.549L147.107 130.364ZM149.764 139.998L147.596 130.304L163.713 128.329L164.701 138.457L149.764 139.998ZM160.859 98.864L136.545 97.1801L138.86 83.7685L140.559 83.8969H161.047L162.691 84.4203L160.316 93.0322L160.859 98.864ZM159.378 56.2341C159.353 58.7821 159.911 67.1965 167.98 70.0606L167.091 75.5516L162.074 74.2529L154.149 58.318L159.378 56.2341ZM152.731 58.8661L160.81 75.0282L160.553 81.4476H144.574L140.283 63.8288L152.731 58.8661ZM139.497 64.9053L143.522 81.4279H140.712L129.325 80.5884L129.073 65.3349L139.497 64.9053ZM128.545 65.3546L128.792 80.5489L110.329 79.1811C110.408 76.7121 110.393 71.2358 110.329 66.0953L128.545 65.3546ZM90.9716 53.9972L109.766 56.6934C109.859 64.4954 109.943 75.5566 109.85 79.1613L86.2706 77.4133L90.9716 53.9972ZM138.347 83.7487L134.89 103.753H129.345V83.0624L138.347 83.7487ZM118.945 98.6566H128.821V103.753H117.849L118.945 98.6566ZM135.241 104.503L136.228 98.6665L160.943 100.375L162.326 114.666L136.263 117.174L135.241 104.503ZM162.439 115.653L163.526 126.858L137.354 130.087L136.367 118.157L162.439 115.653ZM138.377 142.684L164.79 139.933L165.042 142.506L162.296 153.918L139.488 156.219L138.377 142.684ZM140.539 175.023L141.66 185.61H134.1C134.234 182.119 134.362 178.628 134.456 176.006C134.619 171.3 134.619 171.3 134.308 171.147L134.071 171.611L133.577 171.636C133.577 172.045 133.364 178.499 133.083 185.398L111.084 174.806L110.304 159.631L139.083 156.747L140.539 175.023ZM108.314 159.853L108.161 179.334L93.3072 180.04L92.7542 160.955L108.314 159.853ZM93.3319 180.988V180.544L108.664 179.818L108.827 159.819L109.766 159.725L110.561 175.166L133.053 185.946C133.019 186.904 132.979 187.867 132.945 188.825L93.643 191.294L93.3319 180.988Z" fill="white"/>
<path d="M115.8 180.287L94.3393 181.788V188.682L129.765 186.761L115.8 180.287Z" fill="#EBEBEB"/>
<path d="M160.01 102.153L138.544 100.795L137.216 104.479L137.942 115.456L161.249 112.69L160.01 102.153Z" fill="#EBEBEB"/>
<path d="M93.4702 221.337L162.37 221.653C163.754 221.66 165.126 221.394 166.407 220.871C167.688 220.347 168.853 219.576 169.836 218.602C170.819 217.628 171.6 216.47 172.135 215.194C172.669 213.917 172.947 212.548 172.952 211.164L173.022 195.274H83.051L83.0016 207.293V211.075C83.0709 213.811 84.2025 216.412 86.1566 218.327C88.1108 220.243 90.7339 221.322 93.4702 221.337Z" fill="#EBEBEB"/>
<path d="M107.761 54.091L107.405 33.9044H96.9219L93.8801 52.0615L107.761 54.091Z" fill="#EBEBEB"/>
<path d="M158.588 79.2403L159.654 74.8653L152.277 60.8314L142.811 65.4929L145.966 78.7663L158.588 79.2403Z" fill="#EBEBEB"/>
<path d="M94.3393 140.733C94.4529 141.37 94.3393 158.446 94.3393 158.446L108.166 157.577L106.581 134.235L94.3393 140.733Z" fill="#EBEBEB"/>
<path d="M140.362 154.619L139.631 144.037L163.299 140.995V142.822L160.435 152.555L140.362 154.619Z" fill="#EBEBEB"/>
<path d="M122.856 66.8558C122.856 67.4262 122.687 67.9837 122.37 68.458C122.053 68.9322 121.603 69.3018 121.076 69.5201C120.549 69.7384 119.969 69.7955 119.41 69.6842C118.851 69.5729 118.337 69.2983 117.933 68.895C117.53 68.4916 117.255 67.9778 117.144 67.4184C117.033 66.859 117.09 66.2792 117.308 65.7522C117.527 65.2253 117.896 64.7749 118.37 64.458C118.845 64.1411 119.402 63.972 119.973 63.972C120.737 63.972 121.471 64.2758 122.012 64.8166C122.553 65.3575 122.856 66.091 122.856 66.8558Z" fill="#4770FF"/>
<g opacity="0.6">
<path opacity="0.6" d="M122.851 66.7323C122.876 67.3024 122.732 67.867 122.435 68.3547C122.139 68.8424 121.705 69.2313 121.188 69.4723C120.671 69.7132 120.094 69.7953 119.53 69.7082C118.966 69.621 118.441 69.3686 118.02 68.9828C117.6 68.597 117.304 68.0952 117.169 67.5409C117.033 66.9865 117.066 66.4046 117.262 65.8687C117.457 65.3328 117.808 64.867 118.268 64.5302C118.729 64.1935 119.279 64.0009 119.849 63.9769C120.612 63.9448 121.357 64.2169 121.92 64.7335C122.483 65.2502 122.818 65.969 122.851 66.7323Z" fill="white"/>
</g>
<path d="M119.973 68.673C121.031 68.673 121.888 67.8152 121.888 66.757C121.888 65.6989 121.031 64.8411 119.973 64.8411C118.914 64.8411 118.057 65.6989 118.057 66.757C118.057 67.8152 118.914 68.673 119.973 68.673Z" fill="#4770FF"/>
<path d="M164.528 181.986C164.524 182.228 164.449 182.464 164.312 182.664C164.174 182.865 163.981 183.02 163.756 183.111C163.531 183.201 163.284 183.224 163.046 183.175C162.809 183.127 162.591 183.009 162.419 182.837C162.248 182.665 162.131 182.446 162.084 182.208C162.036 181.971 162.059 181.724 162.151 181.499C162.243 181.274 162.399 181.082 162.599 180.945C162.8 180.809 163.036 180.734 163.279 180.731C163.444 180.729 163.608 180.76 163.761 180.823C163.913 180.885 164.052 180.978 164.169 181.095C164.285 181.211 164.377 181.351 164.439 181.504C164.5 181.657 164.531 181.821 164.528 181.986Z" fill="#4770FF"/>
<path d="M162.558 181.586L162.257 174.672L141.458 175.685C140.913 175.71 140.37 175.594 139.883 175.349L110.378 160.446C110.042 160.276 109.757 160.02 109.552 159.704C109.346 159.389 109.228 159.025 109.208 158.649L105.188 80.7563C105.178 80.5718 105.208 80.3874 105.276 80.2153C105.343 80.0432 105.446 79.8875 105.578 79.7585C105.711 79.6295 105.869 79.5302 106.043 79.4672C106.216 79.4043 106.401 79.3791 106.586 79.3934L119.232 80.3267V66.5003H120.713V80.5143C120.717 80.6933 120.684 80.8711 120.616 81.0368C120.548 81.2024 120.446 81.3523 120.318 81.4773C120.185 81.5979 120.029 81.6902 119.859 81.7488C119.69 81.8074 119.51 81.8309 119.331 81.818L106.694 80.8847L110.699 158.575C110.706 158.689 110.743 158.8 110.806 158.896C110.87 158.992 110.957 159.07 111.059 159.123L140.564 174.035C140.822 174.166 141.11 174.227 141.399 174.213L162.375 173.191C162.722 173.176 163.061 173.298 163.318 173.532C163.447 173.648 163.552 173.788 163.626 173.945C163.699 174.102 163.741 174.272 163.748 174.445L164.049 181.521L162.558 181.586Z" fill="#4770FF"/>
<path d="M107.608 118.32C109.669 118.32 111.341 116.648 111.341 114.587C111.341 112.525 109.669 110.854 107.608 110.854C105.546 110.854 103.875 112.525 103.875 114.587C103.875 116.648 105.546 118.32 107.608 118.32Z" fill="#4770FF"/>
<path d="M107.608 117.179C109.04 117.179 110.2 116.018 110.2 114.587C110.2 113.155 109.04 111.994 107.608 111.994C106.176 111.994 105.015 113.155 105.015 114.587C105.015 116.018 106.176 117.179 107.608 117.179Z" fill="#FAFAFA"/>
<path d="M107.608 117.367C107.058 117.368 106.52 117.206 106.062 116.901C105.604 116.596 105.247 116.162 105.036 115.654C104.825 115.146 104.769 114.587 104.876 114.047C104.982 113.508 105.247 113.012 105.635 112.623C106.024 112.233 106.519 111.968 107.059 111.86C107.598 111.753 108.157 111.807 108.666 112.018C109.174 112.228 109.608 112.584 109.914 113.042C110.22 113.499 110.383 114.037 110.383 114.587C110.382 115.323 110.089 116.028 109.569 116.549C109.049 117.07 108.344 117.364 107.608 117.367ZM107.608 112.177C107.131 112.176 106.665 112.316 106.268 112.581C105.871 112.845 105.561 113.221 105.378 113.661C105.195 114.101 105.146 114.586 105.239 115.054C105.331 115.522 105.56 115.951 105.897 116.289C106.234 116.626 106.663 116.856 107.131 116.95C107.598 117.043 108.083 116.996 108.524 116.813C108.964 116.631 109.341 116.322 109.606 115.926C109.871 115.53 110.013 115.063 110.013 114.587C110.011 113.949 109.758 113.337 109.307 112.886C108.856 112.434 108.246 112.18 107.608 112.177Z" fill="#4770FF"/>
<path d="M129.597 98.9282H111.82C111.405 98.9282 111.007 99.0931 110.713 99.3867C110.419 99.6802 110.255 100.078 110.255 100.494V106.913C110.255 107.328 110.419 107.726 110.713 108.02C111.007 108.313 111.405 108.478 111.82 108.478H112.027V110.014L113.81 108.478H129.612C130.027 108.478 130.425 108.313 130.718 108.02C131.012 107.726 131.177 107.328 131.177 106.913V100.494C131.177 100.287 131.136 100.082 131.056 99.8911C130.977 99.7002 130.86 99.527 130.713 99.3814C130.566 99.2359 130.392 99.1209 130.2 99.0431C130.009 98.9653 129.804 98.9262 129.597 98.9282Z" fill="#4770FF"/>
<g opacity="0.4">
<path opacity="0.4" d="M129.597 98.9282H111.82C111.405 98.9282 111.007 99.0931 110.713 99.3867C110.419 99.6802 110.255 100.078 110.255 100.494V106.913C110.255 107.328 110.419 107.726 110.713 108.02C111.007 108.313 111.405 108.478 111.82 108.478H112.027V110.014L113.81 108.478H129.612C130.027 108.478 130.425 108.313 130.718 108.02C131.012 107.726 131.177 107.328 131.177 106.913V100.494C131.177 100.287 131.136 100.082 131.056 99.8911C130.977 99.7002 130.86 99.527 130.713 99.3814C130.566 99.2359 130.392 99.1209 130.2 99.0431C130.009 98.9653 129.804 98.9262 129.597 98.9282Z" fill="white"/>
</g>
<path d="M114.254 103.609C114.246 103.397 114.302 103.187 114.414 103.007C114.526 102.827 114.69 102.684 114.884 102.597C115.077 102.51 115.293 102.483 115.502 102.519C115.711 102.555 115.905 102.653 116.058 102.8C116.212 102.947 116.318 103.136 116.363 103.344C116.408 103.551 116.39 103.768 116.311 103.965C116.232 104.162 116.096 104.332 115.921 104.451C115.745 104.571 115.538 104.635 115.326 104.637C115.187 104.643 115.048 104.622 114.918 104.573C114.788 104.524 114.669 104.45 114.569 104.354C114.469 104.257 114.389 104.142 114.335 104.014C114.281 103.886 114.253 103.748 114.254 103.609ZM116.101 103.609C116.102 103.455 116.057 103.303 115.972 103.174C115.886 103.045 115.765 102.944 115.622 102.885C115.479 102.825 115.322 102.809 115.17 102.839C115.018 102.869 114.879 102.943 114.769 103.053C114.66 103.162 114.585 103.302 114.555 103.454C114.526 103.605 114.541 103.763 114.601 103.905C114.661 104.048 114.761 104.17 114.891 104.255C115.02 104.341 115.171 104.386 115.326 104.385C115.429 104.388 115.531 104.37 115.627 104.333C115.722 104.295 115.809 104.238 115.882 104.165C115.954 104.093 116.011 104.006 116.049 103.91C116.087 103.815 116.105 103.712 116.101 103.609Z" fill="white"/>
<path d="M118.343 103.856C118.349 103.959 118.333 104.061 118.296 104.157C118.26 104.253 118.204 104.34 118.132 104.413C118.06 104.486 117.973 104.544 117.878 104.581C117.782 104.619 117.68 104.636 117.578 104.632C117.473 104.637 117.369 104.616 117.274 104.571C117.179 104.527 117.097 104.459 117.034 104.375V104.617H116.768V102.484H117.044V103.323C117.108 103.244 117.19 103.181 117.282 103.139C117.375 103.097 117.476 103.077 117.578 103.081C117.68 103.077 117.782 103.094 117.878 103.132C117.973 103.169 118.06 103.226 118.132 103.299C118.204 103.372 118.26 103.46 118.296 103.556C118.333 103.651 118.349 103.754 118.343 103.856ZM118.066 103.856C118.059 103.761 118.023 103.669 117.965 103.594C117.906 103.518 117.826 103.461 117.736 103.429C117.645 103.398 117.547 103.394 117.454 103.417C117.361 103.44 117.277 103.49 117.212 103.56C117.147 103.631 117.103 103.719 117.087 103.813C117.071 103.908 117.083 104.005 117.121 104.093C117.16 104.181 117.223 104.256 117.303 104.308C117.383 104.361 117.477 104.389 117.573 104.39C117.643 104.393 117.712 104.381 117.777 104.355C117.842 104.329 117.901 104.289 117.95 104.239C117.998 104.188 118.036 104.128 118.059 104.062C118.083 103.996 118.092 103.926 118.086 103.856H118.066Z" fill="white"/>
<path d="M118.22 105.096L118.308 104.883C118.373 104.935 118.453 104.961 118.536 104.958C118.679 104.958 118.763 104.864 118.763 104.691V103.096H119.034V104.686C119.04 104.752 119.032 104.819 119.009 104.882C118.986 104.945 118.95 105.001 118.903 105.049C118.856 105.096 118.799 105.132 118.736 105.155C118.674 105.177 118.607 105.186 118.541 105.18C118.427 105.186 118.315 105.156 118.22 105.096ZM118.713 102.627C118.713 102.603 118.718 102.579 118.727 102.558C118.737 102.536 118.75 102.516 118.767 102.499C118.784 102.483 118.804 102.47 118.827 102.461C118.849 102.452 118.872 102.448 118.896 102.449C118.92 102.448 118.944 102.451 118.966 102.459C118.988 102.467 119.009 102.48 119.026 102.496C119.044 102.512 119.058 102.531 119.068 102.553C119.078 102.575 119.083 102.598 119.084 102.622C119.084 102.646 119.08 102.671 119.071 102.694C119.062 102.717 119.048 102.737 119.03 102.754C119.012 102.772 118.991 102.785 118.968 102.794C118.945 102.802 118.921 102.806 118.896 102.805C118.872 102.806 118.847 102.802 118.824 102.794C118.802 102.785 118.781 102.771 118.764 102.754C118.746 102.737 118.733 102.716 118.724 102.693C118.716 102.671 118.712 102.646 118.713 102.622V102.627Z" fill="white"/>
<path d="M120.931 103.945H119.696C119.702 104.011 119.721 104.075 119.753 104.133C119.784 104.192 119.827 104.243 119.878 104.285C119.93 104.326 119.989 104.357 120.053 104.375C120.117 104.393 120.183 104.398 120.249 104.39C120.331 104.392 120.413 104.378 120.489 104.346C120.565 104.315 120.633 104.267 120.689 104.207L120.842 104.385C120.729 104.498 120.586 104.576 120.429 104.61C120.273 104.644 120.111 104.632 119.961 104.577C119.811 104.521 119.681 104.424 119.585 104.296C119.489 104.168 119.431 104.016 119.419 103.856C119.415 103.754 119.432 103.652 119.469 103.557C119.506 103.462 119.562 103.375 119.634 103.303C119.706 103.23 119.792 103.173 119.886 103.135C119.981 103.097 120.083 103.078 120.185 103.081C120.287 103.078 120.388 103.096 120.483 103.135C120.577 103.174 120.662 103.231 120.733 103.305C120.804 103.378 120.858 103.466 120.893 103.562C120.928 103.657 120.942 103.76 120.935 103.861C120.936 103.889 120.935 103.917 120.931 103.945ZM119.696 103.748H120.684C120.684 103.617 120.632 103.491 120.539 103.399C120.446 103.306 120.321 103.254 120.19 103.254C120.059 103.254 119.933 103.306 119.841 103.399C119.748 103.491 119.696 103.617 119.696 103.748Z" fill="white"/>
<path d="M121.177 103.856C121.175 103.751 121.195 103.647 121.235 103.55C121.275 103.453 121.335 103.365 121.41 103.293C121.486 103.22 121.576 103.163 121.674 103.127C121.773 103.091 121.878 103.075 121.982 103.081C122.105 103.073 122.227 103.099 122.336 103.155C122.445 103.212 122.536 103.297 122.6 103.402L122.392 103.54C122.347 103.472 122.285 103.415 122.213 103.377C122.141 103.338 122.06 103.318 121.977 103.318C121.844 103.331 121.72 103.393 121.63 103.492C121.54 103.591 121.491 103.72 121.491 103.854C121.491 103.988 121.54 104.117 121.63 104.216C121.72 104.315 121.844 104.377 121.977 104.39C122.059 104.391 122.14 104.371 122.212 104.333C122.285 104.295 122.346 104.24 122.392 104.172L122.6 104.306C122.536 104.411 122.445 104.497 122.336 104.554C122.227 104.612 122.105 104.639 121.982 104.632C121.878 104.637 121.773 104.621 121.675 104.584C121.577 104.548 121.487 104.491 121.412 104.419C121.336 104.346 121.277 104.258 121.236 104.162C121.196 104.065 121.176 103.961 121.177 103.856Z" fill="white"/>
<path d="M123.834 104.528C123.737 104.599 123.619 104.635 123.498 104.632C123.431 104.643 123.362 104.638 123.297 104.617C123.232 104.596 123.173 104.56 123.125 104.512C123.076 104.463 123.04 104.404 123.019 104.339C122.998 104.274 122.993 104.205 123.004 104.138V103.298H122.743V103.076H123.004V102.74H123.281V103.076H123.716V103.298H123.281V104.123C123.276 104.156 123.278 104.19 123.288 104.222C123.297 104.255 123.314 104.284 123.337 104.309C123.36 104.334 123.388 104.353 123.419 104.365C123.451 104.377 123.484 104.382 123.518 104.38C123.595 104.381 123.669 104.357 123.73 104.311L123.834 104.528Z" fill="white"/>
<path d="M124.116 102.622C124.116 102.598 124.122 102.574 124.131 102.552C124.141 102.53 124.155 102.511 124.173 102.494C124.19 102.478 124.21 102.465 124.233 102.456C124.255 102.447 124.279 102.443 124.303 102.444C124.327 102.443 124.351 102.446 124.373 102.454C124.396 102.462 124.416 102.475 124.434 102.491C124.451 102.507 124.465 102.526 124.475 102.548C124.485 102.57 124.49 102.593 124.491 102.617C124.491 102.667 124.471 102.714 124.436 102.75C124.401 102.785 124.353 102.805 124.303 102.805C124.253 102.805 124.206 102.785 124.17 102.75C124.135 102.714 124.116 102.667 124.116 102.617V102.622ZM124.165 103.116H124.441V104.637H124.165V103.116Z" fill="white"/>
<path d="M126.313 103.096L125.646 104.617H125.365L124.698 103.096H124.99L125.483 104.316L126.017 103.096H126.313Z" fill="white"/>
<path d="M127.898 103.945H126.664C126.67 104.011 126.689 104.075 126.72 104.133C126.752 104.192 126.794 104.243 126.846 104.285C126.898 104.326 126.957 104.357 127.021 104.375C127.084 104.393 127.151 104.398 127.217 104.39C127.299 104.392 127.38 104.378 127.456 104.346C127.532 104.315 127.6 104.267 127.656 104.207L127.804 104.385C127.73 104.468 127.637 104.534 127.534 104.576C127.43 104.619 127.318 104.638 127.207 104.632C127.101 104.639 126.995 104.625 126.895 104.589C126.795 104.553 126.703 104.497 126.626 104.424C126.549 104.351 126.488 104.263 126.447 104.165C126.406 104.068 126.385 103.962 126.387 103.856C126.383 103.754 126.4 103.652 126.437 103.557C126.474 103.462 126.53 103.375 126.601 103.303C126.673 103.23 126.759 103.173 126.854 103.135C126.949 103.097 127.05 103.078 127.152 103.081C127.254 103.078 127.356 103.096 127.45 103.135C127.545 103.174 127.63 103.231 127.701 103.305C127.771 103.378 127.826 103.466 127.861 103.562C127.895 103.657 127.91 103.76 127.903 103.861C127.904 103.889 127.902 103.917 127.898 103.945ZM126.664 103.748H127.651C127.651 103.617 127.599 103.491 127.507 103.399C127.414 103.306 127.288 103.254 127.157 103.254C127.026 103.254 126.901 103.306 126.808 103.399C126.716 103.491 126.664 103.617 126.664 103.748Z" fill="white"/>
<path d="M123.725 57.1723C123.73 56.6022 123.602 56.0388 123.353 55.5262C123.103 55.0137 122.738 54.5658 122.286 54.2178C121.835 53.8698 121.309 53.6311 120.749 53.5204C120.19 53.4096 119.613 53.4298 119.063 53.5795C118.512 53.7291 118.004 54.004 117.578 54.3827C117.152 54.7615 116.819 55.2337 116.606 55.7625C116.393 56.2913 116.305 56.8623 116.349 57.4307C116.394 57.9991 116.569 58.5495 116.862 59.0389C117.005 59.2759 117.183 59.4488 117.355 59.7006L119.503 62.54C119.566 62.6228 119.646 62.69 119.739 62.7362C119.831 62.7825 119.933 62.8066 120.037 62.8066C120.14 62.8066 120.242 62.7825 120.335 62.7362C120.427 62.69 120.508 62.6228 120.57 62.54L122.679 59.745C122.871 59.5184 123.051 59.281 123.217 59.034C123.549 58.4697 123.724 57.8271 123.725 57.1723ZM120.032 58.7624C119.709 58.7634 119.394 58.6686 119.125 58.4902C118.856 58.3117 118.647 58.0575 118.523 57.7599C118.399 57.4622 118.366 57.1344 118.428 56.818C118.49 56.5015 118.645 56.2107 118.873 55.9823C119.101 55.7539 119.391 55.5983 119.707 55.535C120.023 55.4717 120.351 55.5037 120.649 55.6269C120.947 55.7501 121.202 55.9589 121.381 56.227C121.561 56.4951 121.656 56.8103 121.656 57.1328C121.656 57.5642 121.485 57.9779 121.181 58.2834C120.876 58.5888 120.463 58.7611 120.032 58.7624Z" fill="#4770FF"/>
<path d="M101.603 206.794V211.584H100.492V207.683H99.5341V206.794H101.603Z" fill="#65617D"/>
<path d="M103.731 210.972C103.721 211.21 103.658 211.442 103.549 211.653L103.154 212.641H102.477L102.778 211.554C102.664 211.508 102.567 211.426 102.501 211.322C102.434 211.218 102.402 211.095 102.408 210.972C102.408 210.796 102.478 210.628 102.602 210.504C102.726 210.38 102.894 210.31 103.07 210.31C103.245 210.31 103.414 210.38 103.538 210.504C103.662 210.628 103.731 210.796 103.731 210.972Z" fill="#65617D"/>
<path d="M105.998 206.794V211.584H104.862V207.683H103.904V206.794H105.998Z" fill="#65617D"/>
<path d="M106.808 209.189C106.808 207.609 107.682 206.72 108.862 206.72C110.042 206.72 110.916 207.619 110.916 209.189C110.916 210.759 110.047 211.658 108.862 211.658C107.677 211.658 106.808 210.769 106.808 209.189ZM109.8 209.189C109.8 208.103 109.415 207.649 108.862 207.649C108.309 207.649 107.929 208.103 107.929 209.189C107.929 210.276 108.314 210.73 108.862 210.73C109.41 210.73 109.8 210.28 109.8 209.189Z" fill="#65617D"/>
<path d="M111.454 209.189C111.454 207.609 112.333 206.72 113.514 206.72C114.694 206.72 115.568 207.619 115.568 209.189C115.568 210.759 114.699 211.658 113.514 211.658C112.328 211.658 111.454 210.769 111.454 209.189ZM114.452 209.189C114.452 208.103 114.067 207.649 113.514 207.649C112.961 207.649 112.58 208.103 112.58 209.189C112.58 210.276 112.965 210.73 113.514 210.73C114.062 210.73 114.452 210.28 114.452 209.189Z" fill="#65617D"/>
<path d="M124.496 209.476V211.584H123.429V209.643C123.429 209.046 123.163 208.769 122.728 208.769C122.293 208.769 121.913 209.081 121.913 209.757V211.604H120.847V209.663C120.847 209.066 120.595 208.789 120.15 208.789C119.706 208.789 119.34 209.1 119.34 209.777V211.624H118.274V207.89H119.291V208.315C119.436 208.152 119.616 208.024 119.816 207.939C120.017 207.853 120.234 207.813 120.452 207.821C120.688 207.809 120.924 207.858 121.136 207.963C121.348 208.069 121.529 208.227 121.661 208.424C121.822 208.229 122.026 208.074 122.256 207.969C122.486 207.865 122.737 207.814 122.99 207.821C123.869 207.846 124.496 208.355 124.496 209.476Z" fill="#65617D"/>
<path d="M96.5883 207.353C97.1107 205.131 95.7328 202.906 93.5108 202.384C91.2887 201.861 89.0638 203.239 88.5414 205.461C88.019 207.683 89.3969 209.908 91.6189 210.431C93.841 210.953 96.0659 209.575 96.5883 207.353Z" fill="#4770FF"/>
<path d="M90.8975 207.17C91.249 207.119 91.6041 207.097 91.9592 207.105C92.6357 207.105 93.6035 207.071 94.759 207.061L94.6751 207.244C94.3442 206.868 93.9936 206.453 93.6183 206.024L93.5542 205.95L93.6183 205.866L94.6603 204.567L94.759 204.775H94.2652H90.8728L90.9913 204.661C90.9913 205.915 90.9617 206.972 90.9419 207.713C90.9502 208.104 90.927 208.495 90.8728 208.883C90.8217 208.495 90.7986 208.104 90.8037 207.713C90.8037 206.972 90.7691 205.915 90.7592 204.661V204.547H90.8728H94.2652H95.001L94.8331 204.755L93.7813 206.054V205.895L94.8183 207.13L94.9763 207.313H94.7343C93.5788 207.313 92.611 207.283 91.9345 207.268C91.5866 207.265 91.2397 207.232 90.8975 207.17Z" fill="#FAFAFA"/>
<path d="M159.437 199.363H146.944C146.309 199.363 145.7 199.615 145.251 200.064C144.801 200.513 144.549 201.122 144.549 201.757V211.594C144.55 212.228 144.803 212.836 145.252 213.284C145.701 213.732 146.31 213.984 146.944 213.984H147.26V216.33L149.981 213.984H159.437C160.071 213.984 160.68 213.732 161.129 213.284C161.578 212.836 161.831 212.228 161.832 211.594V201.757C161.832 201.122 161.58 200.513 161.131 200.064C160.681 199.615 160.072 199.363 159.437 199.363Z" fill="#4770FF"/>
<path d="M148.134 203.876V208.922C148.134 208.975 148.155 209.025 148.192 209.062C148.229 209.099 148.279 209.12 148.332 209.12H158.909C158.935 209.119 158.96 209.114 158.984 209.103C159.008 209.093 159.029 209.077 159.047 209.059C159.065 209.04 159.079 209.018 159.088 208.994C159.098 208.969 159.102 208.943 159.101 208.918L159.077 207.071C159.077 207.03 159.065 206.99 159.042 206.957L157.521 204.928C157.504 204.903 157.481 204.883 157.454 204.87C157.428 204.856 157.398 204.849 157.368 204.849H155.62C155.569 204.849 155.519 204.829 155.482 204.793C155.445 204.757 155.424 204.708 155.423 204.656V203.891C155.423 203.865 155.419 203.839 155.409 203.815C155.4 203.791 155.386 203.77 155.368 203.751C155.35 203.733 155.329 203.718 155.305 203.708C155.281 203.698 155.256 203.693 155.23 203.693H148.317C148.269 203.697 148.225 203.717 148.191 203.75C148.158 203.784 148.137 203.828 148.134 203.876Z" fill="#FAFAFA"/>
<path d="M155.916 205.278V206.903C155.916 206.933 155.928 206.962 155.95 206.983C155.971 207.004 156 207.016 156.03 207.016L158.366 206.977C158.386 206.976 158.406 206.97 158.423 206.959C158.44 206.948 158.453 206.932 158.462 206.914C158.472 206.896 158.476 206.876 158.474 206.856C158.473 206.835 158.466 206.816 158.454 206.799L157.353 205.179C157.344 205.164 157.33 205.151 157.313 205.142C157.297 205.133 157.278 205.129 157.259 205.13L156.015 205.165C155.987 205.167 155.961 205.18 155.943 205.202C155.924 205.223 155.915 205.25 155.916 205.278Z" fill="#4770FF"/>
<path d="M159.314 209.273H147.922V209.624H159.314V209.273Z" fill="#FAFAFA"/>
<path d="M151.689 209.406C151.69 209.63 151.625 209.85 151.501 210.036C151.377 210.223 151.2 210.369 150.994 210.455C150.787 210.541 150.559 210.564 150.339 210.521C150.119 210.477 149.917 210.369 149.759 210.211C149.601 210.052 149.493 209.851 149.449 209.631C149.406 209.411 149.429 209.183 149.515 208.976C149.601 208.769 149.747 208.593 149.933 208.469C150.12 208.345 150.339 208.28 150.564 208.281C150.862 208.281 151.149 208.399 151.36 208.61C151.571 208.821 151.689 209.108 151.689 209.406Z" fill="#4770FF"/>
<path d="M151.225 209.406C151.226 209.539 151.188 209.668 151.115 209.779C151.042 209.889 150.938 209.975 150.816 210.026C150.694 210.077 150.56 210.091 150.43 210.065C150.3 210.04 150.181 209.976 150.087 209.883C149.994 209.789 149.93 209.67 149.905 209.54C149.879 209.41 149.893 209.276 149.944 209.154C149.995 209.032 150.081 208.928 150.191 208.855C150.302 208.782 150.431 208.744 150.564 208.745C150.739 208.745 150.907 208.814 151.031 208.939C151.156 209.063 151.225 209.231 151.225 209.406Z" fill="#FAFAFA"/>
<path d="M155.418 209.12C155.388 209.12 155.363 207.9 155.363 206.399C155.363 204.898 155.363 203.678 155.418 203.678C155.472 203.678 155.467 204.898 155.467 206.399C155.467 207.9 155.442 209.12 155.418 209.12Z" fill="#4770FF"/>
<path d="M157.847 209.406C157.847 209.629 157.781 209.847 157.657 210.032C157.534 210.217 157.358 210.361 157.152 210.447C156.946 210.532 156.72 210.554 156.502 210.511C156.283 210.467 156.083 210.36 155.925 210.203C155.768 210.045 155.66 209.844 155.617 209.626C155.574 209.408 155.596 209.181 155.681 208.976C155.766 208.77 155.911 208.594 156.096 208.47C156.281 208.347 156.499 208.281 156.721 208.281C157.02 208.281 157.306 208.399 157.517 208.61C157.729 208.821 157.847 209.108 157.847 209.406Z" fill="#4770FF"/>
<path d="M157.353 209.406C157.354 209.538 157.316 209.668 157.243 209.778C157.171 209.888 157.067 209.975 156.945 210.026C156.824 210.077 156.689 210.091 156.56 210.066C156.43 210.041 156.311 209.978 156.217 209.885C156.123 209.791 156.059 209.673 156.033 209.543C156.007 209.414 156.02 209.28 156.07 209.157C156.121 209.035 156.206 208.931 156.316 208.857C156.426 208.784 156.555 208.745 156.687 208.745C156.863 208.745 157.031 208.814 157.156 208.938C157.281 209.062 157.352 209.23 157.353 209.406Z" fill="#FAFAFA"/>
<path d="M156.706 207.328C156.706 207.357 156.543 207.377 156.346 207.377C156.148 207.377 155.985 207.377 155.985 207.328C155.985 207.278 156.148 207.273 156.346 207.273C156.543 207.273 156.706 207.298 156.706 207.328Z" fill="#4770FF"/>
<path d="M274.552 124.502C274.552 124.502 282.517 125.845 283.159 126.018C283.801 126.191 286.324 127.386 286.453 128.156C286.519 129.168 286.519 130.182 286.453 131.193C286.453 131.193 285.994 131.564 285.712 130.823C285.523 130.103 285.442 129.359 285.47 128.616L284.058 128.072L284.828 129.44L284.957 132.645C284.957 132.645 283.969 132.556 283.776 131.791C283.655 131.258 283.592 130.713 283.589 130.166L282.562 129.297L283.332 130.339L283.589 132.645C283.589 132.645 282.838 132.892 282.601 132.378C282.428 131.712 282.341 131.027 282.344 130.339L279.441 129.322L277.52 130.393L273.93 128.388L274.552 124.502Z" fill="#FFBE9D"/>
<path d="M246.662 104.814C246.702 104.972 256.262 118.147 256.262 118.147L275.471 124.122L274.597 131.336L251.057 126.596L242.702 117.006L246.662 104.814Z" fill="#4770FF"/>
<g opacity="0.2">
<path opacity="0.2" d="M246.662 104.814C246.702 104.972 256.262 118.147 256.262 118.147L275.471 124.122L274.597 131.336L251.057 126.596L242.702 117.006L246.662 104.814Z" fill="#5C546A"/>
</g>
<path d="M319.771 228.321C330.91 227.786 339.506 218.323 338.971 207.184C338.436 196.045 328.973 187.449 317.834 187.984C306.695 188.519 298.099 197.983 298.634 209.121C299.169 220.26 308.633 228.856 319.771 228.321Z" fill="#65617D"/>
<path d="M298.62 207.811C298.62 207.811 298.62 207.846 298.62 207.866C298.575 213.2 300.643 218.335 304.371 222.149C308.1 225.964 313.186 228.148 318.52 228.225C323.853 228.302 329 226.265 332.837 222.56C336.674 218.854 338.889 213.781 338.998 208.448C338.998 208.448 338.998 208.414 338.998 208.394L298.62 207.811Z" fill="#65617D"/>
<path d="M304.63 207.95C304.589 210.753 305.38 213.506 306.904 215.86C308.428 218.214 310.616 220.063 313.191 221.174C315.765 222.284 318.612 222.606 321.369 222.099C324.127 221.592 326.673 220.278 328.684 218.324C330.695 216.37 332.082 213.864 332.668 211.122C333.255 208.38 333.015 205.526 331.98 202.92C330.944 200.314 329.159 198.074 326.85 196.483C324.542 194.891 321.813 194.02 319.009 193.98C315.25 193.926 311.623 195.367 308.926 197.987C306.23 200.607 304.684 204.19 304.63 207.95Z" fill="#FAFAFA"/>
<path d="M319.009 193.98C315.25 193.926 311.623 195.367 308.926 197.987C306.23 200.607 304.684 204.19 304.63 207.95L332.979 208.36C333.033 204.6 331.592 200.974 328.972 198.277C326.352 195.58 322.768 194.035 319.009 193.98Z" fill="#E0E0E0"/>
<path d="M310.17 208.029C310.145 209.737 310.627 211.414 311.555 212.848C312.483 214.282 313.815 215.409 315.384 216.086C316.952 216.763 318.686 216.959 320.367 216.651C322.047 216.342 323.598 215.542 324.823 214.352C326.048 213.161 326.893 211.635 327.251 209.964C327.609 208.294 327.463 206.555 326.832 204.967C326.201 203.38 325.114 202.015 323.707 201.045C322.301 200.076 320.638 199.545 318.93 199.52C316.64 199.488 314.431 200.365 312.788 201.961C311.146 203.556 310.204 205.739 310.17 208.029Z" fill="#65617D"/>
<path d="M309.222 178.549C309.222 178.549 329.892 172.297 338.44 194.755L295.183 208.157L309.222 178.549Z" fill="#4770FF"/>
<path d="M195.195 228.323C206.334 227.788 214.93 218.325 214.395 207.186C213.86 196.047 204.397 187.451 193.258 187.986C182.119 188.521 173.523 197.985 174.058 209.123C174.593 220.262 184.057 228.858 195.195 228.323Z" fill="#65617D"/>
<path d="M174.039 207.811C174.039 207.811 174.039 207.846 174.039 207.866C173.994 213.2 176.062 218.335 179.79 222.149C183.519 225.964 188.605 228.148 193.938 228.225C199.272 228.302 204.419 226.265 208.256 222.56C212.093 218.854 214.308 213.781 214.417 208.448V208.384L174.039 207.811Z" fill="#65617D"/>
<path d="M180.068 207.95C180.027 210.753 180.819 213.506 182.343 215.86C183.867 218.214 186.054 220.063 188.629 221.174C191.204 222.284 194.05 222.606 196.808 222.099C199.566 221.592 202.111 220.278 204.122 218.324C206.134 216.37 207.52 213.864 208.107 211.122C208.694 208.38 208.454 205.526 207.418 202.92C206.383 200.314 204.598 198.074 202.289 196.483C199.98 194.891 197.251 194.02 194.448 193.98C190.688 193.926 187.062 195.367 184.365 197.987C181.668 200.607 180.123 204.19 180.068 207.95Z" fill="#FAFAFA"/>
<path d="M194.428 193.98C190.672 193.931 187.05 195.375 184.358 197.994C181.666 200.613 180.123 204.194 180.068 207.95L208.417 208.36C208.444 206.497 208.103 204.646 207.415 202.915C206.726 201.184 205.703 199.605 204.403 198.27C203.104 196.934 201.554 195.868 199.843 195.132C198.131 194.396 196.291 194.005 194.428 193.98Z" fill="#E0E0E0"/>
<path d="M185.589 208.029C185.564 209.737 186.046 211.414 186.974 212.848C187.902 214.282 189.234 215.409 190.803 216.086C192.371 216.763 194.105 216.959 195.785 216.651C197.466 216.342 199.016 215.542 200.242 214.352C201.467 213.161 202.312 211.635 202.67 209.964C203.027 208.294 202.882 206.555 202.251 204.967C201.62 203.38 200.533 202.015 199.126 201.045C197.72 200.076 196.057 199.545 194.349 199.52C192.059 199.488 189.85 200.365 188.207 201.961C186.565 203.556 185.623 205.739 185.589 208.029Z" fill="#65617D"/>
<path d="M222.945 200.049C222.831 200.108 212.318 198.424 212.318 198.424C211.75 199.166 211.026 199.775 210.198 200.208C209.37 200.642 208.457 200.889 207.524 200.933C202.981 201.15 198.541 201.352 194.685 201.525C192.962 201.602 191.339 202.359 190.173 203.63C189.007 204.901 188.392 206.582 188.463 208.305C188.532 209.941 189.214 211.491 190.373 212.647C191.532 213.803 193.083 214.481 194.719 214.547L217.103 215.431C220.782 215.574 225.671 213.342 227.967 210.463L222.945 200.049Z" fill="#5C546A"/>
<path d="M168.01 191.101C168.01 191.101 167.052 171.423 185.544 167.325V164.801H250.321V170.855C250.321 170.855 240.816 182.307 243.902 191.812C246.988 201.318 247.976 202.291 247.976 202.291H284.843C287.752 198.202 289.374 193.338 289.5 188.321C289.697 179.976 286.231 165.71 283.638 156.589C281.297 148.269 279.816 141.336 279.816 141.336L290.877 137.647C290.877 137.647 311.345 164.436 312.18 165.917C313.014 167.399 315.859 170.934 315.192 178.628C314.525 186.321 296.112 210.053 291.282 212.73C286.453 215.406 282.088 215.574 277.737 216.241C273.965 216.823 246.055 216.438 238.752 216.325C236.214 216.309 233.726 215.618 231.542 214.325C229.359 213.001 227.72 210.809 225.908 207.214L222.041 199.688L168.01 191.101Z" fill="#4770FF"/>
<path d="M172.967 189.748L164.81 202.528C164.568 202.882 164.447 203.305 164.467 203.734C164.487 204.163 164.646 204.573 164.92 204.903C165.194 205.234 165.568 205.466 165.985 205.565C166.403 205.663 166.841 205.624 167.234 205.451C168.249 204.997 169.177 204.369 169.975 203.594C173.703 200.044 180.345 190.691 180.345 190.691L172.967 189.748Z" fill="#5C546A"/>
<path d="M231.478 192.049C231.478 192.049 231.478 191.985 231.527 191.862L231.69 191.323C231.887 190.632 232.03 189.928 232.12 189.215C232.393 186.577 231.957 183.914 230.856 181.502C230.115 179.837 229.098 178.309 227.848 176.983C226.413 175.469 224.746 174.193 222.91 173.201C220.876 172.102 218.699 171.291 216.442 170.791C214.008 170.266 211.524 170.01 209.035 170.026C206.556 170.044 204.082 170.227 201.628 170.574C199.238 170.895 196.946 171.29 194.783 171.784C190.944 172.599 187.243 173.968 183.796 175.848C181.482 177.132 179.368 178.747 177.52 180.642C176.868 181.314 176.399 181.872 176.088 182.252L175.738 182.692C175.7 182.744 175.657 182.792 175.609 182.835C176.154 182.029 176.769 181.272 177.446 180.573C179.278 178.642 181.388 176.996 183.708 175.69C187.16 173.776 190.875 172.382 194.734 171.552C196.897 171.058 199.178 170.648 201.593 170.322C204.067 169.972 206.561 169.787 209.059 169.769C211.562 169.752 214.06 170.012 216.506 170.544C218.785 171.062 220.982 171.893 223.034 173.013C224.895 174.019 226.584 175.316 228.036 176.855C229.295 178.204 230.315 179.756 231.053 181.447C232.15 183.892 232.563 186.589 232.248 189.249C232.144 189.965 231.979 190.671 231.754 191.358C231.675 191.585 231.616 191.758 231.567 191.891C231.542 191.946 231.512 191.999 231.478 192.049Z" fill="#65617D"/>
<path d="M213.602 130.196H173.56C171.22 130.196 169.323 132.093 169.323 134.433V160.579C169.323 162.919 171.22 164.816 173.56 164.816H213.602C215.942 164.816 217.839 162.919 217.839 160.579V134.433C217.839 132.093 215.942 130.196 213.602 130.196Z" fill="#5C546A"/>
<path d="M250.321 164.816C250.981 163.98 251.389 162.973 251.497 161.913C251.595 160.288 250.855 158.254 249.102 158.254H226.732C224.992 158.254 223.323 158.945 222.092 160.176C220.861 161.406 220.17 163.076 220.17 164.816H250.321Z" fill="#5C546A"/>
<path d="M279.816 141.336L275.925 133.223C275.406 132.109 275.32 130.841 275.685 129.668C276.051 128.495 276.84 127.5 277.9 126.877L289.534 119.939C290.141 119.575 290.836 119.382 291.544 119.381H294.057L295.045 135.781L291.174 137.277L293.643 141.267L279.816 141.336Z" fill="#4770FF"/>
<path d="M294.092 119.994C294.092 119.994 298.072 120.907 298.571 127.04C299.069 133.173 295.06 135.089 295.06 135.089L294.092 119.994Z" fill="#EBEBEB"/>
<path d="M281.174 130.043C281.174 130.043 273.13 133.855 272.147 134.487C271.466 134.921 270.883 135.682 271.417 137.02C272.325 139.296 276.088 137.153 276.088 137.153L283.579 133.41C283.579 133.41 286.458 132.052 285.391 130.349C284.201 128.443 281.174 130.043 281.174 130.043Z" fill="#65617D"/>
<path d="M269.787 128.655C269.787 128.655 277.347 129.949 277.989 130.136C278.631 130.324 281.149 131.504 281.278 132.275C281.344 133.286 281.344 134.3 281.278 135.311C281.278 135.311 280.823 135.682 280.537 134.941C280.351 134.219 280.269 133.474 280.295 132.729L278.883 132.186L279.653 133.554L279.782 136.763C279.782 136.763 278.794 136.674 278.606 135.904C278.485 135.373 278.422 134.83 278.419 134.284L277.387 133.41L278.157 134.452L278.419 136.763C278.419 136.763 277.668 137.005 277.431 136.492C277.257 135.826 277.171 135.14 277.174 134.452L274.271 133.44L272.35 134.512L269.328 132.833L269.787 128.655Z" fill="#FFBE9D"/>
<path d="M281.559 118.127C281.559 121.189 280.152 123.668 278.419 123.668C276.685 123.668 275.278 121.199 275.278 118.127C275.278 115.056 276.68 112.587 278.419 112.587C280.157 112.587 281.559 115.056 281.559 118.127Z" fill="#65617D"/>
<path d="M278.932 121.934L280.66 127.919C280.976 127.76 281.228 127.499 281.374 127.177C281.52 126.856 281.553 126.494 281.465 126.151C281.031 124.102 280.784 122.645 280.31 120.848C280.251 120.67 278.932 121.934 278.932 121.934Z" fill="#65617D"/>
<g opacity="0.4">
<path opacity="0.4" d="M244.756 194.345C244.588 193.852 244.411 193.358 244.262 192.83C244.114 192.301 243.927 191.842 243.798 191.348C243.599 190.607 243.454 189.853 243.364 189.091C240.45 200.943 244.899 209.303 252.534 209.89C263.693 210.75 277.298 211.372 282.799 209.93C292.828 207.298 296.507 198.933 297.386 197.555C298.265 196.177 306.239 181.596 301.336 167.557C296.433 153.518 287.929 138.61 287.929 138.61L279.816 141.336C279.816 141.336 281.298 148.249 283.653 156.565C286.245 165.685 289.712 179.951 289.514 188.296C289.389 193.313 287.767 198.177 284.858 202.266H247.996C247.996 202.266 247.205 201.476 244.771 194.365" fill="#5C546A"/>
</g>
<path d="M166.538 188.03L166.8 185.215L234.095 192.968C234.994 193.074 235.863 193.362 236.647 193.816C237.43 194.269 238.113 194.878 238.653 195.605C239.194 196.332 239.579 197.161 239.787 198.043C239.995 198.924 240.021 199.839 239.863 200.73L239.561 202.434L169.935 192.316C168.926 192.178 168.008 191.655 167.375 190.856C166.742 190.057 166.442 189.044 166.538 188.03Z" fill="#4770FF"/>
<g opacity="0.6">
<path opacity="0.6" d="M166.538 188.03L166.8 185.215L234.095 192.968C234.994 193.074 235.863 193.362 236.647 193.816C237.43 194.269 238.113 194.878 238.653 195.605C239.194 196.332 239.579 197.161 239.787 198.043C239.995 198.924 240.021 199.839 239.863 200.73L239.561 202.434L169.935 192.316C168.926 192.178 168.008 191.655 167.375 190.856C166.742 190.057 166.442 189.044 166.538 188.03Z" fill="#5C546A"/>
</g>
<g opacity="0.3">
<path opacity="0.3" d="M297.386 206.853C297.386 206.853 312.2 190.558 315.256 177.749C316.792 177.74 318.326 177.854 319.844 178.09C319.844 178.09 311.084 201.906 297.386 206.853Z" fill="#5C546A"/>
</g>
<path d="M217 215.643C217.81 214.904 218.492 214.037 219.019 213.075C219.572 212.026 219.908 210.875 220.007 209.693C220.157 208.251 219.905 206.796 219.279 205.489C218.653 204.182 217.678 203.073 216.461 202.286C215.481 201.619 214.375 201.158 213.212 200.928C212.134 200.733 211.031 200.718 209.948 200.883C210.018 200.853 210.091 200.832 210.165 200.819C210.38 200.763 210.597 200.72 210.817 200.691C211.625 200.583 212.445 200.603 213.247 200.75C214.443 200.961 215.583 201.417 216.595 202.088C217.86 202.892 218.873 204.036 219.519 205.388C220.164 206.741 220.415 208.248 220.244 209.737C220.131 210.951 219.767 212.128 219.177 213.194C218.789 213.911 218.289 214.561 217.696 215.12C217.541 215.273 217.376 215.417 217.202 215.549C217.139 215.589 217.071 215.62 217 215.643Z" fill="#65617D"/>
<path d="M221.967 164.816C221.967 164.885 213.785 164.945 203.697 164.945C193.608 164.945 185.426 164.885 185.426 164.816C185.426 164.747 193.608 164.688 203.697 164.688C213.785 164.688 221.967 164.742 221.967 164.816Z" fill="#65617D"/>
<path d="M179.125 221.865C179.046 221.798 178.973 221.724 178.908 221.643C178.779 221.495 178.567 221.282 178.335 220.981C177.652 220.143 177.043 219.247 176.513 218.305C174.725 215.184 173.792 211.648 173.807 208.052C173.821 204.456 174.784 200.927 176.597 197.822C177.132 196.883 177.748 195.992 178.439 195.16C178.676 194.859 178.888 194.666 179.021 194.499C179.155 194.331 179.234 194.276 179.239 194.286C179.19 194.375 179.13 194.458 179.061 194.533C178.942 194.696 178.74 194.913 178.518 195.224C175.985 198.451 174.458 202.353 174.13 206.442C173.802 210.531 174.685 214.626 176.671 218.216C177.182 219.159 177.765 220.062 178.414 220.917C178.631 221.228 178.829 221.45 178.947 221.613C179.066 221.776 179.135 221.855 179.125 221.865Z" fill="#5C546A"/>
<path d="M249.867 184.242L249.714 184.529L246.731 190.114L242.564 194.123L250.894 205.214L257.832 204.063C257.832 204.063 257.057 202.478 253.571 202.172L252.252 195.545L257.146 187.961" fill="#5C546A"/>
<path d="M242.574 194.138L250.904 205.229L257.842 204.078L256.889 203.165L251.195 203.787L243.462 193.284L242.574 194.138Z" fill="#E0E0E0"/>
<path d="M253.027 199.14C252.988 199.219 252.534 199.056 252.04 199.165C251.546 199.274 251.146 199.555 251.082 199.496C251.018 199.437 251.329 198.972 251.981 198.859C252.632 198.745 253.082 199.076 253.027 199.14Z" fill="#65617D"/>
<path d="M252.657 197.521C252.598 197.58 252.218 197.224 251.669 197.205C251.121 197.185 250.682 197.516 250.637 197.451C250.593 197.387 250.672 197.298 250.85 197.155C251.09 196.98 251.382 196.889 251.679 196.898C251.977 196.906 252.263 197.016 252.489 197.21C252.622 197.348 252.657 197.481 252.657 197.521Z" fill="#65617D"/>
<path d="M252.336 195.373C252.267 195.427 251.961 195.066 251.452 194.978C250.944 194.889 250.534 195.121 250.465 195.047C250.395 194.973 250.509 194.903 250.692 194.8C250.933 194.672 251.21 194.629 251.478 194.677C251.747 194.726 251.992 194.863 252.173 195.066C252.341 195.224 252.371 195.353 252.336 195.373Z" fill="#65617D"/>
<path d="M253.916 193.422C253.842 193.462 253.58 193.101 253.101 192.894C252.622 192.686 252.188 192.716 252.168 192.632C252.148 192.548 252.662 192.346 253.23 192.632C253.798 192.918 254 193.397 253.916 193.422Z" fill="#65617D"/>
<path d="M254.588 191.847C254.553 191.872 254.282 191.634 253.862 191.22L253.151 190.484C252.99 190.34 252.85 190.174 252.736 189.99C252.703 189.924 252.683 189.852 252.678 189.778C252.673 189.705 252.683 189.631 252.706 189.561C252.734 189.481 252.786 189.411 252.853 189.36C252.921 189.309 253.002 189.279 253.087 189.274C253.339 189.278 253.585 189.357 253.793 189.501C253.974 189.617 254.139 189.755 254.287 189.911C254.532 190.181 254.713 190.504 254.815 190.854C254.945 191.171 254.945 191.526 254.815 191.842C254.765 191.537 254.695 191.235 254.608 190.938C254.487 190.634 254.307 190.357 254.079 190.123C253.944 189.99 253.793 189.874 253.63 189.778C253.473 189.675 253.293 189.612 253.106 189.595C253.08 189.595 253.055 189.604 253.034 189.619C253.013 189.634 252.997 189.655 252.988 189.679C252.961 189.744 252.961 189.817 252.988 189.881C253.084 190.04 253.2 190.186 253.334 190.316L254.01 191.101C254.241 191.317 254.436 191.569 254.588 191.847Z" fill="#65617D"/>
<path d="M254.869 192.01C254.835 192.01 254.8 191.644 255.106 191.165C255.315 190.849 255.619 190.609 255.975 190.48C256.331 190.351 256.719 190.34 257.081 190.449C257.121 190.475 257.155 190.51 257.18 190.55C257.206 190.59 257.223 190.635 257.23 190.681C257.236 190.762 257.219 190.843 257.18 190.914C257.125 191.012 257.053 191.101 256.968 191.175C256.83 191.308 256.682 191.429 256.523 191.536C256.257 191.715 255.963 191.852 255.654 191.941C255.379 192.053 255.075 192.075 254.785 192.005C254.785 191.955 255.106 191.926 255.585 191.733C255.861 191.624 256.122 191.48 256.361 191.304C256.502 191.2 256.634 191.084 256.756 190.958C256.816 190.905 256.867 190.844 256.909 190.775C256.933 190.706 256.909 190.726 256.909 190.711C256.842 190.682 256.769 190.667 256.696 190.667C256.609 190.659 256.522 190.659 256.435 190.667C256.265 190.682 256.099 190.722 255.941 190.785C255.674 190.889 255.438 191.059 255.254 191.279C255.11 191.514 254.981 191.758 254.869 192.01Z" fill="#65617D"/>
<path d="M248.075 193.007C248.102 193.17 248.08 193.337 248.012 193.488C247.944 193.639 247.833 193.765 247.693 193.853C247.552 193.94 247.389 193.984 247.224 193.979C247.059 193.973 246.9 193.919 246.765 193.823C246.631 193.727 246.528 193.593 246.47 193.438C246.412 193.284 246.401 193.115 246.439 192.954C246.476 192.794 246.561 192.648 246.682 192.535C246.802 192.422 246.954 192.348 247.117 192.321C247.334 192.287 247.557 192.339 247.736 192.468C247.915 192.596 248.037 192.79 248.075 193.007Z" fill="#E0E0E0"/>
<path d="M275.15 189.575L277.377 204.034L295.386 201.357C295.02 199.654 285.194 197.585 285.194 197.585L284.147 188.262L275.15 189.575Z" fill="#5C546A"/>
<path d="M279.51 197.634C279.344 197.712 279.213 197.848 279.142 198.017C279.071 198.186 279.065 198.375 279.125 198.548C279.198 198.715 279.332 198.849 279.5 198.921C279.667 198.993 279.856 198.999 280.028 198.938C280.207 198.854 280.347 198.705 280.422 198.522C280.496 198.339 280.498 198.135 280.428 197.95C280.335 197.781 280.18 197.655 279.996 197.599C279.811 197.543 279.612 197.561 279.441 197.649" fill="#E0E0E0"/>
<path d="M277.377 204.034L277.209 202.552L294.536 200.533C294.536 200.533 295.391 200.765 295.386 201.343L277.377 204.034Z" fill="#E0E0E0"/>
<path d="M285.47 197.451C285.47 197.54 285.05 197.644 284.655 197.99C284.26 198.335 284.092 198.74 284.004 198.721C283.915 198.701 283.974 198.168 284.453 197.758C284.932 197.348 285.48 197.368 285.47 197.451Z" fill="#65617D"/>
<path d="M287.475 197.95C287.51 198.034 287.149 198.237 286.907 198.656C286.665 199.076 286.636 199.476 286.547 199.486C286.458 199.496 286.329 198.992 286.64 198.498C286.952 198.005 287.46 197.866 287.475 197.95Z" fill="#65617D"/>
<path d="M288.887 200.049C288.808 200.083 288.621 199.659 288.774 199.145C288.927 198.632 289.312 198.375 289.361 198.444C289.411 198.513 289.193 198.809 289.07 199.234C288.946 199.659 288.971 200.029 288.887 200.049Z" fill="#65617D"/>
<path d="M284.996 195.353C284.996 195.437 284.552 195.378 284.058 195.481C283.564 195.585 283.204 195.807 283.144 195.738C283.085 195.669 283.416 195.299 283.994 195.18C284.571 195.061 285.031 195.274 284.996 195.353Z" fill="#65617D"/>
<path d="M284.26 193.279C283.976 193.403 283.664 193.447 283.357 193.407C283.023 193.398 282.691 193.348 282.369 193.259C282.172 193.212 281.979 193.151 281.791 193.076C281.681 193.037 281.579 192.979 281.49 192.904C281.422 192.851 281.374 192.777 281.355 192.693C281.335 192.61 281.344 192.522 281.381 192.444C281.416 192.376 281.467 192.317 281.528 192.272C281.59 192.226 281.661 192.196 281.737 192.183C281.85 192.165 281.965 192.165 282.078 192.183C282.279 192.197 282.477 192.234 282.67 192.291C282.995 192.383 283.303 192.525 283.584 192.711C284.078 193.037 284.25 193.343 284.221 193.368C284.191 193.392 283.939 193.155 283.47 192.899C283.195 192.75 282.901 192.639 282.596 192.568C282.419 192.521 282.236 192.493 282.053 192.484C281.855 192.484 281.693 192.484 281.658 192.578C281.623 192.671 281.658 192.622 281.693 192.676C281.76 192.728 281.835 192.769 281.915 192.8C282.084 192.876 282.257 192.944 282.433 193.002C282.734 193.098 283.043 193.166 283.357 193.205C283.659 193.208 283.961 193.233 284.26 193.279Z" fill="#65617D"/>
<path d="M284.157 193.422C284.127 193.422 283.905 193.15 283.786 192.588C283.733 192.261 283.733 191.927 283.786 191.6C283.818 191.402 283.868 191.207 283.934 191.017C283.964 190.893 284.025 190.778 284.111 190.684C284.198 190.59 284.307 190.519 284.428 190.479C284.508 190.469 284.59 190.481 284.663 190.516C284.737 190.55 284.799 190.604 284.843 190.672C284.905 190.772 284.953 190.88 284.986 190.993C285.047 191.189 285.077 191.394 285.075 191.6C285.075 191.944 284.99 192.284 284.828 192.588C284.547 193.081 284.196 193.264 284.186 193.234C284.176 193.205 284.428 192.983 284.631 192.494C284.748 192.213 284.802 191.909 284.789 191.605C284.784 191.428 284.752 191.253 284.695 191.086C284.641 190.899 284.547 190.756 284.478 190.785C284.408 190.815 284.255 190.963 284.206 191.126C284.139 191.295 284.088 191.471 284.053 191.649C283.997 191.954 283.984 192.265 284.013 192.573C284.058 193.076 284.201 193.402 284.157 193.422Z" fill="#65617D"/>
<path d="M260.982 155.612L245.541 189.259L255.738 195.382L277.09 154.896" fill="#65617D"/>
<path d="M286.448 196.148L275.372 197.926L268.74 158.352L235.976 160.727C235.11 160.788 234.239 160.706 233.399 160.485C224.199 157.962 225.444 146.229 226.332 144.348L271.668 143.049C274.044 142.98 276.361 143.79 278.176 145.324C279.991 146.857 281.176 149.007 281.505 151.36L286.448 196.148Z" fill="#65617D"/>
<path d="M225.873 146.205L226.036 129.475C226.036 129.475 223.878 118.611 223.236 114.32C222.249 107.683 220.886 104.528 231.759 99.8121L234.139 98.8936L237.818 98.943C242.203 99.2739 246.825 103.239 246.934 105.856L251.176 143.568L225.873 146.205Z" fill="#4770FF"/>
<path d="M226.555 103.698C226.555 103.698 223.483 110.305 224.086 116.325L235.527 127.307C238.09 130.161 241.3 131.376 245.403 131.623L269.076 134.21L269.733 128.018L247.225 121.638C246.326 121.47 245.877 120.537 245.191 119.935L226.555 103.698Z" fill="#4770FF"/>
<path d="M224.703 105.604C224.836 105.477 224.989 105.374 225.157 105.298C225.645 105.084 226.16 104.939 226.688 104.869C227.535 104.73 228.399 104.73 229.246 104.869C229.508 104.916 229.761 105.003 229.996 105.125C230.238 105.277 230.47 105.442 230.693 105.619C231.147 105.975 231.606 106.385 232.075 106.829C233.023 107.713 233.922 108.834 234.974 109.97C236.026 111.105 237.176 112.325 238.431 113.604C239.685 114.883 241.033 116.221 242.475 117.604C243.201 118.295 243.956 118.996 244.741 119.683C245.141 120.009 245.536 120.394 245.917 120.754C246.275 121.125 246.727 121.391 247.225 121.525L269.777 127.895L269.881 127.924V128.033C269.836 128.472 269.782 128.941 269.733 129.42C269.56 131.065 269.387 132.694 269.239 134.225V134.354H269.11L259.076 133.238L254.336 132.719L249.798 132.26C248.316 132.097 246.889 131.929 245.502 131.727C244.146 131.56 242.812 131.251 241.522 130.803C240.332 130.35 239.207 129.744 238.174 129.001C237.186 128.304 236.258 127.579 235.404 126.863C232.021 123.979 229.537 121.396 227.814 119.638C226.96 118.754 226.303 118.058 225.863 117.584L225.37 117.041L225.207 116.848C225.207 116.848 225.271 116.903 225.389 117.021C225.508 117.14 225.681 117.322 225.883 117.549L227.858 119.574C229.601 121.307 232.105 123.87 235.492 126.729C236.347 127.435 237.26 128.156 238.253 128.843C239.279 129.571 240.394 130.165 241.571 130.611C242.853 131.048 244.177 131.349 245.522 131.509C246.909 131.707 248.341 131.875 249.813 132.033L254.351 132.477L259.091 132.996L269.115 134.087L268.972 134.2C269.135 132.67 269.308 131.04 269.466 129.391C269.52 128.897 269.57 128.443 269.614 128.003L269.708 128.142L247.191 121.747C246.641 121.61 246.141 121.321 245.749 120.912C245.349 120.532 244.988 120.176 244.578 119.836C243.783 119.144 243.038 118.438 242.312 117.747C240.87 116.359 239.527 115.011 238.278 113.727C237.028 112.444 235.883 111.219 234.821 110.068C233.759 108.918 232.89 107.802 231.952 106.918C231.52 106.49 231.065 106.086 230.589 105.708C230.374 105.527 230.146 105.362 229.908 105.214C229.684 105.093 229.442 105.008 229.192 104.962C228.358 104.81 227.506 104.797 226.668 104.923C226.144 104.982 225.631 105.113 225.142 105.313C224.989 105.399 224.842 105.496 224.703 105.604Z" fill="#65617D"/>
<path d="M230.614 84.3808L231.759 100.676C231.851 101.957 232.424 103.156 233.364 104.032C234.304 104.907 235.541 105.393 236.826 105.392C237.52 105.392 238.208 105.25 238.845 104.974C239.482 104.697 240.056 104.293 240.531 103.787C241.006 103.28 241.372 102.681 241.606 102.027C241.84 101.373 241.937 100.678 241.892 99.9849C241.788 98.4344 241.7 97.1653 241.7 97.1653C241.7 97.1653 245.65 96.553 245.689 92.6075C245.719 90.3311 245.324 85.1659 244.988 81.2057C244.878 79.912 244.285 78.7072 243.327 77.8308C242.369 76.9543 241.117 76.4703 239.818 76.475H237.433C236.462 76.534 235.512 76.7869 234.64 77.2188C233.768 77.6506 232.991 78.2527 232.356 78.9896C231.72 79.7264 231.239 80.583 230.94 81.509C230.64 82.4349 230.53 83.4114 230.614 84.3808Z" fill="#FFBE9D"/>
<path d="M241.705 97.1011C239.885 97.1354 238.095 96.6284 236.564 95.6444C236.564 95.6444 237.779 98.4788 241.714 98.1134L241.705 97.1011Z" fill="#EB996E"/>
<path d="M244.104 86.2671C244.106 86.4139 244.05 86.5554 243.948 86.6615C243.847 86.7676 243.708 86.8298 243.561 86.835C243.49 86.8418 243.419 86.8343 243.351 86.813C243.283 86.7917 243.22 86.757 243.166 86.711C243.111 86.6649 243.067 86.6085 243.035 86.545C243.003 86.4815 242.983 86.4122 242.978 86.3412C242.977 86.1939 243.033 86.0518 243.134 85.945C243.236 85.8381 243.375 85.7748 243.522 85.7684C243.665 85.7575 243.807 85.8039 243.916 85.8973C244.025 85.9908 244.093 86.1238 244.104 86.2671Z" fill="#65617D"/>
<path d="M244.312 85.1561C244.238 85.2301 243.818 84.9141 243.206 84.9141C242.593 84.9141 242.159 85.2203 242.09 85.1462C242.021 85.0721 242.129 84.9783 242.327 84.84C242.587 84.6572 242.898 84.5605 243.216 84.5635C243.532 84.5628 243.84 84.6631 244.094 84.8499C244.262 84.9882 244.341 85.1215 244.312 85.1561Z" fill="#65617D"/>
<path d="M238.416 86.2671C238.418 86.4143 238.363 86.5565 238.261 86.6629C238.159 86.7693 238.02 86.8311 237.873 86.835C237.802 86.8418 237.73 86.8343 237.662 86.813C237.594 86.7917 237.531 86.757 237.477 86.711C237.423 86.6649 237.378 86.6085 237.346 86.545C237.314 86.4815 237.295 86.4122 237.29 86.3412C237.288 86.1939 237.344 86.0518 237.446 85.945C237.547 85.8381 237.686 85.7748 237.833 85.7684C237.976 85.7575 238.118 85.8039 238.227 85.8973C238.337 85.9908 238.404 86.1238 238.416 86.2671Z" fill="#65617D"/>
<path d="M238.337 85.2696C238.268 85.3437 237.843 85.0277 237.231 85.0277C236.618 85.0277 236.184 85.3338 236.12 85.2598C236.055 85.1857 236.154 85.0919 236.352 84.9536C236.612 84.7708 236.923 84.6741 237.241 84.6771C237.556 84.6749 237.864 84.7735 238.12 84.9586C238.337 85.1018 238.391 85.2351 238.337 85.2696Z" fill="#65617D"/>
<path d="M240.554 89.7632C240.874 89.6632 241.206 89.6034 241.542 89.5855C241.695 89.5855 241.843 89.5361 241.867 89.4324C241.884 89.2721 241.847 89.1109 241.764 88.9732L241.3 87.7979C240.874 86.8005 240.53 85.77 240.272 84.7166C240.774 85.678 241.2 86.6768 241.546 87.7041L241.981 88.8892C242.08 89.0754 242.109 89.2906 242.065 89.4966C242.042 89.5515 242.007 89.6005 241.963 89.6399C241.918 89.6792 241.865 89.7079 241.808 89.7237C241.723 89.7458 241.635 89.7574 241.546 89.7583C241.217 89.8017 240.884 89.8033 240.554 89.7632Z" fill="#65617D"/>
<path d="M238.771 90.183C238.87 90.183 238.87 90.8348 239.433 91.299C239.996 91.7631 240.697 91.694 240.702 91.7928C240.707 91.8915 240.544 91.9162 240.248 91.9261C239.863 91.9305 239.489 91.7994 239.191 91.5557C238.912 91.3183 238.735 90.9822 238.697 90.6175C238.653 90.3657 238.727 90.178 238.771 90.183Z" fill="#65617D"/>
<path d="M238.51 82.8945C238.45 83.0574 237.848 82.9834 237.137 83.0673C236.426 83.1512 235.848 83.3488 235.754 83.2006C235.66 83.0525 235.813 82.9735 236.046 82.8155C236.354 82.6186 236.704 82.4953 237.068 82.4551C237.432 82.4149 237.8 82.4587 238.144 82.5834C238.406 82.6871 238.539 82.8155 238.51 82.8945Z" fill="#65617D"/>
<path d="M244.085 83.4031C243.981 83.5413 243.561 83.4031 243.062 83.4031C242.564 83.4031 242.134 83.492 242.035 83.3488C241.937 83.2055 242.06 83.1414 242.248 83.013C242.495 82.8509 242.787 82.7714 243.082 82.7858C243.376 82.792 243.66 82.8885 243.897 83.0624C244.075 83.1957 244.134 83.3339 244.085 83.4031Z" fill="#65617D"/>
<path d="M231.942 87.3436C231.873 87.314 229.231 86.5387 229.32 89.2349C229.409 91.931 232.09 91.2891 232.095 91.2101C232.1 91.1311 231.942 87.3436 231.942 87.3436Z" fill="#FFBE9D"/>
<path d="M231.236 90.2175C231.236 90.2175 231.191 90.2521 231.112 90.2916C231 90.3345 230.875 90.3345 230.762 90.2916C230.585 90.1868 230.44 90.0369 230.34 89.8573C230.24 89.6777 230.19 89.4748 230.194 89.2694C230.18 89.0387 230.217 88.8076 230.303 88.5929C230.325 88.5076 230.368 88.4289 230.427 88.3635C230.486 88.2982 230.561 88.2481 230.643 88.2176C230.697 88.2024 230.755 88.2064 230.806 88.2289C230.858 88.2515 230.899 88.2911 230.925 88.3411C230.964 88.4152 230.95 88.4695 230.964 88.4744C230.979 88.4794 231.019 88.425 230.994 88.3164C230.977 88.2487 230.937 88.1891 230.88 88.1485C230.843 88.1219 230.8 88.103 230.755 88.0929C230.711 88.0827 230.664 88.0815 230.619 88.0893C230.505 88.1114 230.4 88.1633 230.313 88.2397C230.226 88.316 230.161 88.4141 230.125 88.5238C230.017 88.7602 229.969 89.0199 229.987 89.2793C229.98 89.5196 230.045 89.7563 230.173 89.9595C230.302 90.1627 230.488 90.323 230.708 90.42C230.78 90.4392 230.856 90.4416 230.93 90.427C231.003 90.4125 231.072 90.3814 231.132 90.3361C231.236 90.2817 231.246 90.2225 231.236 90.2175Z" fill="#EB996E"/>
<path d="M230.436 87.2498C230.692 87.2332 230.949 87.2864 231.177 87.4038C231.406 87.5211 231.599 87.6983 231.735 87.9164C231.907 88.3016 231.947 88.7361 232.12 89.1213C232.194 89.3193 232.331 89.488 232.509 89.6027C232.686 89.7174 232.896 89.7719 233.107 89.7583C233.247 89.7144 233.373 89.6341 233.472 89.5257C233.571 89.4173 233.64 89.2845 233.67 89.1411C233.727 88.8541 233.727 88.5589 233.67 88.272C233.512 87.0128 233.251 85.7684 233.201 84.4993C233.096 83.2261 233.373 81.9503 233.996 80.8353C234.312 80.283 234.772 79.8265 235.327 79.5144C235.882 79.2023 236.51 79.0462 237.147 79.0626C237.986 79.1317 238.752 79.5564 239.586 79.6847C240.081 79.7496 240.585 79.7011 241.059 79.5428C241.533 79.3846 241.965 79.1207 242.322 78.7712C242.479 78.6386 242.644 78.515 242.816 78.4009C242.805 78.1028 242.707 77.8144 242.534 77.5713C240.88 76.0405 237.907 75.5961 235.725 76.1639C234.616 76.4371 233.58 76.9483 232.689 77.6621C231.798 78.3758 231.073 79.2749 230.564 80.2971C229.626 82.3414 229.903 85.1808 230.421 87.2498" fill="#65617D"/>
<path d="M245.033 80.5933C245.033 80.5933 234.693 77.2651 230.219 86.2128C229.873 85.0875 229.648 83.9289 229.547 82.7562C229.547 81.9562 230.041 77.1812 234.939 75.68C234.939 75.6998 242.342 72.8752 245.033 80.5933Z" fill="#4770FF"/>
<path d="M236.144 80.8156C236.328 81.1125 236.578 81.3627 236.875 81.5463C237.172 81.7299 237.508 81.8419 237.855 81.8735C238.203 81.9051 238.553 81.8555 238.879 81.7284C239.204 81.6014 239.495 81.4004 239.729 81.1415C239.831 81.3986 240.011 81.6173 240.244 81.7668C240.477 81.9163 240.751 81.9891 241.027 81.9749C241.303 81.9607 241.568 81.8603 241.785 81.6878C242.001 81.5153 242.158 81.2793 242.233 81.0131C242.509 81.3226 242.845 81.5729 243.22 81.7488C243.414 81.8311 243.628 81.852 243.834 81.8088C244.04 81.7655 244.227 81.6601 244.371 81.5069C244.489 81.328 244.545 81.1157 244.532 80.9019C244.519 80.6882 244.436 80.4846 244.297 80.3218C244.017 79.9975 243.656 79.7538 243.25 79.6156C242.025 79.0772 240.679 78.8727 239.349 79.0231C238.012 79.1836 236.788 79.8498 235.927 80.8847" fill="#65617D"/>
<g opacity="0.4">
<path opacity="0.4" d="M245.033 80.5933C244.17 79.6912 242.991 79.1599 241.744 79.1119C238.692 78.9786 232.984 80.6921 230.219 86.2227C229.873 85.0974 229.648 83.9387 229.547 82.7661C229.547 81.9661 230.041 77.191 234.939 75.6899C234.939 75.6998 242.342 72.8752 245.033 80.5933Z" fill="#5C546A"/>
</g>
<path d="M230.648 85.166C232.216 82.8309 234.272 80.8632 236.673 79.3984C239.053 77.9169 242.983 76.4355 245.689 75.7245C246.492 75.4591 247.343 75.3699 248.183 75.4628C248.602 75.5158 248.997 75.6856 249.324 75.9528C249.65 76.2201 249.895 76.5739 250.03 76.9738C250.287 77.996 248.475 79.5712 247.62 80.1884C246.787 80.7459 245.923 81.2569 245.033 81.7192C245.033 81.7192 245.057 79.823 242.025 79.4329C237.902 78.9046 230.648 85.166 230.648 85.166Z" fill="#4770FF"/>
<path d="M275.564 199.106C275.543 199.057 275.53 199.005 275.525 198.953C275.525 198.839 275.476 198.686 275.436 198.498C275.362 198.084 275.253 197.511 275.12 196.75C274.848 195.21 274.468 193.012 273.994 190.301C273.071 184.84 271.797 177.319 270.389 169.013C269.762 165.251 269.165 161.656 268.617 158.372L268.745 158.476L254.568 159.498L250.499 159.774L249.413 159.839H249.136H249.037H249.131L249.413 159.804L250.494 159.705L254.558 159.36L268.725 158.229H268.834V158.337C269.387 161.621 269.994 165.216 270.626 168.974C272.004 177.285 273.249 184.81 274.157 190.277C274.592 192.992 274.947 195.215 275.199 196.735L275.466 198.498C275.495 198.686 275.515 198.839 275.53 198.953C275.548 199.002 275.559 199.053 275.564 199.106Z" fill="#5C546A"/>
<path d="M272.063 154.827C272.108 154.886 271.244 155.626 270.266 156.624C269.288 157.621 268.557 158.495 268.498 158.446C269.409 156.994 270.625 155.759 272.063 154.827Z" fill="#5C546A"/>
<path d="M248.761 121.89C248.705 121.73 248.668 121.565 248.652 121.396C248.598 121.006 248.534 120.532 248.455 119.984C248.292 118.725 248.079 117.105 247.847 115.313C247.615 113.52 247.447 111.856 247.354 110.631C247.299 110.034 247.265 109.545 247.245 109.209C247.221 109.035 247.221 108.859 247.245 108.686C247.297 108.846 247.331 109.012 247.349 109.18C247.403 109.57 247.467 110.039 247.541 110.592C247.699 111.851 247.902 113.471 248.124 115.263C248.346 117.056 248.539 118.72 248.657 119.939C248.712 120.542 248.751 121.026 248.776 121.367C248.791 121.541 248.786 121.717 248.761 121.89Z" fill="#65617D"/>
</svg>
