<svg width="412" height="732" viewBox="0 0 412 732" fill="none" xmlns="http://www.w3.org/2000/svg">
<g clip-path="url(#clip0)">
<rect width="411" height="731" transform="translate(0.19458 0.6604)" fill="#4770FF"/>
<path d="M454.982 281.877C454.982 405.535 343.054 505.779 204.982 505.779C66.9113 505.779 -45.0175 405.535 -45.0175 281.877C-45.0175 158.219 -96.6852 -24.1081 41.386 -24.1081C104.623 -24.1081 312.516 -19.0576 402.612 -24.1093C494.067 42.6528 454.982 214.855 454.982 281.877Z" fill="white"/>
<path d="M159.029 568.436C159.899 568.573 160.689 568.928 161.399 569.5C162.132 570.073 162.704 570.783 163.117 571.63C163.552 572.477 163.769 573.382 163.769 574.343C163.769 575.557 163.46 576.656 162.842 577.64C162.224 578.602 161.319 579.369 160.128 579.942C158.961 580.491 157.575 580.766 155.972 580.766H147.042V556.827H155.629C157.255 556.827 158.64 557.101 159.785 557.651C160.93 558.178 161.788 558.899 162.361 559.815C162.933 560.731 163.22 561.761 163.22 562.906C163.22 564.326 162.83 565.505 162.052 566.444C161.296 567.359 160.289 568.023 159.029 568.436ZM150.168 567.165H155.423C156.888 567.165 158.022 566.821 158.823 566.134C159.625 565.448 160.025 564.497 160.025 563.284C160.025 562.07 159.625 561.12 158.823 560.433C158.022 559.746 156.865 559.403 155.354 559.403H150.168V567.165ZM155.698 578.19C157.255 578.19 158.468 577.824 159.338 577.091C160.209 576.358 160.644 575.339 160.644 574.034C160.644 572.706 160.186 571.664 159.27 570.909C158.354 570.13 157.129 569.741 155.595 569.741H150.168V578.19H155.698ZM171.232 555.35V580.766H168.106V555.35H171.232ZM178.173 558.887C177.578 558.887 177.074 558.681 176.662 558.269C176.25 557.857 176.044 557.353 176.044 556.758C176.044 556.163 176.25 555.659 176.662 555.247C177.074 554.835 177.578 554.628 178.173 554.628C178.746 554.628 179.226 554.835 179.616 555.247C180.028 555.659 180.234 556.163 180.234 556.758C180.234 557.353 180.028 557.857 179.616 558.269C179.226 558.681 178.746 558.887 178.173 558.887ZM179.684 561.944V580.766H176.559V561.944H179.684ZM188.824 564.52V575.614C188.824 576.53 189.018 577.183 189.408 577.572C189.797 577.938 190.472 578.121 191.434 578.121H193.735V580.766H190.919C189.179 580.766 187.873 580.365 187.003 579.564C186.133 578.762 185.698 577.446 185.698 575.614V564.52H183.26V561.944H185.698V557.204H188.824V561.944H193.735V564.52H188.824ZM199.858 578.19H209.097V580.766H196.286V578.19L205.422 564.486H196.354V561.944H209.028V564.486L199.858 578.19ZM220.812 564.52H216.862V580.766H213.736V564.52H211.298V561.944H213.736V560.605C213.736 558.498 214.274 556.964 215.351 556.002C216.45 555.018 218.201 554.525 220.606 554.525V557.136C219.232 557.136 218.259 557.41 217.686 557.96C217.137 558.487 216.862 559.368 216.862 560.605V561.944H220.812V564.52ZM241.148 561.944V580.766H238.023V577.984C237.427 578.946 236.592 579.701 235.515 580.251C234.462 580.777 233.294 581.041 232.012 581.041C230.547 581.041 229.23 580.743 228.062 580.148C226.894 579.53 225.967 578.614 225.28 577.4C224.616 576.186 224.284 574.71 224.284 572.969V561.944H227.375V572.557C227.375 574.412 227.845 575.843 228.784 576.851C229.722 577.835 231.005 578.327 232.63 578.327C234.302 578.327 235.618 577.812 236.58 576.782C237.542 575.751 238.023 574.252 238.023 572.282V561.944H241.148ZM245.258 571.286C245.258 569.363 245.647 567.68 246.425 566.237C247.204 564.772 248.269 563.639 249.62 562.837C250.994 562.036 252.528 561.635 254.222 561.635C255.688 561.635 257.05 561.979 258.309 562.665C259.569 563.329 260.53 564.211 261.194 565.31V555.35H264.354V580.766H261.194V577.228C260.576 578.35 259.66 579.278 258.447 580.01C257.233 580.72 255.813 581.075 254.188 581.075C252.516 581.075 250.994 580.663 249.62 579.839C248.269 579.014 247.204 577.858 246.425 576.37C245.647 574.881 245.258 573.187 245.258 571.286ZM261.194 571.321C261.194 569.901 260.908 568.665 260.336 567.611C259.763 566.558 258.985 565.757 258 565.207C257.038 564.635 255.974 564.348 254.806 564.348C253.638 564.348 252.573 564.623 251.612 565.173C250.65 565.722 249.883 566.524 249.311 567.577C248.738 568.63 248.452 569.867 248.452 571.286C248.452 572.729 248.738 573.988 249.311 575.064C249.883 576.118 250.65 576.931 251.612 577.503C252.573 578.053 253.638 578.327 254.806 578.327C255.974 578.327 257.038 578.053 258 577.503C258.985 576.931 259.763 576.118 260.336 575.064C260.908 573.988 261.194 572.74 261.194 571.321ZM156.245 605.306H153.945V614.766H152.125V605.306H150.705V603.806H152.125V603.026C152.125 601.799 152.439 600.906 153.065 600.346C153.705 599.773 154.725 599.486 156.125 599.486V601.006C155.325 601.006 154.759 601.166 154.425 601.486C154.105 601.793 153.945 602.306 153.945 603.026V603.806H156.245V605.306ZM163.147 614.946C162.121 614.946 161.187 614.713 160.347 614.246C159.521 613.779 158.867 613.119 158.387 612.266C157.921 611.399 157.687 610.399 157.687 609.266C157.687 608.146 157.927 607.159 158.407 606.306C158.901 605.439 159.567 604.779 160.407 604.326C161.247 603.859 162.187 603.626 163.227 603.626C164.267 603.626 165.207 603.859 166.047 604.326C166.887 604.779 167.547 605.433 168.027 606.286C168.521 607.139 168.767 608.133 168.767 609.266C168.767 610.399 168.514 611.399 168.007 612.266C167.514 613.119 166.841 613.779 165.987 614.246C165.134 614.713 164.187 614.946 163.147 614.946ZM163.147 613.346C163.801 613.346 164.414 613.193 164.987 612.886C165.561 612.579 166.021 612.119 166.367 611.506C166.727 610.893 166.907 610.146 166.907 609.266C166.907 608.386 166.734 607.639 166.387 607.026C166.041 606.413 165.587 605.959 165.027 605.666C164.467 605.359 163.861 605.206 163.207 605.206C162.541 605.206 161.927 605.359 161.367 605.666C160.821 605.959 160.381 606.413 160.047 607.026C159.714 607.639 159.547 608.386 159.547 609.266C159.547 610.159 159.707 610.913 160.027 611.526C160.361 612.139 160.801 612.599 161.347 612.906C161.894 613.199 162.494 613.346 163.147 613.346ZM172.98 605.586C173.3 604.959 173.754 604.473 174.34 604.126C174.94 603.779 175.667 603.606 176.52 603.606V605.486H176.04C174 605.486 172.98 606.593 172.98 608.806V614.766H171.16V603.806H172.98V605.586ZM188.293 600.826C189.813 600.826 191.127 601.113 192.233 601.686C193.353 602.246 194.207 603.053 194.793 604.106C195.393 605.159 195.693 606.399 195.693 607.826C195.693 609.253 195.393 610.493 194.793 611.546C194.207 612.586 193.353 613.386 192.233 613.946C191.127 614.493 189.813 614.766 188.293 614.766H183.953V600.826H188.293ZM188.293 613.266C190.093 613.266 191.467 612.793 192.413 611.846C193.36 610.886 193.833 609.546 193.833 607.826C193.833 606.093 193.353 604.739 192.393 603.766C191.447 602.793 190.08 602.306 188.293 602.306H185.773V613.266H188.293ZM208.094 608.866C208.094 609.213 208.074 609.579 208.034 609.966H199.274C199.341 611.046 199.707 611.893 200.374 612.506C201.054 613.106 201.874 613.406 202.834 613.406C203.621 613.406 204.274 613.226 204.794 612.866C205.327 612.493 205.701 611.999 205.914 611.386H207.874C207.581 612.439 206.994 613.299 206.114 613.966C205.234 614.619 204.141 614.946 202.834 614.946C201.794 614.946 200.861 614.713 200.034 614.246C199.221 613.779 198.581 613.119 198.114 612.266C197.647 611.399 197.414 610.399 197.414 609.266C197.414 608.133 197.641 607.139 198.094 606.286C198.547 605.433 199.181 604.779 199.994 604.326C200.821 603.859 201.767 603.626 202.834 603.626C203.874 603.626 204.794 603.853 205.594 604.306C206.394 604.759 207.007 605.386 207.434 606.186C207.874 606.973 208.094 607.866 208.094 608.866ZM206.214 608.486C206.214 607.793 206.061 607.199 205.754 606.706C205.447 606.199 205.027 605.819 204.494 605.566C203.974 605.299 203.394 605.166 202.754 605.166C201.834 605.166 201.047 605.459 200.394 606.046C199.754 606.633 199.387 607.446 199.294 608.486H206.214ZM212.316 599.966V614.766H210.496V599.966H212.316ZM216.358 602.026C216.012 602.026 215.718 601.906 215.478 601.666C215.238 601.426 215.118 601.133 215.118 600.786C215.118 600.439 215.238 600.146 215.478 599.906C215.718 599.666 216.012 599.546 216.358 599.546C216.692 599.546 216.972 599.666 217.198 599.906C217.438 600.146 217.558 600.439 217.558 600.786C217.558 601.133 217.438 601.426 217.198 601.666C216.972 601.906 216.692 602.026 216.358 602.026ZM217.238 603.806V614.766H215.418V603.806H217.238ZM224.42 613.086L227.82 603.806H229.76L225.46 614.766H223.34L219.04 603.806H221L224.42 613.086ZM241.551 608.866C241.551 609.213 241.531 609.579 241.491 609.966H232.731C232.798 611.046 233.164 611.893 233.831 612.506C234.511 613.106 235.331 613.406 236.291 613.406C237.078 613.406 237.731 613.226 238.251 612.866C238.784 612.493 239.158 611.999 239.371 611.386H241.331C241.038 612.439 240.451 613.299 239.571 613.966C238.691 614.619 237.598 614.946 236.291 614.946C235.251 614.946 234.318 614.713 233.491 614.246C232.678 613.779 232.038 613.119 231.571 612.266C231.104 611.399 230.871 610.399 230.871 609.266C230.871 608.133 231.098 607.139 231.551 606.286C232.004 605.433 232.638 604.779 233.451 604.326C234.278 603.859 235.224 603.626 236.291 603.626C237.331 603.626 238.251 603.853 239.051 604.306C239.851 604.759 240.464 605.386 240.891 606.186C241.331 606.973 241.551 607.866 241.551 608.866ZM239.671 608.486C239.671 607.793 239.518 607.199 239.211 606.706C238.904 606.199 238.484 605.819 237.951 605.566C237.431 605.299 236.851 605.166 236.211 605.166C235.291 605.166 234.504 605.459 233.851 606.046C233.211 606.633 232.844 607.446 232.751 608.486H239.671ZM245.773 605.586C246.093 604.959 246.547 604.473 247.133 604.126C247.733 603.779 248.46 603.606 249.313 603.606V605.486H248.833C246.793 605.486 245.773 606.593 245.773 608.806V614.766H243.953V603.806H245.773V605.586ZM260.854 603.806L254.254 619.926H252.374L254.534 614.646L250.114 603.806H252.134L255.574 612.686L258.974 603.806H260.854Z" fill="#FAFAFE"/>
<path d="M167.004 696.833C167.377 696.179 167.924 695.646 168.644 695.233C169.364 694.819 170.184 694.613 171.104 694.613C172.09 694.613 172.977 694.846 173.764 695.313C174.55 695.779 175.17 696.439 175.624 697.293C176.077 698.133 176.304 699.113 176.304 700.233C176.304 701.339 176.077 702.326 175.624 703.193C175.17 704.059 174.544 704.733 173.744 705.213C172.957 705.693 172.077 705.933 171.104 705.933C170.157 705.933 169.324 705.726 168.604 705.313C167.897 704.899 167.364 704.373 167.004 703.733V705.753H165.184V690.953H167.004V696.833ZM174.444 700.233C174.444 699.406 174.277 698.686 173.944 698.073C173.61 697.459 173.157 696.993 172.584 696.673C172.024 696.353 171.404 696.193 170.724 696.193C170.057 696.193 169.437 696.359 168.864 696.693C168.304 697.013 167.85 697.486 167.504 698.113C167.17 698.726 167.004 699.439 167.004 700.253C167.004 701.079 167.17 701.806 167.504 702.433C167.85 703.046 168.304 703.519 168.864 703.853C169.437 704.173 170.057 704.333 170.724 704.333C171.404 704.333 172.024 704.173 172.584 703.853C173.157 703.519 173.61 703.046 173.944 702.433C174.277 701.806 174.444 701.073 174.444 700.233ZM188.139 694.793L181.539 710.913H179.659L181.819 705.633L177.399 694.793H179.419L182.859 703.673L186.259 694.793H188.139ZM199.721 705.893C198.801 705.893 197.974 705.733 197.241 705.413C196.521 705.079 195.954 704.626 195.541 704.053C195.128 703.466 194.914 702.793 194.901 702.033H196.841C196.908 702.686 197.174 703.239 197.641 703.693C198.121 704.133 198.814 704.353 199.721 704.353C200.588 704.353 201.268 704.139 201.761 703.713C202.268 703.273 202.521 702.713 202.521 702.033C202.521 701.499 202.374 701.066 202.081 700.733C201.788 700.399 201.421 700.146 200.981 699.973C200.541 699.799 199.948 699.613 199.201 699.413C198.281 699.173 197.541 698.933 196.981 698.693C196.434 698.453 195.961 698.079 195.561 697.573C195.174 697.053 194.981 696.359 194.981 695.493C194.981 694.733 195.174 694.059 195.561 693.473C195.948 692.886 196.488 692.433 197.181 692.113C197.888 691.793 198.694 691.633 199.601 691.633C200.908 691.633 201.974 691.959 202.801 692.613C203.641 693.266 204.114 694.133 204.221 695.213H202.221C202.154 694.679 201.874 694.213 201.381 693.813C200.888 693.399 200.234 693.193 199.421 693.193C198.661 693.193 198.041 693.393 197.561 693.793C197.081 694.179 196.841 694.726 196.841 695.433C196.841 695.939 196.981 696.353 197.261 696.673C197.554 696.993 197.908 697.239 198.321 697.413C198.748 697.573 199.341 697.759 200.101 697.973C201.021 698.226 201.761 698.479 202.321 698.733C202.881 698.973 203.361 699.353 203.761 699.873C204.161 700.379 204.361 701.073 204.361 701.953C204.361 702.633 204.181 703.273 203.821 703.873C203.461 704.473 202.928 704.959 202.221 705.333C201.514 705.706 200.681 705.893 199.721 705.893ZM208.859 696.813C209.219 696.186 209.753 695.666 210.459 695.253C211.179 694.826 212.013 694.613 212.959 694.613C213.933 694.613 214.813 694.846 215.599 695.313C216.399 695.779 217.026 696.439 217.479 697.293C217.933 698.133 218.159 699.113 218.159 700.233C218.159 701.339 217.933 702.326 217.479 703.193C217.026 704.059 216.399 704.733 215.599 705.213C214.813 705.693 213.933 705.933 212.959 705.933C212.026 705.933 211.199 705.726 210.479 705.313C209.773 704.886 209.233 704.359 208.859 703.733V710.953H207.039V694.793H208.859V696.813ZM216.299 700.233C216.299 699.406 216.133 698.686 215.799 698.073C215.466 697.459 215.013 696.993 214.439 696.673C213.879 696.353 213.259 696.193 212.579 696.193C211.913 696.193 211.293 696.359 210.719 696.693C210.159 697.013 209.706 697.486 209.359 698.113C209.026 698.726 208.859 699.439 208.859 700.253C208.859 701.079 209.026 701.806 209.359 702.433C209.706 703.046 210.159 703.519 210.719 703.853C211.293 704.173 211.913 704.333 212.579 704.333C213.259 704.333 213.879 704.173 214.439 703.853C215.013 703.519 215.466 703.046 215.799 702.433C216.133 701.806 216.299 701.073 216.299 700.233ZM221.495 693.013C221.148 693.013 220.855 692.893 220.615 692.653C220.375 692.413 220.255 692.119 220.255 691.773C220.255 691.426 220.375 691.133 220.615 690.893C220.855 690.653 221.148 690.533 221.495 690.533C221.828 690.533 222.108 690.653 222.335 690.893C222.575 691.133 222.695 691.426 222.695 691.773C222.695 692.119 222.575 692.413 222.335 692.653C222.108 692.893 221.828 693.013 221.495 693.013ZM222.375 694.793V705.753H220.555V694.793H222.375ZM231.597 705.753L227.297 700.913V705.753H225.477V690.953H227.297V699.653L231.517 694.793H234.057L228.897 700.253L234.077 705.753H231.597ZM235.09 700.233C235.09 699.113 235.316 698.133 235.77 697.293C236.223 696.439 236.843 695.779 237.63 695.313C238.43 694.846 239.316 694.613 240.29 694.613C241.25 694.613 242.083 694.819 242.79 695.233C243.496 695.646 244.023 696.166 244.37 696.793V694.793H246.21V705.753H244.37V703.713C244.01 704.353 243.47 704.886 242.75 705.313C242.043 705.726 241.216 705.933 240.27 705.933C239.296 705.933 238.416 705.693 237.63 705.213C236.843 704.733 236.223 704.059 235.77 703.193C235.316 702.326 235.09 701.339 235.09 700.233ZM244.37 700.253C244.37 699.426 244.203 698.706 243.87 698.093C243.536 697.479 243.083 697.013 242.51 696.693C241.95 696.359 241.33 696.193 240.65 696.193C239.97 696.193 239.35 696.353 238.79 696.673C238.23 696.993 237.783 697.459 237.45 698.073C237.116 698.686 236.95 699.406 236.95 700.233C236.95 701.073 237.116 701.806 237.45 702.433C237.783 703.046 238.23 703.519 238.79 703.853C239.35 704.173 239.97 704.333 240.65 704.333C241.33 704.333 241.95 704.173 242.51 703.853C243.083 703.519 243.536 703.046 243.87 702.433C244.203 701.806 244.37 701.079 244.37 700.253Z" fill="#FAFAFE"/>
<g clip-path="url(#clip1)">
<path d="M269.405 173.413V148.932C269.405 145.549 266.673 142.816 263.29 142.816H134.101C130.718 142.816 127.985 145.549 127.985 148.932V173.413C124.794 173.604 122.252 176.26 122.252 179.509V204.678C122.24 209.304 123.176 213.883 125.004 218.132C125.826 220.081 126.839 221.916 127.985 223.655V289.587C127.985 292.951 130.718 295.703 134.101 295.703H263.29C266.673 295.703 269.405 292.97 269.405 289.587V223.655C270.57 221.912 271.568 220.062 272.387 218.132C274.202 213.87 275.139 209.341 275.139 204.678V179.509C275.139 176.26 272.597 173.604 269.405 173.413ZM141.745 156.576H255.646V173.394H141.745V156.576ZM210.926 281.962H186.464V262.068H210.926V281.962ZM255.722 281.962H223.157V255.952C223.157 252.57 220.424 249.837 217.042 249.837H180.349C176.966 249.837 174.233 252.57 174.233 255.952V281.962H141.745V235.676C142.299 235.943 142.873 236.211 143.465 236.44C147.727 238.237 152.256 239.135 156.919 239.135C161.582 239.135 166.092 238.237 170.373 236.44C173.01 235.332 175.495 233.918 177.769 232.217C177.807 232.198 177.845 232.198 177.884 232.217C180.165 233.925 182.649 235.343 185.28 236.44C189.541 238.237 194.07 239.135 198.734 239.135C203.397 239.135 207.907 238.237 212.188 236.44C214.825 235.332 217.309 233.918 219.583 232.217C219.622 232.198 219.66 232.198 219.698 232.217C221.979 233.925 224.464 235.343 227.094 236.44C231.356 238.237 235.885 239.135 240.548 239.135C245.211 239.135 249.721 238.237 254.002 236.44C254.575 236.192 255.149 235.943 255.722 235.676V281.962ZM261.379 204.678C261.379 216.106 252.015 225.375 240.491 225.375C232.694 225.375 225.89 221.151 222.297 214.883C221.743 213.928 220.749 213.335 219.641 213.335H219.526C218.437 213.335 217.424 213.928 216.87 214.883C215.036 218.081 212.389 220.736 209.197 222.579C206.004 224.421 202.381 225.386 198.695 225.375C190.917 225.375 184.133 221.171 180.54 214.921C179.967 213.947 178.935 213.335 177.807 213.335C176.68 213.335 175.629 213.947 175.074 214.921C173.23 218.107 170.579 220.75 167.389 222.585C164.198 224.42 160.581 225.383 156.9 225.375C145.376 225.375 136.012 216.106 136.012 204.678V187.249C136.012 187.192 136.05 187.153 136.107 187.153H261.283C261.341 187.153 261.379 187.192 261.379 187.249V204.678Z" fill="#4770FF"/>
</g>
<g clip-path="url(#clip2)">
<mask id="path-5-outside-1" maskUnits="userSpaceOnUse" x="56.2282" y="350.647" width="166.577" height="161.307" fill="black">
<rect fill="white" x="56.2282" y="350.647" width="166.577" height="161.307"/>
<path d="M90.7663 389.432L112.055 396.039C115.729 397.179 117.79 401.097 116.649 404.773L109.044 429.276L117.007 431.747C117.064 430.001 117.489 428.053 118.282 425.878L118.282 425.878C121.351 416.599 125.485 409.26 130.57 404.064C134.518 400.029 138.281 398.044 141.277 397.088C139.309 393.219 138.95 388.473 140.463 383.597C143.186 374.823 152.4 369.858 161.002 372.528C169.604 375.197 174.387 384.507 171.664 393.28C171.349 394.296 170.27 394.863 169.255 394.548L168.005 394.16C167.905 394.89 167.747 395.616 167.524 396.334C165.605 402.517 159.583 406.313 153.383 405.659C153.29 408.122 152.762 410.897 151.816 413.942L155.178 419.31L166.058 423.677L180.252 423.416C181.554 423.39 183.029 423.362 183.929 424.558C184.816 425.738 184.368 427.183 184.221 427.657L181.25 437.228C180.935 438.244 179.856 438.812 178.841 438.497L176.652 437.817L176.408 450.463C176.388 451.526 175.509 452.371 174.446 452.351C173.382 452.331 172.538 451.452 172.558 450.389L172.822 436.629L167.594 435.006C167.943 456.854 160.125 468.938 150.265 480.563L153.57 481.589L172.116 470.468L172.326 459.506C172.347 458.443 173.225 457.597 174.288 457.618C175.352 457.639 176.197 458.517 176.177 459.58L175.976 470.065C184.633 472.594 190.494 480.923 189.806 490.076C189.726 491.136 188.802 491.931 187.742 491.851L184.945 491.642C183.462 498.776 176.872 503.896 169.418 503.338C168.286 503.254 167.183 503.043 166.125 502.715C163.515 501.905 161.178 500.377 159.351 498.252C157.207 495.758 155.985 492.691 155.811 489.46L153.604 489.295C152.947 489.246 152.342 489.138 151.858 488.644C151.407 488.185 151.211 487.547 151.26 486.912C151.317 486.27 151.409 485.627 151.532 484.989L113.071 473.053C109.468 480.318 101.173 484.063 93.4027 481.651C85.6323 479.24 80.9148 471.456 82.0581 463.428L80.6546 462.992C80.6546 462.992 80.3751 462.909 80.3115 462.889C79.7856 462.726 79.0441 462.432 78.6173 461.604C78.4037 461.189 78.2137 460.507 78.522 459.614C79.1097 457.903 79.8867 456.315 80.8212 454.866C82.1162 445.519 85.2065 440.54 88.6112 436.95C87.559 435.674 87.1462 433.911 87.6721 432.216L89.2407 427.162L79.952 424.279C76.2783 423.139 74.2175 419.221 75.3583 415.545L82.0353 394.03C83.1756 390.354 87.0923 388.292 90.7663 389.432ZM162.271 495.742C164.168 497.948 166.807 499.282 169.705 499.498L169.705 499.499C175.037 499.898 179.774 496.364 181.064 491.354L159.692 489.755C159.914 491.954 160.8 494.031 162.271 495.742ZM155.342 485.564L185.991 487.859C185.659 481.129 180.961 475.284 174.36 473.613L155.485 484.932C155.433 485.142 155.385 485.353 155.342 485.564ZM137.511 444.898C137.608 446.471 137.069 448.207 136.324 450.61L134.17 457.549L140.904 459.639L143.858 450.119C147.199 439.355 141.92 435.614 139.382 434.479L121.353 428.884C120.667 431.349 120.679 433.257 121.384 434.684C122.205 436.347 124.098 437.62 127.17 438.577L133.769 440.632C136.123 441.363 137.382 442.798 137.511 444.898ZM133.029 461.227L131.666 465.618C131.683 465.623 131.7 465.628 131.717 465.634L144.779 469.688C145.055 468.28 144.958 467.095 144.488 466.149C143.788 464.744 142.379 464.129 141.601 463.887L133.029 461.227ZM122.575 425.232L139.299 430.422C140.627 428.517 141.944 426.389 143.174 424.163L139.114 419.285C136.897 416.621 136.244 413.626 137.321 411.067C138.275 408.8 140.514 407.204 143.023 407.002C145.315 406.818 147.43 407.756 148.984 409.598C149.37 407.789 149.56 406.126 149.543 404.66C148.784 404.336 148.053 403.941 147.359 403.479C145.915 402.634 144.655 401.612 143.594 400.445C139.396 401.462 129.476 405.908 122.575 425.232ZM168.423 390.258C169.379 384.113 165.825 378.057 159.86 376.206C153.286 374.165 146.234 377.993 144.141 384.738C142.438 390.224 143.697 395.462 147.335 398.724L150.338 389.048C150.858 387.373 152.137 385.517 155.277 386.186C155.334 386.198 155.39 386.213 155.446 386.231L168.423 390.258ZM163.846 395.193C164.071 394.467 164.208 393.733 164.258 392.998L154.395 389.936C154.277 389.913 154.19 389.901 154.127 389.895C154.096 389.96 154.058 390.055 154.016 390.19L150.677 400.948C151.095 401.148 151.526 401.318 151.967 401.455C151.971 401.456 151.975 401.457 151.979 401.459C156.971 403.003 162.294 400.194 163.846 395.193ZM157.409 424.356L153.162 422.651C152.784 422.5 152.464 422.232 152.247 421.886L146.484 412.686L146.484 412.684C145.927 411.793 145.22 411.206 144.43 410.96C144.078 410.851 143.71 410.81 143.331 410.84C142.239 410.928 141.273 411.603 140.87 412.561C140.363 413.765 140.791 415.279 142.073 416.821L149.068 425.225L156.429 427.509L157.408 424.355L157.409 424.356ZM164.985 427.396L160.994 425.795L160.108 428.651L164.865 430.128C165.481 430.319 165.791 429.853 165.942 429.429C166.027 429.188 166.384 427.959 164.985 427.396ZM169.732 427.477C170.004 428.557 169.933 429.7 169.57 430.72C169.476 430.984 169.362 431.231 169.236 431.467C169.234 431.473 169.236 431.479 169.233 431.483L178.143 434.248L180.309 427.267L169.729 427.461C169.73 427.467 169.73 427.472 169.732 427.477ZM163.713 433.802L147.383 428.734C147.028 428.624 146.712 428.413 146.474 428.127L145.809 427.328C144.859 428.974 143.869 430.555 142.867 432.027C146.274 434.298 151.117 439.723 147.536 451.26L144.525 460.965C145.734 461.626 147.074 462.701 147.936 464.433C148.844 466.259 149.021 468.406 148.47 470.833L152.18 471.984C159.261 462.371 164.241 451.348 163.713 433.802ZM146.265 479.315C147.43 477.963 148.568 476.609 149.67 475.238L130.576 469.312C128.101 468.544 127.196 467.028 127.886 464.806L129.922 458.247L132.075 451.307L117.56 446.802C116.544 446.487 115.977 445.409 116.292 444.393C116.607 443.377 117.686 442.809 118.701 443.124L133.203 447.625C133.504 446.573 133.702 445.698 133.667 445.134C133.651 444.86 133.636 444.623 132.626 444.31L126.026 442.254C121.892 440.966 119.244 439.048 117.931 436.388C117.87 436.265 117.816 436.139 117.761 436.013L106.064 432.383L92.9178 428.303L91.3492 433.357C91.153 433.989 91.5201 434.689 92.1508 434.884L110.458 440.566C111.474 440.881 112.042 441.96 111.726 442.976C111.411 443.992 110.333 444.559 109.317 444.244L92.0899 438.898C89.7991 441.145 87.4499 444.096 85.8816 449.424C91.0882 445.499 97.9865 444.077 104.671 446.152C110.039 447.818 114.423 451.487 117.015 456.483C119.315 460.917 119.962 465.945 118.901 470.83L146.265 479.315ZM94.5438 477.974C100.293 479.758 106.426 477.121 109.335 471.893L85.7942 464.588C85.2324 470.542 88.7952 476.19 94.5438 477.974ZM84.8466 460.261L112.565 468.864L115.207 469.684C116.884 461.088 111.946 452.442 103.53 449.83C96.1406 447.537 88.4234 450.483 84.2517 456.666C84.2384 456.685 84.2251 456.705 84.2111 456.724C83.6169 457.612 83.0955 458.567 82.6587 459.582L84.8466 460.261ZM79.0356 416.686C78.5242 418.334 79.4472 420.09 81.0929 420.601L105.367 428.134L108.314 418.638L81.0554 410.178L79.0356 416.686ZM82.1968 406.5L109.455 414.96L110.669 411.049L83.4106 402.589L82.1968 406.5ZM84.5521 398.911L111.81 407.371L112.971 403.631C113.482 401.983 112.559 400.227 110.914 399.717L89.6249 393.11C87.9791 392.599 86.224 393.524 85.7127 395.172L84.5521 398.911Z"/>
</mask>
<path d="M90.7663 389.432L112.055 396.039C115.729 397.179 117.79 401.097 116.649 404.773L109.044 429.276L117.007 431.747C117.064 430.001 117.489 428.053 118.282 425.878L118.282 425.878C121.351 416.599 125.485 409.26 130.57 404.064C134.518 400.029 138.281 398.044 141.277 397.088C139.309 393.219 138.95 388.473 140.463 383.597C143.186 374.823 152.4 369.858 161.002 372.528C169.604 375.197 174.387 384.507 171.664 393.28C171.349 394.296 170.27 394.863 169.255 394.548L168.005 394.16C167.905 394.89 167.747 395.616 167.524 396.334C165.605 402.517 159.583 406.313 153.383 405.659C153.29 408.122 152.762 410.897 151.816 413.942L155.178 419.31L166.058 423.677L180.252 423.416C181.554 423.39 183.029 423.362 183.929 424.558C184.816 425.738 184.368 427.183 184.221 427.657L181.25 437.228C180.935 438.244 179.856 438.812 178.841 438.497L176.652 437.817L176.408 450.463C176.388 451.526 175.509 452.371 174.446 452.351C173.382 452.331 172.538 451.452 172.558 450.389L172.822 436.629L167.594 435.006C167.943 456.854 160.125 468.938 150.265 480.563L153.57 481.589L172.116 470.468L172.326 459.506C172.347 458.443 173.225 457.597 174.288 457.618C175.352 457.639 176.197 458.517 176.177 459.58L175.976 470.065C184.633 472.594 190.494 480.923 189.806 490.076C189.726 491.136 188.802 491.931 187.742 491.851L184.945 491.642C183.462 498.776 176.872 503.896 169.418 503.338C168.286 503.254 167.183 503.043 166.125 502.715C163.515 501.905 161.178 500.377 159.351 498.252C157.207 495.758 155.985 492.691 155.811 489.46L153.604 489.295C152.947 489.246 152.342 489.138 151.858 488.644C151.407 488.185 151.211 487.547 151.26 486.912C151.317 486.27 151.409 485.627 151.532 484.989L113.071 473.053C109.468 480.318 101.173 484.063 93.4027 481.651C85.6323 479.24 80.9148 471.456 82.0581 463.428L80.6546 462.992C80.6546 462.992 80.3751 462.909 80.3115 462.889C79.7856 462.726 79.0441 462.432 78.6173 461.604C78.4037 461.189 78.2137 460.507 78.522 459.614C79.1097 457.903 79.8867 456.315 80.8212 454.866C82.1162 445.519 85.2065 440.54 88.6112 436.95C87.559 435.674 87.1462 433.911 87.6721 432.216L89.2407 427.162L79.952 424.279C76.2783 423.139 74.2175 419.221 75.3583 415.545L82.0353 394.03C83.1756 390.354 87.0923 388.292 90.7663 389.432ZM162.271 495.742C164.168 497.948 166.807 499.282 169.705 499.498L169.705 499.499C175.037 499.898 179.774 496.364 181.064 491.354L159.692 489.755C159.914 491.954 160.8 494.031 162.271 495.742ZM155.342 485.564L185.991 487.859C185.659 481.129 180.961 475.284 174.36 473.613L155.485 484.932C155.433 485.142 155.385 485.353 155.342 485.564ZM137.511 444.898C137.608 446.471 137.069 448.207 136.324 450.61L134.17 457.549L140.904 459.639L143.858 450.119C147.199 439.355 141.92 435.614 139.382 434.479L121.353 428.884C120.667 431.349 120.679 433.257 121.384 434.684C122.205 436.347 124.098 437.62 127.17 438.577L133.769 440.632C136.123 441.363 137.382 442.798 137.511 444.898ZM133.029 461.227L131.666 465.618C131.683 465.623 131.7 465.628 131.717 465.634L144.779 469.688C145.055 468.28 144.958 467.095 144.488 466.149C143.788 464.744 142.379 464.129 141.601 463.887L133.029 461.227ZM122.575 425.232L139.299 430.422C140.627 428.517 141.944 426.389 143.174 424.163L139.114 419.285C136.897 416.621 136.244 413.626 137.321 411.067C138.275 408.8 140.514 407.204 143.023 407.002C145.315 406.818 147.43 407.756 148.984 409.598C149.37 407.789 149.56 406.126 149.543 404.66C148.784 404.336 148.053 403.941 147.359 403.479C145.915 402.634 144.655 401.612 143.594 400.445C139.396 401.462 129.476 405.908 122.575 425.232ZM168.423 390.258C169.379 384.113 165.825 378.057 159.86 376.206C153.286 374.165 146.234 377.993 144.141 384.738C142.438 390.224 143.697 395.462 147.335 398.724L150.338 389.048C150.858 387.373 152.137 385.517 155.277 386.186C155.334 386.198 155.39 386.213 155.446 386.231L168.423 390.258ZM163.846 395.193C164.071 394.467 164.208 393.733 164.258 392.998L154.395 389.936C154.277 389.913 154.19 389.901 154.127 389.895C154.096 389.96 154.058 390.055 154.016 390.19L150.677 400.948C151.095 401.148 151.526 401.318 151.967 401.455C151.971 401.456 151.975 401.457 151.979 401.459C156.971 403.003 162.294 400.194 163.846 395.193ZM157.409 424.356L153.162 422.651C152.784 422.5 152.464 422.232 152.247 421.886L146.484 412.686L146.484 412.684C145.927 411.793 145.22 411.206 144.43 410.96C144.078 410.851 143.71 410.81 143.331 410.84C142.239 410.928 141.273 411.603 140.87 412.561C140.363 413.765 140.791 415.279 142.073 416.821L149.068 425.225L156.429 427.509L157.408 424.355L157.409 424.356ZM164.985 427.396L160.994 425.795L160.108 428.651L164.865 430.128C165.481 430.319 165.791 429.853 165.942 429.429C166.027 429.188 166.384 427.959 164.985 427.396ZM169.732 427.477C170.004 428.557 169.933 429.7 169.57 430.72C169.476 430.984 169.362 431.231 169.236 431.467C169.234 431.473 169.236 431.479 169.233 431.483L178.143 434.248L180.309 427.267L169.729 427.461C169.73 427.467 169.73 427.472 169.732 427.477ZM163.713 433.802L147.383 428.734C147.028 428.624 146.712 428.413 146.474 428.127L145.809 427.328C144.859 428.974 143.869 430.555 142.867 432.027C146.274 434.298 151.117 439.723 147.536 451.26L144.525 460.965C145.734 461.626 147.074 462.701 147.936 464.433C148.844 466.259 149.021 468.406 148.47 470.833L152.18 471.984C159.261 462.371 164.241 451.348 163.713 433.802ZM146.265 479.315C147.43 477.963 148.568 476.609 149.67 475.238L130.576 469.312C128.101 468.544 127.196 467.028 127.886 464.806L129.922 458.247L132.075 451.307L117.56 446.802C116.544 446.487 115.977 445.409 116.292 444.393C116.607 443.377 117.686 442.809 118.701 443.124L133.203 447.625C133.504 446.573 133.702 445.698 133.667 445.134C133.651 444.86 133.636 444.623 132.626 444.31L126.026 442.254C121.892 440.966 119.244 439.048 117.931 436.388C117.87 436.265 117.816 436.139 117.761 436.013L106.064 432.383L92.9178 428.303L91.3492 433.357C91.153 433.989 91.5201 434.689 92.1508 434.884L110.458 440.566C111.474 440.881 112.042 441.96 111.726 442.976C111.411 443.992 110.333 444.559 109.317 444.244L92.0899 438.898C89.7991 441.145 87.4499 444.096 85.8816 449.424C91.0882 445.499 97.9865 444.077 104.671 446.152C110.039 447.818 114.423 451.487 117.015 456.483C119.315 460.917 119.962 465.945 118.901 470.83L146.265 479.315ZM94.5438 477.974C100.293 479.758 106.426 477.121 109.335 471.893L85.7942 464.588C85.2324 470.542 88.7952 476.19 94.5438 477.974ZM84.8466 460.261L112.565 468.864L115.207 469.684C116.884 461.088 111.946 452.442 103.53 449.83C96.1406 447.537 88.4234 450.483 84.2517 456.666C84.2384 456.685 84.2251 456.705 84.2111 456.724C83.6169 457.612 83.0955 458.567 82.6587 459.582L84.8466 460.261ZM79.0356 416.686C78.5242 418.334 79.4472 420.09 81.0929 420.601L105.367 428.134L108.314 418.638L81.0554 410.178L79.0356 416.686ZM82.1968 406.5L109.455 414.96L110.669 411.049L83.4106 402.589L82.1968 406.5ZM84.5521 398.911L111.81 407.371L112.971 403.631C113.482 401.983 112.559 400.227 110.914 399.717L89.6249 393.11C87.9791 392.599 86.224 393.524 85.7127 395.172L84.5521 398.911Z" fill="#4770FF"/>
<path d="M90.7663 389.432L112.055 396.039C115.729 397.179 117.79 401.097 116.649 404.773L109.044 429.276L117.007 431.747C117.064 430.001 117.489 428.053 118.282 425.878L118.282 425.878C121.351 416.599 125.485 409.26 130.57 404.064C134.518 400.029 138.281 398.044 141.277 397.088C139.309 393.219 138.95 388.473 140.463 383.597C143.186 374.823 152.4 369.858 161.002 372.528C169.604 375.197 174.387 384.507 171.664 393.28C171.349 394.296 170.27 394.863 169.255 394.548L168.005 394.16C167.905 394.89 167.747 395.616 167.524 396.334C165.605 402.517 159.583 406.313 153.383 405.659C153.29 408.122 152.762 410.897 151.816 413.942L155.178 419.31L166.058 423.677L180.252 423.416C181.554 423.39 183.029 423.362 183.929 424.558C184.816 425.738 184.368 427.183 184.221 427.657L181.25 437.228C180.935 438.244 179.856 438.812 178.841 438.497L176.652 437.817L176.408 450.463C176.388 451.526 175.509 452.371 174.446 452.351C173.382 452.331 172.538 451.452 172.558 450.389L172.822 436.629L167.594 435.006C167.943 456.854 160.125 468.938 150.265 480.563L153.57 481.589L172.116 470.468L172.326 459.506C172.347 458.443 173.225 457.597 174.288 457.618C175.352 457.639 176.197 458.517 176.177 459.58L175.976 470.065C184.633 472.594 190.494 480.923 189.806 490.076C189.726 491.136 188.802 491.931 187.742 491.851L184.945 491.642C183.462 498.776 176.872 503.896 169.418 503.338C168.286 503.254 167.183 503.043 166.125 502.715C163.515 501.905 161.178 500.377 159.351 498.252C157.207 495.758 155.985 492.691 155.811 489.46L153.604 489.295C152.947 489.246 152.342 489.138 151.858 488.644C151.407 488.185 151.211 487.547 151.26 486.912C151.317 486.27 151.409 485.627 151.532 484.989L113.071 473.053C109.468 480.318 101.173 484.063 93.4027 481.651C85.6323 479.24 80.9148 471.456 82.0581 463.428L80.6546 462.992C80.6546 462.992 80.3751 462.909 80.3115 462.889C79.7856 462.726 79.0441 462.432 78.6173 461.604C78.4037 461.189 78.2137 460.507 78.522 459.614C79.1097 457.903 79.8867 456.315 80.8212 454.866C82.1162 445.519 85.2065 440.54 88.6112 436.95C87.559 435.674 87.1462 433.911 87.6721 432.216L89.2407 427.162L79.952 424.279C76.2783 423.139 74.2175 419.221 75.3583 415.545L82.0353 394.03C83.1756 390.354 87.0923 388.292 90.7663 389.432ZM162.271 495.742C164.168 497.948 166.807 499.282 169.705 499.498L169.705 499.499C175.037 499.898 179.774 496.364 181.064 491.354L159.692 489.755C159.914 491.954 160.8 494.031 162.271 495.742ZM155.342 485.564L185.991 487.859C185.659 481.129 180.961 475.284 174.36 473.613L155.485 484.932C155.433 485.142 155.385 485.353 155.342 485.564ZM137.511 444.898C137.608 446.471 137.069 448.207 136.324 450.61L134.17 457.549L140.904 459.639L143.858 450.119C147.199 439.355 141.92 435.614 139.382 434.479L121.353 428.884C120.667 431.349 120.679 433.257 121.384 434.684C122.205 436.347 124.098 437.62 127.17 438.577L133.769 440.632C136.123 441.363 137.382 442.798 137.511 444.898ZM133.029 461.227L131.666 465.618C131.683 465.623 131.7 465.628 131.717 465.634L144.779 469.688C145.055 468.28 144.958 467.095 144.488 466.149C143.788 464.744 142.379 464.129 141.601 463.887L133.029 461.227ZM122.575 425.232L139.299 430.422C140.627 428.517 141.944 426.389 143.174 424.163L139.114 419.285C136.897 416.621 136.244 413.626 137.321 411.067C138.275 408.8 140.514 407.204 143.023 407.002C145.315 406.818 147.43 407.756 148.984 409.598C149.37 407.789 149.56 406.126 149.543 404.66C148.784 404.336 148.053 403.941 147.359 403.479C145.915 402.634 144.655 401.612 143.594 400.445C139.396 401.462 129.476 405.908 122.575 425.232ZM168.423 390.258C169.379 384.113 165.825 378.057 159.86 376.206C153.286 374.165 146.234 377.993 144.141 384.738C142.438 390.224 143.697 395.462 147.335 398.724L150.338 389.048C150.858 387.373 152.137 385.517 155.277 386.186C155.334 386.198 155.39 386.213 155.446 386.231L168.423 390.258ZM163.846 395.193C164.071 394.467 164.208 393.733 164.258 392.998L154.395 389.936C154.277 389.913 154.19 389.901 154.127 389.895C154.096 389.96 154.058 390.055 154.016 390.19L150.677 400.948C151.095 401.148 151.526 401.318 151.967 401.455C151.971 401.456 151.975 401.457 151.979 401.459C156.971 403.003 162.294 400.194 163.846 395.193ZM157.409 424.356L153.162 422.651C152.784 422.5 152.464 422.232 152.247 421.886L146.484 412.686L146.484 412.684C145.927 411.793 145.22 411.206 144.43 410.96C144.078 410.851 143.71 410.81 143.331 410.84C142.239 410.928 141.273 411.603 140.87 412.561C140.363 413.765 140.791 415.279 142.073 416.821L149.068 425.225L156.429 427.509L157.408 424.355L157.409 424.356ZM164.985 427.396L160.994 425.795L160.108 428.651L164.865 430.128C165.481 430.319 165.791 429.853 165.942 429.429C166.027 429.188 166.384 427.959 164.985 427.396ZM169.732 427.477C170.004 428.557 169.933 429.7 169.57 430.72C169.476 430.984 169.362 431.231 169.236 431.467C169.234 431.473 169.236 431.479 169.233 431.483L178.143 434.248L180.309 427.267L169.729 427.461C169.73 427.467 169.73 427.472 169.732 427.477ZM163.713 433.802L147.383 428.734C147.028 428.624 146.712 428.413 146.474 428.127L145.809 427.328C144.859 428.974 143.869 430.555 142.867 432.027C146.274 434.298 151.117 439.723 147.536 451.26L144.525 460.965C145.734 461.626 147.074 462.701 147.936 464.433C148.844 466.259 149.021 468.406 148.47 470.833L152.18 471.984C159.261 462.371 164.241 451.348 163.713 433.802ZM146.265 479.315C147.43 477.963 148.568 476.609 149.67 475.238L130.576 469.312C128.101 468.544 127.196 467.028 127.886 464.806L129.922 458.247L132.075 451.307L117.56 446.802C116.544 446.487 115.977 445.409 116.292 444.393C116.607 443.377 117.686 442.809 118.701 443.124L133.203 447.625C133.504 446.573 133.702 445.698 133.667 445.134C133.651 444.86 133.636 444.623 132.626 444.31L126.026 442.254C121.892 440.966 119.244 439.048 117.931 436.388C117.87 436.265 117.816 436.139 117.761 436.013L106.064 432.383L92.9178 428.303L91.3492 433.357C91.153 433.989 91.5201 434.689 92.1508 434.884L110.458 440.566C111.474 440.881 112.042 441.96 111.726 442.976C111.411 443.992 110.333 444.559 109.317 444.244L92.0899 438.898C89.7991 441.145 87.4499 444.096 85.8816 449.424C91.0882 445.499 97.9865 444.077 104.671 446.152C110.039 447.818 114.423 451.487 117.015 456.483C119.315 460.917 119.962 465.945 118.901 470.83L146.265 479.315ZM94.5438 477.974C100.293 479.758 106.426 477.121 109.335 471.893L85.7942 464.588C85.2324 470.542 88.7952 476.19 94.5438 477.974ZM84.8466 460.261L112.565 468.864L115.207 469.684C116.884 461.088 111.946 452.442 103.53 449.83C96.1406 447.537 88.4234 450.483 84.2517 456.666C84.2384 456.685 84.2251 456.705 84.2111 456.724C83.6169 457.612 83.0955 458.567 82.6587 459.582L84.8466 460.261ZM79.0356 416.686C78.5242 418.334 79.4472 420.09 81.0929 420.601L105.367 428.134L108.314 418.638L81.0554 410.178L79.0356 416.686ZM82.1968 406.5L109.455 414.96L110.669 411.049L83.4106 402.589L82.1968 406.5ZM84.5521 398.911L111.81 407.371L112.971 403.631C113.482 401.983 112.559 400.227 110.914 399.717L89.6249 393.11C87.9791 392.599 86.224 393.524 85.7127 395.172L84.5521 398.911Z" stroke="#4770FF" stroke-width="2" mask="url(#path-5-outside-1)"/>
</g>
</g>
<defs>
<clipPath id="clip0">
<rect width="411" height="731" fill="white" transform="translate(0.19458 0.6604)"/>
</clipPath>
<clipPath id="clip1">
<rect width="153" height="154" fill="white" transform="translate(122.195 142.66)"/>
</clipPath>
<clipPath id="clip2">
<rect width="131.446" height="131.446" fill="white" transform="matrix(-0.955063 -0.296402 -0.296402 0.955063 221.664 387.591)"/>
</clipPath>
</defs>
</svg>
