<svg width="281" height="233" viewBox="0 0 281 233" fill="none" xmlns="http://www.w3.org/2000/svg">
<path d="M200.373 53.1207H198.388C197.997 53.1207 197.68 53.4379 197.68 53.8292V80.4447C197.68 80.836 197.997 81.1532 198.388 81.1532H200.373C200.764 81.1532 201.081 80.836 201.081 80.4447V53.8292C201.081 53.4379 200.764 53.1207 200.373 53.1207Z" fill="#3F3D56"/>
<path d="M187.451 0.660156H97.7892C91.1268 0.660156 85.7258 6.0611 85.7258 12.7235V219.856C85.7258 226.519 91.1268 231.92 97.7892 231.92H187.451C194.114 231.92 199.515 226.519 199.515 219.856V12.7235C199.515 6.0611 194.114 0.660156 187.451 0.660156Z" fill="#3F3D56"/>
<path d="M183.677 6.68384H170.625V8.25402C170.625 9.2314 170.432 10.1992 170.058 11.1021C169.684 12.0051 169.135 12.8254 168.444 13.5163C167.753 14.2073 166.932 14.7552 166.029 15.1289C165.126 15.5025 164.158 15.6946 163.18 15.6941H121.669C120.692 15.6946 119.724 15.5025 118.821 15.1289C117.918 14.7552 117.097 14.2073 116.406 13.5163C115.714 12.8254 115.166 12.0051 114.792 11.1021C114.418 10.1992 114.225 9.2314 114.225 8.25402V6.68384H102.004C99.6071 6.68384 97.3085 7.63596 95.6137 9.33075C93.9189 11.0255 92.9668 13.3242 92.9668 15.721V216.875C92.9668 219.271 93.9189 221.57 95.6137 223.265C97.3085 224.96 99.6071 225.912 102.004 225.912H183.677C186.074 225.912 188.373 224.96 190.068 223.265C191.762 221.57 192.714 219.271 192.714 216.875V15.7365C192.716 14.5484 192.484 13.3716 192.031 12.2733C191.578 11.1751 190.912 10.177 190.073 9.33622C189.234 8.49541 188.237 7.82835 187.139 7.37323C186.042 6.9181 184.865 6.68384 183.677 6.68384Z" fill="white"/>
<path d="M146.337 7.56653H132.842C132.181 7.56653 131.645 8.10261 131.645 8.76389V9.594C131.645 10.2553 132.181 10.7914 132.842 10.7914H146.337C146.998 10.7914 147.534 10.2553 147.534 9.594V8.76389C147.534 8.10261 146.998 7.56653 146.337 7.56653Z" fill="#E6E8EC"/>
<path d="M151.769 11.0104C152.78 11.0104 153.6 10.1905 153.6 9.17909C153.6 8.16769 152.78 7.34778 151.769 7.34778C150.757 7.34778 149.938 8.16769 149.938 9.17909C149.938 10.1905 150.757 11.0104 151.769 11.0104Z" fill="#E6E8EC"/>
<path d="M143.315 140.655C155.204 140.655 164.841 131.017 164.841 119.129C164.841 107.241 155.204 97.6035 143.315 97.6035C131.427 97.6035 121.79 107.241 121.79 119.129C121.79 131.017 131.427 140.655 143.315 140.655Z" fill="white"/>
<path d="M171.627 116.123C171.627 121.813 169.94 127.376 166.778 132.107C163.617 136.838 159.124 140.525 153.867 142.703C148.609 144.88 142.825 145.449 137.244 144.339C131.663 143.229 126.537 140.489 122.514 136.465C118.49 132.441 115.75 127.315 114.641 121.734C113.531 116.153 114.101 110.369 116.278 105.112C118.456 99.8548 122.144 95.3617 126.875 92.2006C131.606 89.0395 137.168 87.3524 142.859 87.3525C146.637 87.3527 150.378 88.0969 153.868 89.5429C157.359 90.9888 160.53 93.1081 163.202 95.7797C165.873 98.4513 167.992 101.623 169.438 105.113C170.884 108.604 171.628 112.345 171.627 116.123ZM139.533 131.352L160.874 110.011C161.047 109.838 161.184 109.634 161.277 109.408C161.371 109.183 161.419 108.942 161.419 108.698C161.419 108.454 161.371 108.212 161.277 107.987C161.184 107.762 161.047 107.557 160.874 107.385L158.248 104.778C158.076 104.605 157.872 104.468 157.647 104.375C157.422 104.282 157.181 104.233 156.937 104.233C156.694 104.233 156.452 104.282 156.227 104.375C156.002 104.468 155.798 104.605 155.626 104.778L138.22 122.184L130.093 114.038C129.744 113.691 129.272 113.496 128.78 113.496C128.288 113.496 127.816 113.691 127.467 114.038L124.841 116.679C124.494 117.028 124.3 117.5 124.3 117.992C124.3 118.484 124.494 118.956 124.841 119.305L136.908 131.367C137.08 131.54 137.285 131.677 137.51 131.77C137.735 131.864 137.977 131.912 138.221 131.912C138.465 131.912 138.706 131.864 138.931 131.77C139.157 131.677 139.361 131.54 139.534 131.367L139.533 131.352Z" fill="#4770FF"/>
<path d="M89.2884 46.2517H88.9905C88.5992 46.2517 88.282 46.5689 88.282 46.9602V53.839C88.282 54.2303 88.5992 54.5475 88.9905 54.5475H89.2884C89.6797 54.5475 89.997 54.2303 89.997 53.839V46.9602C89.997 46.5689 89.6797 46.2517 89.2884 46.2517Z" fill="#3F3D56"/>
<path d="M89.4439 61.4421H88.9285C88.5372 61.4421 88.22 61.7594 88.22 62.1507V75.1719C88.22 75.5632 88.5372 75.8804 88.9285 75.8804H89.4439C89.8352 75.8804 90.1525 75.5632 90.1525 75.1719V62.1507C90.1525 61.7594 89.8352 61.4421 89.4439 61.4421Z" fill="#3F3D56"/>
<path d="M89.3816 80.9325H88.9592C88.5679 80.9325 88.2507 81.2497 88.2507 81.641V94.7863C88.2507 95.1776 88.5679 95.4948 88.9592 95.4948H89.3816C89.7729 95.4948 90.0901 95.1776 90.0901 94.7863V81.641C90.0901 81.2497 89.7729 80.9325 89.3816 80.9325Z" fill="#3F3D56"/>
<path d="M65.4583 119.44C65.5074 119.488 65.5706 119.518 65.6384 119.527C65.7062 119.536 65.7749 119.522 65.8345 119.489C65.7074 119.491 65.5807 119.474 65.4583 119.44Z" fill="url(#paint0_linear)"/>
<path d="M79.6791 125.003L79.3078 127.025L79.0213 128.572L78.5003 131.402L73.4482 134.939C73.4482 134.939 72.9927 134.549 72.2415 133.935C70.171 132.23 65.8194 128.758 62.6239 126.895C61.802 126.371 60.9127 125.961 59.9805 125.677L79.6791 125.003Z" fill="#FEB9B9"/>
<path d="M75.9729 126.508C75.9729 126.508 81.8635 127.519 82.2084 125.003C82.5534 122.487 79.1764 121.128 76.3145 120.958C73.4525 120.789 56.2755 121.97 56.2755 121.97C56.2755 121.97 53.2456 126.011 64.1883 126.687L75.9729 126.508Z" fill="#3F3D56"/>
<path d="M88.8549 43.4944H58.0391V80.0353H88.8549V43.4944Z" fill="#2F2E41"/>
<path opacity="0.1" d="M88.8549 43.6603H58.0391V80.2012H88.8549V43.6603Z" fill="black"/>
<path d="M21.9229 106.047C21.4155 106.175 20.767 106.666 20.0458 107.376C16.9401 110.451 12.4919 117.666 12.4919 117.666C6.80488 110.892 13.098 105.54 15.7805 103.701C16.4327 103.255 16.8708 103.01 16.8708 103.01L21.9229 106.047Z" fill="#FEB9B9"/>
<path d="M79.341 55.0271C79.341 55.0271 80.857 65.635 86.0769 68.161C91.2967 70.6869 79.341 75.4076 79.341 75.4076L63.0083 69.341C63.0083 69.341 72.2704 66.3089 70.4171 57.3838L79.341 55.0271Z" fill="#FEB9B9"/>
<path d="M61.828 118.847L61.4586 120.862L61.1585 122.415L60.6375 125.245L55.5854 128.778C55.5854 128.778 55.1299 128.392 54.3787 127.778C52.3083 126.073 47.9569 122.601 44.7565 120.738C43.935 120.213 43.0456 119.803 42.113 119.52L61.828 118.847Z" fill="#FEB9B9"/>
<path d="M57.4578 121.332C57.4578 121.332 62.7445 121.369 63.0625 118.846C63.3806 116.324 60.1814 114.971 57.4578 114.802C54.7342 114.633 38.1859 115.892 38.1859 115.892C38.1859 115.892 35.8382 120.656 46.2472 121.332L57.4578 121.332Z" fill="#2F2E41"/>
<path d="M94.5244 160.964C94.2933 160.85 94.0619 160.733 93.8341 160.619L93.2129 159.836L85.0656 149.504V149.683C85.0105 151.409 84.4239 165.081 79.8479 166.344C74.965 167.69 69.0744 168.028 66.3892 158.935C63.7039 149.842 58.7975 129.972 53.759 128.792L61.2541 122.647C61.2541 122.647 66.2165 128.451 68.2384 134.007C68.1626 133.662 64.7358 117.65 67.5482 114.817H92.1374C92.1374 114.817 95.9334 125.628 98.5351 130.984C100.561 135.142 103.601 144.973 105.558 151.627C107.496 158.196 100.688 163.997 94.5244 160.964Z" fill="#3F3D56"/>
<path opacity="0.1" d="M93.824 117.835C90.028 120.082 73.3639 119.167 67.9427 118.802L66.4657 118.695C66.3069 118.695 66.4898 118.605 66.4898 118.605L66.6417 117.076L70.6827 106.806L92.3194 94.2592C91.881 95.5809 91.7362 97.6031 91.7708 99.9186C91.8708 107.359 93.824 117.835 93.824 117.835Z" fill="black"/>
<path d="M93.8241 117.328C90.0281 119.575 73.364 118.66 67.9428 118.295L66.4657 118.191L66.2207 118.17L66.4899 118.101L67.8218 117.756L70.6825 106.306L92.3192 93.7626C91.8811 95.0843 91.736 97.1065 91.7706 99.422C91.8708 106.855 93.8241 117.328 93.8241 117.328Z" fill="#EFEFEF"/>
<path opacity="0.1" d="M91.7568 99.4149C87.3569 100.429 77.6741 103.406 73.9539 110.596C71.4728 115.382 69.385 117.435 67.9287 118.294L66.4517 118.191C66.4613 118.161 66.4694 118.131 66.4758 118.101L67.8077 117.756L70.6684 106.306L92.3051 93.7626C91.8719 95.0772 91.7222 97.0994 91.7568 99.4149Z" fill="black"/>
<path opacity="0.1" d="M16.8708 103.018L21.923 106.048C21.4155 106.176 20.767 106.667 20.0458 107.376C19.6248 106.148 16.9828 104.433 15.7805 103.701C16.4324 103.263 16.8708 103.018 16.8708 103.018Z" fill="black"/>
<path opacity="0.1" d="M65.5513 118.388C65.4959 118.416 65.4329 118.427 65.3711 118.419C65.3092 118.41 65.2516 118.382 65.2063 118.339C65.3183 118.372 65.4345 118.388 65.5513 118.388Z" fill="black"/>
<path d="M76.9841 67.4881C76.9841 67.4881 72.436 67.9918 69.2372 64.624C69.2372 64.624 55.7785 68.4992 51.2205 77.2539C46.6624 86.0085 15.6768 103.187 15.6768 103.187C15.6768 103.187 21.0671 106.217 20.5596 107.732L40.9368 95.9435C40.9368 95.9435 48.1834 90.7259 50.1954 89.5459C52.2074 88.3658 63.3327 81.126 65.6897 100.827C68.0466 120.528 65.6897 118.171 65.6897 118.171C65.6897 118.171 69.0577 119.351 73.9406 109.92C78.8235 100.488 93.9762 98.3005 93.9762 98.3005L94.818 88.3689C94.818 88.3689 97.8238 81.7847 95.5083 79.0518C94.8068 78.2426 94.3402 77.2568 94.159 76.2013C93.776 73.6788 94.159 69.4757 99.5215 65.9835C107.772 60.5932 110.971 56.2177 110.971 56.2177C110.971 56.2177 111.14 53.0155 106.088 51.5004C101.037 49.9853 80.4936 41.7346 80.4936 41.7346L79.8034 44.5987L96.012 56.0383C96.012 56.0383 87.9303 62.5947 81.5187 62.436C81.5183 62.436 82.7089 67.3189 76.9841 67.4881Z" fill="#4770FF"/>
<path opacity="0.1" d="M80.1035 59.6443C79.7053 58.2945 79.3941 56.9205 79.1719 55.5309L70.248 57.8885C70.6414 59.5921 70.5711 61.3699 70.0444 63.0371C71.8689 63.524 73.7965 63.4617 75.5858 62.8582C77.3751 62.2547 78.9466 61.1368 80.1035 59.6443Z" fill="black"/>
<path d="M72.6913 62.8573C77.9915 62.8573 82.2882 58.5606 82.2882 53.2604C82.2882 47.9602 77.9915 43.6636 72.6913 43.6636C67.3911 43.6636 63.0945 47.9602 63.0945 53.2604C63.0945 58.5606 67.3911 62.8573 72.6913 62.8573Z" fill="#FEB9B9"/>
<path opacity="0.1" d="M83.1301 130.548C83.1301 130.548 88.6859 141.494 87.0019 144.859L83.1301 130.548Z" fill="black"/>
<path d="M77.7947 31.0957C80.4586 31.3995 82.9882 32.5415 85.611 33.1662C86.2665 33.3699 86.9643 33.3961 87.6332 33.242C88.6511 32.9279 89.4793 31.8618 90.5353 31.8927C91.185 31.9134 91.7602 32.3552 92.2952 32.7794C93.1529 33.436 93.9603 34.1558 94.7106 34.9328C96.5187 36.8962 97.6403 39.5397 99.2897 41.6758C100.939 43.8119 103.291 46.3167 105.634 45.3372C104.04 51.5486 99.0688 55.4343 93.4201 55.8211C91.1668 55.9757 88.8581 55.507 86.6772 56.166C86.1339 56.3887 85.5603 56.5283 84.9755 56.58C83.7193 56.58 82.7082 55.4275 81.9248 54.3059C80.0889 51.6696 78.6363 48.6777 76.5692 46.2725C75.8789 45.4755 75.0819 44.7196 74.1157 44.5748C73.1494 44.43 72.2627 44.8923 71.4035 45.3375C69.9852 46.0726 68.536 46.8316 67.4352 48.0982C66.3344 49.3649 65.6407 51.2349 66.0961 52.9294C66.3412 53.8474 66.9006 54.6757 66.9105 55.6348C66.9312 57.1669 65.5785 58.2851 65.3128 59.7758C65.2527 60.4019 65.2308 61.0311 65.2472 61.66C65.1299 63.702 63.793 65.3727 62.4007 66.6601C61.8556 67.157 61.256 67.6954 61.0963 68.4648C60.9893 68.9926 61.0963 69.5477 61.0273 70.0833C60.8237 71.4084 59.502 72.0813 58.3322 72.254C56.9654 72.4564 55.5693 72.2908 54.2877 71.7744C55.9235 71.0009 56.9312 68.7999 56.5516 66.8294C56.0306 64.0962 53.2838 62.1327 53.5195 59.3516C53.6486 58.4982 53.9045 57.669 54.2788 56.8913C54.8773 55.3883 55.3124 53.8253 55.5764 52.2293C55.7834 50.9973 55.8836 49.6894 55.4969 48.5128C55.1519 47.4429 54.4307 46.5909 53.8196 45.6865C52.9916 44.4562 52.3378 43.1172 51.8769 41.7077C51.7099 41.2895 51.6462 40.8373 51.6913 40.3893C51.8297 39.8602 52.1244 39.3852 52.5369 39.0261C54.0381 37.4482 55.6426 35.81 57.6546 35.3579C58.6145 35.1985 59.5908 35.1614 60.5601 35.2475C62.2459 35.3003 63.9333 35.2288 65.6085 35.0334C66.9888 34.8712 69.3213 34.892 70.4914 33.9981C71.5817 33.1628 72.1962 32.1139 73.5384 31.5827C74.8976 31.0788 76.3587 30.9119 77.7966 31.096L77.7947 31.0957Z" fill="#2F2E41"/>
<path d="M256.115 231.345C263.803 231.345 270.036 230.291 270.036 228.991C270.036 227.691 263.803 226.637 256.115 226.637C248.426 226.637 242.193 227.691 242.193 228.991C242.193 230.291 248.426 231.345 256.115 231.345Z" fill="#4770FF"/>
<path d="M261.872 225.141C262.507 224.622 262.969 223.923 263.198 223.137C263.371 222.344 263.032 221.404 262.27 221.097C261.418 220.772 260.506 221.364 259.819 221.959C259.131 222.555 258.337 223.237 257.433 223.109C257.898 222.688 258.247 222.154 258.444 221.559C258.642 220.964 258.681 220.328 258.56 219.712C258.519 219.457 258.41 219.218 258.245 219.02C257.774 218.514 256.914 218.729 256.351 219.131C254.551 220.394 254.049 222.844 254.038 225.04C253.855 224.248 254.01 223.42 254.004 222.617C253.997 221.814 253.779 220.884 253.09 220.46C252.665 220.232 252.187 220.12 251.705 220.134C250.895 220.104 249.994 220.186 249.441 220.778C248.748 221.512 248.935 222.745 249.531 223.548C250.126 224.351 251.037 224.867 251.875 225.424C252.544 225.824 253.115 226.37 253.545 227.021C253.597 227.112 253.638 227.208 253.669 227.308H258.727C259.868 226.731 260.925 226.002 261.871 225.142L261.872 225.141Z" fill="#4770FF"/>
<path d="M66.8417 232.384C71.9157 232.384 76.0289 231.688 76.0289 230.83C76.0289 229.972 71.9157 229.276 66.8417 229.276C61.7678 229.276 57.6545 229.972 57.6545 230.83C57.6545 231.688 61.7678 232.384 66.8417 232.384Z" fill="#EFEFEF"/>
<path d="M70.6413 228.29C71.06 227.947 71.3651 227.486 71.5163 226.967C71.5829 226.706 71.5585 226.431 71.4472 226.186C71.3358 225.941 71.1442 225.742 70.904 225.621C70.3418 225.406 69.741 225.797 69.2865 226.19C68.832 226.583 68.3085 227.033 67.7123 226.948C68.0192 226.671 68.2489 226.318 68.379 225.926C68.5091 225.533 68.5353 225.113 68.4548 224.707C68.428 224.539 68.3562 224.381 68.2469 224.25C67.9375 223.917 67.3695 224.058 66.9973 224.323C65.8092 225.158 65.4778 226.772 65.471 228.223C65.35 227.7 65.4527 227.154 65.4481 226.624C65.4435 226.094 65.2996 225.482 64.8448 225.201C64.5643 225.05 64.249 224.976 63.9308 224.986C63.3962 224.966 62.8022 225.02 62.4365 225.411C61.9795 225.896 62.1029 226.709 62.4959 227.239C62.8888 227.769 63.4896 228.11 64.0428 228.477C64.485 228.74 64.8622 229.1 65.1464 229.529C65.1807 229.589 65.2083 229.652 65.2287 229.718H68.5668C69.3195 229.337 70.0173 228.856 70.6413 228.288V228.29Z" fill="#EFEFEF"/>
<path d="M14.8842 232.384C19.9582 232.384 24.0714 231.688 24.0714 230.83C24.0714 229.972 19.9582 229.276 14.8842 229.276C9.81027 229.276 5.69702 229.972 5.69702 230.83C5.69702 231.688 9.81027 232.384 14.8842 232.384Z" fill="#EFEFEF"/>
<path d="M18.6838 228.29C19.1025 227.947 19.4075 227.486 19.5588 226.967C19.6254 226.706 19.601 226.431 19.4896 226.186C19.3783 225.941 19.1866 225.742 18.9465 225.621C18.3843 225.406 17.7835 225.797 17.3289 226.19C16.8744 226.583 16.351 227.033 15.7548 226.948C16.0616 226.671 16.2913 226.318 16.4215 225.926C16.5516 225.533 16.5777 225.113 16.4973 224.707C16.4705 224.539 16.3987 224.381 16.2894 224.25C15.98 223.917 15.4119 224.058 15.0397 224.323C13.8517 225.158 13.5203 226.772 13.5135 228.223C13.3925 227.7 13.4952 227.154 13.4906 226.624C13.4859 226.094 13.3421 225.482 12.8873 225.201C12.6067 225.05 12.2915 224.976 11.9733 224.986C11.4387 224.966 10.8446 225.02 10.4789 225.411C10.022 225.896 10.1454 226.709 10.5383 227.239C10.9313 227.769 11.5321 228.11 12.0853 228.477C12.5275 228.74 12.9047 229.1 13.1889 229.529C13.2232 229.589 13.2508 229.652 13.2712 229.718H16.6093C17.362 229.337 18.0598 228.856 18.6838 228.288V228.29Z" fill="#EFEFEF"/>
<path d="M280.125 231.497H0.874756V232.06H280.125V231.497Z" fill="#2F2E41"/>
<path d="M266.494 16.292C266.494 16.292 237.343 14.5331 240.777 34.96C240.777 34.96 240.085 38.571 243.367 40.2086C243.367 40.2086 243.419 38.6957 246.358 39.2114C247.405 39.3848 248.468 39.4359 249.526 39.3636C250.954 39.2697 252.312 38.7144 253.396 37.7814C253.396 37.7814 261.591 34.3954 264.777 21.0038C264.777 21.0038 267.134 18.0818 267.041 17.3303L262.121 19.4317C262.121 19.4317 263.804 22.9805 262.468 25.9291C262.468 25.9291 262.308 19.5586 261.363 19.6972C261.173 19.7251 258.808 20.9261 258.808 20.9261C258.808 20.9261 261.699 27.106 259.518 31.6003C259.518 31.6003 260.345 23.9836 257.904 21.3729L254.442 23.3948C254.442 23.3948 257.821 29.7792 255.529 34.9897C255.529 34.9897 256.117 26.9989 253.712 23.8864L250.575 26.3341C250.575 26.3341 253.75 32.6247 251.815 36.9463C251.815 36.9463 251.562 27.6468 249.896 26.9442C249.896 26.9442 247.151 29.3677 246.732 30.3577C246.732 30.3577 248.906 34.9278 247.556 37.3374C247.556 37.3374 246.728 31.1402 246.05 31.1056C246.05 31.1056 243.315 35.2115 243.03 38.0298C243.03 38.0298 243.148 33.844 245.388 30.7179C245.388 30.7179 242.743 31.1715 241.199 32.8837C241.199 32.8837 241.625 29.9824 246.063 29.7263C246.063 29.7263 248.324 26.6103 248.926 26.4235C248.926 26.4235 244.516 26.0522 241.839 27.2406C241.839 27.2406 244.193 24.5021 249.737 25.7484L252.835 23.2175C252.835 23.2175 247.026 22.4245 244.561 23.3007C244.561 23.3007 247.396 20.8772 253.67 22.643L257.042 20.6279C257.042 20.6279 252.088 19.5614 249.138 19.9354C249.138 19.9354 252.254 18.2563 258.032 20.0775L260.456 18.9946C260.456 18.9946 256.827 18.2814 255.764 18.1672C254.701 18.0531 254.646 17.7622 254.646 17.7622C256.945 17.379 259.305 17.6415 261.463 18.5206C261.463 18.5206 266.581 16.6141 266.494 16.292Z" fill="#4770FF"/>
<path d="M226.552 5.47774C226.552 5.47774 213.396 4.68476 214.933 13.915C214.933 13.915 214.624 15.5458 216.103 16.2865C216.103 16.2865 216.127 15.5941 217.457 15.8329C217.929 15.9124 218.409 15.9357 218.886 15.9022C219.532 15.8595 220.146 15.6065 220.635 15.1819C220.635 15.1819 224.339 13.6517 225.78 7.59989C225.78 7.59989 226.842 6.28094 226.801 5.94153L224.578 6.89013C224.578 6.89013 225.336 8.49311 224.741 9.82599C224.741 9.82599 224.668 6.94861 224.242 7.01482C224.155 7.01482 223.086 7.57173 223.086 7.57173C223.086 7.57173 224.394 10.3656 223.408 12.3946C223.408 12.3946 223.781 8.95319 222.677 7.77253L221.112 8.70072C221.112 8.70072 222.639 11.5846 221.604 13.9391C221.604 13.9391 221.871 10.3281 220.783 8.92256L219.367 10.0305C219.367 10.0305 220.801 12.8729 219.928 14.8261C219.928 14.8261 219.811 10.623 219.059 10.3046C219.059 10.3046 217.82 11.3987 217.629 11.8488C217.629 11.8488 218.612 13.9261 218.003 15.0028C218.003 15.0028 217.629 12.2018 217.311 12.1873C217.311 12.1873 216.075 14.0437 215.947 15.3032C216.008 14.1282 216.376 12.9897 217.013 12.0004C216.3 12.1355 215.642 12.4761 215.119 12.9803C215.119 12.9803 215.313 11.6681 217.318 11.554C217.318 11.554 218.356 10.145 218.613 10.0583C218.613 10.0583 216.619 9.8922 215.41 10.4296C215.41 10.4296 216.473 9.19359 218.976 9.75452L220.361 8.61192C220.361 8.61192 217.734 8.26231 216.62 8.64781C216.62 8.64781 217.901 7.55379 220.737 8.35017L222.26 7.43962C222.26 7.43962 220.02 6.95851 218.688 7.13023C218.688 7.13023 220.097 6.3719 222.707 7.1921L223.798 6.70388C223.798 6.70388 222.158 6.3818 221.675 6.32982C221.193 6.27784 221.17 6.14635 221.17 6.14635C222.209 5.97345 223.276 6.09333 224.251 6.49256C224.251 6.49256 226.593 5.62192 226.552 5.47774Z" fill="#3F3D56"/>
<path d="M23.6685 146.388C23.6685 146.388 10.5124 145.595 12.0495 154.825C12.0495 154.825 11.7401 156.456 13.2196 157.197C13.2196 157.197 13.2437 156.504 14.5732 156.743C15.0454 156.823 15.5253 156.846 16.0029 156.812C16.6487 156.77 17.2628 156.517 17.7513 156.092C17.7513 156.092 21.4557 154.562 22.896 148.51C22.896 148.51 23.9587 147.191 23.917 146.852L21.6943 147.8C21.6943 147.8 22.4526 149.403 21.857 150.736C21.857 150.736 21.7843 147.859 21.3586 147.925C21.2719 147.925 20.202 148.482 20.202 148.482C20.202 148.482 21.5108 151.276 20.5241 153.305C20.5241 153.305 20.8979 149.863 19.7936 148.683L18.2287 149.611C18.2287 149.611 19.7556 152.495 18.7203 154.849C18.7203 154.849 18.9871 151.238 17.8998 149.833L16.4837 150.941C16.4837 150.941 17.9172 153.783 17.0447 155.736C17.0447 155.736 16.9271 151.533 16.1756 151.215C16.1756 151.215 14.9361 152.309 14.7455 152.759C14.7455 152.759 15.7288 154.836 15.1196 155.913C15.1196 155.913 14.7455 153.112 14.4272 153.098C14.4272 153.098 13.1911 154.954 13.0631 156.214C13.125 155.038 13.4926 153.9 14.1295 152.911C13.4163 153.046 12.758 153.386 12.2357 153.891C12.2357 153.891 12.4297 152.578 14.4343 152.464C14.4343 152.464 15.4729 151.055 15.7291 150.969C15.7291 150.969 13.7351 150.802 12.5266 151.34C12.5266 151.34 13.5893 150.104 16.0927 150.665L17.4775 149.522C17.4775 149.522 14.8507 149.173 13.7369 149.558C13.7369 149.558 15.0178 148.464 17.8534 149.26L19.3769 148.35C19.3769 148.35 17.1369 147.869 15.804 148.041C15.804 148.041 17.213 147.282 19.8236 148.102L20.9143 147.614C20.9143 147.614 19.2745 147.292 18.7918 147.24C18.3092 147.188 18.2863 147.057 18.2863 147.057C19.3256 146.884 20.3925 147.004 21.3675 147.403C21.3675 147.403 23.709 146.532 23.6685 146.388Z" fill="#3F3D56"/>
<defs>
<linearGradient id="paint0_linear" x1="65.6482" y1="119.53" x2="65.6482" y2="119.44" gradientUnits="userSpaceOnUse">
<stop stop-color="#808080" stop-opacity="0.251"/>
<stop offset="0.54" stop-color="#808080" stop-opacity="0.122"/>
<stop offset="1" stop-color="#808080" stop-opacity="0.102"/>
</linearGradient>
</defs>
</svg>
